G04 #@! TF.GenerationSoftware,KiCad,Pcbnew,8.0.7*
G04 #@! TF.CreationDate,2025-05-27T12:50:37-04:00*
G04 #@! TF.ProjectId,le-oeuf,6c652d6f-6575-4662-9e6b-696361645f70,rev?*
G04 #@! TF.SameCoordinates,Original*
G04 #@! TF.FileFunction,Copper,L2,Bot*
G04 #@! TF.FilePolarity,Positive*
%FSLAX46Y46*%
G04 Gerber Fmt 4.6, Leading zero omitted, Abs format (unit mm)*
G04 Created by KiCad (PCBNEW 8.0.7) date 2025-05-27 12:50:37*
%MOMM*%
%LPD*%
G01*
G04 APERTURE LIST*
G04 #@! TA.AperFunction,NonConductor*
%ADD10C,0.000000*%
G04 #@! TD*
G04 #@! TA.AperFunction,ComponentPad*
%ADD11O,1.200000X2.250000*%
G04 #@! TD*
G04 #@! TA.AperFunction,ComponentPad*
%ADD12R,1.700000X1.700000*%
G04 #@! TD*
G04 #@! TA.AperFunction,ComponentPad*
%ADD13O,1.700000X1.700000*%
G04 #@! TD*
G04 #@! TA.AperFunction,ComponentPad*
%ADD14R,1.350000X1.350000*%
G04 #@! TD*
G04 #@! TA.AperFunction,ComponentPad*
%ADD15O,1.350000X1.350000*%
G04 #@! TD*
G04 #@! TA.AperFunction,ViaPad*
%ADD16C,0.600000*%
G04 #@! TD*
G04 #@! TA.AperFunction,Conductor*
%ADD17C,0.200000*%
G04 #@! TD*
G04 #@! TA.AperFunction,Conductor*
%ADD18C,0.300000*%
G04 #@! TD*
G04 #@! TA.AperFunction,Conductor*
%ADD19C,0.500000*%
G04 #@! TD*
G04 APERTURE END LIST*
D10*
G04 #@! TA.AperFunction,NonConductor*
G36*
X86476395Y-99193033D02*
G01*
X86807270Y-99386569D01*
X87353586Y-99706121D01*
X88143765Y-100254815D01*
X88835829Y-100839405D01*
X90352263Y-102322152D01*
X91226770Y-103234567D01*
X92123702Y-104228061D01*
X93001736Y-105277925D01*
X93819545Y-106359446D01*
X94535804Y-107447914D01*
X94842938Y-107987030D01*
X95109187Y-108518617D01*
X95329387Y-109039584D01*
X95498370Y-109546844D01*
X95610972Y-110037308D01*
X95662026Y-110507885D01*
X95646368Y-110955489D01*
X95558831Y-111377029D01*
X95394250Y-111769417D01*
X95147459Y-112129564D01*
X94813293Y-112454381D01*
X94386585Y-112740779D01*
X93862170Y-112985669D01*
X93234883Y-113185963D01*
X92499557Y-113338572D01*
X91651027Y-113440406D01*
X90684128Y-113488377D01*
X89593694Y-113479395D01*
X87958124Y-113380626D01*
X85998281Y-113184968D01*
X81317647Y-112523966D01*
X75975538Y-111538347D01*
X70395702Y-110270070D01*
X67649057Y-109543046D01*
X65001886Y-108761093D01*
X62507157Y-107929453D01*
X60217839Y-107053374D01*
X58186899Y-106138098D01*
X56467307Y-105188872D01*
X55112030Y-104210939D01*
X54587562Y-103712847D01*
X54174037Y-103209545D01*
X53877196Y-102712275D01*
X53694463Y-102231896D01*
X53619979Y-101768398D01*
X53646284Y-101347354D01*
X71917627Y-101347354D01*
X71921315Y-101367724D01*
X71921333Y-101367724D01*
X71927004Y-101374031D01*
X71937111Y-101381052D01*
X71969546Y-101396927D01*
X72016468Y-101414724D01*
X72075709Y-101433820D01*
X72145098Y-101453591D01*
X72222466Y-101473414D01*
X72305643Y-101492664D01*
X72392459Y-101510719D01*
X72480745Y-101526954D01*
X72568332Y-101540746D01*
X72653049Y-101551472D01*
X72732727Y-101558506D01*
X72805196Y-101561227D01*
X72868287Y-101559009D01*
X72895638Y-101555854D01*
X72919830Y-101551230D01*
X72940593Y-101545060D01*
X72957655Y-101537266D01*
X72961650Y-101533205D01*
X72966415Y-101525858D01*
X72978151Y-101501738D01*
X72992647Y-101465773D01*
X73009685Y-101418830D01*
X73050522Y-101295486D01*
X73098928Y-101138647D01*
X73153170Y-100955257D01*
X73211514Y-100752259D01*
X73333571Y-100315211D01*
X73352318Y-100367945D01*
X73372649Y-100419465D01*
X73394629Y-100469593D01*
X73418325Y-100518150D01*
X73443801Y-100564955D01*
X73471124Y-100609831D01*
X73500358Y-100652598D01*
X73531570Y-100693078D01*
X73564824Y-100731090D01*
X73600186Y-100766456D01*
X73637721Y-100798998D01*
X73677495Y-100828535D01*
X73719574Y-100854890D01*
X73764023Y-100877882D01*
X73787157Y-100888061D01*
X73810907Y-100897333D01*
X73835283Y-100905675D01*
X73860292Y-100913064D01*
X73933061Y-100930735D01*
X74004756Y-100943649D01*
X74075310Y-100951484D01*
X74144653Y-100953916D01*
X74178848Y-100953006D01*
X74212716Y-100950624D01*
X74246246Y-100946731D01*
X74279430Y-100941286D01*
X74312260Y-100934249D01*
X74344727Y-100925579D01*
X74376822Y-100915236D01*
X74408537Y-100903180D01*
X74439864Y-100889371D01*
X74470793Y-100873768D01*
X74501315Y-100856331D01*
X74531424Y-100837020D01*
X74561109Y-100815795D01*
X74590362Y-100792614D01*
X74619174Y-100767439D01*
X74647538Y-100740228D01*
X74675444Y-100710942D01*
X74702884Y-100679539D01*
X74729848Y-100645980D01*
X74756329Y-100610225D01*
X74782318Y-100572233D01*
X74807807Y-100531964D01*
X74832786Y-100489377D01*
X74857246Y-100444433D01*
X74866572Y-100528574D01*
X74879022Y-100610113D01*
X74894708Y-100688829D01*
X74913742Y-100764503D01*
X74936233Y-100836914D01*
X74962294Y-100905842D01*
X74992035Y-100971066D01*
X75025568Y-101032364D01*
X75063005Y-101089519D01*
X75104455Y-101142307D01*
X75150030Y-101190510D01*
X75174400Y-101212823D01*
X75199842Y-101233907D01*
X75226372Y-101253734D01*
X75254002Y-101272277D01*
X75282747Y-101289508D01*
X75312620Y-101305399D01*
X75343636Y-101319924D01*
X75375809Y-101333054D01*
X75409151Y-101344762D01*
X75443678Y-101355021D01*
X75477593Y-101363405D01*
X75511114Y-101370004D01*
X75544241Y-101374853D01*
X75576974Y-101377983D01*
X75609311Y-101379430D01*
X75641252Y-101379226D01*
X75672797Y-101377403D01*
X75703944Y-101373997D01*
X75734692Y-101369040D01*
X75765043Y-101362564D01*
X75794993Y-101354605D01*
X75824544Y-101345194D01*
X75853693Y-101334365D01*
X75882441Y-101322152D01*
X75910787Y-101308587D01*
X75938729Y-101293705D01*
X75993403Y-101260120D01*
X76046456Y-101221664D01*
X76097884Y-101178601D01*
X76147680Y-101131200D01*
X76195839Y-101079727D01*
X76242356Y-101024448D01*
X76287225Y-100965629D01*
X76330440Y-100903538D01*
X76352044Y-100974793D01*
X76376612Y-101045237D01*
X76404316Y-101114557D01*
X76435328Y-101182441D01*
X76469821Y-101248576D01*
X76507968Y-101312651D01*
X76549940Y-101374351D01*
X76595911Y-101433365D01*
X76646052Y-101489381D01*
X76700537Y-101542085D01*
X76759539Y-101591165D01*
X76790787Y-101614248D01*
X76823228Y-101636308D01*
X76856885Y-101657306D01*
X76891779Y-101677202D01*
X76927931Y-101695958D01*
X76965363Y-101713535D01*
X77004096Y-101729893D01*
X77044153Y-101744994D01*
X77085554Y-101758797D01*
X77128322Y-101771265D01*
X77190647Y-101787479D01*
X77251657Y-101801946D01*
X77311361Y-101814659D01*
X77369769Y-101825612D01*
X77426892Y-101834801D01*
X77482738Y-101842217D01*
X77537319Y-101847856D01*
X77590643Y-101851712D01*
X77642720Y-101853777D01*
X77693561Y-101854047D01*
X77743175Y-101852516D01*
X77791573Y-101849176D01*
X77838763Y-101844023D01*
X77884756Y-101837049D01*
X77929561Y-101828250D01*
X77973189Y-101817619D01*
X77996688Y-101851000D01*
X78021339Y-101883139D01*
X78047132Y-101914008D01*
X78074057Y-101943577D01*
X78102107Y-101971818D01*
X78131271Y-101998702D01*
X78161539Y-102024200D01*
X78192904Y-102048283D01*
X78225355Y-102070923D01*
X78258883Y-102092090D01*
X78293479Y-102111755D01*
X78329133Y-102129891D01*
X78365836Y-102146467D01*
X78403580Y-102161456D01*
X78442354Y-102174827D01*
X78482149Y-102186553D01*
X78607934Y-102218870D01*
X78736791Y-102247187D01*
X78867805Y-102269463D01*
X79000059Y-102283655D01*
X79132637Y-102287721D01*
X79198761Y-102285318D01*
X79264622Y-102279619D01*
X79330107Y-102270366D01*
X79395099Y-102257306D01*
X79459486Y-102240183D01*
X79523151Y-102218741D01*
X79585982Y-102192726D01*
X79647862Y-102161882D01*
X79708679Y-102125953D01*
X79768316Y-102084685D01*
X79826660Y-102037822D01*
X79883596Y-101985109D01*
X79939009Y-101926291D01*
X79992785Y-101861112D01*
X80044810Y-101789317D01*
X80094969Y-101710651D01*
X80143147Y-101624859D01*
X80189230Y-101531685D01*
X80208913Y-101486458D01*
X81069442Y-101486458D01*
X81070285Y-101616392D01*
X81076136Y-101760501D01*
X81088440Y-101914585D01*
X81108641Y-102074442D01*
X81138185Y-102235874D01*
X81178517Y-102394679D01*
X81203179Y-102471784D01*
X81231081Y-102546658D01*
X81262402Y-102618774D01*
X81297323Y-102687610D01*
X81336024Y-102752638D01*
X81378687Y-102813335D01*
X81425492Y-102869175D01*
X81476620Y-102919633D01*
X81532250Y-102964184D01*
X81592565Y-103002303D01*
X81657744Y-103033466D01*
X81727965Y-103057146D01*
X81822010Y-103079141D01*
X81868302Y-103087132D01*
X81914081Y-103093000D01*
X81959333Y-103096658D01*
X82004042Y-103098018D01*
X82048193Y-103096993D01*
X82091772Y-103093496D01*
X82134763Y-103087439D01*
X82177150Y-103078734D01*
X82218920Y-103067295D01*
X82260056Y-103053034D01*
X82300544Y-103035863D01*
X82340368Y-103015695D01*
X82379513Y-102992443D01*
X82417965Y-102966019D01*
X82455708Y-102936335D01*
X82492728Y-102903305D01*
X82529008Y-102866841D01*
X82564534Y-102826855D01*
X82599290Y-102783259D01*
X82633263Y-102735968D01*
X82666436Y-102684892D01*
X82698794Y-102629945D01*
X82730322Y-102571039D01*
X82761006Y-102508087D01*
X82790830Y-102441002D01*
X82819779Y-102369695D01*
X82847837Y-102294080D01*
X82874991Y-102214068D01*
X82901224Y-102129574D01*
X82926521Y-102040508D01*
X83161018Y-101157490D01*
X83375663Y-100304417D01*
X83461151Y-99941367D01*
X83524408Y-99648512D01*
X83559677Y-99446754D01*
X83565017Y-99386569D01*
X83561202Y-99356997D01*
X83554551Y-99349206D01*
X83543074Y-99340369D01*
X83506836Y-99319965D01*
X83454880Y-99296609D01*
X83389595Y-99271124D01*
X83313374Y-99244332D01*
X83228607Y-99217058D01*
X83137685Y-99190125D01*
X83042999Y-99164355D01*
X82946941Y-99140571D01*
X82851900Y-99119598D01*
X82760269Y-99102258D01*
X82674437Y-99089375D01*
X82596797Y-99081771D01*
X82529739Y-99080269D01*
X82500926Y-99082065D01*
X82475655Y-99085694D01*
X82454224Y-99091261D01*
X82436934Y-99098869D01*
X82246694Y-100009099D01*
X81944490Y-101455038D01*
X81875087Y-101712239D01*
X81858330Y-101768874D01*
X81841253Y-101821687D01*
X81823579Y-101870303D01*
X81805030Y-101914344D01*
X81785328Y-101953432D01*
X81764194Y-101987191D01*
X81741351Y-102015243D01*
X81729201Y-102027011D01*
X81716520Y-102037211D01*
X81703272Y-102045796D01*
X81689423Y-102052719D01*
X81674938Y-102057932D01*
X81659782Y-102061388D01*
X81643920Y-102063041D01*
X81627319Y-102062842D01*
X81609942Y-102060746D01*
X81591756Y-102056704D01*
X81574053Y-102049333D01*
X81558049Y-102037528D01*
X81543676Y-102021567D01*
X81530867Y-102001730D01*
X81519555Y-101978295D01*
X81509672Y-101951543D01*
X81501151Y-101921753D01*
X81493925Y-101889203D01*
X81483089Y-101816944D01*
X81476627Y-101737000D01*
X81474001Y-101651604D01*
X81474674Y-101562993D01*
X81478107Y-101473399D01*
X81483763Y-101385057D01*
X81499594Y-101221066D01*
X81517867Y-101088894D01*
X81526574Y-101040326D01*
X81534279Y-101006416D01*
X81527414Y-100996841D01*
X81518921Y-100989135D01*
X81508917Y-100983208D01*
X81497519Y-100978975D01*
X81484844Y-100976347D01*
X81471008Y-100975236D01*
X81456129Y-100975556D01*
X81440323Y-100977219D01*
X81423709Y-100980137D01*
X81406402Y-100984222D01*
X81370179Y-100995547D01*
X81332590Y-101010493D01*
X81294571Y-101028361D01*
X81257058Y-101048450D01*
X81220987Y-101070060D01*
X81187294Y-101092491D01*
X81156914Y-101115044D01*
X81130783Y-101137018D01*
X81109838Y-101157714D01*
X81101602Y-101167363D01*
X81095013Y-101176431D01*
X81090189Y-101184828D01*
X81087245Y-101192469D01*
X81076999Y-101285913D01*
X81069442Y-101486458D01*
X80208913Y-101486458D01*
X80233103Y-101430874D01*
X80274652Y-101322170D01*
X80313762Y-101205319D01*
X80350319Y-101080065D01*
X80414024Y-100829601D01*
X80463568Y-100598086D01*
X80498757Y-100384707D01*
X80519397Y-100188649D01*
X80525293Y-100009099D01*
X80522652Y-99925259D01*
X80516253Y-99845241D01*
X80506071Y-99768942D01*
X80492082Y-99696261D01*
X80474261Y-99627096D01*
X80452586Y-99561345D01*
X80427030Y-99498906D01*
X80397571Y-99439678D01*
X80364183Y-99383559D01*
X80326843Y-99330447D01*
X80285526Y-99280240D01*
X80240209Y-99232836D01*
X80190866Y-99188134D01*
X80137473Y-99146032D01*
X80080008Y-99106428D01*
X80018444Y-99069220D01*
X79882925Y-99001585D01*
X79730724Y-98942313D01*
X79561647Y-98890591D01*
X79481618Y-98870615D01*
X79439105Y-98861507D01*
X79395100Y-98853193D01*
X79349733Y-98845827D01*
X79303134Y-98839566D01*
X79255435Y-98834564D01*
X79206764Y-98830977D01*
X79157252Y-98828961D01*
X79107029Y-98828669D01*
X79056226Y-98830259D01*
X79004972Y-98833885D01*
X78953399Y-98839702D01*
X78901636Y-98847865D01*
X78849813Y-98858531D01*
X78798061Y-98871854D01*
X78773807Y-98844899D01*
X78748199Y-98818810D01*
X78721233Y-98793599D01*
X78692910Y-98769276D01*
X78663226Y-98745852D01*
X78643463Y-98731518D01*
X81129469Y-98731518D01*
X81131275Y-98757684D01*
X81135303Y-98790825D01*
X81148829Y-98873788D01*
X81167647Y-98971917D01*
X81189356Y-99076720D01*
X81257112Y-99392867D01*
X81260208Y-99403980D01*
X81265468Y-99415081D01*
X81272745Y-99426118D01*
X81281890Y-99437044D01*
X81292757Y-99447807D01*
X81305198Y-99458357D01*
X81319063Y-99468646D01*
X81334206Y-99478623D01*
X81367734Y-99497441D01*
X81404598Y-99514413D01*
X81443616Y-99529139D01*
X81483604Y-99541221D01*
X81523381Y-99550259D01*
X81561762Y-99555855D01*
X81580061Y-99557237D01*
X81597567Y-99557608D01*
X81614133Y-99556920D01*
X81629611Y-99555121D01*
X81643853Y-99552163D01*
X81656711Y-99547995D01*
X81668039Y-99542566D01*
X81677687Y-99535829D01*
X81685507Y-99527731D01*
X81691353Y-99518225D01*
X81695076Y-99507259D01*
X81696529Y-99494784D01*
X81716966Y-99215584D01*
X81722290Y-99129069D01*
X81726308Y-99039506D01*
X81728323Y-98948715D01*
X81727638Y-98858515D01*
X81727098Y-98848709D01*
X81725620Y-98839287D01*
X81723238Y-98830235D01*
X81719984Y-98821543D01*
X81715892Y-98813200D01*
X81710996Y-98805193D01*
X81705328Y-98797512D01*
X81698921Y-98790145D01*
X81691810Y-98783080D01*
X81684026Y-98776305D01*
X81675604Y-98769810D01*
X81666577Y-98763583D01*
X81656978Y-98757612D01*
X81646840Y-98751885D01*
X81636197Y-98746392D01*
X81625081Y-98741121D01*
X81613526Y-98736059D01*
X81601566Y-98731197D01*
X81576560Y-98722022D01*
X81550331Y-98713503D01*
X81523143Y-98705549D01*
X81495264Y-98698068D01*
X81466958Y-98690967D01*
X81410133Y-98677538D01*
X81410133Y-98677543D01*
X81354816Y-98665031D01*
X81302437Y-98654591D01*
X81277793Y-98650685D01*
X81254417Y-98647939D01*
X81232486Y-98646569D01*
X81212178Y-98646789D01*
X81193671Y-98648813D01*
X81185148Y-98650569D01*
X81177142Y-98652856D01*
X81169675Y-98655702D01*
X81162769Y-98659133D01*
X81156447Y-98663175D01*
X81150731Y-98667857D01*
X81145642Y-98673204D01*
X81141204Y-98679243D01*
X81137438Y-98686001D01*
X81134366Y-98693505D01*
X81132011Y-98701782D01*
X81130395Y-98710859D01*
X81129541Y-98720762D01*
X81129469Y-98731518D01*
X78643463Y-98731518D01*
X78632182Y-98723336D01*
X78599775Y-98701741D01*
X78566004Y-98681077D01*
X78530868Y-98661354D01*
X78494365Y-98642583D01*
X78456494Y-98624774D01*
X78417253Y-98607939D01*
X78376641Y-98592088D01*
X78334657Y-98577232D01*
X78291299Y-98563381D01*
X78246565Y-98550546D01*
X78159004Y-98529625D01*
X78075913Y-98515427D01*
X77997178Y-98507570D01*
X77922685Y-98505673D01*
X77852319Y-98509355D01*
X77785966Y-98518235D01*
X77723512Y-98531933D01*
X77664844Y-98550068D01*
X77609847Y-98572257D01*
X77558406Y-98598122D01*
X77510409Y-98627280D01*
X77465740Y-98659352D01*
X77424285Y-98693955D01*
X77385931Y-98730709D01*
X77350563Y-98769233D01*
X77318067Y-98809147D01*
X77288329Y-98850069D01*
X77261236Y-98891619D01*
X77214523Y-98975076D01*
X77177016Y-99056472D01*
X77147803Y-99132760D01*
X77125969Y-99200892D01*
X77110603Y-99257822D01*
X77095619Y-99325883D01*
X77082493Y-99377987D01*
X77071652Y-99428976D01*
X77063042Y-99478833D01*
X77056608Y-99527542D01*
X77052295Y-99575086D01*
X77050048Y-99621447D01*
X77049813Y-99666609D01*
X77051534Y-99710554D01*
X77055157Y-99753266D01*
X77060627Y-99794727D01*
X77067889Y-99834921D01*
X77076888Y-99873830D01*
X77087570Y-99911439D01*
X77099880Y-99947729D01*
X77113762Y-99982683D01*
X77129162Y-100016286D01*
X77146025Y-100048519D01*
X77164297Y-100079366D01*
X77183922Y-100108810D01*
X77204846Y-100136834D01*
X77250370Y-100188553D01*
X77300431Y-100234388D01*
X77354590Y-100274202D01*
X77412409Y-100307861D01*
X77473448Y-100335228D01*
X77537270Y-100356167D01*
X77559798Y-100362670D01*
X77585928Y-100370679D01*
X77615271Y-100380095D01*
X77647442Y-100390816D01*
X77682053Y-100402743D01*
X77718717Y-100415775D01*
X77757047Y-100429812D01*
X77796657Y-100444753D01*
X77776200Y-100508769D01*
X77753558Y-100573354D01*
X77728597Y-100637692D01*
X77701187Y-100700969D01*
X77671195Y-100762369D01*
X77638489Y-100821076D01*
X77602937Y-100876275D01*
X77564406Y-100927152D01*
X77543982Y-100950715D01*
X77522765Y-100972891D01*
X77500736Y-100993578D01*
X77477881Y-101012676D01*
X77454181Y-101030081D01*
X77429622Y-101045692D01*
X77404186Y-101059407D01*
X77377856Y-101071124D01*
X77350617Y-101080741D01*
X77322452Y-101088157D01*
X77293344Y-101093269D01*
X77263276Y-101095975D01*
X77232233Y-101096174D01*
X77200197Y-101093763D01*
X77167153Y-101088641D01*
X77133083Y-101080706D01*
X77100336Y-101070187D01*
X77069223Y-101057044D01*
X77039706Y-101041396D01*
X77011746Y-101023360D01*
X76985306Y-101003054D01*
X76960350Y-100980598D01*
X76936838Y-100956110D01*
X76914735Y-100929706D01*
X76894001Y-100901507D01*
X76874600Y-100871629D01*
X76856494Y-100840192D01*
X76839645Y-100807314D01*
X76824017Y-100773112D01*
X76809570Y-100737706D01*
X76796269Y-100701213D01*
X76784074Y-100663751D01*
X76762857Y-100586395D01*
X76745618Y-100506585D01*
X76732057Y-100425266D01*
X76721873Y-100343384D01*
X76714766Y-100261885D01*
X76710435Y-100181716D01*
X76708580Y-100103822D01*
X76708901Y-100029150D01*
X76714943Y-100008830D01*
X76845478Y-99515901D01*
X76903005Y-99284174D01*
X76951959Y-99070776D01*
X76989781Y-98882082D01*
X77013912Y-98724472D01*
X77020043Y-98659316D01*
X77021791Y-98604322D01*
X77018837Y-98560288D01*
X77010860Y-98528010D01*
X76994752Y-98504063D01*
X76974434Y-98480816D01*
X76950210Y-98458291D01*
X76922385Y-98436509D01*
X76891264Y-98415494D01*
X76857151Y-98395267D01*
X76781170Y-98357268D01*
X76696878Y-98322691D01*
X76606714Y-98291712D01*
X76513115Y-98264511D01*
X76418518Y-98241266D01*
X76325361Y-98222154D01*
X76236081Y-98207354D01*
X76153116Y-98197044D01*
X76078903Y-98191402D01*
X76015880Y-98190607D01*
X75966484Y-98194835D01*
X75947658Y-98198890D01*
X75933153Y-98204267D01*
X75923274Y-98210989D01*
X75918324Y-98219079D01*
X75855754Y-98546867D01*
X75795583Y-98844725D01*
X75720133Y-99176420D01*
X75677612Y-99341954D01*
X75632390Y-99500346D01*
X75584841Y-99646394D01*
X75535338Y-99774898D01*
X75484254Y-99880657D01*
X75458236Y-99923383D01*
X75431962Y-99958472D01*
X75405479Y-99985274D01*
X75378835Y-100003140D01*
X75352075Y-100011419D01*
X75325246Y-100009461D01*
X75310487Y-100003437D01*
X75297196Y-99993906D01*
X75285328Y-99981006D01*
X75274839Y-99964869D01*
X75265685Y-99945632D01*
X75257821Y-99923430D01*
X75251203Y-99898397D01*
X75245786Y-99870669D01*
X75238377Y-99807666D01*
X75235238Y-99735503D01*
X75236015Y-99655259D01*
X75240351Y-99568016D01*
X75247891Y-99474852D01*
X75258278Y-99376850D01*
X75271156Y-99275088D01*
X75286171Y-99170649D01*
X75321186Y-98958055D01*
X75360475Y-98747714D01*
X75412837Y-98534492D01*
X75454575Y-98352348D01*
X75471413Y-98273077D01*
X75485537Y-98201754D01*
X75496928Y-98138438D01*
X75505568Y-98083187D01*
X75526534Y-98006036D01*
X75513826Y-98008572D01*
X75514488Y-97998153D01*
X75514791Y-97988735D01*
X75514796Y-97984369D01*
X75514699Y-97980216D01*
X75514496Y-97976263D01*
X75514181Y-97972497D01*
X75513751Y-97968906D01*
X75513201Y-97965477D01*
X75512528Y-97962198D01*
X75511727Y-97959057D01*
X75510794Y-97956040D01*
X75509725Y-97953135D01*
X75508515Y-97950329D01*
X75507161Y-97947611D01*
X75500481Y-97939848D01*
X75488977Y-97931035D01*
X75452691Y-97910670D01*
X75400692Y-97887341D01*
X75335372Y-97861871D01*
X75259121Y-97835087D01*
X75174330Y-97807811D01*
X75083388Y-97780870D01*
X74988686Y-97755087D01*
X74892616Y-97731288D01*
X74797566Y-97710296D01*
X74705929Y-97692936D01*
X74620093Y-97680033D01*
X74542450Y-97672412D01*
X74475390Y-97670897D01*
X74446576Y-97672687D01*
X74421304Y-97676312D01*
X74399873Y-97681877D01*
X74382582Y-97689483D01*
X74376841Y-97694878D01*
X74371371Y-97704208D01*
X74361036Y-97734268D01*
X74351167Y-97778850D01*
X74341353Y-97837141D01*
X74294435Y-98191134D01*
X74260630Y-98429247D01*
X74239704Y-98560738D01*
X74215547Y-98699433D01*
X74187750Y-98844521D01*
X74155901Y-98995188D01*
X74119591Y-99150621D01*
X74078407Y-99310008D01*
X74008829Y-99567121D01*
X73992046Y-99623773D01*
X73974951Y-99676614D01*
X73957267Y-99725266D01*
X73938714Y-99769349D01*
X73919015Y-99808483D01*
X73897892Y-99842289D01*
X73875067Y-99870388D01*
X73862929Y-99882179D01*
X73850262Y-99892400D01*
X73837029Y-99901004D01*
X73823198Y-99907945D01*
X73808732Y-99913174D01*
X73793597Y-99916644D01*
X73777758Y-99918307D01*
X73761181Y-99918117D01*
X73743831Y-99916025D01*
X73725673Y-99911985D01*
X73718088Y-99909496D01*
X73710807Y-99906211D01*
X73703825Y-99902149D01*
X73697136Y-99897332D01*
X73690736Y-99891779D01*
X73684620Y-99885510D01*
X73678783Y-99878546D01*
X73673219Y-99870907D01*
X73667925Y-99862613D01*
X73662894Y-99853684D01*
X73658122Y-99844142D01*
X73653603Y-99834005D01*
X73649334Y-99823294D01*
X73645308Y-99812029D01*
X73641521Y-99800231D01*
X73637968Y-99787920D01*
X73631543Y-99761839D01*
X73625993Y-99733948D01*
X73621278Y-99704409D01*
X73617359Y-99673383D01*
X73614195Y-99641033D01*
X73611746Y-99607520D01*
X73609972Y-99573006D01*
X73608833Y-99537653D01*
X73642923Y-99550867D01*
X73654863Y-99555286D01*
X73659256Y-99556754D01*
X73662483Y-99557653D01*
X73671116Y-99551887D01*
X73679957Y-99544422D01*
X73688966Y-99535368D01*
X73698104Y-99524833D01*
X73716604Y-99499752D01*
X73735133Y-99470045D01*
X73753370Y-99436581D01*
X73770992Y-99400226D01*
X73787678Y-99361847D01*
X73803104Y-99322310D01*
X73816948Y-99282483D01*
X73828889Y-99243233D01*
X73838604Y-99205426D01*
X73845771Y-99169929D01*
X73850068Y-99137610D01*
X73851172Y-99109335D01*
X73850426Y-99096985D01*
X73848761Y-99085972D01*
X73846136Y-99076402D01*
X73842513Y-99068386D01*
X73839520Y-99065286D01*
X73835668Y-99061832D01*
X73830960Y-99058042D01*
X73825398Y-99053932D01*
X73818986Y-99049521D01*
X73811728Y-99044825D01*
X73803626Y-99039864D01*
X73794683Y-99034655D01*
X73784904Y-99029214D01*
X73774290Y-99023561D01*
X73762846Y-99017712D01*
X73750575Y-99011685D01*
X73737480Y-99005498D01*
X73723563Y-98999169D01*
X73708830Y-98992715D01*
X73693282Y-98986153D01*
X73762370Y-98724568D01*
X73798129Y-98570631D01*
X73831870Y-98405382D01*
X73861471Y-98231908D01*
X73884811Y-98053297D01*
X73899769Y-97872637D01*
X73904224Y-97693016D01*
X73896054Y-97517521D01*
X73886572Y-97432286D01*
X73873139Y-97349240D01*
X73855489Y-97268770D01*
X73833357Y-97191261D01*
X73806478Y-97117099D01*
X73774587Y-97046671D01*
X73737419Y-96980362D01*
X73694708Y-96918558D01*
X73646190Y-96861646D01*
X73591599Y-96810010D01*
X73530670Y-96764038D01*
X73463138Y-96724115D01*
X73388737Y-96690627D01*
X73307204Y-96663960D01*
X73237202Y-96646766D01*
X73167971Y-96633388D01*
X73099934Y-96623802D01*
X73033512Y-96617982D01*
X72969128Y-96615906D01*
X72907202Y-96617548D01*
X72848157Y-96622886D01*
X72792414Y-96631893D01*
X72740396Y-96644547D01*
X72692524Y-96660823D01*
X72649220Y-96680697D01*
X72610907Y-96704145D01*
X72593753Y-96717202D01*
X72578004Y-96731142D01*
X72563715Y-96745965D01*
X72550936Y-96761665D01*
X72539721Y-96778241D01*
X72530123Y-96795689D01*
X72522194Y-96814007D01*
X72515987Y-96833190D01*
X72510666Y-96855148D01*
X72506988Y-96875668D01*
X72504812Y-96894764D01*
X72503994Y-96912450D01*
X72504393Y-96928739D01*
X72505866Y-96943644D01*
X72508271Y-96957179D01*
X72511466Y-96969358D01*
X72515309Y-96980193D01*
X72519656Y-96989699D01*
X72524366Y-96997888D01*
X72529296Y-97004775D01*
X72534305Y-97010373D01*
X72539250Y-97014694D01*
X72543988Y-97017754D01*
X72548378Y-97019564D01*
X72555446Y-97021168D01*
X72562202Y-97022137D01*
X72568666Y-97022514D01*
X72574862Y-97022342D01*
X72580810Y-97021663D01*
X72586532Y-97020521D01*
X72592051Y-97018957D01*
X72597388Y-97017015D01*
X72602565Y-97014738D01*
X72607604Y-97012167D01*
X72612527Y-97009345D01*
X72617356Y-97006316D01*
X72626817Y-96999805D01*
X72636163Y-96992975D01*
X72645569Y-96986167D01*
X72655210Y-96979723D01*
X72660172Y-96976744D01*
X72665259Y-96973984D01*
X72670492Y-96971485D01*
X72675893Y-96969291D01*
X72681484Y-96967444D01*
X72687286Y-96965987D01*
X72693322Y-96964961D01*
X72699613Y-96964411D01*
X72706181Y-96964379D01*
X72713048Y-96964907D01*
X72720236Y-96966037D01*
X72727766Y-96967814D01*
X72750000Y-96975763D01*
X72770231Y-96986961D01*
X72788499Y-97001367D01*
X72804839Y-97018938D01*
X72819291Y-97039634D01*
X72831890Y-97063412D01*
X72842675Y-97090232D01*
X72851682Y-97120050D01*
X72858950Y-97152826D01*
X72864515Y-97188518D01*
X72868415Y-97227083D01*
X72870687Y-97268482D01*
X72871369Y-97312671D01*
X72870498Y-97359609D01*
X72864246Y-97461566D01*
X72852232Y-97574019D01*
X72834752Y-97696634D01*
X72812108Y-97829079D01*
X72784598Y-97971020D01*
X72752520Y-98122123D01*
X72716174Y-98282054D01*
X72675859Y-98450481D01*
X72631874Y-98627070D01*
X72556287Y-98603241D01*
X72484396Y-98581944D01*
X72416317Y-98562730D01*
X72352162Y-98545153D01*
X72343374Y-98543983D01*
X72334533Y-98545139D01*
X72325674Y-98548474D01*
X72316831Y-98553841D01*
X72308036Y-98561092D01*
X72299323Y-98570082D01*
X72290726Y-98580663D01*
X72282278Y-98592688D01*
X72265964Y-98620485D01*
X72250650Y-98652298D01*
X72236604Y-98686951D01*
X72224094Y-98723271D01*
X72213388Y-98760081D01*
X72204756Y-98796208D01*
X72198465Y-98830476D01*
X72194783Y-98861711D01*
X72193979Y-98888737D01*
X72194741Y-98900305D01*
X72196322Y-98910381D01*
X72198757Y-98918817D01*
X72202079Y-98925466D01*
X72206322Y-98930183D01*
X72211519Y-98932819D01*
X72222638Y-98936628D01*
X72242882Y-98944529D01*
X72271492Y-98956240D01*
X72307709Y-98971477D01*
X72350773Y-98989958D01*
X72399926Y-99011401D01*
X72454408Y-99035523D01*
X72513460Y-99062042D01*
X72471529Y-99216344D01*
X72051395Y-100749829D01*
X71987013Y-100997906D01*
X71942627Y-101185652D01*
X71920105Y-101309960D01*
X71917627Y-101347354D01*
X53646284Y-101347354D01*
X53647882Y-101321773D01*
X53772314Y-100892012D01*
X53987414Y-100479106D01*
X54287322Y-100083046D01*
X54666177Y-99703823D01*
X55118120Y-99341428D01*
X55637291Y-98995853D01*
X56217829Y-98667089D01*
X56853875Y-98355126D01*
X58269048Y-97781569D01*
X59835928Y-97275112D01*
X61507636Y-96835683D01*
X63237291Y-96463212D01*
X64978010Y-96157627D01*
X66682914Y-95918857D01*
X68305122Y-95746831D01*
X69797752Y-95641477D01*
X71113925Y-95602725D01*
X72206758Y-95630503D01*
X72206758Y-95630499D01*
X73204722Y-95707211D01*
X74260013Y-95815745D01*
X75361530Y-95956390D01*
X76498168Y-96129437D01*
X77658825Y-96335179D01*
X78832397Y-96573906D01*
X80007783Y-96845910D01*
X81173878Y-97151480D01*
X82319580Y-97490909D01*
X83433786Y-97864488D01*
X84505392Y-98272507D01*
X85523296Y-98715259D01*
X85989013Y-98948715D01*
X86476395Y-99193033D01*
G37*
G04 #@! TD.AperFunction*
G04 #@! TA.AperFunction,NonConductor*
G36*
X77882572Y-99086396D02*
G01*
X77898262Y-99089343D01*
X77916844Y-99096451D01*
X77933411Y-99106991D01*
X77948044Y-99120772D01*
X77960823Y-99137603D01*
X77971828Y-99157291D01*
X77981141Y-99179645D01*
X77988840Y-99204474D01*
X77995006Y-99231587D01*
X77999720Y-99260790D01*
X78003061Y-99291894D01*
X78005949Y-99359034D01*
X78004312Y-99431476D01*
X77998792Y-99507686D01*
X77990031Y-99586133D01*
X77978672Y-99665283D01*
X77965357Y-99743605D01*
X77950729Y-99819565D01*
X77920101Y-99958272D01*
X77891927Y-100069144D01*
X77886966Y-100087779D01*
X77884282Y-100098502D01*
X77881565Y-100110103D01*
X77878894Y-100122537D01*
X77876346Y-100135760D01*
X77873999Y-100149728D01*
X77871932Y-100164396D01*
X77852314Y-100158457D01*
X77833691Y-100151614D01*
X77816043Y-100143900D01*
X77799349Y-100135347D01*
X77783588Y-100125987D01*
X77768740Y-100115853D01*
X77754784Y-100104976D01*
X77741699Y-100093390D01*
X77729465Y-100081126D01*
X77718060Y-100068217D01*
X77707466Y-100054694D01*
X77697660Y-100040591D01*
X77688622Y-100025939D01*
X77680331Y-100010771D01*
X77672768Y-99995119D01*
X77665910Y-99979015D01*
X77659739Y-99962492D01*
X77654232Y-99945581D01*
X77649369Y-99928316D01*
X77645130Y-99910728D01*
X77641494Y-99892849D01*
X77638441Y-99874712D01*
X77635949Y-99856349D01*
X77633999Y-99837793D01*
X77631638Y-99800228D01*
X77631194Y-99762277D01*
X77632502Y-99724196D01*
X77635396Y-99686243D01*
X77635378Y-99686243D01*
X77648878Y-99599989D01*
X77665968Y-99500199D01*
X77687618Y-99395304D01*
X77700457Y-99343576D01*
X77714800Y-99293735D01*
X77730768Y-99246832D01*
X77748483Y-99203923D01*
X77768067Y-99166061D01*
X77778598Y-99149352D01*
X77789641Y-99134300D01*
X77801212Y-99121036D01*
X77813326Y-99109693D01*
X77825998Y-99100403D01*
X77839244Y-99093296D01*
X77853077Y-99088505D01*
X77867515Y-99086161D01*
X77882572Y-99086396D01*
G37*
G04 #@! TD.AperFunction*
G04 #@! TA.AperFunction,NonConductor*
G36*
X79312550Y-99533636D02*
G01*
X79320351Y-99535113D01*
X79332570Y-99539230D01*
X79344377Y-99544880D01*
X79355732Y-99552103D01*
X79366598Y-99560936D01*
X79376934Y-99571421D01*
X79386704Y-99583595D01*
X79395867Y-99597498D01*
X79404386Y-99613169D01*
X79412222Y-99630648D01*
X79419336Y-99649973D01*
X79425689Y-99671184D01*
X79431243Y-99694320D01*
X79435959Y-99719419D01*
X79439798Y-99746522D01*
X79442723Y-99775668D01*
X79444693Y-99806895D01*
X79445671Y-99840242D01*
X79445618Y-99875750D01*
X79444494Y-99913457D01*
X79442263Y-99953402D01*
X79438884Y-99995625D01*
X79434319Y-100040164D01*
X79428530Y-100087059D01*
X79421478Y-100136350D01*
X79413124Y-100188074D01*
X79403430Y-100242272D01*
X79392356Y-100298983D01*
X79379865Y-100358245D01*
X79365917Y-100420099D01*
X79350474Y-100484582D01*
X79333498Y-100551735D01*
X79314949Y-100621597D01*
X79185901Y-101104975D01*
X79133472Y-101285937D01*
X79108389Y-101361602D01*
X79083341Y-101427530D01*
X79057787Y-101483824D01*
X79031186Y-101530591D01*
X79002998Y-101567934D01*
X78972683Y-101595958D01*
X78956559Y-101606508D01*
X78939700Y-101614768D01*
X78922039Y-101620750D01*
X78903508Y-101624468D01*
X78884040Y-101625935D01*
X78863567Y-101625163D01*
X78819338Y-101616958D01*
X78808822Y-101613377D01*
X78798943Y-101608592D01*
X78789697Y-101602606D01*
X78781082Y-101595424D01*
X78773093Y-101587050D01*
X78765728Y-101577489D01*
X78758984Y-101566744D01*
X78752857Y-101554821D01*
X78747344Y-101541724D01*
X78742442Y-101527456D01*
X78738147Y-101512023D01*
X78734456Y-101495429D01*
X78731366Y-101477678D01*
X78728874Y-101458774D01*
X78726976Y-101438722D01*
X78725670Y-101417526D01*
X78724951Y-101395191D01*
X78724818Y-101371721D01*
X78725265Y-101347120D01*
X78726291Y-101321392D01*
X78730064Y-101266576D01*
X78736111Y-101207306D01*
X78744405Y-101143618D01*
X78754922Y-101075547D01*
X78767634Y-101003127D01*
X78782515Y-100926394D01*
X78783296Y-100923695D01*
X78784090Y-100920997D01*
X78799796Y-100878637D01*
X78815046Y-100835957D01*
X78829888Y-100792757D01*
X78844370Y-100748834D01*
X78858541Y-100703988D01*
X78872448Y-100658018D01*
X78886140Y-100610724D01*
X78899666Y-100561904D01*
X78915551Y-100502435D01*
X78930562Y-100443758D01*
X78944658Y-100385804D01*
X78957800Y-100328501D01*
X78969944Y-100271779D01*
X78981051Y-100215568D01*
X78991080Y-100159796D01*
X78999989Y-100104392D01*
X79048930Y-99962245D01*
X79072354Y-99898920D01*
X79095099Y-99840730D01*
X79117180Y-99787655D01*
X79138611Y-99739672D01*
X79159407Y-99696759D01*
X79179582Y-99658896D01*
X79199150Y-99626058D01*
X79218125Y-99598226D01*
X79236523Y-99575377D01*
X79254358Y-99557489D01*
X79271644Y-99544541D01*
X79288395Y-99536510D01*
X79304626Y-99533374D01*
X79312550Y-99533636D01*
G37*
G04 #@! TD.AperFunction*
D11*
X144501299Y-42193128D03*
X144481299Y-46793128D03*
X133331299Y-46793128D03*
X133311299Y-42193128D03*
D12*
X140206299Y-106593128D03*
D13*
X142746299Y-106593128D03*
X145286299Y-106593128D03*
X147826299Y-106593128D03*
D14*
X122906299Y-107193128D03*
D15*
X124906299Y-107193128D03*
D16*
X136656299Y-60288356D03*
X152356299Y-58888356D03*
X134656299Y-76188356D03*
X130956299Y-83832096D03*
X135556299Y-68188356D03*
X153356299Y-66888356D03*
X154306299Y-74943128D03*
X151456299Y-75188356D03*
X131856299Y-71501761D03*
X131856299Y-75788356D03*
X132856299Y-67888356D03*
X149556299Y-59188356D03*
X150556299Y-67188356D03*
X133856299Y-59888356D03*
X128156299Y-83488356D03*
X147856299Y-67388356D03*
X146856299Y-59588356D03*
X129156299Y-75488356D03*
X125456299Y-83188356D03*
X130056299Y-67488356D03*
X131056299Y-59588356D03*
X152556299Y-83188356D03*
X148756299Y-75488356D03*
X130606299Y-73701761D03*
X130606299Y-72101761D03*
X127356299Y-67188356D03*
X133406299Y-72101761D03*
X149756299Y-83488356D03*
X144056299Y-59888356D03*
X133406299Y-73543128D03*
X146056299Y-75888356D03*
X126356299Y-75188356D03*
X145056299Y-67888356D03*
X128356299Y-59288356D03*
X143256299Y-76188356D03*
X125556299Y-58988356D03*
X123656299Y-74943128D03*
X147056299Y-83832096D03*
X124556299Y-66888356D03*
X141256299Y-60188356D03*
X142256299Y-68188356D03*
X136506299Y-51943128D03*
X132606299Y-48843128D03*
X137286299Y-89173128D03*
X113106299Y-65520628D03*
X142806299Y-98643128D03*
X150706299Y-99643128D03*
X163156299Y-67770628D03*
X111306299Y-83120628D03*
X142806299Y-97343128D03*
X164506299Y-83620628D03*
X152006299Y-99643128D03*
X167606299Y-84743128D03*
X109106299Y-100020628D03*
X142806299Y-96043128D03*
X149506299Y-104443128D03*
X166606299Y-100520628D03*
X142806299Y-94865963D03*
X106806299Y-116920628D03*
X149506299Y-99643128D03*
X166006299Y-117720628D03*
X135606299Y-49143128D03*
X142506299Y-49143128D03*
X150206299Y-87143128D03*
X148706299Y-49243128D03*
X131431299Y-100168128D03*
X138906299Y-101143128D03*
X124306299Y-97843128D03*
X126706299Y-99243128D03*
X138906299Y-54143128D03*
X130606299Y-96143128D03*
X135406299Y-96943128D03*
X138006299Y-88443128D03*
X145406299Y-53743128D03*
X149106299Y-92143128D03*
X143406299Y-102143128D03*
X154711299Y-106701999D03*
X163906299Y-48743128D03*
X153276299Y-105273128D03*
X136506299Y-100043128D03*
X141406299Y-49143128D03*
X136506299Y-49143128D03*
X136730564Y-50767393D03*
X140806299Y-49793128D03*
X124506299Y-89443128D03*
X128906299Y-49243128D03*
X148506299Y-92943128D03*
X155906299Y-48743128D03*
X145570981Y-104558264D03*
X139306299Y-57743128D03*
X138506368Y-57732455D03*
X146306299Y-104243128D03*
D17*
X130956299Y-83832096D02*
X130956299Y-79888356D01*
X153356299Y-59888356D02*
X152356299Y-58888356D01*
X153356299Y-66888356D02*
X153356299Y-59888356D01*
X130956299Y-79888356D02*
X134656299Y-76188356D01*
X135556299Y-61388356D02*
X136656299Y-60288356D01*
X134656299Y-69088356D02*
X135556299Y-68188356D01*
X154306299Y-74943128D02*
X154306299Y-67838356D01*
X153356299Y-66888356D02*
X154306299Y-67838356D01*
X135556299Y-68188356D02*
X135556299Y-61388356D01*
X134656299Y-76188356D02*
X134656299Y-69088356D01*
X150556299Y-67188356D02*
X150556299Y-60188356D01*
X151456299Y-68088356D02*
X150556299Y-67188356D01*
X131856299Y-68888356D02*
X132856299Y-67888356D01*
X132856299Y-60888356D02*
X133856299Y-59888356D01*
X151456299Y-75188356D02*
X151456299Y-68088356D01*
X131856299Y-75788356D02*
X131856299Y-68888356D01*
X128156299Y-83488356D02*
X128156299Y-79488356D01*
X132856299Y-67888356D02*
X132856299Y-60888356D01*
X150556299Y-60188356D02*
X149556299Y-59188356D01*
X128156299Y-79488356D02*
X131856299Y-75788356D01*
X147856299Y-60588356D02*
X146856299Y-59588356D01*
X129156299Y-75488356D02*
X129156299Y-68388356D01*
X152556299Y-83188356D02*
X152556299Y-79288356D01*
X147856299Y-74588356D02*
X147856299Y-67388356D01*
X147856299Y-67388356D02*
X147856299Y-60588356D01*
X130056299Y-60588356D02*
X131056299Y-59588356D01*
X125456299Y-83188356D02*
X125456299Y-79188356D01*
X125456299Y-79188356D02*
X129156299Y-75488356D01*
X148756299Y-75488356D02*
X147856299Y-74588356D01*
X129156299Y-68388356D02*
X130056299Y-67488356D01*
X130606299Y-72101761D02*
X130606299Y-73701761D01*
X130056299Y-67488356D02*
X130056299Y-60588356D01*
X152556299Y-79288356D02*
X148756299Y-75488356D01*
X126356299Y-75188356D02*
X126256299Y-75088356D01*
X145056299Y-67888356D02*
X145056299Y-60888356D01*
X149756299Y-79588356D02*
X146056299Y-75888356D01*
X133406299Y-72101761D02*
X133406299Y-73543128D01*
X149756299Y-83488356D02*
X149756299Y-79588356D01*
X127356299Y-67188356D02*
X127356299Y-60288356D01*
X126256299Y-75088356D02*
X126256299Y-68288356D01*
X126256299Y-68288356D02*
X127356299Y-67188356D01*
X127356299Y-60288356D02*
X128356299Y-59288356D01*
X146056299Y-75888356D02*
X146056299Y-68888356D01*
X146056299Y-68888356D02*
X145056299Y-67888356D01*
X145056299Y-60888356D02*
X144056299Y-59888356D01*
X123656299Y-74943128D02*
X123656299Y-67788356D01*
X123656299Y-67788356D02*
X124556299Y-66888356D01*
X147056299Y-79988356D02*
X143256299Y-76188356D01*
X142256299Y-61188356D02*
X141256299Y-60188356D01*
X143256299Y-76188356D02*
X143256299Y-69188356D01*
X142256299Y-68188356D02*
X142256299Y-61188356D01*
X143256299Y-69188356D02*
X142256299Y-68188356D01*
X125556299Y-58988356D02*
X124556299Y-59988356D01*
X124556299Y-59988356D02*
X124556299Y-66888356D01*
X147056299Y-83832096D02*
X147056299Y-79988356D01*
D18*
X137306299Y-52743128D02*
X136506299Y-51943128D01*
X136506299Y-51943128D02*
X133406299Y-48843128D01*
X137306299Y-89153128D02*
X137306299Y-52743128D01*
X137286299Y-89173128D02*
X137306299Y-89153128D01*
X133406299Y-48843128D02*
X132606299Y-48843128D01*
D17*
X143386199Y-93465963D02*
X144206299Y-94286063D01*
X113106299Y-65520628D02*
X113106299Y-84354942D01*
X113106299Y-84354942D02*
X122494485Y-93743128D01*
X144206299Y-97243128D02*
X142806299Y-98643128D01*
X122494485Y-93743128D02*
X141949233Y-93743128D01*
X142226398Y-93465963D02*
X143386199Y-93465963D01*
X144206299Y-94286063D02*
X144206299Y-97243128D01*
X141949233Y-93743128D02*
X142226398Y-93465963D01*
X150706299Y-88887840D02*
X153316201Y-86277938D01*
X163156299Y-84404942D02*
X163156299Y-67770628D01*
X161283303Y-86277938D02*
X163156299Y-84404942D01*
X153316201Y-86277938D02*
X161283303Y-86277938D01*
X150706299Y-99643128D02*
X150706299Y-88887840D01*
X143806299Y-94451748D02*
X143806299Y-96343128D01*
X122328799Y-94143128D02*
X142114919Y-94143128D01*
X111306299Y-83120628D02*
X122328799Y-94143128D01*
X143806299Y-96343128D02*
X142806299Y-97343128D01*
X142114919Y-94143128D02*
X142392084Y-93865963D01*
X143220514Y-93865963D02*
X143806299Y-94451748D01*
X142392084Y-93865963D02*
X143220514Y-93865963D01*
X152006299Y-99643128D02*
X152006299Y-88153526D01*
X152006299Y-88153526D02*
X153481887Y-86677938D01*
X165628799Y-84743128D02*
X164506299Y-83620628D01*
X167606299Y-84743128D02*
X165628799Y-84743128D01*
X153481887Y-86677938D02*
X161448989Y-86677938D01*
X161448989Y-86677938D02*
X164506299Y-83620628D01*
X116928799Y-100020628D02*
X122406299Y-94543128D01*
X109106299Y-100020628D02*
X116928799Y-100020628D01*
X143406299Y-94617434D02*
X143406299Y-95443128D01*
X142557770Y-94265963D02*
X143054828Y-94265963D01*
X122406299Y-94543128D02*
X142280605Y-94543128D01*
X142280605Y-94543128D02*
X142557770Y-94265963D01*
X143054828Y-94265963D02*
X143406299Y-94617434D01*
X143406299Y-95443128D02*
X142806299Y-96043128D01*
X153560514Y-104143128D02*
X149806299Y-104143128D01*
X153838890Y-104421504D02*
X153560514Y-104143128D01*
X166606299Y-100520628D02*
X162705423Y-104421504D01*
X162705423Y-104421504D02*
X153838890Y-104421504D01*
X149806299Y-104143128D02*
X149506299Y-104443128D01*
X122571985Y-94943128D02*
X142729134Y-94943128D01*
X106806299Y-116920628D02*
X106806299Y-110708814D01*
X142729134Y-94943128D02*
X142806299Y-94865963D01*
X106806299Y-110708814D02*
X122571985Y-94943128D01*
X162709999Y-104846828D02*
X153698528Y-104846828D01*
X149257770Y-105043128D02*
X148906299Y-104691657D01*
X153698528Y-104846828D02*
X153394828Y-104543128D01*
X150254828Y-104543128D02*
X149754828Y-105043128D01*
X149754828Y-105043128D02*
X149257770Y-105043128D01*
X148906299Y-100243128D02*
X149506299Y-99643128D01*
X166006299Y-108143128D02*
X162709999Y-104846828D01*
X166006299Y-117720628D02*
X166006299Y-108143128D01*
X153394828Y-104543128D02*
X150254828Y-104543128D01*
X148906299Y-104691657D02*
X148906299Y-100243128D01*
D18*
X141675538Y-48493128D02*
X136237059Y-48493128D01*
X142325538Y-49143128D02*
X141675538Y-48493128D01*
X135606299Y-49123888D02*
X135606299Y-49143128D01*
X142506299Y-49143128D02*
X142325538Y-49143128D01*
X136237059Y-48493128D02*
X135606299Y-49123888D01*
D19*
X144906299Y-42598128D02*
X144906299Y-46368128D01*
X134381299Y-47843128D02*
X133331299Y-46793128D01*
X143431299Y-47843128D02*
X134381299Y-47843128D01*
X144906299Y-46368128D02*
X144625555Y-46648872D01*
X132906299Y-46368128D02*
X132906299Y-42598128D01*
X133196987Y-46658816D02*
X132906299Y-46368128D01*
X144481299Y-46793128D02*
X143431299Y-47843128D01*
X132906299Y-42598128D02*
X133196987Y-42307440D01*
X144625555Y-42317384D02*
X144906299Y-42598128D01*
D17*
X140106299Y-57543128D02*
X141706299Y-55943128D01*
X150206299Y-87143128D02*
X146706299Y-87143128D01*
X141706299Y-55943128D02*
X144306299Y-55943128D01*
X148706299Y-51543128D02*
X148706299Y-49243128D01*
X146706299Y-87143128D02*
X140106299Y-80543128D01*
X140106299Y-80543128D02*
X140106299Y-57543128D01*
X144306299Y-55943128D02*
X148706299Y-51543128D01*
D18*
X138906299Y-101143128D02*
X137006299Y-99243128D01*
X137006299Y-99243128D02*
X132356299Y-99243128D01*
X132356299Y-99243128D02*
X131431299Y-100168128D01*
X135406299Y-96943128D02*
X131406299Y-96943128D01*
X131406299Y-96943128D02*
X130606299Y-96143128D01*
X125606299Y-99243128D02*
X124306299Y-97943128D01*
X138006299Y-88443128D02*
X138006299Y-88043128D01*
X138006299Y-88043128D02*
X137806299Y-87843128D01*
X139906299Y-55143128D02*
X144006299Y-55143128D01*
X130606299Y-98643128D02*
X130606299Y-96143128D01*
X137806299Y-55243128D02*
X138906299Y-54143128D01*
X130006299Y-99662367D02*
X130006299Y-99243128D01*
X138906299Y-54143128D02*
X139906299Y-55143128D01*
X138137060Y-107793128D02*
X130006299Y-99662367D01*
X142746299Y-106593128D02*
X141546299Y-107793128D01*
X141546299Y-107793128D02*
X138137060Y-107793128D01*
X137806299Y-87843128D02*
X137806299Y-55243128D01*
X130006299Y-99243128D02*
X130606299Y-98643128D01*
X124306299Y-97943128D02*
X124306299Y-97843128D01*
X126706299Y-99243128D02*
X130006299Y-99243128D01*
X144006299Y-55143128D02*
X145406299Y-53743128D01*
X126706299Y-99243128D02*
X125606299Y-99243128D01*
D17*
X145783356Y-105393128D02*
X144789242Y-105393128D01*
X153470170Y-107943128D02*
X147406299Y-107943128D01*
X146626299Y-106236071D02*
X145783356Y-105393128D01*
X156306299Y-82608814D02*
X156306299Y-49191657D01*
X146626299Y-107163128D02*
X146626299Y-106236071D01*
X144789242Y-105393128D02*
X143406299Y-104010185D01*
X156306299Y-49191657D02*
X156754828Y-48743128D01*
X154711299Y-106701999D02*
X153470170Y-107943128D01*
X149106299Y-92143128D02*
X149106299Y-89808814D01*
X143406299Y-104010185D02*
X143406299Y-102143128D01*
X147406299Y-107943128D02*
X146626299Y-107163128D01*
X149106299Y-89808814D02*
X156306299Y-82608814D01*
X156754828Y-48743128D02*
X163906299Y-48743128D01*
X153276299Y-105273128D02*
X152926299Y-105623128D01*
X148796299Y-105623128D02*
X147826299Y-106593128D01*
X152926299Y-105623128D02*
X148796299Y-105623128D01*
D18*
X136506299Y-100043128D02*
X136306299Y-100243128D01*
X136306299Y-100243128D02*
X136306299Y-104243128D01*
X138656299Y-106593128D02*
X140206299Y-106593128D01*
X136306299Y-104243128D02*
X138656299Y-106593128D01*
X136506299Y-49143128D02*
X141406299Y-49143128D01*
D17*
X137854829Y-49643128D02*
X136730564Y-50767393D01*
X140806299Y-49793128D02*
X140656299Y-49643128D01*
X140656299Y-49643128D02*
X137854829Y-49643128D01*
X122706299Y-87643128D02*
X122706299Y-53043128D01*
X122706299Y-53043128D02*
X126506299Y-49243128D01*
X126506299Y-49243128D02*
X128906299Y-49243128D01*
X124506299Y-89443128D02*
X122706299Y-87643128D01*
X155906299Y-82443128D02*
X148506299Y-89843128D01*
X155906299Y-48743128D02*
X155906299Y-82443128D01*
X148506299Y-89843128D02*
X148506299Y-92943128D01*
X140806299Y-87443128D02*
X140206299Y-86843128D01*
X146906299Y-104491657D02*
X146906299Y-103994599D01*
X146106299Y-103194599D02*
X146106299Y-88643128D01*
X140359389Y-86336483D02*
X140182612Y-86159706D01*
X145855845Y-104843128D02*
X146554828Y-104843128D01*
X139106299Y-57943128D02*
X139306299Y-57743128D01*
X145570981Y-104558264D02*
X145855845Y-104843128D01*
X140206299Y-86666351D02*
X140359389Y-86513260D01*
X144906299Y-87443128D02*
X140806299Y-87443128D01*
X140005835Y-86159706D02*
X139852744Y-86312796D01*
X139106299Y-85743128D02*
X139106299Y-57943128D01*
X139852744Y-86312796D02*
X139675967Y-86312796D01*
X146906299Y-103994599D02*
X146106299Y-103194599D01*
X139106299Y-85743128D02*
X139675967Y-86312796D01*
X140182612Y-86159706D02*
X140005835Y-86159706D01*
X146106299Y-88643128D02*
X144906299Y-87443128D01*
X140359389Y-86513260D02*
X140359389Y-86336483D01*
X140206299Y-86843128D02*
X140206299Y-86666351D01*
X146554828Y-104843128D02*
X146906299Y-104491657D01*
X145171766Y-102468128D02*
X145046766Y-102593128D01*
X144788095Y-88614883D02*
X144964871Y-88791659D01*
X145706299Y-88843128D02*
X145706299Y-101343128D01*
X138706299Y-57932386D02*
X138706299Y-85908814D01*
X138506368Y-57732455D02*
X138706299Y-57932386D01*
X144956299Y-88093128D02*
X144956299Y-88269904D01*
X145046766Y-101593128D02*
X145046766Y-101843128D01*
X145706299Y-103643128D02*
X146306299Y-104243128D01*
X145171766Y-102968128D02*
X145581299Y-102968128D01*
X145581299Y-101468128D02*
X145171766Y-101468128D01*
X140640613Y-87843128D02*
X144706299Y-87843128D01*
X144706299Y-87843128D02*
X144956299Y-88093128D01*
X145581299Y-101968128D02*
X145706299Y-102093128D01*
X145706299Y-103543128D02*
X145706299Y-103643128D01*
X145581299Y-102468128D02*
X145171766Y-102468128D01*
X144788095Y-88438107D02*
X144788095Y-88614883D01*
X145171766Y-101468128D02*
X145046766Y-101593128D01*
X145706299Y-103093128D02*
X145706299Y-103543128D01*
X145486627Y-88623455D02*
X145663405Y-88800234D01*
X144956299Y-88269904D02*
X144788095Y-88438107D01*
X145141648Y-88791659D02*
X145309851Y-88623455D01*
X145706299Y-102343128D02*
X145581299Y-102468128D01*
X145663405Y-88800234D02*
X145706299Y-88843128D01*
X145171766Y-101968128D02*
X145581299Y-101968128D01*
X145046766Y-102593128D02*
X145046766Y-102843128D01*
X145309851Y-88623455D02*
X145486627Y-88623455D01*
X145581299Y-102968128D02*
X145706299Y-103093128D01*
X144964871Y-88791659D02*
X145141648Y-88791659D01*
X145046766Y-101843128D02*
X145171766Y-101968128D01*
X138706299Y-85908814D02*
X140640613Y-87843128D01*
X145706299Y-102093128D02*
X145706299Y-102343128D01*
X145046766Y-102843128D02*
X145171766Y-102968128D01*
X145706299Y-101343128D02*
X145581299Y-101468128D01*
M02*
