G04 #@! TF.GenerationSoftware,KiCad,Pcbnew,8.0.7*
G04 #@! TF.CreationDate,2025-05-27T12:50:37-04:00*
G04 #@! TF.ProjectId,le-oeuf,6c652d6f-6575-4662-9e6b-696361645f70,rev?*
G04 #@! TF.SameCoordinates,Original*
G04 #@! TF.FileFunction,Profile,NP*
%FSLAX46Y46*%
G04 Gerber Fmt 4.6, Leading zero omitted, Abs format (unit mm)*
G04 Created by KiCad (PCBNEW 8.0.7) date 2025-05-27 12:50:37*
%MOMM*%
%LPD*%
G01*
G04 APERTURE LIST*
G04 #@! TA.AperFunction,Profile*
%ADD10C,0.050000*%
G04 #@! TD*
G04 #@! TA.AperFunction,Profile*
%ADD11C,0.080000*%
G04 #@! TD*
G04 #@! TA.AperFunction,Profile*
%ADD12C,0.100000*%
G04 #@! TD*
G04 APERTURE END LIST*
D10*
X63744388Y-119138713D02*
G75*
G02*
X63400875Y-119031952I120212J992813D01*
G01*
X245937657Y-102532105D02*
X214520072Y-118926146D01*
X121281299Y-110193087D02*
G75*
G02*
X122281258Y-109193099I1000001J-13D01*
G01*
X195822651Y-44320936D02*
X222579869Y-46467478D01*
X155531299Y-109191740D02*
G75*
G02*
X156531360Y-110191740I1J-1000060D01*
G01*
X147106299Y-44320936D02*
G75*
G02*
X146139194Y-43575417I1J1000036D01*
G01*
X31873663Y-102532431D02*
G75*
G02*
X31344793Y-101524560I463537J885931D01*
G01*
X157531341Y-125473212D02*
G75*
G02*
X156531288Y-124473212I-41J1000012D01*
G01*
X222579869Y-46467478D02*
X239196203Y-48518377D01*
X246467587Y-101523677D02*
G75*
G02*
X245937645Y-102532083I-992587J-121823D01*
G01*
X145335395Y-40520628D02*
X146139220Y-43575410D01*
X131673378Y-43575410D02*
X132477203Y-40520628D01*
X72685335Y-44320936D02*
X130706299Y-44320936D01*
X132477203Y-40520628D02*
X134361298Y-40438128D01*
X147106299Y-44320936D02*
X170585371Y-44320936D01*
X214179325Y-119032133D02*
X161722369Y-125473037D01*
X37746244Y-49388977D02*
G75*
G02*
X38616287Y-48518329I992556J-121823D01*
G01*
X120281340Y-125474722D02*
X116091578Y-125474887D01*
X214520072Y-118926146D02*
G75*
G02*
X214179327Y-119032145I-462772J886946D01*
G01*
X156531340Y-110191740D02*
X156531300Y-124473212D01*
X72562838Y-44328467D02*
G75*
G02*
X72685335Y-44320938I122462J-992233D01*
G01*
X121281299Y-110193087D02*
X121281300Y-124474722D01*
X116091578Y-125474887D02*
X63744388Y-119138713D01*
X143461298Y-40438128D02*
X145335395Y-40520628D01*
X155531258Y-109193087D02*
X122281258Y-109193087D01*
X161722369Y-125473037D02*
X157531341Y-125473212D01*
X240066252Y-49388977D02*
X246467587Y-101523677D01*
X38616293Y-48518377D02*
X72562838Y-44328467D01*
X63400870Y-119031961D02*
X31873663Y-102532431D01*
X170585371Y-44320936D02*
X195822651Y-44320936D01*
X31344799Y-101524561D02*
X37746244Y-49388977D01*
X239196203Y-48518377D02*
G75*
G02*
X240066207Y-49388982I-122503J-992423D01*
G01*
X121281300Y-124474722D02*
G75*
G02*
X120281340Y-125474700I-1000000J22D01*
G01*
X131673378Y-43575410D02*
G75*
G02*
X130706299Y-44320982I-967078J254410D01*
G01*
D11*
X134361298Y-44797307D02*
X134361298Y-40438128D01*
X135511299Y-45968128D02*
X134361298Y-45968128D01*
X135711298Y-46368128D02*
X135711298Y-46168128D01*
X138911298Y-46518128D02*
X136817516Y-46518128D01*
X138911298Y-46518128D02*
X141005080Y-46518128D01*
X142111298Y-46368128D02*
X142111298Y-46168128D01*
X142311297Y-45968128D02*
X143461298Y-45968128D01*
X143461298Y-44797307D02*
X143461298Y-40438128D01*
X134361298Y-44797307D02*
G75*
G02*
X134218426Y-44988920I-199899J-21D01*
G01*
X134361298Y-45968129D02*
G75*
G02*
X134218441Y-44988970I1J500001D01*
G01*
X135511299Y-45968129D02*
G75*
G02*
X135711298Y-46168128I0J-199999D01*
G01*
X136644311Y-46618128D02*
G75*
G02*
X135711300Y-46368128I-433012J250000D01*
G01*
X136644311Y-46618128D02*
G75*
G02*
X136817516Y-46518143I173188J-100000D01*
G01*
X141005080Y-46518128D02*
G75*
G02*
X141178285Y-46618128I0J-200000D01*
G01*
X142111297Y-46168128D02*
G75*
G02*
X142311297Y-45968128I200001J-1D01*
G01*
X142111298Y-46368128D02*
G75*
G02*
X141178285Y-46618128I-500000J0D01*
G01*
X143604155Y-44988970D02*
G75*
G02*
X143461298Y-44797307I57142J191662D01*
G01*
X143604155Y-44988971D02*
G75*
G02*
X143461298Y-45968128I-142858J-479157D01*
G01*
D12*
X228388707Y-80082935D02*
G75*
G02*
X227388707Y-80082935I-500000J0D01*
G01*
X227388707Y-80082935D02*
G75*
G02*
X228388707Y-80082935I500000J0D01*
G01*
X239331961Y-73210247D02*
G75*
G02*
X238131961Y-73210247I-600000J0D01*
G01*
X238131961Y-73210247D02*
G75*
G02*
X239331961Y-73210247I600000J0D01*
G01*
X87924721Y-97539551D02*
G75*
G02*
X86924721Y-97539551I-500000J0D01*
G01*
X86924721Y-97539551D02*
G75*
G02*
X87924721Y-97539551I500000J0D01*
G01*
X100208537Y-93494231D02*
G75*
G02*
X99008537Y-93494231I-600000J0D01*
G01*
X99008537Y-93494231D02*
G75*
G02*
X100208537Y-93494231I600000J0D01*
G01*
X191534469Y-58916566D02*
G75*
G02*
X190534469Y-58916566I-500000J0D01*
G01*
X190534469Y-58916566D02*
G75*
G02*
X191534469Y-58916566I500000J0D01*
G01*
X202477723Y-52043878D02*
G75*
G02*
X201277723Y-52043878I-600000J0D01*
G01*
X201277723Y-52043878D02*
G75*
G02*
X202477723Y-52043878I600000J0D01*
G01*
X210997477Y-77936393D02*
G75*
G02*
X209997477Y-77936393I-500000J0D01*
G01*
X209997477Y-77936393D02*
G75*
G02*
X210997477Y-77936393I500000J0D01*
G01*
X221940731Y-71063705D02*
G75*
G02*
X220740731Y-71063705I-600000J0D01*
G01*
X220740731Y-71063705D02*
G75*
G02*
X221940731Y-71063705I600000J0D01*
G01*
X230460485Y-96956219D02*
G75*
G02*
X229460485Y-96956219I-500000J0D01*
G01*
X229460485Y-96956219D02*
G75*
G02*
X230460485Y-96956219I500000J0D01*
G01*
X241403739Y-90083531D02*
G75*
G02*
X240203739Y-90083531I-600000J0D01*
G01*
X240203739Y-90083531D02*
G75*
G02*
X241403739Y-90083531I600000J0D01*
G01*
X164521181Y-117898298D02*
G75*
G02*
X163521181Y-117898298I-500000J0D01*
G01*
X163521181Y-117898298D02*
G75*
G02*
X164521181Y-117898298I500000J0D01*
G01*
X175464435Y-111025610D02*
G75*
G02*
X174264435Y-111025610I-600000J0D01*
G01*
X174264435Y-111025610D02*
G75*
G02*
X175464435Y-111025610I600000J0D01*
G01*
X85852942Y-114412835D02*
G75*
G02*
X84852942Y-114412835I-500000J0D01*
G01*
X84852942Y-114412835D02*
G75*
G02*
X85852942Y-114412835I500000J0D01*
G01*
X98136758Y-110367515D02*
G75*
G02*
X96936758Y-110367515I-600000J0D01*
G01*
X96936758Y-110367515D02*
G75*
G02*
X98136758Y-110367515I600000J0D01*
G01*
X106869785Y-82738045D02*
G75*
G02*
X105869785Y-82738045I-500000J0D01*
G01*
X105869785Y-82738045D02*
G75*
G02*
X106869785Y-82738045I500000J0D01*
G01*
X119153601Y-78692725D02*
G75*
G02*
X117953601Y-78692725I-600000J0D01*
G01*
X117953601Y-78692725D02*
G75*
G02*
X119153601Y-78692725I600000J0D01*
G01*
X158305845Y-67278444D02*
G75*
G02*
X157305845Y-67278444I-500000J0D01*
G01*
X157305845Y-67278444D02*
G75*
G02*
X158305845Y-67278444I500000J0D01*
G01*
X169249099Y-60405756D02*
G75*
G02*
X168049099Y-60405756I-600000J0D01*
G01*
X168049099Y-60405756D02*
G75*
G02*
X169249099Y-60405756I600000J0D01*
G01*
X181394466Y-115826519D02*
G75*
G02*
X180394466Y-115826519I-500000J0D01*
G01*
X180394466Y-115826519D02*
G75*
G02*
X181394466Y-115826519I500000J0D01*
G01*
X192337720Y-108953831D02*
G75*
G02*
X191137720Y-108953831I-600000J0D01*
G01*
X191137720Y-108953831D02*
G75*
G02*
X192337720Y-108953831I600000J0D01*
G01*
X104798006Y-99611330D02*
G75*
G02*
X103798006Y-99611330I-500000J0D01*
G01*
X103798006Y-99611330D02*
G75*
G02*
X104798006Y-99611330I500000J0D01*
G01*
X117081822Y-95566010D02*
G75*
G02*
X115881822Y-95566010I-600000J0D01*
G01*
X115881822Y-95566010D02*
G75*
G02*
X117081822Y-95566010I600000J0D01*
G01*
X40930481Y-61795966D02*
G75*
G02*
X39930481Y-61795966I-500000J0D01*
G01*
X39930481Y-61795966D02*
G75*
G02*
X40930481Y-61795966I500000J0D01*
G01*
X53214297Y-57750646D02*
G75*
G02*
X52014297Y-57750646I-600000J0D01*
G01*
X52014297Y-57750646D02*
G75*
G02*
X53214297Y-57750646I600000J0D01*
G01*
X56249931Y-76522709D02*
G75*
G02*
X55249931Y-76522709I-500000J0D01*
G01*
X55249931Y-76522709D02*
G75*
G02*
X56249931Y-76522709I500000J0D01*
G01*
X68533747Y-72477389D02*
G75*
G02*
X67333747Y-72477389I-600000J0D01*
G01*
X67333747Y-72477389D02*
G75*
G02*
X68533747Y-72477389I600000J0D01*
G01*
X226316928Y-63209650D02*
G75*
G02*
X225316928Y-63209650I-500000J0D01*
G01*
X225316928Y-63209650D02*
G75*
G02*
X226316928Y-63209650I500000J0D01*
G01*
X237260182Y-56336962D02*
G75*
G02*
X236060182Y-56336962I-600000J0D01*
G01*
X236060182Y-56336962D02*
G75*
G02*
X237260182Y-56336962I600000J0D01*
G01*
X162449402Y-101025014D02*
G75*
G02*
X161449402Y-101025014I-500000J0D01*
G01*
X161449402Y-101025014D02*
G75*
G02*
X162449402Y-101025014I500000J0D01*
G01*
X173392656Y-94152326D02*
G75*
G02*
X172192656Y-94152326I-600000J0D01*
G01*
X172192656Y-94152326D02*
G75*
G02*
X173392656Y-94152326I600000J0D01*
G01*
X38858702Y-78669251D02*
G75*
G02*
X37858702Y-78669251I-500000J0D01*
G01*
X37858702Y-78669251D02*
G75*
G02*
X38858702Y-78669251I500000J0D01*
G01*
X51142518Y-74623931D02*
G75*
G02*
X49942518Y-74623931I-600000J0D01*
G01*
X49942518Y-74623931D02*
G75*
G02*
X51142518Y-74623931I600000J0D01*
G01*
X75712939Y-57502882D02*
G75*
G02*
X74712939Y-57502882I-500000J0D01*
G01*
X74712939Y-57502882D02*
G75*
G02*
X75712939Y-57502882I500000J0D01*
G01*
X87996755Y-53457562D02*
G75*
G02*
X86796755Y-53457562I-600000J0D01*
G01*
X86796755Y-53457562D02*
G75*
G02*
X87996755Y-53457562I600000J0D01*
G01*
X179322687Y-98953235D02*
G75*
G02*
X178322687Y-98953235I-500000J0D01*
G01*
X178322687Y-98953235D02*
G75*
G02*
X179322687Y-98953235I500000J0D01*
G01*
X190265941Y-92080547D02*
G75*
G02*
X189065941Y-92080547I-600000J0D01*
G01*
X189065941Y-92080547D02*
G75*
G02*
X190265941Y-92080547I600000J0D01*
G01*
X195678027Y-92663135D02*
G75*
G02*
X194678027Y-92663135I-500000J0D01*
G01*
X194678027Y-92663135D02*
G75*
G02*
X195678027Y-92663135I500000J0D01*
G01*
X206621281Y-85790447D02*
G75*
G02*
X205421281Y-85790447I-600000J0D01*
G01*
X205421281Y-85790447D02*
G75*
G02*
X206621281Y-85790447I600000J0D01*
G01*
X54178152Y-93395993D02*
G75*
G02*
X53178152Y-93395993I-500000J0D01*
G01*
X53178152Y-93395993D02*
G75*
G02*
X54178152Y-93395993I500000J0D01*
G01*
X66461968Y-89350673D02*
G75*
G02*
X65261968Y-89350673I-600000J0D01*
G01*
X65261968Y-89350673D02*
G75*
G02*
X66461968Y-89350673I600000J0D01*
G01*
X108941564Y-65864760D02*
G75*
G02*
X107941564Y-65864760I-500000J0D01*
G01*
X107941564Y-65864760D02*
G75*
G02*
X108941564Y-65864760I500000J0D01*
G01*
X121225380Y-61819440D02*
G75*
G02*
X120025380Y-61819440I-600000J0D01*
G01*
X120025380Y-61819440D02*
G75*
G02*
X121225380Y-61819440I600000J0D01*
G01*
X213069256Y-94809677D02*
G75*
G02*
X212069256Y-94809677I-500000J0D01*
G01*
X212069256Y-94809677D02*
G75*
G02*
X213069256Y-94809677I500000J0D01*
G01*
X224012510Y-87936989D02*
G75*
G02*
X222812510Y-87936989I-600000J0D01*
G01*
X222812510Y-87936989D02*
G75*
G02*
X224012510Y-87936989I600000J0D01*
G01*
X164521181Y-117898298D02*
G75*
G02*
X163521181Y-117898298I-500000J0D01*
G01*
X163521181Y-117898298D02*
G75*
G02*
X164521181Y-117898298I500000J0D01*
G01*
X175464435Y-111025610D02*
G75*
G02*
X174264435Y-111025610I-600000J0D01*
G01*
X174264435Y-111025610D02*
G75*
G02*
X175464435Y-111025610I600000J0D01*
G01*
X71569381Y-91249451D02*
G75*
G02*
X70569381Y-91249451I-500000J0D01*
G01*
X70569381Y-91249451D02*
G75*
G02*
X71569381Y-91249451I500000J0D01*
G01*
X83853197Y-87204131D02*
G75*
G02*
X82653197Y-87204131I-600000J0D01*
G01*
X82653197Y-87204131D02*
G75*
G02*
X83853197Y-87204131I600000J0D01*
G01*
X198267750Y-113754741D02*
G75*
G02*
X197267750Y-113754741I-500000J0D01*
G01*
X197267750Y-113754741D02*
G75*
G02*
X198267750Y-113754741I500000J0D01*
G01*
X209211004Y-106882053D02*
G75*
G02*
X208011004Y-106882053I-600000J0D01*
G01*
X208011004Y-106882053D02*
G75*
G02*
X209211004Y-106882053I600000J0D01*
G01*
X175179129Y-65206666D02*
G75*
G02*
X174179129Y-65206666I-500000J0D01*
G01*
X174179129Y-65206666D02*
G75*
G02*
X175179129Y-65206666I500000J0D01*
G01*
X186122383Y-58333978D02*
G75*
G02*
X184922383Y-58333978I-600000J0D01*
G01*
X184922383Y-58333978D02*
G75*
G02*
X186122383Y-58333978I600000J0D01*
G01*
X92068279Y-63792982D02*
G75*
G02*
X91068279Y-63792982I-500000J0D01*
G01*
X91068279Y-63792982D02*
G75*
G02*
X92068279Y-63792982I500000J0D01*
G01*
X104352095Y-59747662D02*
G75*
G02*
X103152095Y-59747662I-600000J0D01*
G01*
X103152095Y-59747662D02*
G75*
G02*
X104352095Y-59747662I600000J0D01*
G01*
X68979658Y-112341057D02*
G75*
G02*
X67979658Y-112341057I-500000J0D01*
G01*
X67979658Y-112341057D02*
G75*
G02*
X68979658Y-112341057I500000J0D01*
G01*
X81263474Y-108295737D02*
G75*
G02*
X80063474Y-108295737I-600000J0D01*
G01*
X80063474Y-108295737D02*
G75*
G02*
X81263474Y-108295737I600000J0D01*
G01*
X36786923Y-95542535D02*
G75*
G02*
X35786923Y-95542535I-500000J0D01*
G01*
X35786923Y-95542535D02*
G75*
G02*
X36786923Y-95542535I500000J0D01*
G01*
X49070739Y-91497215D02*
G75*
G02*
X47870739Y-91497215I-600000J0D01*
G01*
X47870739Y-91497215D02*
G75*
G02*
X49070739Y-91497215I600000J0D01*
G01*
X177250908Y-82079950D02*
G75*
G02*
X176250908Y-82079950I-500000J0D01*
G01*
X176250908Y-82079950D02*
G75*
G02*
X177250908Y-82079950I500000J0D01*
G01*
X188194162Y-75207262D02*
G75*
G02*
X186994162Y-75207262I-600000J0D01*
G01*
X186994162Y-75207262D02*
G75*
G02*
X188194162Y-75207262I600000J0D01*
G01*
X193606248Y-75789850D02*
G75*
G02*
X192606248Y-75789850I-500000J0D01*
G01*
X192606248Y-75789850D02*
G75*
G02*
X193606248Y-75789850I500000J0D01*
G01*
X204549502Y-68917162D02*
G75*
G02*
X203349502Y-68917162I-600000J0D01*
G01*
X203349502Y-68917162D02*
G75*
G02*
X204549502Y-68917162I600000J0D01*
G01*
X73641160Y-74376166D02*
G75*
G02*
X72641160Y-74376166I-500000J0D01*
G01*
X72641160Y-74376166D02*
G75*
G02*
X73641160Y-74376166I500000J0D01*
G01*
X85924976Y-70330846D02*
G75*
G02*
X84724976Y-70330846I-600000J0D01*
G01*
X84724976Y-70330846D02*
G75*
G02*
X85924976Y-70330846I600000J0D01*
G01*
X208925698Y-61063108D02*
G75*
G02*
X207925698Y-61063108I-500000J0D01*
G01*
X207925698Y-61063108D02*
G75*
G02*
X208925698Y-61063108I500000J0D01*
G01*
X219868952Y-54190420D02*
G75*
G02*
X218668952Y-54190420I-600000J0D01*
G01*
X218668952Y-54190420D02*
G75*
G02*
X219868952Y-54190420I600000J0D01*
G01*
X58321710Y-59649424D02*
G75*
G02*
X57321710Y-59649424I-500000J0D01*
G01*
X57321710Y-59649424D02*
G75*
G02*
X58321710Y-59649424I500000J0D01*
G01*
X70605526Y-55604104D02*
G75*
G02*
X69405526Y-55604104I-600000J0D01*
G01*
X69405526Y-55604104D02*
G75*
G02*
X70605526Y-55604104I600000J0D01*
G01*
X160377624Y-84151729D02*
G75*
G02*
X159377624Y-84151729I-500000J0D01*
G01*
X159377624Y-84151729D02*
G75*
G02*
X160377624Y-84151729I500000J0D01*
G01*
X171320878Y-77279041D02*
G75*
G02*
X170120878Y-77279041I-600000J0D01*
G01*
X170120878Y-77279041D02*
G75*
G02*
X171320878Y-77279041I600000J0D01*
G01*
X89996500Y-80666266D02*
G75*
G02*
X88996500Y-80666266I-500000J0D01*
G01*
X88996500Y-80666266D02*
G75*
G02*
X89996500Y-80666266I500000J0D01*
G01*
X102280316Y-76620946D02*
G75*
G02*
X101080316Y-76620946I-600000J0D01*
G01*
X101080316Y-76620946D02*
G75*
G02*
X102280316Y-76620946I600000J0D01*
G01*
X102726227Y-116484614D02*
G75*
G02*
X101726227Y-116484614I-500000J0D01*
G01*
X101726227Y-116484614D02*
G75*
G02*
X102726227Y-116484614I500000J0D01*
G01*
X115010043Y-112439294D02*
G75*
G02*
X113810043Y-112439294I-600000J0D01*
G01*
X113810043Y-112439294D02*
G75*
G02*
X115010043Y-112439294I600000J0D01*
G01*
M02*
