G04 #@! TF.GenerationSoftware,KiCad,Pcbnew,8.0.7*
G04 #@! TF.CreationDate,2025-05-27T12:50:37-04:00*
G04 #@! TF.ProjectId,le-oeuf,6c652d6f-6575-4662-9e6b-696361645f70,rev?*
G04 #@! TF.SameCoordinates,Original*
G04 #@! TF.FileFunction,Paste,Top*
G04 #@! TF.FilePolarity,Positive*
%FSLAX46Y46*%
G04 Gerber Fmt 4.6, Leading zero omitted, Abs format (unit mm)*
G04 Created by KiCad (PCBNEW 8.0.7) date 2025-05-27 12:50:37*
%MOMM*%
%LPD*%
G01*
G04 APERTURE LIST*
G04 Aperture macros list*
%AMRoundRect*
0 Rectangle with rounded corners*
0 $1 Rounding radius*
0 $2 $3 $4 $5 $6 $7 $8 $9 X,Y pos of 4 corners*
0 Add a 4 corners polygon primitive as box body*
4,1,4,$2,$3,$4,$5,$6,$7,$8,$9,$2,$3,0*
0 Add four circle primitives for the rounded corners*
1,1,$1+$1,$2,$3*
1,1,$1+$1,$4,$5*
1,1,$1+$1,$6,$7*
1,1,$1+$1,$8,$9*
0 Add four rect primitives between the rounded corners*
20,1,$1+$1,$2,$3,$4,$5,0*
20,1,$1+$1,$4,$5,$6,$7,0*
20,1,$1+$1,$6,$7,$8,$9,0*
20,1,$1+$1,$8,$9,$2,$3,0*%
%AMRotRect*
0 Rectangle, with rotation*
0 The origin of the aperture is its center*
0 $1 length*
0 $2 width*
0 $3 Rotation angle, in degrees counterclockwise*
0 Add horizontal line*
21,1,$1,$2,0,0,$3*%
G04 Aperture macros list end*
%ADD10RoundRect,0.225000X-0.344784X0.269024X-0.399625X-0.177622X0.344784X-0.269024X0.399625X0.177622X0*%
%ADD11RoundRect,0.112500X-0.112500X0.187500X-0.112500X-0.187500X0.112500X-0.187500X0.112500X0.187500X0*%
%ADD12R,0.530000X1.100000*%
%ADD13R,0.280000X1.100000*%
%ADD14RotRect,2.000000X2.000000X7.000000*%
%ADD15RotRect,1.550000X2.000000X7.000000*%
%ADD16RoundRect,0.225000X0.375000X-0.225000X0.375000X0.225000X-0.375000X0.225000X-0.375000X-0.225000X0*%
%ADD17RoundRect,0.200000X-0.200000X-0.275000X0.200000X-0.275000X0.200000X0.275000X-0.200000X0.275000X0*%
%ADD18RotRect,2.000000X2.000000X353.000000*%
%ADD19RotRect,1.550000X2.000000X353.000000*%
%ADD20RoundRect,0.250000X-0.625000X0.375000X-0.625000X-0.375000X0.625000X-0.375000X0.625000X0.375000X0*%
%ADD21RoundRect,0.150000X0.150000X-0.512500X0.150000X0.512500X-0.150000X0.512500X-0.150000X-0.512500X0*%
%ADD22RoundRect,0.225000X0.250000X-0.225000X0.250000X0.225000X-0.250000X0.225000X-0.250000X-0.225000X0*%
%ADD23RoundRect,0.225000X-0.399625X0.177622X-0.344784X-0.269024X0.399625X-0.177622X0.344784X0.269024X0*%
%ADD24RoundRect,0.200000X-0.275000X0.200000X-0.275000X-0.200000X0.275000X-0.200000X0.275000X0.200000X0*%
%ADD25RotRect,0.600000X1.200000X97.000000*%
%ADD26RoundRect,0.150000X0.587500X0.150000X-0.587500X0.150000X-0.587500X-0.150000X0.587500X-0.150000X0*%
%ADD27RoundRect,0.225000X-0.192856X-0.275557X0.253790X-0.220716X0.192856X0.275557X-0.253790X0.220716X0*%
%ADD28R,1.550000X1.000000*%
%ADD29RoundRect,0.200000X-0.259444X0.471899X-0.137575X-0.520647X0.259444X-0.471899X0.137575X0.520647X0*%
%ADD30RoundRect,0.200000X-0.471899X-0.259444X0.520647X-0.137575X0.471899X0.259444X-0.520647X0.137575X0*%
%ADD31RoundRect,0.200000X-0.174135X-0.222883X0.222883X-0.174135X0.174135X0.222883X-0.222883X0.174135X0*%
%ADD32RoundRect,0.218750X0.280999X-0.185890X0.227681X0.248348X-0.280999X0.185890X-0.227681X-0.248348X0*%
%ADD33RoundRect,0.200000X0.200000X0.275000X-0.200000X0.275000X-0.200000X-0.275000X0.200000X-0.275000X0*%
%ADD34RoundRect,0.150000X-0.150000X-0.275000X0.150000X-0.275000X0.150000X0.275000X-0.150000X0.275000X0*%
%ADD35RoundRect,0.175000X-0.175000X-0.225000X0.175000X-0.225000X0.175000X0.225000X-0.175000X0.225000X0*%
%ADD36RoundRect,0.218750X-0.256250X0.218750X-0.256250X-0.218750X0.256250X-0.218750X0.256250X0.218750X0*%
%ADD37RoundRect,0.225000X0.225000X0.250000X-0.225000X0.250000X-0.225000X-0.250000X0.225000X-0.250000X0*%
%ADD38RoundRect,0.250000X0.625000X-0.375000X0.625000X0.375000X-0.625000X0.375000X-0.625000X-0.375000X0*%
%ADD39RoundRect,0.150000X-0.512500X-0.150000X0.512500X-0.150000X0.512500X0.150000X-0.512500X0.150000X0*%
G04 APERTURE END LIST*
D10*
X123818082Y-73219671D03*
X123415914Y-76495073D03*
D11*
X148206299Y-50943128D03*
X148206299Y-53043128D03*
D12*
X142106299Y-48073128D03*
X141356299Y-48073128D03*
D13*
X140156299Y-48073128D03*
X139156299Y-48073128D03*
X138656299Y-48073128D03*
X137656299Y-48073128D03*
D12*
X136456299Y-48073128D03*
X135706299Y-48073128D03*
X135706299Y-48073128D03*
X136456299Y-48073128D03*
D13*
X137156299Y-48073128D03*
X138156299Y-48073128D03*
X139656299Y-48073128D03*
X140656299Y-48073128D03*
D12*
X141356299Y-48073128D03*
X142106299Y-48073128D03*
D10*
X128353488Y-81873625D03*
X127951320Y-85149027D03*
D14*
X226276450Y-71465184D03*
X227738882Y-83375738D03*
X238881786Y-69917444D03*
X240344218Y-81827998D03*
D15*
X231151922Y-79581512D03*
X236114653Y-78972165D03*
D16*
X129656299Y-103343128D03*
X129656299Y-100043128D03*
D17*
X133506299Y-50770628D03*
X135156299Y-50770628D03*
D18*
X87945177Y-88787744D03*
X86482745Y-100698298D03*
X100550513Y-90335484D03*
X99088081Y-102246038D03*
D19*
X90712310Y-97842465D03*
X95675041Y-98451812D03*
D20*
X146906299Y-45870628D03*
X146906299Y-48670628D03*
D14*
X189422212Y-50298815D03*
X190884644Y-62209369D03*
X202027548Y-48751075D03*
X203489980Y-60661629D03*
D15*
X194297684Y-58415143D03*
X199260415Y-57805796D03*
D14*
X208885220Y-69318642D03*
X210347652Y-81229196D03*
X221490556Y-67770902D03*
X222952988Y-79681456D03*
D15*
X213760692Y-77434970D03*
X218723423Y-76825623D03*
D10*
X129332918Y-73896808D03*
X128930750Y-77172210D03*
X136806615Y-58620312D03*
X136404447Y-61895714D03*
D14*
X228348228Y-88338468D03*
X229810660Y-100249022D03*
X240953564Y-86790728D03*
X242415996Y-98701282D03*
D15*
X233223700Y-96454796D03*
X238186431Y-95845449D03*
D21*
X137956299Y-53080628D03*
X138906299Y-53080628D03*
X139856299Y-53080628D03*
X139856299Y-50805628D03*
X138906299Y-50805628D03*
X137956299Y-50805628D03*
D14*
X162408924Y-109280547D03*
X163871356Y-121191101D03*
X175014260Y-107732807D03*
X176476692Y-119643361D03*
D15*
X167284396Y-117396875D03*
X172247127Y-116787528D03*
D18*
X85873398Y-105661028D03*
X84410966Y-117571582D03*
X98478734Y-107208768D03*
X97016302Y-119119322D03*
D19*
X88640531Y-114715749D03*
X93603262Y-115325096D03*
D22*
X127656299Y-96668128D03*
X127656299Y-95118128D03*
D23*
X145821518Y-74223190D03*
X146223686Y-77498592D03*
D24*
X131656299Y-95043128D03*
X131656299Y-96693128D03*
D18*
X106890241Y-73986238D03*
X105427809Y-85896792D03*
X119495577Y-75533978D03*
X118033145Y-87444532D03*
D19*
X109657374Y-83040959D03*
X114620105Y-83650306D03*
D25*
X136804647Y-94902328D03*
X136658403Y-93711272D03*
D14*
X156193588Y-58660693D03*
X157656020Y-70571247D03*
X168798924Y-57112953D03*
X170261356Y-69023507D03*
D15*
X161069060Y-66777021D03*
X166031791Y-66167674D03*
D26*
X131593799Y-92743128D03*
X131593799Y-90843128D03*
X129718799Y-91793128D03*
D27*
X136367853Y-96882026D03*
X137906299Y-96693128D03*
D23*
X152134913Y-57253851D03*
X152537081Y-60529253D03*
D28*
X155906299Y-45443128D03*
X161156299Y-45443128D03*
X155906299Y-47143128D03*
X161156299Y-47143128D03*
D23*
X141105240Y-58608125D03*
X141507408Y-61883527D03*
D14*
X179282209Y-107208768D03*
X180744641Y-119119322D03*
X191887545Y-105661028D03*
X193349977Y-117571582D03*
D15*
X184157681Y-115325096D03*
X189120412Y-114715749D03*
D18*
X104818462Y-90859523D03*
X103356030Y-102770077D03*
X117423798Y-92407263D03*
X115961366Y-104317817D03*
D19*
X107585595Y-99914244D03*
X112548326Y-100523591D03*
D23*
X146620077Y-57930988D03*
X147022245Y-61206390D03*
D18*
X40950937Y-53044159D03*
X39488505Y-64954713D03*
X53556273Y-54591899D03*
X52093841Y-66502453D03*
D19*
X43718070Y-62098880D03*
X48680801Y-62708227D03*
D18*
X56270387Y-67770902D03*
X54807955Y-79681456D03*
X68875723Y-69318642D03*
X67413291Y-81229196D03*
D19*
X59037520Y-76825623D03*
X64000251Y-77434970D03*
D24*
X127156299Y-46543128D03*
X127156299Y-48193128D03*
D22*
X125656299Y-96668128D03*
X125656299Y-95118128D03*
D14*
X224204671Y-54591899D03*
X225667103Y-66502453D03*
X236810007Y-53044159D03*
X238272439Y-64954713D03*
D15*
X229080143Y-62708227D03*
X234042874Y-62098880D03*
D29*
X152666832Y-89788354D03*
X151406299Y-89943128D03*
X150145765Y-90097902D03*
X148885231Y-90252676D03*
X147624698Y-90407450D03*
X146364164Y-90562224D03*
X145103633Y-90716998D03*
X143843097Y-90871773D03*
X142582563Y-91026547D03*
X141322030Y-91181321D03*
D30*
X139253664Y-93208501D03*
D31*
X141117024Y-93614441D03*
D30*
X139408438Y-94469035D03*
D31*
X141271798Y-94874974D03*
D30*
X139563212Y-95729569D03*
D31*
X141426571Y-96135508D03*
D30*
X139717986Y-96990102D03*
D31*
X141581348Y-97396041D03*
D30*
X139872760Y-98250636D03*
D31*
X141736121Y-98656575D03*
D30*
X140027534Y-99511169D03*
D31*
X141890895Y-99917109D03*
D30*
X140182308Y-100771703D03*
D31*
X142045669Y-101177642D03*
D30*
X140337082Y-102032237D03*
D29*
X142833210Y-103488893D03*
X144093743Y-103334119D03*
D31*
X144504645Y-101470149D03*
D29*
X145354277Y-103179345D03*
D31*
X145765179Y-101315375D03*
D29*
X146614810Y-103024571D03*
D31*
X147025712Y-101160601D03*
D29*
X147875344Y-102869797D03*
D31*
X148286246Y-101005827D03*
D29*
X149135878Y-102715023D03*
D31*
X149546780Y-100851053D03*
D29*
X150396411Y-102560249D03*
D31*
X150807313Y-100696278D03*
D29*
X151656945Y-102405474D03*
D31*
X152067847Y-100541504D03*
D29*
X152917478Y-102250700D03*
D31*
X153328380Y-100386730D03*
D29*
X154178012Y-102095926D03*
D14*
X160337145Y-92407263D03*
X161799577Y-104317817D03*
X172942481Y-90859523D03*
X174404913Y-102770077D03*
D15*
X165212617Y-100523591D03*
X170175348Y-99914244D03*
D10*
X127554930Y-65581423D03*
X127152762Y-68856825D03*
D18*
X38879158Y-69917444D03*
X37416726Y-81827998D03*
X51484494Y-71465184D03*
X50022062Y-83375738D03*
D19*
X41646291Y-78972165D03*
X46609022Y-79581512D03*
D20*
X130906299Y-45870628D03*
X130906299Y-48670628D03*
D32*
X137752271Y-101474758D03*
X137560327Y-99911498D03*
D10*
X124797512Y-65242855D03*
X124395344Y-68518257D03*
D18*
X75733395Y-48751075D03*
X74270963Y-60661629D03*
X88338731Y-50298815D03*
X86876299Y-62209369D03*
D19*
X78500528Y-57805796D03*
X83463259Y-58415143D03*
D10*
X134049196Y-58281744D03*
X133647028Y-61557146D03*
D23*
X142084670Y-66584942D03*
X142486838Y-69860344D03*
D14*
X177210430Y-90335484D03*
X178672862Y-102246038D03*
X189815766Y-88787744D03*
X191278198Y-100698298D03*
D15*
X182085902Y-98451812D03*
X187048633Y-97842465D03*
D23*
X153114343Y-65230668D03*
X153516511Y-68506070D03*
D10*
X125776942Y-57266038D03*
X125374774Y-60541440D03*
D23*
X146756299Y-82194395D03*
X147158467Y-85469797D03*
D14*
X193565770Y-84045384D03*
X195028202Y-95955938D03*
X206171106Y-82497644D03*
X207633538Y-94408198D03*
D15*
X198441242Y-92161712D03*
X203403973Y-91552365D03*
D18*
X54198608Y-84644186D03*
X52736176Y-96554740D03*
X66803944Y-86191926D03*
X65341512Y-98102480D03*
D19*
X56965741Y-93698907D03*
X61928472Y-94308254D03*
D23*
X147599506Y-65907805D03*
X148001674Y-69183207D03*
D27*
X135837076Y-91882026D03*
X137375522Y-91693128D03*
D10*
X130312348Y-65919992D03*
X129910180Y-69195394D03*
D18*
X108962020Y-57112953D03*
X107499588Y-69023507D03*
X121567356Y-58660693D03*
X120104924Y-70571247D03*
D19*
X111729153Y-66167674D03*
X116691884Y-66777021D03*
D14*
X210956999Y-86191926D03*
X212419431Y-98102480D03*
X223562335Y-84644186D03*
X225024767Y-96554740D03*
D15*
X215832471Y-94308254D03*
X220795202Y-93698907D03*
D10*
X128534360Y-57604607D03*
X128132192Y-60880009D03*
D14*
X162408924Y-109280547D03*
X163871356Y-121191101D03*
X175014260Y-107732807D03*
X176476692Y-119643361D03*
D15*
X167284396Y-117396875D03*
X172247127Y-116787528D03*
D23*
X143064100Y-74561758D03*
X143466268Y-77837160D03*
D33*
X135156299Y-53693128D03*
X133506299Y-53693128D03*
D23*
X148578936Y-73884621D03*
X148981104Y-77160023D03*
D10*
X131291778Y-57943175D03*
X130889610Y-61218577D03*
D23*
X152315785Y-81522869D03*
X152717953Y-84798271D03*
D18*
X71589837Y-82497644D03*
X70127405Y-94408198D03*
X84195173Y-84045384D03*
X82732741Y-95955938D03*
D19*
X74356970Y-91552365D03*
X79319701Y-92161712D03*
D14*
X196155493Y-105136990D03*
X197617925Y-117047544D03*
X208760829Y-103589250D03*
X210223261Y-115499804D03*
D15*
X201030965Y-113253318D03*
X205993696Y-112643971D03*
D14*
X173066872Y-56588915D03*
X174529304Y-68499469D03*
X185672208Y-55041175D03*
X187134640Y-66951729D03*
D15*
X177942344Y-64705243D03*
X182905075Y-64095896D03*
D10*
X131156299Y-82232096D03*
X130754131Y-85507498D03*
D18*
X92088735Y-55041175D03*
X90626303Y-66951729D03*
X104694071Y-56588915D03*
X103231639Y-68499469D03*
D19*
X94855868Y-64095896D03*
X99818599Y-64705243D03*
D24*
X150656299Y-46543128D03*
X150656299Y-48193128D03*
D34*
X123306299Y-100064978D03*
X124506299Y-100064978D03*
D35*
X122156299Y-103839978D03*
X125656299Y-103839978D03*
D18*
X69000114Y-103589250D03*
X67537682Y-115499804D03*
X81605450Y-105136990D03*
X80143018Y-117047544D03*
D19*
X71767247Y-112643971D03*
X76729978Y-113253318D03*
D10*
X125596070Y-81535056D03*
X125193902Y-84810458D03*
D36*
X146206299Y-51280628D03*
X146206299Y-52855628D03*
D24*
X129656299Y-95118128D03*
X129656299Y-96768128D03*
D37*
X131681299Y-50693128D03*
X130131299Y-50693128D03*
D18*
X36807379Y-86790728D03*
X35344947Y-98701282D03*
X49412715Y-88338468D03*
X47950283Y-100249022D03*
D19*
X39574512Y-95845449D03*
X44537243Y-96454796D03*
D23*
X144842088Y-66246373D03*
X145244256Y-69521775D03*
D36*
X144456299Y-51258128D03*
X144456299Y-52833128D03*
D23*
X143862658Y-58269557D03*
X144264826Y-61544959D03*
D17*
X130081299Y-53693128D03*
X131731299Y-53693128D03*
D23*
X150356925Y-65569236D03*
X150759093Y-68844638D03*
D14*
X175138651Y-73462199D03*
X176601083Y-85372753D03*
X187743987Y-71914459D03*
X189206419Y-83825013D03*
D15*
X180014123Y-81578527D03*
X184976854Y-80969180D03*
D14*
X191493991Y-67172099D03*
X192956423Y-79082653D03*
X204099327Y-65624359D03*
X205561759Y-77534913D03*
D15*
X196369463Y-75288427D03*
X201332194Y-74679080D03*
D10*
X132090337Y-74235377D03*
X131688169Y-77510779D03*
D18*
X73661616Y-65624359D03*
X72199184Y-77534913D03*
X86266952Y-67172099D03*
X84804520Y-79082653D03*
D19*
X76428749Y-74679080D03*
X81391480Y-75288427D03*
D23*
X154093773Y-73207484D03*
X154495941Y-76482886D03*
D14*
X206813441Y-52445357D03*
X208275873Y-64355911D03*
X219418777Y-50897617D03*
X220881209Y-62808171D03*
D15*
X211688913Y-60561685D03*
X216651644Y-59952338D03*
D23*
X149558366Y-81861438D03*
X149960534Y-85136840D03*
D10*
X133069766Y-66258560D03*
X132667598Y-69533962D03*
D23*
X149377495Y-57592420D03*
X149779663Y-60867822D03*
D10*
X134847755Y-74573945D03*
X134445587Y-77849347D03*
D38*
X142206299Y-53570628D03*
X142206299Y-50770628D03*
D18*
X58342166Y-50897617D03*
X56879734Y-62808171D03*
X70947502Y-52445357D03*
X69485070Y-64355911D03*
D19*
X61109299Y-59952338D03*
X66072030Y-60561685D03*
D28*
X163906299Y-45443128D03*
X169156299Y-45443128D03*
X163906299Y-47143128D03*
X169156299Y-47143128D03*
D14*
X158265367Y-75533978D03*
X159727799Y-87444532D03*
X170870703Y-73986238D03*
X172333135Y-85896792D03*
D15*
X163140839Y-83650306D03*
X168103570Y-83040959D03*
D10*
X126575500Y-73558240D03*
X126173332Y-76833642D03*
D23*
X151336355Y-73546053D03*
X151738523Y-76821455D03*
D18*
X90016956Y-71914459D03*
X88554524Y-83825013D03*
X102622292Y-73462199D03*
X101159860Y-85372753D03*
D19*
X92784089Y-80969180D03*
X97746820Y-81578527D03*
D18*
X102746683Y-107732807D03*
X101284251Y-119643361D03*
X115352019Y-109280547D03*
X113889587Y-121191101D03*
D19*
X105513816Y-116787528D03*
X110476547Y-117396875D03*
D39*
X125131299Y-90793128D03*
X125131299Y-91743128D03*
X125131299Y-92693128D03*
X127406299Y-92693128D03*
X127406299Y-90793128D03*
D10*
X135827185Y-66597128D03*
X135425017Y-69872530D03*
M02*
