G04 #@! TF.GenerationSoftware,KiCad,Pcbnew,8.0.7*
G04 #@! TF.CreationDate,2025-05-27T12:53:58-04:00*
G04 #@! TF.ProjectId,le-oeuf,6c652d6f-6575-4662-9e6b-696361645f70,rev?*
G04 #@! TF.SameCoordinates,Original*
G04 #@! TF.FileFunction,Soldermask,Top*
G04 #@! TF.FilePolarity,Negative*
%FSLAX46Y46*%
G04 Gerber Fmt 4.6, Leading zero omitted, Abs format (unit mm)*
G04 Created by KiCad (PCBNEW 8.0.7) date 2025-05-27 12:53:58*
%MOMM*%
%LPD*%
G01*
G04 APERTURE LIST*
G04 Aperture macros list*
%AMRoundRect*
0 Rectangle with rounded corners*
0 $1 Rounding radius*
0 $2 $3 $4 $5 $6 $7 $8 $9 X,Y pos of 4 corners*
0 Add a 4 corners polygon primitive as box body*
4,1,4,$2,$3,$4,$5,$6,$7,$8,$9,$2,$3,0*
0 Add four circle primitives for the rounded corners*
1,1,$1+$1,$2,$3*
1,1,$1+$1,$4,$5*
1,1,$1+$1,$6,$7*
1,1,$1+$1,$8,$9*
0 Add four rect primitives between the rounded corners*
20,1,$1+$1,$2,$3,$4,$5,0*
20,1,$1+$1,$4,$5,$6,$7,0*
20,1,$1+$1,$6,$7,$8,$9,0*
20,1,$1+$1,$8,$9,$2,$3,0*%
%AMRotRect*
0 Rectangle, with rotation*
0 The origin of the aperture is its center*
0 $1 length*
0 $2 width*
0 $3 Rotation angle, in degrees counterclockwise*
0 Add horizontal line*
21,1,$1,$2,0,0,$3*%
G04 Aperture macros list end*
%ADD10C,0.000000*%
%ADD11RoundRect,0.225000X-0.344784X0.269024X-0.399625X-0.177622X0.344784X-0.269024X0.399625X0.177622X0*%
%ADD12RoundRect,0.112500X-0.112500X0.187500X-0.112500X-0.187500X0.112500X-0.187500X0.112500X0.187500X0*%
%ADD13C,0.650000*%
%ADD14R,0.530000X1.100000*%
%ADD15R,0.280000X1.100000*%
%ADD16O,1.200000X2.250000*%
%ADD17RotRect,2.000000X2.000000X7.000000*%
%ADD18RotRect,1.550000X2.000000X7.000000*%
%ADD19RoundRect,0.225000X0.375000X-0.225000X0.375000X0.225000X-0.375000X0.225000X-0.375000X-0.225000X0*%
%ADD20RoundRect,0.200000X-0.200000X-0.275000X0.200000X-0.275000X0.200000X0.275000X-0.200000X0.275000X0*%
%ADD21RotRect,2.000000X2.000000X353.000000*%
%ADD22RotRect,1.550000X2.000000X353.000000*%
%ADD23RoundRect,0.250000X-0.625000X0.375000X-0.625000X-0.375000X0.625000X-0.375000X0.625000X0.375000X0*%
%ADD24RoundRect,0.150000X0.150000X-0.512500X0.150000X0.512500X-0.150000X0.512500X-0.150000X-0.512500X0*%
%ADD25RoundRect,0.225000X0.250000X-0.225000X0.250000X0.225000X-0.250000X0.225000X-0.250000X-0.225000X0*%
%ADD26RoundRect,0.225000X-0.399625X0.177622X-0.344784X-0.269024X0.399625X-0.177622X0.344784X0.269024X0*%
%ADD27C,2.200000*%
%ADD28RoundRect,0.200000X-0.275000X0.200000X-0.275000X-0.200000X0.275000X-0.200000X0.275000X0.200000X0*%
%ADD29RotRect,0.600000X1.200000X97.000000*%
%ADD30RoundRect,0.150000X0.587500X0.150000X-0.587500X0.150000X-0.587500X-0.150000X0.587500X-0.150000X0*%
%ADD31RoundRect,0.225000X-0.192856X-0.275557X0.253790X-0.220716X0.192856X0.275557X-0.253790X0.220716X0*%
%ADD32C,0.750000*%
%ADD33R,1.550000X1.000000*%
%ADD34R,1.700000X1.700000*%
%ADD35O,1.700000X1.700000*%
%ADD36RoundRect,0.200000X-0.259444X0.471899X-0.137575X-0.520647X0.259444X-0.471899X0.137575X0.520647X0*%
%ADD37RoundRect,0.200000X-0.471899X-0.259444X0.520647X-0.137575X0.471899X0.259444X-0.520647X0.137575X0*%
%ADD38RoundRect,0.200000X-0.174135X-0.222883X0.222883X-0.174135X0.174135X0.222883X-0.222883X0.174135X0*%
%ADD39RoundRect,0.218750X0.280999X-0.185890X0.227681X0.248348X-0.280999X0.185890X-0.227681X-0.248348X0*%
%ADD40RoundRect,0.200000X0.200000X0.275000X-0.200000X0.275000X-0.200000X-0.275000X0.200000X-0.275000X0*%
%ADD41R,1.350000X1.350000*%
%ADD42O,1.350000X1.350000*%
%ADD43RoundRect,0.150000X-0.150000X-0.275000X0.150000X-0.275000X0.150000X0.275000X-0.150000X0.275000X0*%
%ADD44RoundRect,0.175000X-0.175000X-0.225000X0.175000X-0.225000X0.175000X0.225000X-0.175000X0.225000X0*%
%ADD45RoundRect,0.218750X-0.256250X0.218750X-0.256250X-0.218750X0.256250X-0.218750X0.256250X0.218750X0*%
%ADD46RoundRect,0.225000X0.225000X0.250000X-0.225000X0.250000X-0.225000X-0.250000X0.225000X-0.250000X0*%
%ADD47RoundRect,0.250000X0.625000X-0.375000X0.625000X0.375000X-0.625000X0.375000X-0.625000X-0.375000X0*%
%ADD48C,0.990600*%
%ADD49C,0.787400*%
%ADD50RoundRect,0.150000X-0.512500X-0.150000X0.512500X-0.150000X0.512500X0.150000X-0.512500X0.150000X0*%
G04 APERTURE END LIST*
D10*
G36*
X177558615Y-56071273D02*
G01*
X177589236Y-56072568D01*
X177619138Y-56074785D01*
X177648270Y-56077923D01*
X177676578Y-56081979D01*
X177704009Y-56086947D01*
X177730511Y-56092827D01*
X177756031Y-56099614D01*
X177780516Y-56107306D01*
X177803913Y-56115898D01*
X177826171Y-56125388D01*
X177847235Y-56135773D01*
X177867054Y-56147049D01*
X177885575Y-56159214D01*
X177902744Y-56172264D01*
X177918510Y-56186196D01*
X177932819Y-56201006D01*
X177945618Y-56216692D01*
X177956856Y-56233250D01*
X177966479Y-56250677D01*
X177974435Y-56268970D01*
X177980670Y-56288126D01*
X177983516Y-56299286D01*
X177985936Y-56310087D01*
X177987946Y-56320530D01*
X177989565Y-56330617D01*
X177990811Y-56340350D01*
X177991701Y-56349729D01*
X177992253Y-56358757D01*
X177992485Y-56367435D01*
X177992414Y-56375764D01*
X177992059Y-56383747D01*
X177991437Y-56391385D01*
X177990566Y-56398679D01*
X177989465Y-56405631D01*
X177988149Y-56412242D01*
X177986638Y-56418515D01*
X177984950Y-56424450D01*
X177983101Y-56430049D01*
X177981111Y-56435314D01*
X177978995Y-56440247D01*
X177976774Y-56444849D01*
X177974463Y-56449121D01*
X177972082Y-56453065D01*
X177969647Y-56456683D01*
X177967177Y-56459976D01*
X177964690Y-56462945D01*
X177962202Y-56465594D01*
X177959733Y-56467922D01*
X177957299Y-56469931D01*
X177954919Y-56471624D01*
X177952610Y-56473001D01*
X177950391Y-56474065D01*
X177948278Y-56474816D01*
X177941211Y-56476419D01*
X177934458Y-56477388D01*
X177927998Y-56477764D01*
X177921808Y-56477591D01*
X177915867Y-56476912D01*
X177910153Y-56475769D01*
X177904643Y-56474204D01*
X177899315Y-56472260D01*
X177894148Y-56469980D01*
X177889119Y-56467406D01*
X177884206Y-56464581D01*
X177879388Y-56461548D01*
X177869946Y-56455027D01*
X177860617Y-56448183D01*
X177851224Y-56441358D01*
X177841592Y-56434893D01*
X177836630Y-56431902D01*
X177831543Y-56429129D01*
X177826308Y-56426615D01*
X177820902Y-56424405D01*
X177815305Y-56422541D01*
X177809493Y-56421064D01*
X177803445Y-56420019D01*
X177797138Y-56419447D01*
X177790552Y-56419391D01*
X177783663Y-56419893D01*
X177776450Y-56420997D01*
X177768890Y-56422745D01*
X177746657Y-56430723D01*
X177726425Y-56441948D01*
X177708158Y-56456380D01*
X177691817Y-56473975D01*
X177664766Y-56518492D01*
X177644974Y-56575166D01*
X177632142Y-56643664D01*
X177625969Y-56723654D01*
X177626159Y-56814802D01*
X177632410Y-56916775D01*
X177644425Y-57029241D01*
X177661904Y-57151866D01*
X177712059Y-57426263D01*
X177780482Y-57737301D01*
X177864782Y-58082317D01*
X177903021Y-58069864D01*
X177940355Y-58058177D01*
X178012246Y-58036836D01*
X178080334Y-58017757D01*
X178144494Y-58000405D01*
X178153282Y-57999234D01*
X178162120Y-58000388D01*
X178170975Y-58003718D01*
X178179813Y-58009079D01*
X178188602Y-58016324D01*
X178197307Y-58025306D01*
X178205896Y-58035879D01*
X178214335Y-58047895D01*
X178230630Y-58075673D01*
X178245925Y-58107465D01*
X178259952Y-58142100D01*
X178272446Y-58178402D01*
X178283139Y-58215200D01*
X178291764Y-58251319D01*
X178298054Y-58285586D01*
X178301742Y-58316827D01*
X178302562Y-58343870D01*
X178301812Y-58355450D01*
X178300245Y-58365540D01*
X178297828Y-58373994D01*
X178294526Y-58380665D01*
X178290307Y-58385406D01*
X178285138Y-58388071D01*
X178274031Y-58391773D01*
X178253816Y-58399594D01*
X178189058Y-58426449D01*
X178096854Y-58466341D01*
X177983197Y-58516977D01*
X178025109Y-58671280D01*
X178025091Y-58671280D01*
X178444279Y-60204646D01*
X178508723Y-60452851D01*
X178553290Y-60640811D01*
X178567536Y-60711232D01*
X178576112Y-60765430D01*
X178578786Y-60803019D01*
X178577836Y-60815464D01*
X178575323Y-60823612D01*
X178569625Y-60829919D01*
X178559494Y-60836940D01*
X178527021Y-60852814D01*
X178480072Y-60870610D01*
X178420816Y-60889703D01*
X178351420Y-60909469D01*
X178274054Y-60929285D01*
X178104081Y-60966568D01*
X178015810Y-60982787D01*
X177928242Y-60996558D01*
X177843545Y-61007258D01*
X177763886Y-61014263D01*
X177691434Y-61016948D01*
X177628357Y-61014689D01*
X177576823Y-61006862D01*
X177556063Y-61000665D01*
X177539001Y-60992843D01*
X177530241Y-60981434D01*
X177518505Y-60957314D01*
X177486969Y-60874409D01*
X177446130Y-60751075D01*
X177397721Y-60594259D01*
X177285134Y-60207965D01*
X177163086Y-59771099D01*
X177144339Y-59823727D01*
X177124016Y-59875169D01*
X177102049Y-59925243D01*
X177078370Y-59973767D01*
X177052913Y-60020559D01*
X177025611Y-60065437D01*
X176996397Y-60108220D01*
X176965203Y-60148725D01*
X176931964Y-60186771D01*
X176914556Y-60204815D01*
X176896611Y-60222175D01*
X176878121Y-60238830D01*
X176859078Y-60254757D01*
X176839473Y-60269932D01*
X176819298Y-60284333D01*
X176798544Y-60297938D01*
X176777203Y-60310723D01*
X176755267Y-60322666D01*
X176732727Y-60333744D01*
X176709576Y-60343934D01*
X176685803Y-60353214D01*
X176661403Y-60361561D01*
X176636364Y-60368952D01*
X176563541Y-60386571D01*
X176491806Y-60399446D01*
X176456366Y-60404003D01*
X176421224Y-60407252D01*
X176386388Y-60409154D01*
X176351865Y-60409666D01*
X176317664Y-60408749D01*
X176283795Y-60406363D01*
X176250264Y-60402466D01*
X176217082Y-60397018D01*
X176184255Y-60389979D01*
X176151793Y-60381309D01*
X176119703Y-60370966D01*
X176087996Y-60358910D01*
X176056677Y-60345100D01*
X176025757Y-60329497D01*
X175995244Y-60312059D01*
X175965146Y-60292747D01*
X175935471Y-60271519D01*
X175906228Y-60248335D01*
X175877426Y-60223154D01*
X175849072Y-60195937D01*
X175821176Y-60166641D01*
X175793745Y-60135228D01*
X175766788Y-60101656D01*
X175740314Y-60065885D01*
X175714330Y-60027875D01*
X175688846Y-59987584D01*
X175663870Y-59944973D01*
X175639410Y-59900000D01*
X175630084Y-59984093D01*
X175617634Y-60065603D01*
X175601948Y-60144309D01*
X175582915Y-60219987D01*
X175560423Y-60292416D01*
X175547846Y-60327341D01*
X175534363Y-60361371D01*
X175519959Y-60394477D01*
X175504621Y-60426631D01*
X175488336Y-60457805D01*
X175471088Y-60487972D01*
X175452865Y-60517104D01*
X175433652Y-60545172D01*
X175413436Y-60572150D01*
X175392202Y-60598009D01*
X175369937Y-60622721D01*
X175346626Y-60646258D01*
X175322257Y-60668593D01*
X175296814Y-60689698D01*
X175270285Y-60709545D01*
X175242655Y-60728106D01*
X175213910Y-60745354D01*
X175184036Y-60761259D01*
X175153020Y-60775795D01*
X175120848Y-60788934D01*
X175087505Y-60800648D01*
X175052978Y-60810909D01*
X175019064Y-60819236D01*
X174985542Y-60825784D01*
X174952415Y-60830586D01*
X174919682Y-60833676D01*
X174887344Y-60835086D01*
X174855403Y-60834850D01*
X174823858Y-60833001D01*
X174792710Y-60829572D01*
X174761960Y-60824596D01*
X174731610Y-60818106D01*
X174701658Y-60810135D01*
X174672107Y-60800718D01*
X174642957Y-60789885D01*
X174614208Y-60777672D01*
X174585862Y-60764111D01*
X174557918Y-60749234D01*
X174530378Y-60733076D01*
X174503243Y-60715670D01*
X174476513Y-60697047D01*
X174450188Y-60677243D01*
X174424270Y-60656289D01*
X174398759Y-60634219D01*
X174348961Y-60586864D01*
X174300801Y-60535442D01*
X174254283Y-60480218D01*
X174209414Y-60421458D01*
X174166198Y-60359426D01*
X174144594Y-60430624D01*
X174120027Y-60501019D01*
X174092324Y-60570297D01*
X174061313Y-60638144D01*
X174026821Y-60704249D01*
X173988676Y-60768298D01*
X173946706Y-60829977D01*
X173900737Y-60888975D01*
X173850597Y-60944977D01*
X173823909Y-60971757D01*
X173796113Y-60997671D01*
X173767189Y-61022680D01*
X173737114Y-61046744D01*
X173705866Y-61069825D01*
X173673425Y-61091883D01*
X173639769Y-61112879D01*
X173604876Y-61132774D01*
X173568724Y-61151529D01*
X173531293Y-61169105D01*
X173492560Y-61185462D01*
X173452503Y-61200562D01*
X173411102Y-61214365D01*
X173368335Y-61226833D01*
X173306064Y-61243044D01*
X173245101Y-61257501D01*
X173185436Y-61270201D01*
X173127060Y-61281137D01*
X173069961Y-61290306D01*
X173014131Y-61297703D01*
X172959560Y-61303323D01*
X172906238Y-61307161D01*
X172854155Y-61309214D01*
X172803302Y-61309477D01*
X172753668Y-61307944D01*
X172705244Y-61304611D01*
X172658019Y-61299474D01*
X172611986Y-61292528D01*
X172567132Y-61283769D01*
X172523449Y-61273191D01*
X172499950Y-61306516D01*
X172475300Y-61338607D01*
X172449508Y-61369435D01*
X172422584Y-61398970D01*
X172394536Y-61427185D01*
X172365373Y-61454050D01*
X172335106Y-61479536D01*
X172303743Y-61503615D01*
X172271294Y-61526258D01*
X172237768Y-61547436D01*
X172203174Y-61567120D01*
X172167521Y-61585281D01*
X172130818Y-61601892D01*
X172093076Y-61616921D01*
X172054303Y-61630342D01*
X172014508Y-61642125D01*
X171888723Y-61674444D01*
X171759865Y-61702770D01*
X171628852Y-61725058D01*
X171496598Y-61739264D01*
X171430292Y-61742697D01*
X171364020Y-61743344D01*
X171297895Y-61740948D01*
X171232034Y-61735254D01*
X171166550Y-61726007D01*
X171101557Y-61712950D01*
X171037171Y-61695829D01*
X170973505Y-61674389D01*
X170910675Y-61648372D01*
X170848794Y-61617525D01*
X170787978Y-61581591D01*
X170728341Y-61540315D01*
X170669997Y-61493441D01*
X170613061Y-61440714D01*
X170557648Y-61381879D01*
X170503871Y-61316680D01*
X170451846Y-61244861D01*
X170401688Y-61166167D01*
X170353510Y-61080342D01*
X170307427Y-60987131D01*
X170263554Y-60886279D01*
X170222005Y-60777529D01*
X170182894Y-60660627D01*
X170146337Y-60535317D01*
X170082629Y-60284856D01*
X170056073Y-60166785D01*
X170033082Y-60053351D01*
X170013680Y-59944452D01*
X169997891Y-59839986D01*
X169985740Y-59739852D01*
X169977250Y-59643946D01*
X169972445Y-59552168D01*
X169971351Y-59464415D01*
X169973992Y-59380585D01*
X169978033Y-59330051D01*
X171049608Y-59330051D01*
X171052970Y-59407703D01*
X171060913Y-59494465D01*
X171073746Y-59590651D01*
X171091776Y-59696574D01*
X171115312Y-59812548D01*
X171144662Y-59938886D01*
X171180133Y-60075901D01*
X171309367Y-60559323D01*
X171336166Y-60654797D01*
X171361843Y-60740324D01*
X171374429Y-60779390D01*
X171386937Y-60816008D01*
X171399435Y-60850191D01*
X171411990Y-60881952D01*
X171424670Y-60911304D01*
X171437541Y-60938260D01*
X171450673Y-60962832D01*
X171464132Y-60985034D01*
X171477986Y-61004878D01*
X171492302Y-61022378D01*
X171507148Y-61037546D01*
X171522592Y-61050396D01*
X171538701Y-61060939D01*
X171555543Y-61069189D01*
X171573185Y-61075160D01*
X171591694Y-61078863D01*
X171611139Y-61080312D01*
X171631587Y-61079519D01*
X171653106Y-61076498D01*
X171675763Y-61071262D01*
X171686306Y-61067682D01*
X171696209Y-61062897D01*
X171705475Y-61056912D01*
X171714107Y-61049730D01*
X171729485Y-61031798D01*
X171742369Y-61009134D01*
X171752787Y-60981774D01*
X171760765Y-60949755D01*
X171766329Y-60913110D01*
X171769508Y-60871876D01*
X171770328Y-60826087D01*
X171768815Y-60775780D01*
X171764998Y-60720989D01*
X171758902Y-60661750D01*
X171750554Y-60598098D01*
X171739983Y-60530069D01*
X171727213Y-60457697D01*
X171712274Y-60381019D01*
X171711010Y-60375301D01*
X171695298Y-60332863D01*
X171680043Y-60290172D01*
X171665199Y-60247005D01*
X171650716Y-60203138D01*
X171636546Y-60158349D01*
X171622642Y-60112415D01*
X171608954Y-60065110D01*
X171595434Y-60016213D01*
X171579633Y-59956847D01*
X171564659Y-59898245D01*
X171550565Y-59840335D01*
X171537401Y-59783046D01*
X171525221Y-59726309D01*
X171514074Y-59670052D01*
X171504014Y-59614205D01*
X171495092Y-59558696D01*
X171470271Y-59485034D01*
X171446157Y-59416551D01*
X171422736Y-59353226D01*
X171399993Y-59295037D01*
X171377914Y-59241962D01*
X171356484Y-59193979D01*
X171346009Y-59171891D01*
X171335690Y-59151067D01*
X171325526Y-59131505D01*
X171315516Y-59113203D01*
X171305658Y-59096158D01*
X171295949Y-59080366D01*
X171286388Y-59065826D01*
X171276974Y-59052534D01*
X171267704Y-59040488D01*
X171258576Y-59029684D01*
X171249589Y-59020122D01*
X171240742Y-59011796D01*
X171232031Y-59004706D01*
X171223456Y-58998847D01*
X171215015Y-58994218D01*
X171206705Y-58990816D01*
X171198526Y-58988637D01*
X171190474Y-58987679D01*
X171182550Y-58987940D01*
X171174749Y-58989417D01*
X171150727Y-58999184D01*
X171128515Y-59015239D01*
X171108423Y-59037897D01*
X171090757Y-59067471D01*
X171075826Y-59104274D01*
X171063938Y-59148621D01*
X171055401Y-59200823D01*
X171050521Y-59261195D01*
X171049608Y-59330051D01*
X169978033Y-59330051D01*
X169980391Y-59300577D01*
X169990572Y-59224288D01*
X170004561Y-59151616D01*
X170022381Y-59082459D01*
X170044057Y-59016716D01*
X170069613Y-58954285D01*
X170099072Y-58895062D01*
X170132460Y-58838948D01*
X170150177Y-58813748D01*
X172489457Y-58813748D01*
X172491094Y-58886179D01*
X172496613Y-58962386D01*
X172505373Y-59040836D01*
X172516731Y-59119998D01*
X172544675Y-59274325D01*
X172575305Y-59413107D01*
X172603485Y-59524085D01*
X172608440Y-59542713D01*
X172611114Y-59553424D01*
X172613810Y-59565002D01*
X172616446Y-59577398D01*
X172618942Y-59590565D01*
X172621216Y-59604454D01*
X172623187Y-59619016D01*
X172642833Y-59613077D01*
X172661482Y-59606234D01*
X172679155Y-59598521D01*
X172695872Y-59589968D01*
X172711654Y-59580608D01*
X172726523Y-59570474D01*
X172740497Y-59559598D01*
X172753599Y-59548012D01*
X172765849Y-59535748D01*
X172777268Y-59522839D01*
X172787876Y-59509316D01*
X172797694Y-59495213D01*
X172806743Y-59480561D01*
X172815043Y-59465393D01*
X172829480Y-59433637D01*
X172841172Y-59400203D01*
X172850283Y-59365349D01*
X172856979Y-59329333D01*
X172861426Y-59292414D01*
X172863790Y-59254849D01*
X172864235Y-59216897D01*
X172862928Y-59178816D01*
X172860034Y-59140863D01*
X172846628Y-59054713D01*
X172829582Y-58955001D01*
X172819395Y-58902696D01*
X172807938Y-58850162D01*
X172795091Y-58798456D01*
X172780735Y-58748631D01*
X172764750Y-58701742D01*
X172747015Y-58658842D01*
X172737454Y-58639218D01*
X172727410Y-58620987D01*
X172716870Y-58604280D01*
X172705817Y-58589231D01*
X172694236Y-58575969D01*
X172682114Y-58564627D01*
X172669434Y-58555337D01*
X172656181Y-58548231D01*
X172642342Y-58543440D01*
X172627900Y-58541097D01*
X172612841Y-58541332D01*
X172597149Y-58544278D01*
X172578567Y-58551358D01*
X172562000Y-58561871D01*
X172547367Y-58575628D01*
X172534588Y-58592435D01*
X172523582Y-58612102D01*
X172514269Y-58634437D01*
X172506570Y-58659248D01*
X172500403Y-58686345D01*
X172492346Y-58746626D01*
X172489457Y-58813748D01*
X170150177Y-58813748D01*
X170169801Y-58785838D01*
X170211118Y-58735633D01*
X170256436Y-58688229D01*
X170305780Y-58643524D01*
X170359173Y-58601417D01*
X170416640Y-58561806D01*
X170478204Y-58524588D01*
X170543892Y-58489662D01*
X170613725Y-58456926D01*
X170687729Y-58426277D01*
X170765929Y-58397614D01*
X170848347Y-58370835D01*
X170935009Y-58345838D01*
X171014949Y-58325967D01*
X171101425Y-58308620D01*
X171146786Y-58301280D01*
X171193385Y-58295037D01*
X171241093Y-58290047D01*
X171289776Y-58286464D01*
X171339304Y-58284443D01*
X171389545Y-58284141D01*
X171440368Y-58285712D01*
X171491640Y-58289312D01*
X171543231Y-58295096D01*
X171595008Y-58303219D01*
X171646840Y-58313838D01*
X171698596Y-58327106D01*
X171722842Y-58300204D01*
X171748439Y-58274154D01*
X171775388Y-58248970D01*
X171803693Y-58224662D01*
X171833356Y-58201244D01*
X171864379Y-58178728D01*
X171896767Y-58157125D01*
X171930522Y-58136447D01*
X171965646Y-58116707D01*
X172002142Y-58097917D01*
X172040013Y-58080089D01*
X172079262Y-58063234D01*
X172119891Y-58047366D01*
X172161904Y-58032495D01*
X172205303Y-58018635D01*
X172250091Y-58005797D01*
X172337650Y-57984848D01*
X172420740Y-57970623D01*
X172499474Y-57962740D01*
X172573966Y-57960820D01*
X172644331Y-57964481D01*
X172710682Y-57973343D01*
X172773135Y-57987024D01*
X172831802Y-58005144D01*
X172886799Y-58027322D01*
X172938238Y-58053177D01*
X172986235Y-58082328D01*
X173030904Y-58114394D01*
X173072358Y-58148996D01*
X173110712Y-58185750D01*
X173146080Y-58224278D01*
X173178576Y-58264197D01*
X173208313Y-58305128D01*
X173235407Y-58346689D01*
X173282121Y-58430178D01*
X173319628Y-58511619D01*
X173348843Y-58587963D01*
X173370679Y-58656165D01*
X173386047Y-58713177D01*
X173401037Y-58781446D01*
X173414164Y-58833493D01*
X173425004Y-58884430D01*
X173433614Y-58934242D01*
X173440048Y-58982909D01*
X173444361Y-59030416D01*
X173446608Y-59076745D01*
X173446844Y-59121878D01*
X173445122Y-59165799D01*
X173441499Y-59208490D01*
X173436030Y-59249935D01*
X173428767Y-59290115D01*
X173419768Y-59329014D01*
X173409086Y-59366615D01*
X173396777Y-59402899D01*
X173382895Y-59437851D01*
X173367495Y-59471453D01*
X173350631Y-59503687D01*
X173332360Y-59534537D01*
X173312734Y-59563985D01*
X173291811Y-59592014D01*
X173269643Y-59618607D01*
X173246286Y-59643747D01*
X173221796Y-59667415D01*
X173196225Y-59689596D01*
X173169631Y-59710272D01*
X173142066Y-59729426D01*
X173113587Y-59747041D01*
X173084248Y-59763098D01*
X173054103Y-59777582D01*
X173023208Y-59790475D01*
X172991618Y-59801760D01*
X172959387Y-59811419D01*
X172910868Y-59826064D01*
X172849338Y-59846186D01*
X172777986Y-59871069D01*
X172739623Y-59885073D01*
X172700000Y-59900000D01*
X172720453Y-59964017D01*
X172743094Y-60028603D01*
X172768052Y-60092944D01*
X172795461Y-60156224D01*
X172825453Y-60217628D01*
X172858159Y-60276343D01*
X172875572Y-60304437D01*
X172893712Y-60331553D01*
X172912597Y-60357589D01*
X172932244Y-60382443D01*
X172952668Y-60406013D01*
X172973886Y-60428198D01*
X172995915Y-60448896D01*
X173018771Y-60468004D01*
X173042471Y-60485422D01*
X173067031Y-60501046D01*
X173092468Y-60514776D01*
X173118798Y-60526509D01*
X173146037Y-60536144D01*
X173174203Y-60543578D01*
X173203312Y-60548710D01*
X173233380Y-60551438D01*
X173264423Y-60551661D01*
X173296459Y-60549275D01*
X173329504Y-60544180D01*
X173363574Y-60536274D01*
X173396320Y-60525726D01*
X173427433Y-60512558D01*
X173456951Y-60496888D01*
X173484911Y-60478833D01*
X173511350Y-60458512D01*
X173536307Y-60436043D01*
X173559818Y-60411544D01*
X173581922Y-60385132D01*
X173602656Y-60356926D01*
X173622057Y-60327043D01*
X173657011Y-60262722D01*
X173687086Y-60193111D01*
X173712582Y-60119156D01*
X173733799Y-60041800D01*
X173751038Y-59961987D01*
X173764600Y-59880662D01*
X173774783Y-59798769D01*
X173781891Y-59717251D01*
X173786222Y-59637053D01*
X173788076Y-59559119D01*
X173787756Y-59484392D01*
X173781713Y-59464072D01*
X173714617Y-59214912D01*
X173651004Y-58971278D01*
X173593433Y-58739557D01*
X173544464Y-58526138D01*
X173524005Y-58428289D01*
X173506656Y-58337410D01*
X173492738Y-58254301D01*
X173482569Y-58179761D01*
X173476471Y-58114587D01*
X173474763Y-58059579D01*
X173477765Y-58015534D01*
X173481132Y-57997873D01*
X173485797Y-57983252D01*
X173501877Y-57959278D01*
X173522172Y-57936007D01*
X173546375Y-57913461D01*
X173574183Y-57891661D01*
X173605290Y-57870632D01*
X173639391Y-57850393D01*
X173715357Y-57812378D01*
X173799643Y-57777794D01*
X173889809Y-57746817D01*
X173983416Y-57719624D01*
X174078026Y-57696392D01*
X174171199Y-57677297D01*
X174260497Y-57662516D01*
X174343480Y-57652226D01*
X174417709Y-57646604D01*
X174480747Y-57645826D01*
X174530152Y-57650069D01*
X174548981Y-57654129D01*
X174563488Y-57659510D01*
X174573367Y-57666235D01*
X174578314Y-57674326D01*
X174640902Y-58002294D01*
X174701077Y-58300198D01*
X174776528Y-58631908D01*
X174819049Y-58797438D01*
X174864270Y-58955818D01*
X174911818Y-59101848D01*
X174961320Y-59230325D01*
X175012404Y-59336051D01*
X175038422Y-59378757D01*
X175064695Y-59413824D01*
X175091177Y-59440603D01*
X175117822Y-59458443D01*
X175144582Y-59466695D01*
X175171411Y-59464708D01*
X175186171Y-59458712D01*
X175199465Y-59449206D01*
X175211336Y-59436326D01*
X175221831Y-59420208D01*
X175238863Y-59378796D01*
X175250917Y-59326054D01*
X175258346Y-59263063D01*
X175261505Y-59190906D01*
X175260748Y-59110665D01*
X175256429Y-59023421D01*
X175238524Y-58832258D01*
X175210624Y-58626075D01*
X175175565Y-58413530D01*
X175136181Y-58203281D01*
X175108676Y-58092711D01*
X175083811Y-57989876D01*
X175061603Y-57894832D01*
X175042072Y-57807635D01*
X175025235Y-57728341D01*
X175011110Y-57657005D01*
X174999715Y-57593684D01*
X174991070Y-57538434D01*
X174970123Y-57461599D01*
X174982830Y-57464139D01*
X174982453Y-57458847D01*
X174982163Y-57453798D01*
X174981963Y-57448981D01*
X174981858Y-57444386D01*
X174981852Y-57440003D01*
X174981949Y-57435823D01*
X174982153Y-57431833D01*
X174982469Y-57428025D01*
X174982900Y-57424388D01*
X174983450Y-57420912D01*
X174984124Y-57417587D01*
X174984926Y-57414402D01*
X174985860Y-57411347D01*
X174986930Y-57408413D01*
X174988141Y-57405588D01*
X174989495Y-57402863D01*
X174996174Y-57395072D01*
X175007676Y-57386235D01*
X175043961Y-57365831D01*
X175095957Y-57342475D01*
X175161276Y-57316989D01*
X175237527Y-57290198D01*
X175322319Y-57262923D01*
X175507963Y-57210219D01*
X175604035Y-57186435D01*
X175699085Y-57165462D01*
X175790724Y-57148122D01*
X175876561Y-57135239D01*
X175954205Y-57127635D01*
X176021265Y-57126134D01*
X176050080Y-57127930D01*
X176075352Y-57131560D01*
X176096783Y-57137127D01*
X176114074Y-57144735D01*
X176125286Y-57159463D01*
X176135620Y-57189533D01*
X176155303Y-57292437D01*
X176202219Y-57646504D01*
X176236022Y-57884637D01*
X176281102Y-58154816D01*
X176340743Y-58450527D01*
X176377051Y-58605921D01*
X176418231Y-58765255D01*
X176454066Y-58899259D01*
X176487812Y-59022548D01*
X176504596Y-59079225D01*
X176521693Y-59132085D01*
X176539379Y-59180748D01*
X176548530Y-59203387D01*
X176557933Y-59224835D01*
X176567623Y-59245043D01*
X176577634Y-59263965D01*
X176588001Y-59281553D01*
X176598758Y-59297760D01*
X176609942Y-59312538D01*
X176621585Y-59325840D01*
X176633724Y-59337618D01*
X176646392Y-59347825D01*
X176659625Y-59356414D01*
X176673457Y-59363337D01*
X176687924Y-59368546D01*
X176703059Y-59371995D01*
X176718898Y-59373635D01*
X176735475Y-59373420D01*
X176752825Y-59371301D01*
X176770983Y-59367232D01*
X176778568Y-59364715D01*
X176785846Y-59361403D01*
X176792825Y-59357317D01*
X176799508Y-59352476D01*
X176805901Y-59346901D01*
X176812010Y-59340613D01*
X176823393Y-59325974D01*
X176833700Y-59308721D01*
X176842971Y-59289016D01*
X176851248Y-59267020D01*
X176858572Y-59242894D01*
X176864984Y-59216800D01*
X176870527Y-59188899D01*
X176875240Y-59159353D01*
X176879166Y-59128322D01*
X176882346Y-59095968D01*
X176884821Y-59062453D01*
X176887823Y-58992585D01*
X176869261Y-58999912D01*
X176853614Y-59005960D01*
X176847125Y-59008401D01*
X176841655Y-59010400D01*
X176837299Y-59011915D01*
X176834155Y-59012905D01*
X176825526Y-59007138D01*
X176816688Y-58999673D01*
X176807681Y-58990619D01*
X176798545Y-58980083D01*
X176780050Y-58955001D01*
X176761523Y-58925295D01*
X176743288Y-58891830D01*
X176725668Y-58855474D01*
X176708983Y-58817095D01*
X176693557Y-58777558D01*
X176679713Y-58737731D01*
X176667771Y-58698481D01*
X176658055Y-58660674D01*
X176650887Y-58625178D01*
X176646590Y-58592860D01*
X176645486Y-58564586D01*
X176646231Y-58552236D01*
X176647896Y-58541223D01*
X176650520Y-58531654D01*
X176654144Y-58523638D01*
X176657136Y-58520535D01*
X176660988Y-58517070D01*
X176671258Y-58509133D01*
X176684929Y-58499975D01*
X176701973Y-58489745D01*
X176722366Y-58478593D01*
X176746081Y-58466666D01*
X176773093Y-58454116D01*
X176803375Y-58441089D01*
X176734299Y-58179686D01*
X176698554Y-58025802D01*
X176664831Y-57860585D01*
X176635249Y-57687125D01*
X176611928Y-57508512D01*
X176596988Y-57327836D01*
X176592549Y-57148189D01*
X176594930Y-57059717D01*
X176600732Y-56972661D01*
X176610218Y-56887407D01*
X176623654Y-56804342D01*
X176641306Y-56723852D01*
X176663437Y-56646323D01*
X176690314Y-56572142D01*
X176722200Y-56501694D01*
X176759362Y-56435367D01*
X176802064Y-56373547D01*
X176850571Y-56316619D01*
X176905147Y-56264971D01*
X176966059Y-56218988D01*
X177033570Y-56179057D01*
X177107947Y-56145564D01*
X177189453Y-56118895D01*
X177224496Y-56109821D01*
X177259400Y-56101705D01*
X177294114Y-56094545D01*
X177328583Y-56088337D01*
X177362756Y-56083078D01*
X177396580Y-56078764D01*
X177430002Y-56075394D01*
X177462969Y-56072962D01*
X177495429Y-56071467D01*
X177527328Y-56070905D01*
X177558615Y-56071273D01*
G37*
G36*
X169283224Y-58101605D02*
G01*
X169292714Y-58102372D01*
X169301731Y-58103617D01*
X169310254Y-58105369D01*
X169318260Y-58107653D01*
X169325727Y-58110498D01*
X169332633Y-58113929D01*
X169338956Y-58117975D01*
X169344673Y-58122661D01*
X169349762Y-58128015D01*
X169354201Y-58134064D01*
X169357968Y-58140834D01*
X169361040Y-58148354D01*
X169363396Y-58156649D01*
X169365013Y-58165747D01*
X169365869Y-58175674D01*
X169365942Y-58186458D01*
X169364188Y-58212624D01*
X169360197Y-58245765D01*
X169346714Y-58328724D01*
X169327901Y-58426841D01*
X169306172Y-58531621D01*
X169238299Y-58847492D01*
X169235175Y-58858605D01*
X169229889Y-58869705D01*
X169222591Y-58880743D01*
X169213426Y-58891669D01*
X169202544Y-58902432D01*
X169190091Y-58912984D01*
X169176216Y-58923274D01*
X169161066Y-58933253D01*
X169144788Y-58942870D01*
X169127531Y-58952076D01*
X169090668Y-58969054D01*
X169051658Y-58983791D01*
X169011683Y-58995886D01*
X168971924Y-59004941D01*
X168933562Y-59010558D01*
X168915274Y-59011952D01*
X168897778Y-59012337D01*
X168881223Y-59011664D01*
X168865754Y-59009881D01*
X168851522Y-59006940D01*
X168838672Y-59002791D01*
X168827352Y-58997383D01*
X168817711Y-58990668D01*
X168809896Y-58982594D01*
X168804054Y-58973113D01*
X168800334Y-58962175D01*
X168798883Y-58949729D01*
X168778205Y-58670409D01*
X168772898Y-58583929D01*
X168768926Y-58494405D01*
X168766986Y-58403646D01*
X168767773Y-58313460D01*
X168768313Y-58303597D01*
X168769791Y-58294122D01*
X168772173Y-58285024D01*
X168775426Y-58276291D01*
X168779518Y-58267911D01*
X168784414Y-58259873D01*
X168790082Y-58252165D01*
X168796487Y-58244774D01*
X168803598Y-58237691D01*
X168811381Y-58230902D01*
X168828828Y-58218162D01*
X168848564Y-58206461D01*
X168870321Y-58195705D01*
X168893835Y-58185802D01*
X168918839Y-58176657D01*
X168945067Y-58168177D01*
X168972253Y-58160269D01*
X169028436Y-58145794D01*
X169085260Y-58132483D01*
X169140582Y-58119956D01*
X169167229Y-58114355D01*
X169192964Y-58109483D01*
X169217608Y-58105556D01*
X169229466Y-58104015D01*
X169240985Y-58102791D01*
X169252142Y-58101911D01*
X169262916Y-58101402D01*
X169273284Y-58101291D01*
X169283224Y-58101605D01*
G37*
G36*
X167994476Y-58536685D02*
G01*
X168019747Y-58540314D01*
X168041178Y-58545881D01*
X168058468Y-58553489D01*
X168550903Y-60909342D01*
X168586635Y-61043425D01*
X168603589Y-61106610D01*
X168620306Y-61166721D01*
X168637064Y-61223381D01*
X168654141Y-61276213D01*
X168671815Y-61324840D01*
X168680964Y-61347458D01*
X168690365Y-61368884D01*
X168700055Y-61389070D01*
X168710069Y-61407968D01*
X168720440Y-61425533D01*
X168731204Y-61441716D01*
X168742395Y-61456470D01*
X168754048Y-61469749D01*
X168766199Y-61481505D01*
X168778881Y-61491691D01*
X168792130Y-61500260D01*
X168805980Y-61507165D01*
X168820466Y-61512358D01*
X168835624Y-61515793D01*
X168851486Y-61517422D01*
X168868089Y-61517198D01*
X168885467Y-61515074D01*
X168903656Y-61511004D01*
X168921358Y-61503633D01*
X168937362Y-61491830D01*
X168951734Y-61475873D01*
X168964543Y-61456041D01*
X168975855Y-61432614D01*
X168985738Y-61405870D01*
X169001484Y-61343550D01*
X169012318Y-61271315D01*
X169018778Y-61191397D01*
X169021403Y-61106031D01*
X169020729Y-61017448D01*
X169017294Y-60927884D01*
X169011636Y-60839571D01*
X168995802Y-60675631D01*
X168977527Y-60543496D01*
X168961114Y-60461031D01*
X168961132Y-60461036D01*
X168967996Y-60451489D01*
X168976486Y-60443804D01*
X168986486Y-60437895D01*
X168997879Y-60433674D01*
X169010547Y-60431054D01*
X169024375Y-60429948D01*
X169039246Y-60430268D01*
X169055041Y-60431929D01*
X169071646Y-60434842D01*
X169088943Y-60438920D01*
X169106815Y-60444076D01*
X169125146Y-60450224D01*
X169162715Y-60465143D01*
X169200717Y-60482981D01*
X169238216Y-60503040D01*
X169274279Y-60524623D01*
X169307971Y-60547034D01*
X169338358Y-60569574D01*
X169364506Y-60591546D01*
X169385479Y-60612255D01*
X169393733Y-60621917D01*
X169400344Y-60631001D01*
X169405194Y-60639421D01*
X169408166Y-60647089D01*
X169418413Y-60740625D01*
X169425969Y-60941213D01*
X169425126Y-61071154D01*
X169419275Y-61215262D01*
X169406971Y-61369338D01*
X169386770Y-61529182D01*
X169357226Y-61690597D01*
X169316895Y-61849383D01*
X169292232Y-61926479D01*
X169264331Y-62001342D01*
X169233010Y-62073449D01*
X169198089Y-62142275D01*
X169159387Y-62207294D01*
X169116724Y-62267982D01*
X169069919Y-62323814D01*
X169018792Y-62374266D01*
X168963161Y-62418812D01*
X168902846Y-62456927D01*
X168837667Y-62488087D01*
X168767443Y-62511766D01*
X168673439Y-62533769D01*
X168581410Y-62547637D01*
X168491479Y-62552670D01*
X168447338Y-62551655D01*
X168403767Y-62548168D01*
X168360782Y-62542123D01*
X168318397Y-62533431D01*
X168276629Y-62522005D01*
X168235492Y-62507758D01*
X168195002Y-62490601D01*
X168155173Y-62470448D01*
X168116022Y-62447211D01*
X168077564Y-62420801D01*
X168039813Y-62391133D01*
X168002786Y-62358118D01*
X167966497Y-62321668D01*
X167930961Y-62281696D01*
X167896195Y-62238114D01*
X167862213Y-62190836D01*
X167829030Y-62139773D01*
X167796662Y-62084838D01*
X167765125Y-62025942D01*
X167734433Y-61963000D01*
X167704601Y-61895923D01*
X167675646Y-61824623D01*
X167647582Y-61749013D01*
X167620424Y-61669006D01*
X167568890Y-61495449D01*
X167334390Y-60612470D01*
X167221707Y-60171766D01*
X167119745Y-59759436D01*
X167034258Y-59396368D01*
X166971002Y-59103450D01*
X166949510Y-58989825D01*
X166935734Y-58901571D01*
X166930394Y-58841298D01*
X166931113Y-58822470D01*
X166934210Y-58811617D01*
X166940859Y-58803826D01*
X166952334Y-58794989D01*
X166988569Y-58774585D01*
X167040524Y-58751229D01*
X167105807Y-58725744D01*
X167182027Y-58698952D01*
X167266793Y-58671678D01*
X167452401Y-58618975D01*
X167548459Y-58595191D01*
X167643500Y-58574218D01*
X167735132Y-58556878D01*
X167820964Y-58543995D01*
X167898604Y-58536391D01*
X167965662Y-58534889D01*
X167994476Y-58536685D01*
G37*
D11*
G04 #@! TO.C,D21*
X94911783Y-32776543D03*
X94509615Y-36051945D03*
G04 #@! TD*
D12*
G04 #@! TO.C,D38*
X119300000Y-10500000D03*
X119300000Y-12600000D03*
G04 #@! TD*
D13*
G04 #@! TO.C,J5*
X113750000Y-6430000D03*
X106250000Y-6430000D03*
D14*
X113200000Y-7630000D03*
X112450000Y-7630000D03*
D15*
X111250000Y-7630000D03*
X110250000Y-7630000D03*
X109750000Y-7630000D03*
X108750000Y-7630000D03*
D14*
X107550000Y-7630000D03*
X106800000Y-7630000D03*
X106800000Y-7630000D03*
X107550000Y-7630000D03*
D15*
X108250000Y-7630000D03*
X109250000Y-7630000D03*
X110750000Y-7630000D03*
X111750000Y-7630000D03*
D14*
X112450000Y-7630000D03*
X113200000Y-7630000D03*
D16*
X115595000Y-1750000D03*
X115575000Y-6350000D03*
X104425000Y-6350000D03*
X104405000Y-1750000D03*
G04 #@! TD*
D11*
G04 #@! TO.C,D32*
X99447189Y-41430497D03*
X99045021Y-44705899D03*
G04 #@! TD*
D17*
G04 #@! TO.C,SW20*
X197370151Y-31022056D03*
X198832583Y-42932610D03*
X209975487Y-29474316D03*
X211437919Y-41384870D03*
D18*
X202245623Y-39138384D03*
X207208354Y-38529037D03*
G04 #@! TD*
D19*
G04 #@! TO.C,D40*
X100750000Y-62900000D03*
X100750000Y-59600000D03*
G04 #@! TD*
D20*
G04 #@! TO.C,R1*
X104600000Y-10327500D03*
X106250000Y-10327500D03*
G04 #@! TD*
D21*
G04 #@! TO.C,SW24*
X59038878Y-48344616D03*
X57576446Y-60255170D03*
X71644214Y-49892356D03*
X70181782Y-61802910D03*
D22*
X61806011Y-57399337D03*
X66768742Y-58008684D03*
G04 #@! TD*
D23*
G04 #@! TO.C,D37*
X118000000Y-5427500D03*
X118000000Y-8227500D03*
G04 #@! TD*
D17*
G04 #@! TO.C,SW8*
X160515913Y-9855687D03*
X161978345Y-21766241D03*
X173121249Y-8307947D03*
X174583681Y-20218501D03*
D18*
X165391385Y-17972015D03*
X170354116Y-17362668D03*
G04 #@! TD*
D17*
G04 #@! TO.C,SW19*
X179978921Y-28875514D03*
X181441353Y-40786068D03*
X192584257Y-27327774D03*
X194046689Y-39238328D03*
D18*
X184854393Y-36991842D03*
X189817124Y-36382495D03*
G04 #@! TD*
D11*
G04 #@! TO.C,D23*
X100426619Y-33453680D03*
X100024451Y-36729082D03*
G04 #@! TD*
G04 #@! TO.C,D5*
X107900316Y-18177184D03*
X107498148Y-21452586D03*
G04 #@! TD*
D17*
G04 #@! TO.C,SW30*
X199441929Y-47895340D03*
X200904361Y-59805894D03*
X212047265Y-46347600D03*
X213509697Y-58258154D03*
D18*
X204317401Y-56011668D03*
X209280132Y-55402321D03*
G04 #@! TD*
D24*
G04 #@! TO.C,U2*
X109050000Y-12637500D03*
X110000000Y-12637500D03*
X110950000Y-12637500D03*
X110950000Y-10362500D03*
X110000000Y-10362500D03*
X109050000Y-10362500D03*
G04 #@! TD*
D17*
G04 #@! TO.C,SW34*
X133502625Y-68837419D03*
X134965057Y-80747973D03*
X146107961Y-67289679D03*
X147570393Y-79200233D03*
D18*
X138378097Y-76953747D03*
X143340828Y-76344400D03*
G04 #@! TD*
D21*
G04 #@! TO.C,SW32*
X56967099Y-65217900D03*
X55504667Y-77128454D03*
X69572435Y-66765640D03*
X68110003Y-78676194D03*
D22*
X59734232Y-74272621D03*
X64696963Y-74881968D03*
G04 #@! TD*
D25*
G04 #@! TO.C,C2*
X98750000Y-56225000D03*
X98750000Y-54675000D03*
G04 #@! TD*
D26*
G04 #@! TO.C,D27*
X116915219Y-33780062D03*
X117317387Y-37055464D03*
G04 #@! TD*
D27*
G04 #@! TO.C,REF\u002A\u002A*
X150000000Y-8577500D03*
G04 #@! TD*
D28*
G04 #@! TO.C,R7*
X102750000Y-54600000D03*
X102750000Y-56250000D03*
G04 #@! TD*
D27*
G04 #@! TO.C,REF\u002A\u002A*
X30000000Y-66577500D03*
G04 #@! TD*
D21*
G04 #@! TO.C,SW15*
X77983942Y-33543110D03*
X76521510Y-45453664D03*
X90589278Y-35090850D03*
X89126846Y-47001404D03*
D22*
X80751075Y-42597831D03*
X85713806Y-43207178D03*
G04 #@! TD*
D29*
G04 #@! TO.C,X1*
X107898348Y-54459200D03*
X107752104Y-53268144D03*
G04 #@! TD*
D17*
G04 #@! TO.C,SW6*
X127287289Y-18217565D03*
X128749721Y-30128119D03*
X139892625Y-16669825D03*
X141355057Y-28580379D03*
D18*
X132162761Y-26333893D03*
X137125492Y-25724546D03*
G04 #@! TD*
D30*
G04 #@! TO.C,Q1*
X102687500Y-52300000D03*
X102687500Y-50400000D03*
X100812500Y-51350000D03*
G04 #@! TD*
D31*
G04 #@! TO.C,C4*
X107461554Y-56438898D03*
X109000000Y-56250000D03*
G04 #@! TD*
D26*
G04 #@! TO.C,D10*
X123228614Y-16810723D03*
X123630782Y-20086125D03*
G04 #@! TD*
D32*
G04 #@! TO.C,RSW2*
X129625000Y-4475000D03*
X129625000Y-7225000D03*
D33*
X127000000Y-5000000D03*
X132250000Y-5000000D03*
X127000000Y-6700000D03*
X132250000Y-6700000D03*
G04 #@! TD*
D26*
G04 #@! TO.C,D6*
X112198941Y-18164997D03*
X112601109Y-21440399D03*
G04 #@! TD*
D27*
G04 #@! TO.C,REF\u002A\u002A*
X190000000Y-66577500D03*
G04 #@! TD*
D17*
G04 #@! TO.C,SW35*
X150375910Y-66765640D03*
X151838342Y-78676194D03*
X162981246Y-65217900D03*
X164443678Y-77128454D03*
D18*
X155251382Y-74881968D03*
X160214113Y-74272621D03*
G04 #@! TD*
D21*
G04 #@! TO.C,SW25*
X75912163Y-50416395D03*
X74449731Y-62326949D03*
X88517499Y-51964135D03*
X87055067Y-63874689D03*
D22*
X78679296Y-59471116D03*
X83642027Y-60080463D03*
G04 #@! TD*
D34*
G04 #@! TO.C,J4*
X111300000Y-66150000D03*
D35*
X113840000Y-66150000D03*
X116380000Y-66150000D03*
X118920000Y-66150000D03*
G04 #@! TD*
D26*
G04 #@! TO.C,D8*
X117713778Y-17487860D03*
X118115946Y-20763262D03*
G04 #@! TD*
D21*
G04 #@! TO.C,SW1*
X12044638Y-12601031D03*
X10582206Y-24511585D03*
X24649974Y-14148771D03*
X23187542Y-26059325D03*
D22*
X14811771Y-21655752D03*
X19774502Y-22265099D03*
G04 #@! TD*
D21*
G04 #@! TO.C,SW12*
X27364088Y-27327774D03*
X25901656Y-39238328D03*
X39969424Y-28875514D03*
X38506992Y-40786068D03*
D22*
X30131221Y-36382495D03*
X35093952Y-36991842D03*
G04 #@! TD*
D28*
G04 #@! TO.C,R6*
X98250000Y-6100000D03*
X98250000Y-7750000D03*
G04 #@! TD*
D25*
G04 #@! TO.C,C5*
X96750000Y-56225000D03*
X96750000Y-54675000D03*
G04 #@! TD*
D17*
G04 #@! TO.C,SW10*
X195298372Y-14148771D03*
X196760804Y-26059325D03*
X207903708Y-12601031D03*
X209366140Y-24511585D03*
D18*
X200173844Y-22265099D03*
X205136575Y-21655752D03*
G04 #@! TD*
D36*
G04 #@! TO.C,U1*
X123760533Y-49345226D03*
X122500000Y-49500000D03*
X121239466Y-49654774D03*
X119978932Y-49809548D03*
X118718399Y-49964322D03*
X117457865Y-50119096D03*
X116197334Y-50273870D03*
X114936798Y-50428645D03*
X113676264Y-50583419D03*
X112415731Y-50738193D03*
D37*
X110347365Y-52765373D03*
D38*
X112210725Y-53171313D03*
D37*
X110502139Y-54025907D03*
D38*
X112365499Y-54431846D03*
D37*
X110656913Y-55286441D03*
D38*
X112520272Y-55692380D03*
D37*
X110811687Y-56546974D03*
D38*
X112675049Y-56952913D03*
D37*
X110966461Y-57807508D03*
D38*
X112829822Y-58213447D03*
D37*
X111121235Y-59068041D03*
D38*
X112984596Y-59473981D03*
D37*
X111276009Y-60328575D03*
D38*
X113139370Y-60734514D03*
D37*
X111430783Y-61589109D03*
D36*
X113926911Y-63045765D03*
X115187444Y-62890991D03*
D38*
X115598346Y-61027021D03*
D36*
X116447978Y-62736217D03*
D38*
X116858880Y-60872247D03*
D36*
X117708511Y-62581443D03*
D38*
X118119413Y-60717473D03*
D36*
X118969045Y-62426669D03*
D38*
X119379947Y-60562699D03*
D36*
X120229579Y-62271895D03*
D38*
X120640481Y-60407925D03*
D36*
X121490112Y-62117121D03*
D38*
X121901014Y-60253150D03*
D36*
X122750646Y-61962346D03*
D38*
X123161548Y-60098376D03*
D36*
X124011179Y-61807572D03*
D38*
X124422081Y-59943602D03*
D36*
X125271713Y-61652798D03*
G04 #@! TD*
D17*
G04 #@! TO.C,SW26*
X131430846Y-51964135D03*
X132893278Y-63874689D03*
X144036182Y-50416395D03*
X145498614Y-62326949D03*
D18*
X136306318Y-60080463D03*
X141269049Y-59471116D03*
G04 #@! TD*
D11*
G04 #@! TO.C,D12*
X98648631Y-25138295D03*
X98246463Y-28413697D03*
G04 #@! TD*
D21*
G04 #@! TO.C,SW11*
X9972859Y-29474316D03*
X8510427Y-41384870D03*
X22578195Y-31022056D03*
X21115763Y-42932610D03*
D22*
X12739992Y-38529037D03*
X17702723Y-39138384D03*
G04 #@! TD*
D23*
G04 #@! TO.C,D39*
X102000000Y-5427500D03*
X102000000Y-8227500D03*
G04 #@! TD*
D39*
G04 #@! TO.C,L3*
X108845972Y-61031630D03*
X108654028Y-59468370D03*
G04 #@! TD*
D11*
G04 #@! TO.C,D11*
X95891213Y-24799727D03*
X95489045Y-28075129D03*
G04 #@! TD*
D21*
G04 #@! TO.C,SW3*
X46827096Y-8307947D03*
X45364664Y-20218501D03*
X59432432Y-9855687D03*
X57970000Y-21766241D03*
D22*
X49594229Y-17362668D03*
X54556960Y-17972015D03*
G04 #@! TD*
D11*
G04 #@! TO.C,D4*
X105142897Y-17838616D03*
X104740729Y-21114018D03*
G04 #@! TD*
D26*
G04 #@! TO.C,D16*
X113178371Y-26141814D03*
X113580539Y-29417216D03*
G04 #@! TD*
D17*
G04 #@! TO.C,SW27*
X148304131Y-49892356D03*
X149766563Y-61802910D03*
X160909467Y-48344616D03*
X162371899Y-60255170D03*
D18*
X153179603Y-58008684D03*
X158142334Y-57399337D03*
G04 #@! TD*
D26*
G04 #@! TO.C,D20*
X124208044Y-24787540D03*
X124610212Y-28062942D03*
G04 #@! TD*
D11*
G04 #@! TO.C,D1*
X96870643Y-16822910D03*
X96468475Y-20098312D03*
G04 #@! TD*
D26*
G04 #@! TO.C,D34*
X117850000Y-41751267D03*
X118252168Y-45026669D03*
G04 #@! TD*
D17*
G04 #@! TO.C,SW28*
X164659471Y-43602256D03*
X166121903Y-55512810D03*
X177264807Y-42054516D03*
X178727239Y-53965070D03*
D18*
X169534943Y-51718584D03*
X174497674Y-51109237D03*
G04 #@! TD*
D21*
G04 #@! TO.C,SW22*
X25292309Y-44201058D03*
X23829877Y-56111612D03*
X37897645Y-45748798D03*
X36435213Y-57659352D03*
D22*
X28059442Y-53255779D03*
X33022173Y-53865126D03*
G04 #@! TD*
D26*
G04 #@! TO.C,D18*
X118693207Y-25464677D03*
X119095375Y-28740079D03*
G04 #@! TD*
D31*
G04 #@! TO.C,C1*
X106930777Y-51438898D03*
X108469223Y-51250000D03*
G04 #@! TD*
D11*
G04 #@! TO.C,D13*
X101406049Y-25476864D03*
X101003881Y-28752266D03*
G04 #@! TD*
D21*
G04 #@! TO.C,SW5*
X80055721Y-16669825D03*
X78593289Y-28580379D03*
X92661057Y-18217565D03*
X91198625Y-30128119D03*
D22*
X82822854Y-25724546D03*
X87785585Y-26333893D03*
G04 #@! TD*
D17*
G04 #@! TO.C,SW29*
X182050700Y-45748798D03*
X183513132Y-57659352D03*
X194656036Y-44201058D03*
X196118468Y-56111612D03*
D18*
X186926172Y-53865126D03*
X191888903Y-53255779D03*
G04 #@! TD*
D11*
G04 #@! TO.C,D2*
X99628061Y-17161479D03*
X99225893Y-20436881D03*
G04 #@! TD*
D17*
G04 #@! TO.C,SW34*
X133502625Y-68837419D03*
X134965057Y-80747973D03*
X146107961Y-67289679D03*
X147570393Y-79200233D03*
D18*
X138378097Y-76953747D03*
X143340828Y-76344400D03*
G04 #@! TD*
D26*
G04 #@! TO.C,D26*
X114157801Y-34118630D03*
X114559969Y-37394032D03*
G04 #@! TD*
D40*
G04 #@! TO.C,R2*
X106250000Y-13250000D03*
X104600000Y-13250000D03*
G04 #@! TD*
D26*
G04 #@! TO.C,D28*
X119672637Y-33441493D03*
X120074805Y-36716895D03*
G04 #@! TD*
D11*
G04 #@! TO.C,D3*
X102385479Y-17500047D03*
X101983311Y-20775449D03*
G04 #@! TD*
D26*
G04 #@! TO.C,D36*
X123409486Y-41079741D03*
X123811654Y-44355143D03*
G04 #@! TD*
D21*
G04 #@! TO.C,SW23*
X42683538Y-42054516D03*
X41221106Y-53965070D03*
X55288874Y-43602256D03*
X53826442Y-55512810D03*
D22*
X45450671Y-51109237D03*
X50413402Y-51718584D03*
G04 #@! TD*
D17*
G04 #@! TO.C,SW36*
X167249194Y-64693862D03*
X168711626Y-76604416D03*
X179854530Y-63146122D03*
X181316962Y-75056676D03*
D18*
X172124666Y-72810190D03*
X177087397Y-72200843D03*
G04 #@! TD*
D17*
G04 #@! TO.C,SW7*
X144160573Y-16145787D03*
X145623005Y-28056341D03*
X156765909Y-14598047D03*
X158228341Y-26508601D03*
D18*
X149036045Y-24262115D03*
X153998776Y-23652768D03*
G04 #@! TD*
D41*
G04 #@! TO.C,J2*
X94000000Y-66750000D03*
D42*
X96000000Y-66750000D03*
G04 #@! TD*
D11*
G04 #@! TO.C,D33*
X102250000Y-41788968D03*
X101847832Y-45064370D03*
G04 #@! TD*
D21*
G04 #@! TO.C,SW4*
X63182436Y-14598047D03*
X61720004Y-26508601D03*
X75787772Y-16145787D03*
X74325340Y-28056341D03*
D22*
X65949569Y-23652768D03*
X70912300Y-24262115D03*
G04 #@! TD*
D28*
G04 #@! TO.C,R3*
X121750000Y-6100000D03*
X121750000Y-7750000D03*
G04 #@! TD*
D43*
G04 #@! TO.C,J1*
X94400000Y-59621850D03*
X95600000Y-59621850D03*
D44*
X93250000Y-63396850D03*
X96750000Y-63396850D03*
G04 #@! TD*
D21*
G04 #@! TO.C,SW31*
X40093815Y-63146122D03*
X38631383Y-75056676D03*
X52699151Y-64693862D03*
X51236719Y-76604416D03*
D22*
X42860948Y-72200843D03*
X47823679Y-72810190D03*
G04 #@! TD*
D11*
G04 #@! TO.C,D31*
X96689771Y-41091928D03*
X96287603Y-44367330D03*
G04 #@! TD*
D45*
G04 #@! TO.C,L2*
X117300000Y-10837500D03*
X117300000Y-12412500D03*
G04 #@! TD*
D28*
G04 #@! TO.C,R4*
X100750000Y-54675000D03*
X100750000Y-56325000D03*
G04 #@! TD*
D46*
G04 #@! TO.C,C3*
X102775000Y-10250000D03*
X101225000Y-10250000D03*
G04 #@! TD*
D21*
G04 #@! TO.C,SW21*
X7901080Y-46347600D03*
X6438648Y-58258154D03*
X20506416Y-47895340D03*
X19043984Y-59805894D03*
D22*
X10668213Y-55402321D03*
X15630944Y-56011668D03*
G04 #@! TD*
D26*
G04 #@! TO.C,D17*
X115935789Y-25803245D03*
X116337957Y-29078647D03*
G04 #@! TD*
D45*
G04 #@! TO.C,L1*
X115550000Y-10815000D03*
X115550000Y-12390000D03*
G04 #@! TD*
D26*
G04 #@! TO.C,D7*
X114956359Y-17826429D03*
X115358527Y-21101831D03*
G04 #@! TD*
D20*
G04 #@! TO.C,R5*
X101175000Y-13250000D03*
X102825000Y-13250000D03*
G04 #@! TD*
D26*
G04 #@! TO.C,D19*
X121450626Y-25126108D03*
X121852794Y-28401510D03*
G04 #@! TD*
D17*
G04 #@! TO.C,SW17*
X146232352Y-33019071D03*
X147694784Y-44929625D03*
X158837688Y-31471331D03*
X160300120Y-43381885D03*
D18*
X151107824Y-41135399D03*
X156070555Y-40526052D03*
G04 #@! TD*
D17*
G04 #@! TO.C,SW18*
X162587692Y-26728971D03*
X164050124Y-38639525D03*
X175193028Y-25181231D03*
X176655460Y-37091785D03*
D18*
X167463164Y-34845299D03*
X172425895Y-34235952D03*
G04 #@! TD*
D11*
G04 #@! TO.C,D24*
X103184038Y-33792249D03*
X102781870Y-37067651D03*
G04 #@! TD*
D21*
G04 #@! TO.C,SW13*
X44755317Y-25181231D03*
X43292885Y-37091785D03*
X57360653Y-26728971D03*
X55898221Y-38639525D03*
D22*
X47522450Y-34235952D03*
X52485181Y-34845299D03*
G04 #@! TD*
D26*
G04 #@! TO.C,D30*
X125187474Y-32764356D03*
X125589642Y-36039758D03*
G04 #@! TD*
D17*
G04 #@! TO.C,SW9*
X177907142Y-12002229D03*
X179369574Y-23912783D03*
X190512478Y-10454489D03*
X191974910Y-22365043D03*
D18*
X182782614Y-20118557D03*
X187745345Y-19509210D03*
G04 #@! TD*
D26*
G04 #@! TO.C,D35*
X120652067Y-41418310D03*
X121054235Y-44693712D03*
G04 #@! TD*
D11*
G04 #@! TO.C,D14*
X104163467Y-25815432D03*
X103761299Y-29090834D03*
G04 #@! TD*
D26*
G04 #@! TO.C,D9*
X120471196Y-17149292D03*
X120873364Y-20424694D03*
G04 #@! TD*
D11*
G04 #@! TO.C,D25*
X105941456Y-34130817D03*
X105539288Y-37406219D03*
G04 #@! TD*
D47*
G04 #@! TO.C,F1*
X113300000Y-13127500D03*
X113300000Y-10327500D03*
G04 #@! TD*
D27*
G04 #@! TO.C,REF\u002A\u002A*
X70000000Y-8577500D03*
G04 #@! TD*
D21*
G04 #@! TO.C,SW2*
X29435867Y-10454489D03*
X27973435Y-22365043D03*
X42041203Y-12002229D03*
X40578771Y-23912783D03*
D22*
X32203000Y-19509210D03*
X37165731Y-20118557D03*
G04 #@! TD*
D32*
G04 #@! TO.C,RSW1*
X137625000Y-4475000D03*
X137625000Y-7225000D03*
D33*
X135000000Y-5000000D03*
X140250000Y-5000000D03*
X135000000Y-6700000D03*
X140250000Y-6700000D03*
G04 #@! TD*
D17*
G04 #@! TO.C,SW16*
X129359068Y-35090850D03*
X130821500Y-47001404D03*
X141964404Y-33543110D03*
X143426836Y-45453664D03*
D18*
X134234540Y-43207178D03*
X139197271Y-42597831D03*
G04 #@! TD*
D48*
G04 #@! TO.C,J3*
X122630000Y-66265000D03*
X127709999Y-67281000D03*
X127710000Y-65249000D03*
D49*
X123900000Y-66900000D03*
X123900000Y-65630000D03*
X125170000Y-66900000D03*
X125170000Y-65630000D03*
X126440000Y-66900000D03*
X126440000Y-65630000D03*
G04 #@! TD*
D11*
G04 #@! TO.C,D22*
X97669201Y-33115112D03*
X97267033Y-36390514D03*
G04 #@! TD*
D26*
G04 #@! TO.C,D29*
X122430056Y-33102925D03*
X122832224Y-36378327D03*
G04 #@! TD*
D21*
G04 #@! TO.C,SW14*
X61110657Y-31471331D03*
X59648225Y-43381885D03*
X73715993Y-33019071D03*
X72253561Y-44929625D03*
D22*
X63877790Y-40526052D03*
X68840521Y-41135399D03*
G04 #@! TD*
D21*
G04 #@! TO.C,SW33*
X73840384Y-67289679D03*
X72377952Y-79200233D03*
X86445720Y-68837419D03*
X84983288Y-80747973D03*
D22*
X76607517Y-76344400D03*
X81570248Y-76953747D03*
G04 #@! TD*
D50*
G04 #@! TO.C,U3*
X96225000Y-50350000D03*
X96225000Y-51300000D03*
X96225000Y-52250000D03*
X98500000Y-52250000D03*
X98500000Y-50350000D03*
G04 #@! TD*
D11*
G04 #@! TO.C,D15*
X106920886Y-26154000D03*
X106518718Y-29429402D03*
G04 #@! TD*
M02*
