G04 #@! TF.GenerationSoftware,KiCad,Pcbnew,8.0.7*
G04 #@! TF.CreationDate,2025-05-27T12:53:58-04:00*
G04 #@! TF.ProjectId,le-oeuf,6c652d6f-6575-4662-9e6b-696361645f70,rev?*
G04 #@! TF.SameCoordinates,Original*
G04 #@! TF.FileFunction,Copper,L2,Bot*
G04 #@! TF.FilePolarity,Positive*
%FSLAX46Y46*%
G04 Gerber Fmt 4.6, Leading zero omitted, Abs format (unit mm)*
G04 Created by KiCad (PCBNEW 8.0.7) date 2025-05-27 12:53:58*
%MOMM*%
%LPD*%
G01*
G04 APERTURE LIST*
G04 #@! TA.AperFunction,NonConductor*
%ADD10C,0.000000*%
G04 #@! TD*
G04 #@! TA.AperFunction,ComponentPad*
%ADD11O,1.200000X2.250000*%
G04 #@! TD*
G04 #@! TA.AperFunction,ComponentPad*
%ADD12R,1.700000X1.700000*%
G04 #@! TD*
G04 #@! TA.AperFunction,ComponentPad*
%ADD13O,1.700000X1.700000*%
G04 #@! TD*
G04 #@! TA.AperFunction,ComponentPad*
%ADD14R,1.350000X1.350000*%
G04 #@! TD*
G04 #@! TA.AperFunction,ComponentPad*
%ADD15O,1.350000X1.350000*%
G04 #@! TD*
G04 #@! TA.AperFunction,ViaPad*
%ADD16C,0.600000*%
G04 #@! TD*
G04 #@! TA.AperFunction,Conductor*
%ADD17C,0.200000*%
G04 #@! TD*
G04 #@! TA.AperFunction,Conductor*
%ADD18C,0.300000*%
G04 #@! TD*
G04 #@! TA.AperFunction,Conductor*
%ADD19C,0.500000*%
G04 #@! TD*
G04 APERTURE END LIST*
D10*
G04 #@! TA.AperFunction,NonConductor*
G36*
X57570096Y-58749905D02*
G01*
X57900971Y-58943441D01*
X58447287Y-59262993D01*
X59237466Y-59811687D01*
X59929530Y-60396277D01*
X61445964Y-61879024D01*
X62320471Y-62791439D01*
X63217403Y-63784933D01*
X64095437Y-64834797D01*
X64913246Y-65916318D01*
X65629505Y-67004786D01*
X65936639Y-67543902D01*
X66202888Y-68075489D01*
X66423088Y-68596456D01*
X66592071Y-69103716D01*
X66704673Y-69594180D01*
X66755727Y-70064757D01*
X66740069Y-70512361D01*
X66652532Y-70933901D01*
X66487951Y-71326289D01*
X66241160Y-71686436D01*
X65906994Y-72011253D01*
X65480286Y-72297651D01*
X64955871Y-72542541D01*
X64328584Y-72742835D01*
X63593258Y-72895444D01*
X62744728Y-72997278D01*
X61777829Y-73045249D01*
X60687395Y-73036267D01*
X59051825Y-72937498D01*
X57091982Y-72741840D01*
X52411348Y-72080838D01*
X47069239Y-71095219D01*
X41489403Y-69826942D01*
X38742758Y-69099918D01*
X36095587Y-68317965D01*
X33600858Y-67486325D01*
X31311540Y-66610246D01*
X29280600Y-65694970D01*
X27561008Y-64745744D01*
X26205731Y-63767811D01*
X25681263Y-63269719D01*
X25267738Y-62766417D01*
X24970897Y-62269147D01*
X24788164Y-61788768D01*
X24713680Y-61325270D01*
X24739985Y-60904226D01*
X43011328Y-60904226D01*
X43015016Y-60924596D01*
X43015034Y-60924596D01*
X43020705Y-60930903D01*
X43030812Y-60937924D01*
X43063247Y-60953799D01*
X43110169Y-60971596D01*
X43169410Y-60990692D01*
X43238799Y-61010463D01*
X43316167Y-61030286D01*
X43399344Y-61049536D01*
X43486160Y-61067591D01*
X43574446Y-61083826D01*
X43662033Y-61097618D01*
X43746750Y-61108344D01*
X43826428Y-61115378D01*
X43898897Y-61118099D01*
X43961988Y-61115881D01*
X43989339Y-61112726D01*
X44013531Y-61108102D01*
X44034294Y-61101932D01*
X44051356Y-61094138D01*
X44055351Y-61090077D01*
X44060116Y-61082730D01*
X44071852Y-61058610D01*
X44086348Y-61022645D01*
X44103386Y-60975702D01*
X44144223Y-60852358D01*
X44192629Y-60695519D01*
X44246871Y-60512129D01*
X44305215Y-60309131D01*
X44427272Y-59872083D01*
X44446019Y-59924817D01*
X44466350Y-59976337D01*
X44488330Y-60026465D01*
X44512026Y-60075022D01*
X44537502Y-60121827D01*
X44564825Y-60166703D01*
X44594059Y-60209470D01*
X44625271Y-60249950D01*
X44658525Y-60287962D01*
X44693887Y-60323328D01*
X44731422Y-60355870D01*
X44771196Y-60385407D01*
X44813275Y-60411762D01*
X44857724Y-60434754D01*
X44880858Y-60444933D01*
X44904608Y-60454205D01*
X44928984Y-60462547D01*
X44953993Y-60469936D01*
X45026762Y-60487607D01*
X45098457Y-60500521D01*
X45169011Y-60508356D01*
X45238354Y-60510788D01*
X45272549Y-60509878D01*
X45306417Y-60507496D01*
X45339947Y-60503603D01*
X45373131Y-60498158D01*
X45405961Y-60491121D01*
X45438428Y-60482451D01*
X45470523Y-60472108D01*
X45502238Y-60460052D01*
X45533565Y-60446243D01*
X45564494Y-60430640D01*
X45595016Y-60413203D01*
X45625125Y-60393892D01*
X45654810Y-60372667D01*
X45684063Y-60349486D01*
X45712875Y-60324311D01*
X45741239Y-60297100D01*
X45769145Y-60267814D01*
X45796585Y-60236411D01*
X45823549Y-60202852D01*
X45850030Y-60167097D01*
X45876019Y-60129105D01*
X45901508Y-60088836D01*
X45926487Y-60046249D01*
X45950947Y-60001305D01*
X45960273Y-60085446D01*
X45972723Y-60166985D01*
X45988409Y-60245701D01*
X46007443Y-60321375D01*
X46029934Y-60393786D01*
X46055995Y-60462714D01*
X46085736Y-60527938D01*
X46119269Y-60589236D01*
X46156706Y-60646391D01*
X46198156Y-60699179D01*
X46243731Y-60747382D01*
X46268101Y-60769695D01*
X46293543Y-60790779D01*
X46320073Y-60810606D01*
X46347703Y-60829149D01*
X46376448Y-60846380D01*
X46406321Y-60862271D01*
X46437337Y-60876796D01*
X46469510Y-60889926D01*
X46502852Y-60901634D01*
X46537379Y-60911893D01*
X46571294Y-60920277D01*
X46604815Y-60926876D01*
X46637942Y-60931725D01*
X46670675Y-60934855D01*
X46703012Y-60936302D01*
X46734953Y-60936098D01*
X46766498Y-60934275D01*
X46797645Y-60930869D01*
X46828393Y-60925912D01*
X46858744Y-60919436D01*
X46888694Y-60911477D01*
X46918245Y-60902066D01*
X46947394Y-60891237D01*
X46976142Y-60879024D01*
X47004488Y-60865459D01*
X47032430Y-60850577D01*
X47087104Y-60816992D01*
X47140157Y-60778536D01*
X47191585Y-60735473D01*
X47241381Y-60688072D01*
X47289540Y-60636599D01*
X47336057Y-60581320D01*
X47380926Y-60522501D01*
X47424141Y-60460410D01*
X47445745Y-60531665D01*
X47470313Y-60602109D01*
X47498017Y-60671429D01*
X47529029Y-60739313D01*
X47563522Y-60805448D01*
X47601669Y-60869523D01*
X47643641Y-60931223D01*
X47689612Y-60990237D01*
X47739753Y-61046253D01*
X47794238Y-61098957D01*
X47853240Y-61148037D01*
X47884488Y-61171120D01*
X47916929Y-61193180D01*
X47950586Y-61214178D01*
X47985480Y-61234074D01*
X48021632Y-61252830D01*
X48059064Y-61270407D01*
X48097797Y-61286765D01*
X48137854Y-61301866D01*
X48179255Y-61315669D01*
X48222023Y-61328137D01*
X48284348Y-61344351D01*
X48345358Y-61358818D01*
X48405062Y-61371531D01*
X48463470Y-61382484D01*
X48520593Y-61391673D01*
X48576439Y-61399089D01*
X48631020Y-61404728D01*
X48684344Y-61408584D01*
X48736421Y-61410649D01*
X48787262Y-61410919D01*
X48836876Y-61409388D01*
X48885274Y-61406048D01*
X48932464Y-61400895D01*
X48978457Y-61393921D01*
X49023262Y-61385122D01*
X49066890Y-61374491D01*
X49090389Y-61407872D01*
X49115040Y-61440011D01*
X49140833Y-61470880D01*
X49167758Y-61500449D01*
X49195808Y-61528690D01*
X49224972Y-61555574D01*
X49255240Y-61581072D01*
X49286605Y-61605155D01*
X49319056Y-61627795D01*
X49352584Y-61648962D01*
X49387180Y-61668627D01*
X49422834Y-61686763D01*
X49459537Y-61703339D01*
X49497281Y-61718328D01*
X49536055Y-61731699D01*
X49575850Y-61743425D01*
X49701635Y-61775742D01*
X49830492Y-61804059D01*
X49961506Y-61826335D01*
X50093760Y-61840527D01*
X50226338Y-61844593D01*
X50292462Y-61842190D01*
X50358323Y-61836491D01*
X50423808Y-61827238D01*
X50488800Y-61814178D01*
X50553187Y-61797055D01*
X50616852Y-61775613D01*
X50679683Y-61749598D01*
X50741563Y-61718754D01*
X50802380Y-61682825D01*
X50862017Y-61641557D01*
X50920361Y-61594694D01*
X50977297Y-61541981D01*
X51032710Y-61483163D01*
X51086486Y-61417984D01*
X51138511Y-61346189D01*
X51188670Y-61267523D01*
X51236848Y-61181731D01*
X51282931Y-61088557D01*
X51302614Y-61043330D01*
X52163143Y-61043330D01*
X52163986Y-61173264D01*
X52169837Y-61317373D01*
X52182141Y-61471457D01*
X52202342Y-61631314D01*
X52231886Y-61792746D01*
X52272218Y-61951551D01*
X52296880Y-62028656D01*
X52324782Y-62103530D01*
X52356103Y-62175646D01*
X52391024Y-62244482D01*
X52429725Y-62309510D01*
X52472388Y-62370207D01*
X52519193Y-62426047D01*
X52570321Y-62476505D01*
X52625951Y-62521056D01*
X52686266Y-62559175D01*
X52751445Y-62590338D01*
X52821666Y-62614018D01*
X52915711Y-62636013D01*
X52962003Y-62644004D01*
X53007782Y-62649872D01*
X53053034Y-62653530D01*
X53097743Y-62654890D01*
X53141894Y-62653865D01*
X53185473Y-62650368D01*
X53228464Y-62644311D01*
X53270851Y-62635606D01*
X53312621Y-62624167D01*
X53353757Y-62609906D01*
X53394245Y-62592735D01*
X53434069Y-62572567D01*
X53473214Y-62549315D01*
X53511666Y-62522891D01*
X53549409Y-62493207D01*
X53586429Y-62460177D01*
X53622709Y-62423713D01*
X53658235Y-62383727D01*
X53692991Y-62340131D01*
X53726964Y-62292840D01*
X53760137Y-62241764D01*
X53792495Y-62186817D01*
X53824023Y-62127911D01*
X53854707Y-62064959D01*
X53884531Y-61997874D01*
X53913480Y-61926567D01*
X53941538Y-61850952D01*
X53968692Y-61770940D01*
X53994925Y-61686446D01*
X54020222Y-61597380D01*
X54254719Y-60714362D01*
X54469364Y-59861289D01*
X54554852Y-59498239D01*
X54618109Y-59205384D01*
X54653378Y-59003626D01*
X54658718Y-58943441D01*
X54654903Y-58913869D01*
X54648252Y-58906078D01*
X54636775Y-58897241D01*
X54600537Y-58876837D01*
X54548581Y-58853481D01*
X54483296Y-58827996D01*
X54407075Y-58801204D01*
X54322308Y-58773930D01*
X54231386Y-58746997D01*
X54136700Y-58721227D01*
X54040642Y-58697443D01*
X53945601Y-58676470D01*
X53853970Y-58659130D01*
X53768138Y-58646247D01*
X53690498Y-58638643D01*
X53623440Y-58637141D01*
X53594627Y-58638937D01*
X53569356Y-58642566D01*
X53547925Y-58648133D01*
X53530635Y-58655741D01*
X53340395Y-59565971D01*
X53038191Y-61011910D01*
X52968788Y-61269111D01*
X52952031Y-61325746D01*
X52934954Y-61378559D01*
X52917280Y-61427175D01*
X52898731Y-61471216D01*
X52879029Y-61510304D01*
X52857895Y-61544063D01*
X52835052Y-61572115D01*
X52822902Y-61583883D01*
X52810221Y-61594083D01*
X52796973Y-61602668D01*
X52783124Y-61609591D01*
X52768639Y-61614804D01*
X52753483Y-61618260D01*
X52737621Y-61619913D01*
X52721020Y-61619714D01*
X52703643Y-61617618D01*
X52685457Y-61613576D01*
X52667754Y-61606205D01*
X52651750Y-61594400D01*
X52637377Y-61578439D01*
X52624568Y-61558602D01*
X52613256Y-61535167D01*
X52603373Y-61508415D01*
X52594852Y-61478625D01*
X52587626Y-61446075D01*
X52576790Y-61373816D01*
X52570328Y-61293872D01*
X52567702Y-61208476D01*
X52568375Y-61119865D01*
X52571808Y-61030271D01*
X52577464Y-60941929D01*
X52593295Y-60777938D01*
X52611568Y-60645766D01*
X52620275Y-60597198D01*
X52627980Y-60563288D01*
X52621115Y-60553713D01*
X52612622Y-60546007D01*
X52602618Y-60540080D01*
X52591220Y-60535847D01*
X52578545Y-60533219D01*
X52564709Y-60532108D01*
X52549830Y-60532428D01*
X52534024Y-60534091D01*
X52517410Y-60537009D01*
X52500103Y-60541094D01*
X52463880Y-60552419D01*
X52426291Y-60567365D01*
X52388272Y-60585233D01*
X52350759Y-60605322D01*
X52314688Y-60626932D01*
X52280995Y-60649363D01*
X52250615Y-60671916D01*
X52224484Y-60693890D01*
X52203539Y-60714586D01*
X52195303Y-60724235D01*
X52188714Y-60733303D01*
X52183890Y-60741700D01*
X52180946Y-60749341D01*
X52170700Y-60842785D01*
X52163143Y-61043330D01*
X51302614Y-61043330D01*
X51326804Y-60987746D01*
X51368353Y-60879042D01*
X51407463Y-60762191D01*
X51444020Y-60636937D01*
X51507725Y-60386473D01*
X51557269Y-60154958D01*
X51592458Y-59941579D01*
X51613098Y-59745521D01*
X51618994Y-59565971D01*
X51616353Y-59482131D01*
X51609954Y-59402113D01*
X51599772Y-59325814D01*
X51585783Y-59253133D01*
X51567962Y-59183968D01*
X51546287Y-59118217D01*
X51520731Y-59055778D01*
X51491272Y-58996550D01*
X51457884Y-58940431D01*
X51420544Y-58887319D01*
X51379227Y-58837112D01*
X51333910Y-58789708D01*
X51284567Y-58745006D01*
X51231174Y-58702904D01*
X51173709Y-58663300D01*
X51112145Y-58626092D01*
X50976626Y-58558457D01*
X50824425Y-58499185D01*
X50655348Y-58447463D01*
X50575319Y-58427487D01*
X50532806Y-58418379D01*
X50488801Y-58410065D01*
X50443434Y-58402699D01*
X50396835Y-58396438D01*
X50349136Y-58391436D01*
X50300465Y-58387849D01*
X50250953Y-58385833D01*
X50200730Y-58385541D01*
X50149927Y-58387131D01*
X50098673Y-58390757D01*
X50047100Y-58396574D01*
X49995337Y-58404737D01*
X49943514Y-58415403D01*
X49891762Y-58428726D01*
X49867508Y-58401771D01*
X49841900Y-58375682D01*
X49814934Y-58350471D01*
X49786611Y-58326148D01*
X49756927Y-58302724D01*
X49737164Y-58288390D01*
X52223170Y-58288390D01*
X52224976Y-58314556D01*
X52229004Y-58347697D01*
X52242530Y-58430660D01*
X52261348Y-58528789D01*
X52283057Y-58633592D01*
X52350813Y-58949739D01*
X52353909Y-58960852D01*
X52359169Y-58971953D01*
X52366446Y-58982990D01*
X52375591Y-58993916D01*
X52386458Y-59004679D01*
X52398899Y-59015229D01*
X52412764Y-59025518D01*
X52427907Y-59035495D01*
X52461435Y-59054313D01*
X52498299Y-59071285D01*
X52537317Y-59086011D01*
X52577305Y-59098093D01*
X52617082Y-59107131D01*
X52655463Y-59112727D01*
X52673762Y-59114109D01*
X52691268Y-59114480D01*
X52707834Y-59113792D01*
X52723312Y-59111993D01*
X52737554Y-59109035D01*
X52750412Y-59104867D01*
X52761740Y-59099438D01*
X52771388Y-59092701D01*
X52779208Y-59084603D01*
X52785054Y-59075097D01*
X52788777Y-59064131D01*
X52790230Y-59051656D01*
X52810667Y-58772456D01*
X52815991Y-58685941D01*
X52820009Y-58596378D01*
X52822024Y-58505587D01*
X52821339Y-58415387D01*
X52820799Y-58405581D01*
X52819321Y-58396159D01*
X52816939Y-58387107D01*
X52813685Y-58378415D01*
X52809593Y-58370072D01*
X52804697Y-58362065D01*
X52799029Y-58354384D01*
X52792622Y-58347017D01*
X52785511Y-58339952D01*
X52777727Y-58333177D01*
X52769305Y-58326682D01*
X52760278Y-58320455D01*
X52750679Y-58314484D01*
X52740541Y-58308757D01*
X52729898Y-58303264D01*
X52718782Y-58297993D01*
X52707227Y-58292931D01*
X52695267Y-58288069D01*
X52670261Y-58278894D01*
X52644032Y-58270375D01*
X52616844Y-58262421D01*
X52588965Y-58254940D01*
X52560659Y-58247839D01*
X52503834Y-58234410D01*
X52503834Y-58234415D01*
X52448517Y-58221903D01*
X52396138Y-58211463D01*
X52371494Y-58207557D01*
X52348118Y-58204811D01*
X52326187Y-58203441D01*
X52305879Y-58203661D01*
X52287372Y-58205685D01*
X52278849Y-58207441D01*
X52270843Y-58209728D01*
X52263376Y-58212574D01*
X52256470Y-58216005D01*
X52250148Y-58220047D01*
X52244432Y-58224729D01*
X52239343Y-58230076D01*
X52234905Y-58236115D01*
X52231139Y-58242873D01*
X52228067Y-58250377D01*
X52225712Y-58258654D01*
X52224096Y-58267731D01*
X52223242Y-58277634D01*
X52223170Y-58288390D01*
X49737164Y-58288390D01*
X49725883Y-58280208D01*
X49693476Y-58258613D01*
X49659705Y-58237949D01*
X49624569Y-58218226D01*
X49588066Y-58199455D01*
X49550195Y-58181646D01*
X49510954Y-58164811D01*
X49470342Y-58148960D01*
X49428358Y-58134104D01*
X49385000Y-58120253D01*
X49340266Y-58107418D01*
X49252705Y-58086497D01*
X49169614Y-58072299D01*
X49090879Y-58064442D01*
X49016386Y-58062545D01*
X48946020Y-58066227D01*
X48879667Y-58075107D01*
X48817213Y-58088805D01*
X48758545Y-58106940D01*
X48703548Y-58129129D01*
X48652107Y-58154994D01*
X48604110Y-58184152D01*
X48559441Y-58216224D01*
X48517986Y-58250827D01*
X48479632Y-58287581D01*
X48444264Y-58326105D01*
X48411768Y-58366019D01*
X48382030Y-58406941D01*
X48354937Y-58448491D01*
X48308224Y-58531948D01*
X48270717Y-58613344D01*
X48241504Y-58689632D01*
X48219670Y-58757764D01*
X48204304Y-58814694D01*
X48189320Y-58882755D01*
X48176194Y-58934859D01*
X48165353Y-58985848D01*
X48156743Y-59035705D01*
X48150309Y-59084414D01*
X48145996Y-59131958D01*
X48143749Y-59178319D01*
X48143514Y-59223481D01*
X48145235Y-59267426D01*
X48148858Y-59310138D01*
X48154328Y-59351599D01*
X48161590Y-59391793D01*
X48170589Y-59430702D01*
X48181271Y-59468311D01*
X48193581Y-59504601D01*
X48207463Y-59539555D01*
X48222863Y-59573158D01*
X48239726Y-59605391D01*
X48257998Y-59636238D01*
X48277623Y-59665682D01*
X48298547Y-59693706D01*
X48344071Y-59745425D01*
X48394132Y-59791260D01*
X48448291Y-59831074D01*
X48506110Y-59864733D01*
X48567149Y-59892100D01*
X48630971Y-59913039D01*
X48653499Y-59919542D01*
X48679629Y-59927551D01*
X48708972Y-59936967D01*
X48741143Y-59947688D01*
X48775754Y-59959615D01*
X48812418Y-59972647D01*
X48850748Y-59986684D01*
X48890358Y-60001625D01*
X48869901Y-60065641D01*
X48847259Y-60130226D01*
X48822298Y-60194564D01*
X48794888Y-60257841D01*
X48764896Y-60319241D01*
X48732190Y-60377948D01*
X48696638Y-60433147D01*
X48658107Y-60484024D01*
X48637683Y-60507587D01*
X48616466Y-60529763D01*
X48594437Y-60550450D01*
X48571582Y-60569548D01*
X48547882Y-60586953D01*
X48523323Y-60602564D01*
X48497887Y-60616279D01*
X48471557Y-60627996D01*
X48444318Y-60637613D01*
X48416153Y-60645029D01*
X48387045Y-60650141D01*
X48356977Y-60652847D01*
X48325934Y-60653046D01*
X48293898Y-60650635D01*
X48260854Y-60645513D01*
X48226784Y-60637578D01*
X48194037Y-60627059D01*
X48162924Y-60613916D01*
X48133407Y-60598268D01*
X48105447Y-60580232D01*
X48079007Y-60559926D01*
X48054051Y-60537470D01*
X48030539Y-60512982D01*
X48008436Y-60486578D01*
X47987702Y-60458379D01*
X47968301Y-60428501D01*
X47950195Y-60397064D01*
X47933346Y-60364186D01*
X47917718Y-60329984D01*
X47903271Y-60294578D01*
X47889970Y-60258085D01*
X47877775Y-60220623D01*
X47856558Y-60143267D01*
X47839319Y-60063457D01*
X47825758Y-59982138D01*
X47815574Y-59900256D01*
X47808467Y-59818757D01*
X47804136Y-59738588D01*
X47802281Y-59660694D01*
X47802602Y-59586022D01*
X47808644Y-59565702D01*
X47939179Y-59072773D01*
X47996706Y-58841046D01*
X48045660Y-58627648D01*
X48083482Y-58438954D01*
X48107613Y-58281344D01*
X48113744Y-58216188D01*
X48115492Y-58161194D01*
X48112538Y-58117160D01*
X48104561Y-58084882D01*
X48088453Y-58060935D01*
X48068135Y-58037688D01*
X48043911Y-58015163D01*
X48016086Y-57993381D01*
X47984965Y-57972366D01*
X47950852Y-57952139D01*
X47874871Y-57914140D01*
X47790579Y-57879563D01*
X47700415Y-57848584D01*
X47606816Y-57821383D01*
X47512219Y-57798138D01*
X47419062Y-57779026D01*
X47329782Y-57764226D01*
X47246817Y-57753916D01*
X47172604Y-57748274D01*
X47109581Y-57747479D01*
X47060185Y-57751707D01*
X47041359Y-57755762D01*
X47026854Y-57761139D01*
X47016975Y-57767861D01*
X47012025Y-57775951D01*
X46949455Y-58103739D01*
X46889284Y-58401597D01*
X46813834Y-58733292D01*
X46771313Y-58898826D01*
X46726091Y-59057218D01*
X46678542Y-59203266D01*
X46629039Y-59331770D01*
X46577955Y-59437529D01*
X46551937Y-59480255D01*
X46525663Y-59515344D01*
X46499180Y-59542146D01*
X46472536Y-59560012D01*
X46445776Y-59568291D01*
X46418947Y-59566333D01*
X46404188Y-59560309D01*
X46390897Y-59550778D01*
X46379029Y-59537878D01*
X46368540Y-59521741D01*
X46359386Y-59502504D01*
X46351522Y-59480302D01*
X46344904Y-59455269D01*
X46339487Y-59427541D01*
X46332078Y-59364538D01*
X46328939Y-59292375D01*
X46329716Y-59212131D01*
X46334052Y-59124888D01*
X46341592Y-59031724D01*
X46351979Y-58933722D01*
X46364857Y-58831960D01*
X46379872Y-58727521D01*
X46414887Y-58514927D01*
X46454176Y-58304586D01*
X46506538Y-58091364D01*
X46548276Y-57909220D01*
X46565114Y-57829949D01*
X46579238Y-57758626D01*
X46590629Y-57695310D01*
X46599269Y-57640059D01*
X46620235Y-57562908D01*
X46607527Y-57565444D01*
X46608189Y-57555025D01*
X46608492Y-57545607D01*
X46608497Y-57541241D01*
X46608400Y-57537088D01*
X46608197Y-57533135D01*
X46607882Y-57529369D01*
X46607452Y-57525778D01*
X46606902Y-57522349D01*
X46606229Y-57519070D01*
X46605428Y-57515929D01*
X46604495Y-57512912D01*
X46603426Y-57510007D01*
X46602216Y-57507201D01*
X46600862Y-57504483D01*
X46594182Y-57496720D01*
X46582678Y-57487907D01*
X46546392Y-57467542D01*
X46494393Y-57444213D01*
X46429073Y-57418743D01*
X46352822Y-57391959D01*
X46268031Y-57364683D01*
X46177089Y-57337742D01*
X46082387Y-57311959D01*
X45986317Y-57288160D01*
X45891267Y-57267168D01*
X45799630Y-57249808D01*
X45713794Y-57236905D01*
X45636151Y-57229284D01*
X45569091Y-57227769D01*
X45540277Y-57229559D01*
X45515005Y-57233184D01*
X45493574Y-57238749D01*
X45476283Y-57246355D01*
X45470542Y-57251750D01*
X45465072Y-57261080D01*
X45454737Y-57291140D01*
X45444868Y-57335722D01*
X45435054Y-57394013D01*
X45388136Y-57748006D01*
X45354331Y-57986119D01*
X45333405Y-58117610D01*
X45309248Y-58256305D01*
X45281451Y-58401393D01*
X45249602Y-58552060D01*
X45213292Y-58707493D01*
X45172108Y-58866880D01*
X45102530Y-59123993D01*
X45085747Y-59180645D01*
X45068652Y-59233486D01*
X45050968Y-59282138D01*
X45032415Y-59326221D01*
X45012716Y-59365355D01*
X44991593Y-59399161D01*
X44968768Y-59427260D01*
X44956630Y-59439051D01*
X44943963Y-59449272D01*
X44930730Y-59457876D01*
X44916899Y-59464817D01*
X44902433Y-59470046D01*
X44887298Y-59473516D01*
X44871459Y-59475179D01*
X44854882Y-59474989D01*
X44837532Y-59472897D01*
X44819374Y-59468857D01*
X44811789Y-59466368D01*
X44804508Y-59463083D01*
X44797526Y-59459021D01*
X44790837Y-59454204D01*
X44784437Y-59448651D01*
X44778321Y-59442382D01*
X44772484Y-59435418D01*
X44766920Y-59427779D01*
X44761626Y-59419485D01*
X44756595Y-59410556D01*
X44751823Y-59401014D01*
X44747304Y-59390877D01*
X44743035Y-59380166D01*
X44739009Y-59368901D01*
X44735222Y-59357103D01*
X44731669Y-59344792D01*
X44725244Y-59318711D01*
X44719694Y-59290820D01*
X44714979Y-59261281D01*
X44711060Y-59230255D01*
X44707896Y-59197905D01*
X44705447Y-59164392D01*
X44703673Y-59129878D01*
X44702534Y-59094525D01*
X44736624Y-59107739D01*
X44748564Y-59112158D01*
X44752957Y-59113626D01*
X44756184Y-59114525D01*
X44764817Y-59108759D01*
X44773658Y-59101294D01*
X44782667Y-59092240D01*
X44791805Y-59081705D01*
X44810305Y-59056624D01*
X44828834Y-59026917D01*
X44847071Y-58993453D01*
X44864693Y-58957098D01*
X44881379Y-58918719D01*
X44896805Y-58879182D01*
X44910649Y-58839355D01*
X44922590Y-58800105D01*
X44932305Y-58762298D01*
X44939472Y-58726801D01*
X44943769Y-58694482D01*
X44944873Y-58666207D01*
X44944127Y-58653857D01*
X44942462Y-58642844D01*
X44939837Y-58633274D01*
X44936214Y-58625258D01*
X44933221Y-58622158D01*
X44929369Y-58618704D01*
X44924661Y-58614914D01*
X44919099Y-58610804D01*
X44912687Y-58606393D01*
X44905429Y-58601697D01*
X44897327Y-58596736D01*
X44888384Y-58591527D01*
X44878605Y-58586086D01*
X44867991Y-58580433D01*
X44856547Y-58574584D01*
X44844276Y-58568557D01*
X44831181Y-58562370D01*
X44817264Y-58556041D01*
X44802531Y-58549587D01*
X44786983Y-58543025D01*
X44856071Y-58281440D01*
X44891830Y-58127503D01*
X44925571Y-57962254D01*
X44955172Y-57788780D01*
X44978512Y-57610169D01*
X44993470Y-57429509D01*
X44997925Y-57249888D01*
X44989755Y-57074393D01*
X44980273Y-56989158D01*
X44966840Y-56906112D01*
X44949190Y-56825642D01*
X44927058Y-56748133D01*
X44900179Y-56673971D01*
X44868288Y-56603543D01*
X44831120Y-56537234D01*
X44788409Y-56475430D01*
X44739891Y-56418518D01*
X44685300Y-56366882D01*
X44624371Y-56320910D01*
X44556839Y-56280987D01*
X44482438Y-56247499D01*
X44400905Y-56220832D01*
X44330903Y-56203638D01*
X44261672Y-56190260D01*
X44193635Y-56180674D01*
X44127213Y-56174854D01*
X44062829Y-56172778D01*
X44000903Y-56174420D01*
X43941858Y-56179758D01*
X43886115Y-56188765D01*
X43834097Y-56201419D01*
X43786225Y-56217695D01*
X43742921Y-56237569D01*
X43704608Y-56261017D01*
X43687454Y-56274074D01*
X43671705Y-56288014D01*
X43657416Y-56302837D01*
X43644637Y-56318537D01*
X43633422Y-56335113D01*
X43623824Y-56352561D01*
X43615895Y-56370879D01*
X43609688Y-56390062D01*
X43604367Y-56412020D01*
X43600689Y-56432540D01*
X43598513Y-56451636D01*
X43597695Y-56469322D01*
X43598094Y-56485611D01*
X43599567Y-56500516D01*
X43601972Y-56514051D01*
X43605167Y-56526230D01*
X43609010Y-56537065D01*
X43613357Y-56546571D01*
X43618067Y-56554760D01*
X43622997Y-56561647D01*
X43628006Y-56567245D01*
X43632951Y-56571566D01*
X43637689Y-56574626D01*
X43642079Y-56576436D01*
X43649147Y-56578040D01*
X43655903Y-56579009D01*
X43662367Y-56579386D01*
X43668563Y-56579214D01*
X43674511Y-56578535D01*
X43680233Y-56577393D01*
X43685752Y-56575829D01*
X43691089Y-56573887D01*
X43696266Y-56571610D01*
X43701305Y-56569039D01*
X43706228Y-56566217D01*
X43711057Y-56563188D01*
X43720518Y-56556677D01*
X43729864Y-56549847D01*
X43739270Y-56543039D01*
X43748911Y-56536595D01*
X43753873Y-56533616D01*
X43758960Y-56530856D01*
X43764193Y-56528357D01*
X43769594Y-56526163D01*
X43775185Y-56524316D01*
X43780987Y-56522859D01*
X43787023Y-56521833D01*
X43793314Y-56521283D01*
X43799882Y-56521251D01*
X43806749Y-56521779D01*
X43813937Y-56522909D01*
X43821467Y-56524686D01*
X43843701Y-56532635D01*
X43863932Y-56543833D01*
X43882200Y-56558239D01*
X43898540Y-56575810D01*
X43912992Y-56596506D01*
X43925591Y-56620284D01*
X43936376Y-56647104D01*
X43945383Y-56676922D01*
X43952651Y-56709698D01*
X43958216Y-56745390D01*
X43962116Y-56783955D01*
X43964388Y-56825354D01*
X43965070Y-56869543D01*
X43964199Y-56916481D01*
X43957947Y-57018438D01*
X43945933Y-57130891D01*
X43928453Y-57253506D01*
X43905809Y-57385951D01*
X43878299Y-57527892D01*
X43846221Y-57678995D01*
X43809875Y-57838926D01*
X43769560Y-58007353D01*
X43725575Y-58183942D01*
X43649988Y-58160113D01*
X43578097Y-58138816D01*
X43510018Y-58119602D01*
X43445863Y-58102025D01*
X43437075Y-58100855D01*
X43428234Y-58102011D01*
X43419375Y-58105346D01*
X43410532Y-58110713D01*
X43401737Y-58117964D01*
X43393024Y-58126954D01*
X43384427Y-58137535D01*
X43375979Y-58149560D01*
X43359665Y-58177357D01*
X43344351Y-58209170D01*
X43330305Y-58243823D01*
X43317795Y-58280143D01*
X43307089Y-58316953D01*
X43298457Y-58353080D01*
X43292166Y-58387348D01*
X43288484Y-58418583D01*
X43287680Y-58445609D01*
X43288442Y-58457177D01*
X43290023Y-58467253D01*
X43292458Y-58475689D01*
X43295780Y-58482338D01*
X43300023Y-58487055D01*
X43305220Y-58489691D01*
X43316339Y-58493500D01*
X43336583Y-58501401D01*
X43365193Y-58513112D01*
X43401410Y-58528349D01*
X43444474Y-58546830D01*
X43493627Y-58568273D01*
X43548109Y-58592395D01*
X43607161Y-58618914D01*
X43565230Y-58773216D01*
X43145096Y-60306701D01*
X43080714Y-60554778D01*
X43036328Y-60742524D01*
X43013806Y-60866832D01*
X43011328Y-60904226D01*
X24739985Y-60904226D01*
X24741583Y-60878645D01*
X24866015Y-60448884D01*
X25081115Y-60035978D01*
X25381023Y-59639918D01*
X25759878Y-59260695D01*
X26211821Y-58898300D01*
X26730992Y-58552725D01*
X27311530Y-58223961D01*
X27947576Y-57911998D01*
X29362749Y-57338441D01*
X30929629Y-56831984D01*
X32601337Y-56392555D01*
X34330992Y-56020084D01*
X36071711Y-55714499D01*
X37776615Y-55475729D01*
X39398823Y-55303703D01*
X40891453Y-55198349D01*
X42207626Y-55159597D01*
X43300459Y-55187375D01*
X43300459Y-55187371D01*
X44298423Y-55264083D01*
X45353714Y-55372617D01*
X46455231Y-55513262D01*
X47591869Y-55686309D01*
X48752526Y-55892051D01*
X49926098Y-56130778D01*
X51101484Y-56402782D01*
X52267579Y-56708352D01*
X53413281Y-57047781D01*
X54527487Y-57421360D01*
X55599093Y-57829379D01*
X56616997Y-58272131D01*
X57082714Y-58505587D01*
X57570096Y-58749905D01*
G37*
G04 #@! TD.AperFunction*
G04 #@! TA.AperFunction,NonConductor*
G36*
X48976273Y-58643268D02*
G01*
X48991963Y-58646215D01*
X49010545Y-58653323D01*
X49027112Y-58663863D01*
X49041745Y-58677644D01*
X49054524Y-58694475D01*
X49065529Y-58714163D01*
X49074842Y-58736517D01*
X49082541Y-58761346D01*
X49088707Y-58788459D01*
X49093421Y-58817662D01*
X49096762Y-58848766D01*
X49099650Y-58915906D01*
X49098013Y-58988348D01*
X49092493Y-59064558D01*
X49083732Y-59143005D01*
X49072373Y-59222155D01*
X49059058Y-59300477D01*
X49044430Y-59376437D01*
X49013802Y-59515144D01*
X48985628Y-59626016D01*
X48980667Y-59644651D01*
X48977983Y-59655374D01*
X48975266Y-59666975D01*
X48972595Y-59679409D01*
X48970047Y-59692632D01*
X48967700Y-59706600D01*
X48965633Y-59721268D01*
X48946015Y-59715329D01*
X48927392Y-59708486D01*
X48909744Y-59700772D01*
X48893050Y-59692219D01*
X48877289Y-59682859D01*
X48862441Y-59672725D01*
X48848485Y-59661848D01*
X48835400Y-59650262D01*
X48823166Y-59637998D01*
X48811761Y-59625089D01*
X48801167Y-59611566D01*
X48791361Y-59597463D01*
X48782323Y-59582811D01*
X48774032Y-59567643D01*
X48766469Y-59551991D01*
X48759611Y-59535887D01*
X48753440Y-59519364D01*
X48747933Y-59502453D01*
X48743070Y-59485188D01*
X48738831Y-59467600D01*
X48735195Y-59449721D01*
X48732142Y-59431584D01*
X48729650Y-59413221D01*
X48727700Y-59394665D01*
X48725339Y-59357100D01*
X48724895Y-59319149D01*
X48726203Y-59281068D01*
X48729097Y-59243115D01*
X48729079Y-59243115D01*
X48742579Y-59156861D01*
X48759669Y-59057071D01*
X48781319Y-58952176D01*
X48794158Y-58900448D01*
X48808501Y-58850607D01*
X48824469Y-58803704D01*
X48842184Y-58760795D01*
X48861768Y-58722933D01*
X48872299Y-58706224D01*
X48883342Y-58691172D01*
X48894913Y-58677908D01*
X48907027Y-58666565D01*
X48919699Y-58657275D01*
X48932945Y-58650168D01*
X48946778Y-58645377D01*
X48961216Y-58643033D01*
X48976273Y-58643268D01*
G37*
G04 #@! TD.AperFunction*
G04 #@! TA.AperFunction,NonConductor*
G36*
X50406251Y-59090508D02*
G01*
X50414052Y-59091985D01*
X50426271Y-59096102D01*
X50438078Y-59101752D01*
X50449433Y-59108975D01*
X50460299Y-59117808D01*
X50470635Y-59128293D01*
X50480405Y-59140467D01*
X50489568Y-59154370D01*
X50498087Y-59170041D01*
X50505923Y-59187520D01*
X50513037Y-59206845D01*
X50519390Y-59228056D01*
X50524944Y-59251192D01*
X50529660Y-59276291D01*
X50533499Y-59303394D01*
X50536424Y-59332540D01*
X50538394Y-59363767D01*
X50539372Y-59397114D01*
X50539319Y-59432622D01*
X50538195Y-59470329D01*
X50535964Y-59510274D01*
X50532585Y-59552497D01*
X50528020Y-59597036D01*
X50522231Y-59643931D01*
X50515179Y-59693222D01*
X50506825Y-59744946D01*
X50497131Y-59799144D01*
X50486057Y-59855855D01*
X50473566Y-59915117D01*
X50459618Y-59976971D01*
X50444175Y-60041454D01*
X50427199Y-60108607D01*
X50408650Y-60178469D01*
X50279602Y-60661847D01*
X50227173Y-60842809D01*
X50202090Y-60918474D01*
X50177042Y-60984402D01*
X50151488Y-61040696D01*
X50124887Y-61087463D01*
X50096699Y-61124806D01*
X50066384Y-61152830D01*
X50050260Y-61163380D01*
X50033401Y-61171640D01*
X50015740Y-61177622D01*
X49997209Y-61181340D01*
X49977741Y-61182807D01*
X49957268Y-61182035D01*
X49913039Y-61173830D01*
X49902523Y-61170249D01*
X49892644Y-61165464D01*
X49883398Y-61159478D01*
X49874783Y-61152296D01*
X49866794Y-61143922D01*
X49859429Y-61134361D01*
X49852685Y-61123616D01*
X49846558Y-61111693D01*
X49841045Y-61098596D01*
X49836143Y-61084328D01*
X49831848Y-61068895D01*
X49828157Y-61052301D01*
X49825067Y-61034550D01*
X49822575Y-61015646D01*
X49820677Y-60995594D01*
X49819371Y-60974398D01*
X49818652Y-60952063D01*
X49818519Y-60928593D01*
X49818966Y-60903992D01*
X49819992Y-60878264D01*
X49823765Y-60823448D01*
X49829812Y-60764178D01*
X49838106Y-60700490D01*
X49848623Y-60632419D01*
X49861335Y-60559999D01*
X49876216Y-60483266D01*
X49876997Y-60480567D01*
X49877791Y-60477869D01*
X49893497Y-60435509D01*
X49908747Y-60392829D01*
X49923589Y-60349629D01*
X49938071Y-60305706D01*
X49952242Y-60260860D01*
X49966149Y-60214890D01*
X49979841Y-60167596D01*
X49993367Y-60118776D01*
X50009252Y-60059307D01*
X50024263Y-60000630D01*
X50038359Y-59942676D01*
X50051501Y-59885373D01*
X50063645Y-59828651D01*
X50074752Y-59772440D01*
X50084781Y-59716668D01*
X50093690Y-59661264D01*
X50142631Y-59519117D01*
X50166055Y-59455792D01*
X50188800Y-59397602D01*
X50210881Y-59344527D01*
X50232312Y-59296544D01*
X50253108Y-59253631D01*
X50273283Y-59215768D01*
X50292851Y-59182930D01*
X50311826Y-59155098D01*
X50330224Y-59132249D01*
X50348059Y-59114361D01*
X50365345Y-59101413D01*
X50382096Y-59093382D01*
X50398327Y-59090246D01*
X50406251Y-59090508D01*
G37*
G04 #@! TD.AperFunction*
D11*
G04 #@! TO.P,J5,S1,SHIELD*
G04 #@! TO.N,GNDS*
X115595000Y-1750000D03*
X115575000Y-6350000D03*
X104425000Y-6350000D03*
X104405000Y-1750000D03*
G04 #@! TD*
D12*
G04 #@! TO.P,J4,1,Pin_1*
G04 #@! TO.N,VDD*
X111300000Y-66150000D03*
D13*
G04 #@! TO.P,J4,2,Pin_2*
G04 #@! TO.N,GND*
X113840000Y-66150000D03*
G04 #@! TO.P,J4,3,Pin_3*
G04 #@! TO.N,SWD*
X116380000Y-66150000D03*
G04 #@! TO.P,J4,4,Pin_4*
G04 #@! TO.N,SWC*
X118920000Y-66150000D03*
G04 #@! TD*
D14*
G04 #@! TO.P,J2,1,Pin_1*
G04 #@! TO.N,GND*
X94000000Y-66750000D03*
D15*
G04 #@! TO.P,J2,2,Pin_2*
G04 #@! TO.N,VBAT*
X96000000Y-66750000D03*
G04 #@! TD*
D16*
G04 #@! TO.N,C1*
X107750000Y-19845228D03*
X123450000Y-18445228D03*
X105750000Y-35745228D03*
X102050000Y-43388968D03*
X106650000Y-27745228D03*
X124450000Y-26445228D03*
X125400000Y-34500000D03*
G04 #@! TO.N,C2*
X122550000Y-34745228D03*
X102950000Y-31058633D03*
X102950000Y-35345228D03*
X103950000Y-27445228D03*
X120650000Y-18745228D03*
X121650000Y-26745228D03*
X104950000Y-19445228D03*
X99250000Y-43045228D03*
G04 #@! TO.N,C3*
X118950000Y-26945228D03*
X117950000Y-19145228D03*
X100250000Y-35045228D03*
X96550000Y-42745228D03*
X101150000Y-27045228D03*
X102150000Y-19145228D03*
X123650000Y-42745228D03*
X119850000Y-35045228D03*
X101700000Y-33258633D03*
X101700000Y-31658633D03*
G04 #@! TO.N,C4*
X98450000Y-26745228D03*
X104500000Y-31658633D03*
X120850000Y-43045228D03*
X115150000Y-19445228D03*
X104500000Y-33100000D03*
X117150000Y-35445228D03*
X97450000Y-34745228D03*
X116150000Y-27445228D03*
X99450000Y-18845228D03*
G04 #@! TO.N,C5*
X114350000Y-35745228D03*
X96650000Y-18545228D03*
X94750000Y-34500000D03*
X118150000Y-43388968D03*
X95650000Y-26445228D03*
X112350000Y-19745228D03*
X113350000Y-27745228D03*
G04 #@! TO.N,VBUS*
X107600000Y-11500000D03*
X103700000Y-8400000D03*
X108380000Y-48730000D03*
G04 #@! TO.N,R1*
X84200000Y-25077500D03*
X113900000Y-58200000D03*
G04 #@! TO.N,R5*
X121800000Y-59200000D03*
X134250000Y-27327500D03*
G04 #@! TO.N,R2*
X82400000Y-42677500D03*
X113900000Y-56900000D03*
G04 #@! TO.N,R6*
X135600000Y-43177500D03*
X123100000Y-59200000D03*
X138700000Y-44300000D03*
G04 #@! TO.N,R3*
X80200000Y-59577500D03*
X113900000Y-55600000D03*
G04 #@! TO.N,R7*
X120600000Y-64000000D03*
X137700000Y-60077500D03*
G04 #@! TO.N,R4*
X113900000Y-54422835D03*
X77900000Y-76477500D03*
G04 #@! TO.N,R8*
X120600000Y-59200000D03*
X137100000Y-77277500D03*
G04 #@! TO.N,GNDPWR*
X106700000Y-8700000D03*
X113600000Y-8700000D03*
G04 #@! TO.N,BLUE_LED*
X121300000Y-46700000D03*
X119800000Y-8800000D03*
G04 #@! TO.N,VDDH*
X102525000Y-59725000D03*
X110000000Y-60700000D03*
G04 #@! TO.N,GND*
X95400000Y-57400000D03*
X97800000Y-58800000D03*
X110000000Y-13700000D03*
X101700000Y-55700000D03*
X106500000Y-56500000D03*
X109100000Y-48000000D03*
X116500000Y-13300000D03*
G04 #@! TO.N,RESET*
X120200000Y-51700000D03*
X114500000Y-61700000D03*
X125805000Y-66258871D03*
X135000000Y-8300000D03*
G04 #@! TO.N,SWC*
X124370000Y-64830000D03*
G04 #@! TO.N,VDD*
X107600000Y-59600000D03*
G04 #@! TO.N,Net-(J5-VBUS-PadA4)*
X112500000Y-8700000D03*
X107600000Y-8700000D03*
G04 #@! TO.N,Net-(J5-CC1)*
X107824265Y-10324265D03*
X111900000Y-9350000D03*
G04 #@! TO.N,Net-(U3-STAT)*
X95600000Y-49000000D03*
X100000000Y-8800000D03*
G04 #@! TO.N,SOFT_OFF*
X119600000Y-52500000D03*
X127000000Y-8300000D03*
G04 #@! TO.N,DATA-*
X116664682Y-64115136D03*
X110400000Y-17300000D03*
G04 #@! TO.N,DATA+*
X109600069Y-17289327D03*
X117400000Y-63800000D03*
G04 #@! TD*
D17*
G04 #@! TO.N,C1*
X102050000Y-43388968D02*
X102050000Y-39445228D01*
X124450000Y-19445228D02*
X123450000Y-18445228D01*
X124450000Y-26445228D02*
X124450000Y-19445228D01*
X102050000Y-39445228D02*
X105750000Y-35745228D01*
X106650000Y-20945228D02*
X107750000Y-19845228D01*
X105750000Y-28645228D02*
X106650000Y-27745228D01*
X125400000Y-34500000D02*
X125400000Y-27395228D01*
X124450000Y-26445228D02*
X125400000Y-27395228D01*
X106650000Y-27745228D02*
X106650000Y-20945228D01*
X105750000Y-35745228D02*
X105750000Y-28645228D01*
G04 #@! TO.N,C2*
X121650000Y-26745228D02*
X121650000Y-19745228D01*
X122550000Y-27645228D02*
X121650000Y-26745228D01*
X102950000Y-28445228D02*
X103950000Y-27445228D01*
X103950000Y-20445228D02*
X104950000Y-19445228D01*
X122550000Y-34745228D02*
X122550000Y-27645228D01*
X102950000Y-35345228D02*
X102950000Y-28445228D01*
X99250000Y-43045228D02*
X99250000Y-39045228D01*
X103950000Y-27445228D02*
X103950000Y-20445228D01*
X121650000Y-19745228D02*
X120650000Y-18745228D01*
X99250000Y-39045228D02*
X102950000Y-35345228D01*
G04 #@! TO.N,C3*
X118950000Y-20145228D02*
X117950000Y-19145228D01*
X100250000Y-35045228D02*
X100250000Y-27945228D01*
X123650000Y-42745228D02*
X123650000Y-38845228D01*
X118950000Y-34145228D02*
X118950000Y-26945228D01*
X118950000Y-26945228D02*
X118950000Y-20145228D01*
X101150000Y-20145228D02*
X102150000Y-19145228D01*
X96550000Y-42745228D02*
X96550000Y-38745228D01*
X96550000Y-38745228D02*
X100250000Y-35045228D01*
X119850000Y-35045228D02*
X118950000Y-34145228D01*
X100250000Y-27945228D02*
X101150000Y-27045228D01*
X101700000Y-31658633D02*
X101700000Y-33258633D01*
X101150000Y-27045228D02*
X101150000Y-20145228D01*
X123650000Y-38845228D02*
X119850000Y-35045228D01*
G04 #@! TO.N,C4*
X97450000Y-34745228D02*
X97350000Y-34645228D01*
X116150000Y-27445228D02*
X116150000Y-20445228D01*
X120850000Y-39145228D02*
X117150000Y-35445228D01*
X104500000Y-31658633D02*
X104500000Y-33100000D01*
X120850000Y-43045228D02*
X120850000Y-39145228D01*
X98450000Y-26745228D02*
X98450000Y-19845228D01*
X97350000Y-34645228D02*
X97350000Y-27845228D01*
X97350000Y-27845228D02*
X98450000Y-26745228D01*
X98450000Y-19845228D02*
X99450000Y-18845228D01*
X117150000Y-35445228D02*
X117150000Y-28445228D01*
X117150000Y-28445228D02*
X116150000Y-27445228D01*
X116150000Y-20445228D02*
X115150000Y-19445228D01*
G04 #@! TO.N,C5*
X94750000Y-34500000D02*
X94750000Y-27345228D01*
X94750000Y-27345228D02*
X95650000Y-26445228D01*
X118150000Y-39545228D02*
X114350000Y-35745228D01*
X113350000Y-20745228D02*
X112350000Y-19745228D01*
X114350000Y-35745228D02*
X114350000Y-28745228D01*
X113350000Y-27745228D02*
X113350000Y-20745228D01*
X114350000Y-28745228D02*
X113350000Y-27745228D01*
X96650000Y-18545228D02*
X95650000Y-19545228D01*
X95650000Y-19545228D02*
X95650000Y-26445228D01*
X118150000Y-43388968D02*
X118150000Y-39545228D01*
D18*
G04 #@! TO.N,VBUS*
X108400000Y-12300000D02*
X107600000Y-11500000D01*
X107600000Y-11500000D02*
X104500000Y-8400000D01*
X108400000Y-48710000D02*
X108400000Y-12300000D01*
X108380000Y-48730000D02*
X108400000Y-48710000D01*
X104500000Y-8400000D02*
X103700000Y-8400000D01*
D17*
G04 #@! TO.N,R1*
X114479900Y-53022835D02*
X115300000Y-53842935D01*
X84200000Y-25077500D02*
X84200000Y-43911814D01*
X84200000Y-43911814D02*
X93588186Y-53300000D01*
X115300000Y-56800000D02*
X113900000Y-58200000D01*
X93588186Y-53300000D02*
X113042934Y-53300000D01*
X113320099Y-53022835D02*
X114479900Y-53022835D01*
X115300000Y-53842935D02*
X115300000Y-56800000D01*
X113042934Y-53300000D02*
X113320099Y-53022835D01*
G04 #@! TO.N,R5*
X121800000Y-48444712D02*
X124409902Y-45834810D01*
X134250000Y-43961814D02*
X134250000Y-27327500D01*
X132377004Y-45834810D02*
X134250000Y-43961814D01*
X124409902Y-45834810D02*
X132377004Y-45834810D01*
X121800000Y-59200000D02*
X121800000Y-48444712D01*
G04 #@! TO.N,R2*
X114900000Y-54008620D02*
X114900000Y-55900000D01*
X93422500Y-53700000D02*
X113208620Y-53700000D01*
X82400000Y-42677500D02*
X93422500Y-53700000D01*
X114900000Y-55900000D02*
X113900000Y-56900000D01*
X113208620Y-53700000D02*
X113485785Y-53422835D01*
X114314215Y-53422835D02*
X114900000Y-54008620D01*
X113485785Y-53422835D02*
X114314215Y-53422835D01*
G04 #@! TO.N,R6*
X123100000Y-59200000D02*
X123100000Y-47710398D01*
X123100000Y-47710398D02*
X124575588Y-46234810D01*
X136722500Y-44300000D02*
X135600000Y-43177500D01*
X138700000Y-44300000D02*
X136722500Y-44300000D01*
X124575588Y-46234810D02*
X132542690Y-46234810D01*
X132542690Y-46234810D02*
X135600000Y-43177500D01*
G04 #@! TO.N,R3*
X88022500Y-59577500D02*
X93500000Y-54100000D01*
X80200000Y-59577500D02*
X88022500Y-59577500D01*
X114500000Y-54174306D02*
X114500000Y-55000000D01*
X113651471Y-53822835D02*
X114148529Y-53822835D01*
X93500000Y-54100000D02*
X113374306Y-54100000D01*
X113374306Y-54100000D02*
X113651471Y-53822835D01*
X114148529Y-53822835D02*
X114500000Y-54174306D01*
X114500000Y-55000000D02*
X113900000Y-55600000D01*
G04 #@! TO.N,R7*
X124654215Y-63700000D02*
X120900000Y-63700000D01*
X124932591Y-63978376D02*
X124654215Y-63700000D01*
X137700000Y-60077500D02*
X133799124Y-63978376D01*
X133799124Y-63978376D02*
X124932591Y-63978376D01*
X120900000Y-63700000D02*
X120600000Y-64000000D01*
G04 #@! TO.N,R4*
X93665686Y-54500000D02*
X113822835Y-54500000D01*
X77900000Y-76477500D02*
X77900000Y-70265686D01*
X113822835Y-54500000D02*
X113900000Y-54422835D01*
X77900000Y-70265686D02*
X93665686Y-54500000D01*
G04 #@! TO.N,R8*
X133803700Y-64403700D02*
X124792229Y-64403700D01*
X120351471Y-64600000D02*
X120000000Y-64248529D01*
X124792229Y-64403700D02*
X124488529Y-64100000D01*
X121348529Y-64100000D02*
X120848529Y-64600000D01*
X120848529Y-64600000D02*
X120351471Y-64600000D01*
X120000000Y-59800000D02*
X120600000Y-59200000D01*
X137100000Y-67700000D02*
X133803700Y-64403700D01*
X137100000Y-77277500D02*
X137100000Y-67700000D01*
X124488529Y-64100000D02*
X121348529Y-64100000D01*
X120000000Y-64248529D02*
X120000000Y-59800000D01*
D18*
G04 #@! TO.N,GNDPWR*
X112769239Y-8050000D02*
X107330760Y-8050000D01*
X113419239Y-8700000D02*
X112769239Y-8050000D01*
X106700000Y-8680760D02*
X106700000Y-8700000D01*
X113600000Y-8700000D02*
X113419239Y-8700000D01*
X107330760Y-8050000D02*
X106700000Y-8680760D01*
D19*
G04 #@! TO.N,GNDS*
X116000000Y-2155000D02*
X116000000Y-5925000D01*
X105475000Y-7400000D02*
X104425000Y-6350000D01*
X114525000Y-7400000D02*
X105475000Y-7400000D01*
X116000000Y-5925000D02*
X115719256Y-6205744D01*
X104000000Y-5925000D02*
X104000000Y-2155000D01*
X104290688Y-6215688D02*
X104000000Y-5925000D01*
X115575000Y-6350000D02*
X114525000Y-7400000D01*
X104000000Y-2155000D02*
X104290688Y-1864312D01*
X115719256Y-1874256D02*
X116000000Y-2155000D01*
D17*
G04 #@! TO.N,BLUE_LED*
X111200000Y-17100000D02*
X112800000Y-15500000D01*
X121300000Y-46700000D02*
X117800000Y-46700000D01*
X112800000Y-15500000D02*
X115400000Y-15500000D01*
X119800000Y-11100000D02*
X119800000Y-8800000D01*
X117800000Y-46700000D02*
X111200000Y-40100000D01*
X111200000Y-40100000D02*
X111200000Y-17100000D01*
X115400000Y-15500000D02*
X119800000Y-11100000D01*
D18*
G04 #@! TO.N,VDDH*
X110000000Y-60700000D02*
X108100000Y-58800000D01*
X108100000Y-58800000D02*
X103450000Y-58800000D01*
X103450000Y-58800000D02*
X102525000Y-59725000D01*
G04 #@! TO.N,GND*
X106500000Y-56500000D02*
X102500000Y-56500000D01*
X102500000Y-56500000D02*
X101700000Y-55700000D01*
X96700000Y-58800000D02*
X95400000Y-57500000D01*
X109100000Y-48000000D02*
X109100000Y-47600000D01*
X109100000Y-47600000D02*
X108900000Y-47400000D01*
X111000000Y-14700000D02*
X115100000Y-14700000D01*
X101700000Y-58200000D02*
X101700000Y-55700000D01*
X108900000Y-14800000D02*
X110000000Y-13700000D01*
X101100000Y-59219239D02*
X101100000Y-58800000D01*
X110000000Y-13700000D02*
X111000000Y-14700000D01*
X109230761Y-67350000D02*
X101100000Y-59219239D01*
X113840000Y-66150000D02*
X112640000Y-67350000D01*
X112640000Y-67350000D02*
X109230761Y-67350000D01*
X108900000Y-47400000D02*
X108900000Y-14800000D01*
X101100000Y-58800000D02*
X101700000Y-58200000D01*
X95400000Y-57500000D02*
X95400000Y-57400000D01*
X97800000Y-58800000D02*
X101100000Y-58800000D01*
X115100000Y-14700000D02*
X116500000Y-13300000D01*
X97800000Y-58800000D02*
X96700000Y-58800000D01*
D17*
G04 #@! TO.N,RESET*
X116877057Y-64950000D02*
X115882943Y-64950000D01*
X124563871Y-67500000D02*
X118500000Y-67500000D01*
X117720000Y-65792943D02*
X116877057Y-64950000D01*
X127400000Y-42165686D02*
X127400000Y-8748529D01*
X117720000Y-66720000D02*
X117720000Y-65792943D01*
X115882943Y-64950000D02*
X114500000Y-63567057D01*
X127400000Y-8748529D02*
X127848529Y-8300000D01*
X125805000Y-66258871D02*
X124563871Y-67500000D01*
X120200000Y-51700000D02*
X120200000Y-49365686D01*
X114500000Y-63567057D02*
X114500000Y-61700000D01*
X118500000Y-67500000D02*
X117720000Y-66720000D01*
X120200000Y-49365686D02*
X127400000Y-42165686D01*
X127848529Y-8300000D02*
X135000000Y-8300000D01*
G04 #@! TO.N,SWC*
X124370000Y-64830000D02*
X124020000Y-65180000D01*
X119890000Y-65180000D02*
X118920000Y-66150000D01*
X124020000Y-65180000D02*
X119890000Y-65180000D01*
D18*
G04 #@! TO.N,VDD*
X107600000Y-59600000D02*
X107400000Y-59800000D01*
X107400000Y-59800000D02*
X107400000Y-63800000D01*
X109750000Y-66150000D02*
X111300000Y-66150000D01*
X107400000Y-63800000D02*
X109750000Y-66150000D01*
G04 #@! TO.N,Net-(J5-VBUS-PadA4)*
X107600000Y-8700000D02*
X112500000Y-8700000D01*
D17*
G04 #@! TO.N,Net-(J5-CC1)*
X108948530Y-9200000D02*
X107824265Y-10324265D01*
X111900000Y-9350000D02*
X111750000Y-9200000D01*
X111750000Y-9200000D02*
X108948530Y-9200000D01*
G04 #@! TO.N,Net-(U3-STAT)*
X93800000Y-47200000D02*
X93800000Y-12600000D01*
X93800000Y-12600000D02*
X97600000Y-8800000D01*
X97600000Y-8800000D02*
X100000000Y-8800000D01*
X95600000Y-49000000D02*
X93800000Y-47200000D01*
G04 #@! TO.N,SOFT_OFF*
X127000000Y-42000000D02*
X119600000Y-49400000D01*
X127000000Y-8300000D02*
X127000000Y-42000000D01*
X119600000Y-49400000D02*
X119600000Y-52500000D01*
G04 #@! TO.N,DATA-*
X111900000Y-47000000D02*
X111300000Y-46400000D01*
X118000000Y-64048529D02*
X118000000Y-63551471D01*
X117200000Y-62751471D02*
X117200000Y-48200000D01*
X111453090Y-45893355D02*
X111276313Y-45716578D01*
X116949546Y-64400000D02*
X117648529Y-64400000D01*
X110200000Y-17500000D02*
X110400000Y-17300000D01*
X116664682Y-64115136D02*
X116949546Y-64400000D01*
X111300000Y-46223223D02*
X111453090Y-46070132D01*
X116000000Y-47000000D02*
X111900000Y-47000000D01*
X111099536Y-45716578D02*
X110946445Y-45869668D01*
X110200000Y-45300000D02*
X110200000Y-17500000D01*
X110946445Y-45869668D02*
X110769668Y-45869668D01*
X118000000Y-63551471D02*
X117200000Y-62751471D01*
X110200000Y-45300000D02*
X110769668Y-45869668D01*
X111276313Y-45716578D02*
X111099536Y-45716578D01*
X117200000Y-48200000D02*
X116000000Y-47000000D01*
X111453090Y-46070132D02*
X111453090Y-45893355D01*
X111300000Y-46400000D02*
X111300000Y-46223223D01*
X117648529Y-64400000D02*
X118000000Y-64048529D01*
G04 #@! TO.N,DATA+*
X116265467Y-62025000D02*
X116140467Y-62150000D01*
X115881796Y-48171755D02*
X116058572Y-48348531D01*
X116800000Y-48400000D02*
X116800000Y-60900000D01*
X109800000Y-17489258D02*
X109800000Y-45465686D01*
X109600069Y-17289327D02*
X109800000Y-17489258D01*
X116050000Y-47650000D02*
X116050000Y-47826776D01*
X116140467Y-61150000D02*
X116140467Y-61400000D01*
X116800000Y-63200000D02*
X117400000Y-63800000D01*
X116265467Y-62525000D02*
X116675000Y-62525000D01*
X116675000Y-61025000D02*
X116265467Y-61025000D01*
X111734314Y-47400000D02*
X115800000Y-47400000D01*
X115800000Y-47400000D02*
X116050000Y-47650000D01*
X116675000Y-61525000D02*
X116800000Y-61650000D01*
X116800000Y-63100000D02*
X116800000Y-63200000D01*
X116675000Y-62025000D02*
X116265467Y-62025000D01*
X115881796Y-47994979D02*
X115881796Y-48171755D01*
X116265467Y-61025000D02*
X116140467Y-61150000D01*
X116800000Y-62650000D02*
X116800000Y-63100000D01*
X116580328Y-48180327D02*
X116757106Y-48357106D01*
X116050000Y-47826776D02*
X115881796Y-47994979D01*
X116235349Y-48348531D02*
X116403552Y-48180327D01*
X116800000Y-61900000D02*
X116675000Y-62025000D01*
X116757106Y-48357106D02*
X116800000Y-48400000D01*
X116265467Y-61525000D02*
X116675000Y-61525000D01*
X116140467Y-62150000D02*
X116140467Y-62400000D01*
X116403552Y-48180327D02*
X116580328Y-48180327D01*
X116675000Y-62525000D02*
X116800000Y-62650000D01*
X116058572Y-48348531D02*
X116235349Y-48348531D01*
X116140467Y-61400000D02*
X116265467Y-61525000D01*
X109800000Y-45465686D02*
X111734314Y-47400000D01*
X116800000Y-61650000D02*
X116800000Y-61900000D01*
X116140467Y-62400000D02*
X116265467Y-62525000D01*
X116800000Y-60900000D02*
X116675000Y-61025000D01*
G04 #@! TD*
M02*
