M48
; DRILL file {KiCad 8.0.7} date 2025-05-27T12:53:58-0400
; FORMAT={-:-/ absolute / metric / decimal}
; #@! TF.CreationDate,2025-05-27T12:53:58-04:00
; #@! TF.GenerationSoftware,Kicad,Pcbnew,8.0.7
; #@! TF.FileFunction,Plated,1,2,PTH
FMAT,2
METRIC
; #@! TA.AperFunction,Plated,PTH,ViaDrill
T1C0.300
; #@! TA.AperFunction,Plated,PTH,ComponentDrill
T2C0.600
; #@! TA.AperFunction,Plated,PTH,ComponentDrill
T3C0.800
; #@! TA.AperFunction,Plated,PTH,ComponentDrill
T4C1.000
%
G90
G05
T1
X77.9Y-76.477
X80.2Y-59.578
X82.4Y-42.677
X84.2Y-25.078
X94.75Y-34.5
X95.4Y-57.4
X95.6Y-49.0
X95.65Y-26.445
X96.55Y-42.745
X96.65Y-18.545
X97.45Y-34.745
X97.8Y-58.8
X98.45Y-26.745
X99.25Y-43.045
X99.45Y-18.845
X100.0Y-8.8
X100.25Y-35.045
X101.15Y-27.045
X101.7Y-31.659
X101.7Y-33.259
X101.7Y-55.7
X102.05Y-43.389
X102.15Y-19.145
X102.525Y-59.725
X102.95Y-31.059
X102.95Y-35.345
X103.7Y-8.4
X103.95Y-27.445
X104.5Y-31.659
X104.5Y-33.1
X104.95Y-19.445
X105.75Y-35.745
X106.5Y-56.5
X106.65Y-27.745
X106.7Y-8.7
X107.6Y-8.7
X107.6Y-11.5
X107.6Y-59.6
X107.75Y-19.845
X107.824Y-10.324
X108.38Y-48.73
X109.1Y-48.0
X109.6Y-17.289
X110.0Y-13.7
X110.0Y-60.7
X110.4Y-17.3
X111.9Y-9.35
X112.35Y-19.745
X112.5Y-8.7
X113.35Y-27.745
X113.6Y-8.7
X113.9Y-54.423
X113.9Y-55.6
X113.9Y-56.9
X113.9Y-58.2
X114.35Y-35.745
X114.5Y-61.7
X115.15Y-19.445
X116.15Y-27.445
X116.5Y-13.3
X116.665Y-64.115
X117.15Y-35.445
X117.4Y-63.8
X117.95Y-19.145
X118.15Y-43.389
X118.95Y-26.945
X119.6Y-52.5
X119.8Y-8.8
X119.85Y-35.045
X120.2Y-51.7
X120.6Y-59.2
X120.6Y-64.0
X120.65Y-18.745
X120.85Y-43.045
X121.3Y-46.7
X121.65Y-26.745
X121.8Y-59.2
X122.55Y-34.745
X123.1Y-59.2
X123.45Y-18.445
X123.65Y-42.745
X124.37Y-64.83
X124.45Y-26.445
X125.4Y-34.5
X125.805Y-66.259
X127.0Y-8.3
X134.25Y-27.327
X135.0Y-8.3
X135.6Y-43.177
X137.1Y-77.278
X137.7Y-60.078
X138.7Y-44.3
T3
X94.0Y-66.75
X96.0Y-66.75
T4
X111.3Y-66.15
X113.84Y-66.15
X116.38Y-66.15
X118.92Y-66.15
T2
G00X104.405Y-1.225
M15
G01X104.405Y-2.275
M16
G05
G00X104.425Y-5.825
M15
G01X104.425Y-6.875
M16
G05
G00X115.575Y-5.825
M15
G01X115.575Y-6.875
M16
G05
G00X115.595Y-1.225
M15
G01X115.595Y-2.275
M16
G05
M30
