%TF.GenerationSoftware,KiCad,Pcbnew,8.0.7*%
%TF.CreationDate,2025-05-27T12:53:58-04:00*%
%TF.ProjectId,le-oeuf,6c652d6f-6575-4662-9e6b-696361645f70,rev?*%
%TF.SameCoordinates,Original*%
%TF.FileFunction,Drillmap*%
%TF.FilePolarity,Positive*%
%FSLAX45Y45*%
G04 Gerber Fmt 4.5, Leading zero omitted, Abs format (unit mm)*
G04 Created by KiCad (PCBNEW 8.0.7) date 2025-05-27 12:53:58*
%MOMM*%
%LPD*%
G01*
G04 APERTURE LIST*
%ADD10C,0.050000*%
%ADD11C,0.080000*%
%ADD12C,0.100000*%
%ADD13C,0.200000*%
G04 APERTURE END LIST*
D10*
X3483809Y-7869558D02*
G75*
G02*
X3449458Y-7858882I12021J99281D01*
G01*
X21703136Y-6208898D02*
X18561377Y-7848302D01*
X9237500Y-6974996D02*
G75*
G02*
X9337496Y-6874997I100000J-1D01*
G01*
X16691635Y-387781D02*
X19367357Y-602435D01*
X12662500Y-6874861D02*
G75*
G02*
X12762506Y-6974861I0J-100006D01*
G01*
X11820000Y-387781D02*
G75*
G02*
X11723289Y-313229I0J100004D01*
G01*
X296736Y-6208930D02*
G75*
G02*
X243849Y-6108143I46354J88593D01*
G01*
X12862504Y-8503008D02*
G75*
G02*
X12762499Y-8403008I-4J100001D01*
G01*
X19367357Y-602435D02*
X21028990Y-807525D01*
X21756129Y-6108055D02*
G75*
G02*
X21703135Y-6208895I-99259J-12182D01*
G01*
X11642910Y-7750D02*
X11723292Y-313228D01*
X10276708Y-313228D02*
X10357090Y-7750D01*
X4377904Y-387781D02*
X10180000Y-387781D01*
X10357090Y-7750D02*
X10545500Y500D01*
X11820000Y-387781D02*
X14167907Y-387781D01*
X18527303Y-7858900D02*
X13281607Y-8502991D01*
X883994Y-894585D02*
G75*
G02*
X970999Y-807520I99256J-12182D01*
G01*
X9137504Y-8503159D02*
X8718528Y-8503176D01*
X18561377Y-7848302D02*
G75*
G02*
X18527303Y-7858902I-46277J88695D01*
G01*
X12762504Y-6974861D02*
X12762500Y-8403008D01*
X4365654Y-388534D02*
G75*
G02*
X4377904Y-387781I12246J-99223D01*
G01*
X9237500Y-6974996D02*
X9237500Y-8403159D01*
X8718528Y-8503176D02*
X3483809Y-7869558D01*
X11455500Y500D02*
X11642910Y-7750D01*
X12662496Y-6874996D02*
X9337496Y-6874996D01*
X13281607Y-8502991D02*
X12862504Y-8503008D01*
X21115995Y-894585D02*
X21756129Y-6108055D01*
X970999Y-807525D02*
X4365654Y-388534D01*
X3449457Y-7858883D02*
X296736Y-6208930D01*
X14167907Y-387781D02*
X16691635Y-387781D01*
X243850Y-6108143D02*
X883994Y-894585D01*
X21028990Y-807525D02*
G75*
G02*
X21115991Y-894585I-12250J-99242D01*
G01*
X9237500Y-8403159D02*
G75*
G02*
X9137504Y-8503157I-100000J2D01*
G01*
X10276708Y-313228D02*
G75*
G02*
X10180000Y-387785I-96708J25441D01*
G01*
D11*
X10545500Y-435418D02*
X10545500Y500D01*
X10660500Y-552500D02*
X10545500Y-552500D01*
X10680500Y-592500D02*
X10680500Y-572500D01*
X11000500Y-607500D02*
X10791122Y-607500D01*
X11000500Y-607500D02*
X11209878Y-607500D01*
X11320500Y-592500D02*
X11320500Y-572500D01*
X11340500Y-552500D02*
X11455500Y-552500D01*
X11455500Y-435418D02*
X11455500Y500D01*
X10545500Y-435418D02*
G75*
G02*
X10531213Y-454579I-19990J-2D01*
G01*
X10545500Y-552500D02*
G75*
G02*
X10531214Y-454584I0J50000D01*
G01*
X10660500Y-552500D02*
G75*
G02*
X10680500Y-572500I0J-20000D01*
G01*
X10773801Y-617500D02*
G75*
G02*
X10680500Y-592500I-43301J25000D01*
G01*
X10773801Y-617500D02*
G75*
G02*
X10791122Y-607502I17319J-10000D01*
G01*
X11209878Y-607500D02*
G75*
G02*
X11227199Y-617500I0J-20000D01*
G01*
X11320500Y-572500D02*
G75*
G02*
X11340500Y-552500I20000J0D01*
G01*
X11320500Y-592500D02*
G75*
G02*
X11227199Y-617500I-50000J0D01*
G01*
X11469786Y-454584D02*
G75*
G02*
X11455500Y-435418I5714J19166D01*
G01*
X11469786Y-454584D02*
G75*
G02*
X11455500Y-552500I-14286J-47916D01*
G01*
D12*
X19948241Y-3963981D02*
G75*
G02*
X19848241Y-3963981I-50000J0D01*
G01*
X19848241Y-3963981D02*
G75*
G02*
X19948241Y-3963981I50000J0D01*
G01*
X21042566Y-3276712D02*
G75*
G02*
X20922566Y-3276712I-60000J0D01*
G01*
X20922566Y-3276712D02*
G75*
G02*
X21042566Y-3276712I60000J0D01*
G01*
X5901842Y-5709642D02*
G75*
G02*
X5801842Y-5709642I-50000J0D01*
G01*
X5801842Y-5709642D02*
G75*
G02*
X5901842Y-5709642I50000J0D01*
G01*
X7130224Y-5305110D02*
G75*
G02*
X7010224Y-5305110I-60000J0D01*
G01*
X7010224Y-5305110D02*
G75*
G02*
X7130224Y-5305110I60000J0D01*
G01*
X16262817Y-1847344D02*
G75*
G02*
X16162817Y-1847344I-50000J0D01*
G01*
X16162817Y-1847344D02*
G75*
G02*
X16262817Y-1847344I50000J0D01*
G01*
X17357142Y-1160075D02*
G75*
G02*
X17237142Y-1160075I-60000J0D01*
G01*
X17237142Y-1160075D02*
G75*
G02*
X17357142Y-1160075I60000J0D01*
G01*
X18209118Y-3749326D02*
G75*
G02*
X18109118Y-3749326I-50000J0D01*
G01*
X18109118Y-3749326D02*
G75*
G02*
X18209118Y-3749326I50000J0D01*
G01*
X19303443Y-3062058D02*
G75*
G02*
X19183443Y-3062058I-60000J0D01*
G01*
X19183443Y-3062058D02*
G75*
G02*
X19303443Y-3062058I60000J0D01*
G01*
X20155419Y-5651309D02*
G75*
G02*
X20055419Y-5651309I-50000J0D01*
G01*
X20055419Y-5651309D02*
G75*
G02*
X20155419Y-5651309I50000J0D01*
G01*
X21249744Y-4964040D02*
G75*
G02*
X21129744Y-4964040I-60000J0D01*
G01*
X21129744Y-4964040D02*
G75*
G02*
X21249744Y-4964040I60000J0D01*
G01*
X13561488Y-7745517D02*
G75*
G02*
X13461488Y-7745517I-50000J0D01*
G01*
X13461488Y-7745517D02*
G75*
G02*
X13561488Y-7745517I50000J0D01*
G01*
X14655814Y-7058248D02*
G75*
G02*
X14535814Y-7058248I-60000J0D01*
G01*
X14535814Y-7058248D02*
G75*
G02*
X14655814Y-7058248I60000J0D01*
G01*
X5694664Y-7396971D02*
G75*
G02*
X5594664Y-7396971I-50000J0D01*
G01*
X5594664Y-7396971D02*
G75*
G02*
X5694664Y-7396971I50000J0D01*
G01*
X6923046Y-6992439D02*
G75*
G02*
X6803046Y-6992439I-60000J0D01*
G01*
X6803046Y-6992439D02*
G75*
G02*
X6923046Y-6992439I60000J0D01*
G01*
X7796349Y-4229492D02*
G75*
G02*
X7696349Y-4229492I-50000J0D01*
G01*
X7696349Y-4229492D02*
G75*
G02*
X7796349Y-4229492I50000J0D01*
G01*
X9024730Y-3824960D02*
G75*
G02*
X8904730Y-3824960I-60000J0D01*
G01*
X8904730Y-3824960D02*
G75*
G02*
X9024730Y-3824960I60000J0D01*
G01*
X12939955Y-2683532D02*
G75*
G02*
X12839955Y-2683532I-50000J0D01*
G01*
X12839955Y-2683532D02*
G75*
G02*
X12939955Y-2683532I50000J0D01*
G01*
X14034280Y-1996263D02*
G75*
G02*
X13914280Y-1996263I-60000J0D01*
G01*
X13914280Y-1996263D02*
G75*
G02*
X14034280Y-1996263I60000J0D01*
G01*
X15248817Y-7538339D02*
G75*
G02*
X15148817Y-7538339I-50000J0D01*
G01*
X15148817Y-7538339D02*
G75*
G02*
X15248817Y-7538339I50000J0D01*
G01*
X16343142Y-6851070D02*
G75*
G02*
X16223142Y-6851070I-60000J0D01*
G01*
X16223142Y-6851070D02*
G75*
G02*
X16343142Y-6851070I60000J0D01*
G01*
X7589171Y-5916820D02*
G75*
G02*
X7489171Y-5916820I-50000J0D01*
G01*
X7489171Y-5916820D02*
G75*
G02*
X7589171Y-5916820I50000J0D01*
G01*
X8817552Y-5512288D02*
G75*
G02*
X8697552Y-5512288I-60000J0D01*
G01*
X8697552Y-5512288D02*
G75*
G02*
X8817552Y-5512288I60000J0D01*
G01*
X1202418Y-2135284D02*
G75*
G02*
X1102418Y-2135284I-50000J0D01*
G01*
X1102418Y-2135284D02*
G75*
G02*
X1202418Y-2135284I50000J0D01*
G01*
X2430800Y-1730752D02*
G75*
G02*
X2310800Y-1730752I-60000J0D01*
G01*
X2310800Y-1730752D02*
G75*
G02*
X2430800Y-1730752I60000J0D01*
G01*
X2734363Y-3607958D02*
G75*
G02*
X2634363Y-3607958I-50000J0D01*
G01*
X2634363Y-3607958D02*
G75*
G02*
X2734363Y-3607958I50000J0D01*
G01*
X3962745Y-3203426D02*
G75*
G02*
X3842745Y-3203426I-60000J0D01*
G01*
X3842745Y-3203426D02*
G75*
G02*
X3962745Y-3203426I60000J0D01*
G01*
X19741063Y-2276652D02*
G75*
G02*
X19641063Y-2276652I-50000J0D01*
G01*
X19641063Y-2276652D02*
G75*
G02*
X19741063Y-2276652I50000J0D01*
G01*
X20835388Y-1589383D02*
G75*
G02*
X20715388Y-1589383I-60000J0D01*
G01*
X20715388Y-1589383D02*
G75*
G02*
X20835388Y-1589383I60000J0D01*
G01*
X13354310Y-6058189D02*
G75*
G02*
X13254310Y-6058189I-50000J0D01*
G01*
X13254310Y-6058189D02*
G75*
G02*
X13354310Y-6058189I50000J0D01*
G01*
X14448636Y-5370920D02*
G75*
G02*
X14328636Y-5370920I-60000J0D01*
G01*
X14328636Y-5370920D02*
G75*
G02*
X14448636Y-5370920I60000J0D01*
G01*
X995240Y-3822612D02*
G75*
G02*
X895240Y-3822612I-50000J0D01*
G01*
X895240Y-3822612D02*
G75*
G02*
X995240Y-3822612I50000J0D01*
G01*
X2223622Y-3418080D02*
G75*
G02*
X2103622Y-3418080I-60000J0D01*
G01*
X2103622Y-3418080D02*
G75*
G02*
X2223622Y-3418080I60000J0D01*
G01*
X4680664Y-1705975D02*
G75*
G02*
X4580664Y-1705975I-50000J0D01*
G01*
X4580664Y-1705975D02*
G75*
G02*
X4680664Y-1705975I50000J0D01*
G01*
X5909046Y-1301443D02*
G75*
G02*
X5789046Y-1301443I-60000J0D01*
G01*
X5789046Y-1301443D02*
G75*
G02*
X5909046Y-1301443I60000J0D01*
G01*
X15041639Y-5851011D02*
G75*
G02*
X14941639Y-5851011I-50000J0D01*
G01*
X14941639Y-5851011D02*
G75*
G02*
X15041639Y-5851011I50000J0D01*
G01*
X16135964Y-5163742D02*
G75*
G02*
X16015964Y-5163742I-60000J0D01*
G01*
X16015964Y-5163742D02*
G75*
G02*
X16135964Y-5163742I60000J0D01*
G01*
X16677173Y-5222001D02*
G75*
G02*
X16577173Y-5222001I-50000J0D01*
G01*
X16577173Y-5222001D02*
G75*
G02*
X16677173Y-5222001I50000J0D01*
G01*
X17771498Y-4534732D02*
G75*
G02*
X17651498Y-4534732I-60000J0D01*
G01*
X17651498Y-4534732D02*
G75*
G02*
X17771498Y-4534732I60000J0D01*
G01*
X2527185Y-5295287D02*
G75*
G02*
X2427185Y-5295287I-50000J0D01*
G01*
X2427185Y-5295287D02*
G75*
G02*
X2527185Y-5295287I50000J0D01*
G01*
X3755567Y-4890755D02*
G75*
G02*
X3635567Y-4890755I-60000J0D01*
G01*
X3635567Y-4890755D02*
G75*
G02*
X3755567Y-4890755I60000J0D01*
G01*
X8003526Y-2542163D02*
G75*
G02*
X7903526Y-2542163I-50000J0D01*
G01*
X7903526Y-2542163D02*
G75*
G02*
X8003526Y-2542163I50000J0D01*
G01*
X9231908Y-2137631D02*
G75*
G02*
X9111908Y-2137631I-60000J0D01*
G01*
X9111908Y-2137631D02*
G75*
G02*
X9231908Y-2137631I60000J0D01*
G01*
X18416296Y-5436655D02*
G75*
G02*
X18316296Y-5436655I-50000J0D01*
G01*
X18316296Y-5436655D02*
G75*
G02*
X18416296Y-5436655I50000J0D01*
G01*
X19510621Y-4749386D02*
G75*
G02*
X19390621Y-4749386I-60000J0D01*
G01*
X19390621Y-4749386D02*
G75*
G02*
X19510621Y-4749386I60000J0D01*
G01*
X13561488Y-7745517D02*
G75*
G02*
X13461488Y-7745517I-50000J0D01*
G01*
X13461488Y-7745517D02*
G75*
G02*
X13561488Y-7745517I50000J0D01*
G01*
X14655814Y-7058248D02*
G75*
G02*
X14535814Y-7058248I-60000J0D01*
G01*
X14535814Y-7058248D02*
G75*
G02*
X14655814Y-7058248I60000J0D01*
G01*
X4266308Y-5080632D02*
G75*
G02*
X4166308Y-5080632I-50000J0D01*
G01*
X4166308Y-5080632D02*
G75*
G02*
X4266308Y-5080632I50000J0D01*
G01*
X5494690Y-4676100D02*
G75*
G02*
X5374690Y-4676100I-60000J0D01*
G01*
X5374690Y-4676100D02*
G75*
G02*
X5494690Y-4676100I60000J0D01*
G01*
X16936145Y-7331161D02*
G75*
G02*
X16836145Y-7331161I-50000J0D01*
G01*
X16836145Y-7331161D02*
G75*
G02*
X16936145Y-7331161I50000J0D01*
G01*
X18030471Y-6643892D02*
G75*
G02*
X17910471Y-6643892I-60000J0D01*
G01*
X17910471Y-6643892D02*
G75*
G02*
X18030471Y-6643892I60000J0D01*
G01*
X14627283Y-2476354D02*
G75*
G02*
X14527283Y-2476354I-50000J0D01*
G01*
X14527283Y-2476354D02*
G75*
G02*
X14627283Y-2476354I50000J0D01*
G01*
X15721608Y-1789085D02*
G75*
G02*
X15601608Y-1789085I-60000J0D01*
G01*
X15601608Y-1789085D02*
G75*
G02*
X15721608Y-1789085I60000J0D01*
G01*
X6316198Y-2334985D02*
G75*
G02*
X6216198Y-2334985I-50000J0D01*
G01*
X6216198Y-2334985D02*
G75*
G02*
X6316198Y-2334985I50000J0D01*
G01*
X7544580Y-1930453D02*
G75*
G02*
X7424580Y-1930453I-60000J0D01*
G01*
X7424580Y-1930453D02*
G75*
G02*
X7544580Y-1930453I60000J0D01*
G01*
X4007336Y-7189793D02*
G75*
G02*
X3907336Y-7189793I-50000J0D01*
G01*
X3907336Y-7189793D02*
G75*
G02*
X4007336Y-7189793I50000J0D01*
G01*
X5235718Y-6785261D02*
G75*
G02*
X5115718Y-6785261I-60000J0D01*
G01*
X5115718Y-6785261D02*
G75*
G02*
X5235718Y-6785261I60000J0D01*
G01*
X788062Y-5509941D02*
G75*
G02*
X688062Y-5509941I-50000J0D01*
G01*
X688062Y-5509941D02*
G75*
G02*
X788062Y-5509941I50000J0D01*
G01*
X2016444Y-5105409D02*
G75*
G02*
X1896444Y-5105409I-60000J0D01*
G01*
X1896444Y-5105409D02*
G75*
G02*
X2016444Y-5105409I60000J0D01*
G01*
X14834461Y-4163682D02*
G75*
G02*
X14734461Y-4163682I-50000J0D01*
G01*
X14734461Y-4163682D02*
G75*
G02*
X14834461Y-4163682I50000J0D01*
G01*
X15928786Y-3476413D02*
G75*
G02*
X15808786Y-3476413I-60000J0D01*
G01*
X15808786Y-3476413D02*
G75*
G02*
X15928786Y-3476413I60000J0D01*
G01*
X16469995Y-3534672D02*
G75*
G02*
X16369995Y-3534672I-50000J0D01*
G01*
X16369995Y-3534672D02*
G75*
G02*
X16469995Y-3534672I50000J0D01*
G01*
X17564320Y-2847403D02*
G75*
G02*
X17444320Y-2847403I-60000J0D01*
G01*
X17444320Y-2847403D02*
G75*
G02*
X17564320Y-2847403I60000J0D01*
G01*
X4473486Y-3393304D02*
G75*
G02*
X4373486Y-3393304I-50000J0D01*
G01*
X4373486Y-3393304D02*
G75*
G02*
X4473486Y-3393304I50000J0D01*
G01*
X5701868Y-2988772D02*
G75*
G02*
X5581868Y-2988772I-60000J0D01*
G01*
X5581868Y-2988772D02*
G75*
G02*
X5701868Y-2988772I60000J0D01*
G01*
X18001940Y-2061998D02*
G75*
G02*
X17901940Y-2061998I-50000J0D01*
G01*
X17901940Y-2061998D02*
G75*
G02*
X18001940Y-2061998I50000J0D01*
G01*
X19096265Y-1374729D02*
G75*
G02*
X18976265Y-1374729I-60000J0D01*
G01*
X18976265Y-1374729D02*
G75*
G02*
X19096265Y-1374729I60000J0D01*
G01*
X2941541Y-1920630D02*
G75*
G02*
X2841541Y-1920630I-50000J0D01*
G01*
X2841541Y-1920630D02*
G75*
G02*
X2941541Y-1920630I50000J0D01*
G01*
X4169923Y-1516098D02*
G75*
G02*
X4049923Y-1516098I-60000J0D01*
G01*
X4049923Y-1516098D02*
G75*
G02*
X4169923Y-1516098I60000J0D01*
G01*
X13147132Y-4370860D02*
G75*
G02*
X13047132Y-4370860I-50000J0D01*
G01*
X13047132Y-4370860D02*
G75*
G02*
X13147132Y-4370860I50000J0D01*
G01*
X14241458Y-3683591D02*
G75*
G02*
X14121458Y-3683591I-60000J0D01*
G01*
X14121458Y-3683591D02*
G75*
G02*
X14241458Y-3683591I60000J0D01*
G01*
X6109020Y-4022314D02*
G75*
G02*
X6009020Y-4022314I-50000J0D01*
G01*
X6009020Y-4022314D02*
G75*
G02*
X6109020Y-4022314I50000J0D01*
G01*
X7337402Y-3617782D02*
G75*
G02*
X7217402Y-3617782I-60000J0D01*
G01*
X7217402Y-3617782D02*
G75*
G02*
X7337402Y-3617782I60000J0D01*
G01*
X7381993Y-7604149D02*
G75*
G02*
X7281993Y-7604149I-50000J0D01*
G01*
X7281993Y-7604149D02*
G75*
G02*
X7381993Y-7604149I50000J0D01*
G01*
X8610374Y-7199617D02*
G75*
G02*
X8490374Y-7199617I-60000J0D01*
G01*
X8490374Y-7199617D02*
G75*
G02*
X8610374Y-7199617I60000J0D01*
G01*
D13*
D12*
X7775000Y-7632750D02*
X7805000Y-7662750D01*
X7805000Y-7632750D02*
X7775000Y-7662750D01*
X8005000Y-5942750D02*
X8035000Y-5972750D01*
X8035000Y-5942750D02*
X8005000Y-5972750D01*
X8225000Y-4252750D02*
X8255000Y-4282750D01*
X8255000Y-4252750D02*
X8225000Y-4282750D01*
X8405000Y-2492750D02*
X8435000Y-2522750D01*
X8435000Y-2492750D02*
X8405000Y-2522750D01*
X9460000Y-3435000D02*
X9490000Y-3465000D01*
X9490000Y-3435000D02*
X9460000Y-3465000D01*
X9525000Y-5725000D02*
X9555000Y-5755000D01*
X9555000Y-5725000D02*
X9525000Y-5755000D01*
X9545000Y-4885000D02*
X9575000Y-4915000D01*
X9575000Y-4885000D02*
X9545000Y-4915000D01*
X9550000Y-2629523D02*
X9580000Y-2659523D01*
X9580000Y-2629523D02*
X9550000Y-2659523D01*
X9640000Y-4259523D02*
X9670000Y-4289523D01*
X9670000Y-4259523D02*
X9640000Y-4289523D01*
X9650000Y-1839523D02*
X9680000Y-1869523D01*
X9680000Y-1839523D02*
X9650000Y-1869523D01*
X9730000Y-3459523D02*
X9760000Y-3489523D01*
X9760000Y-3459523D02*
X9730000Y-3489523D01*
X9765000Y-5865000D02*
X9795000Y-5895000D01*
X9795000Y-5865000D02*
X9765000Y-5895000D01*
X9830000Y-2659523D02*
X9860000Y-2689523D01*
X9860000Y-2659523D02*
X9830000Y-2689523D01*
X9910000Y-4289523D02*
X9940000Y-4319523D01*
X9940000Y-4289523D02*
X9910000Y-4319523D01*
X9930000Y-1869523D02*
X9960000Y-1899523D01*
X9960000Y-1869523D02*
X9930000Y-1899523D01*
X9985000Y-865000D02*
X10015000Y-895000D01*
X10015000Y-865000D02*
X9985000Y-895000D01*
X10010000Y-3489523D02*
X10040000Y-3519523D01*
X10040000Y-3489523D02*
X10010000Y-3519523D01*
X10100000Y-2689523D02*
X10130000Y-2719523D01*
X10130000Y-2689523D02*
X10100000Y-2719523D01*
X10155000Y-3150863D02*
X10185000Y-3180863D01*
X10185000Y-3150863D02*
X10155000Y-3180863D01*
X10155000Y-3310863D02*
X10185000Y-3340863D01*
X10185000Y-3310863D02*
X10155000Y-3340863D01*
X10155000Y-5555000D02*
X10185000Y-5585000D01*
X10185000Y-5555000D02*
X10155000Y-5585000D01*
X10190000Y-4323897D02*
X10220000Y-4353897D01*
X10220000Y-4323897D02*
X10190000Y-4353897D01*
X10200000Y-1899523D02*
X10230000Y-1929523D01*
X10230000Y-1899523D02*
X10200000Y-1929523D01*
X10237500Y-5957500D02*
X10267500Y-5987500D01*
X10267500Y-5957500D02*
X10237500Y-5987500D01*
X10280000Y-3090863D02*
X10310000Y-3120863D01*
X10310000Y-3090863D02*
X10280000Y-3120863D01*
X10280000Y-3519523D02*
X10310000Y-3549523D01*
X10310000Y-3519523D02*
X10280000Y-3549523D01*
X10355000Y-825000D02*
X10385000Y-855000D01*
X10385000Y-825000D02*
X10355000Y-855000D01*
X10380000Y-2729523D02*
X10410000Y-2759523D01*
X10410000Y-2729523D02*
X10380000Y-2759523D01*
X10435000Y-3150863D02*
X10465000Y-3180863D01*
X10465000Y-3150863D02*
X10435000Y-3180863D01*
X10435000Y-3295000D02*
X10465000Y-3325000D01*
X10465000Y-3295000D02*
X10435000Y-3325000D01*
X10480000Y-1929523D02*
X10510000Y-1959523D01*
X10510000Y-1929523D02*
X10480000Y-1959523D01*
X10560000Y-3559523D02*
X10590000Y-3589523D01*
X10590000Y-3559523D02*
X10560000Y-3589523D01*
X10635000Y-5635000D02*
X10665000Y-5665000D01*
X10665000Y-5635000D02*
X10635000Y-5665000D01*
X10650000Y-2759523D02*
X10680000Y-2789523D01*
X10680000Y-2759523D02*
X10650000Y-2789523D01*
X10655000Y-855000D02*
X10685000Y-885000D01*
X10685000Y-855000D02*
X10655000Y-885000D01*
X10745000Y-855000D02*
X10775000Y-885000D01*
X10775000Y-855000D02*
X10745000Y-885000D01*
X10745000Y-1135000D02*
X10775000Y-1165000D01*
X10775000Y-1135000D02*
X10745000Y-1165000D01*
X10745000Y-5945000D02*
X10775000Y-5975000D01*
X10775000Y-5945000D02*
X10745000Y-5975000D01*
X10760000Y-1969523D02*
X10790000Y-1999523D01*
X10790000Y-1969523D02*
X10760000Y-1999523D01*
X10767427Y-1017426D02*
X10797427Y-1047426D01*
X10797427Y-1017426D02*
X10767427Y-1047426D01*
X10823000Y-4858000D02*
X10853000Y-4888000D01*
X10853000Y-4858000D02*
X10823000Y-4888000D01*
X10895000Y-4785000D02*
X10925000Y-4815000D01*
X10925000Y-4785000D02*
X10895000Y-4815000D01*
X10945007Y-1713933D02*
X10975007Y-1743933D01*
X10975007Y-1713933D02*
X10945007Y-1743933D01*
X10985000Y-1355000D02*
X11015000Y-1385000D01*
X11015000Y-1355000D02*
X10985000Y-1385000D01*
X10985000Y-6055000D02*
X11015000Y-6085000D01*
X11015000Y-6055000D02*
X10985000Y-6085000D01*
X11025000Y-1715000D02*
X11055000Y-1745000D01*
X11055000Y-1715000D02*
X11025000Y-1745000D01*
X11175000Y-920000D02*
X11205000Y-950000D01*
X11205000Y-920000D02*
X11175000Y-950000D01*
X11220000Y-1959523D02*
X11250000Y-1989523D01*
X11250000Y-1959523D02*
X11220000Y-1989523D01*
X11235000Y-855000D02*
X11265000Y-885000D01*
X11265000Y-855000D02*
X11235000Y-885000D01*
X11320000Y-2759523D02*
X11350000Y-2789523D01*
X11350000Y-2759523D02*
X11320000Y-2789523D01*
X11345000Y-855000D02*
X11375000Y-885000D01*
X11375000Y-855000D02*
X11345000Y-885000D01*
X11375000Y-5427284D02*
X11405000Y-5457284D01*
X11405000Y-5427284D02*
X11375000Y-5457284D01*
X11375000Y-5545000D02*
X11405000Y-5575000D01*
X11405000Y-5545000D02*
X11375000Y-5575000D01*
X11375000Y-5675000D02*
X11405000Y-5705000D01*
X11405000Y-5675000D02*
X11375000Y-5705000D01*
X11375000Y-5805000D02*
X11405000Y-5835000D01*
X11405000Y-5805000D02*
X11375000Y-5835000D01*
X11420000Y-3559523D02*
X11450000Y-3589523D01*
X11450000Y-3559523D02*
X11420000Y-3589523D01*
X11435000Y-6155000D02*
X11465000Y-6185000D01*
X11465000Y-6155000D02*
X11435000Y-6185000D01*
X11500000Y-1929523D02*
X11530000Y-1959523D01*
X11530000Y-1929523D02*
X11500000Y-1959523D01*
X11600000Y-2729523D02*
X11630000Y-2759523D01*
X11630000Y-2729523D02*
X11600000Y-2759523D01*
X11635000Y-1315000D02*
X11665000Y-1345000D01*
X11665000Y-1315000D02*
X11635000Y-1345000D01*
X11651468Y-6396514D02*
X11681468Y-6426514D01*
X11681468Y-6396514D02*
X11651468Y-6426514D01*
X11700000Y-3529523D02*
X11730000Y-3559523D01*
X11730000Y-3529523D02*
X11700000Y-3559523D01*
X11725000Y-6365000D02*
X11755000Y-6395000D01*
X11755000Y-6365000D02*
X11725000Y-6395000D01*
X11780000Y-1899523D02*
X11810000Y-1929523D01*
X11810000Y-1899523D02*
X11780000Y-1929523D01*
X11800000Y-4323897D02*
X11830000Y-4353897D01*
X11830000Y-4323897D02*
X11800000Y-4353897D01*
X11880000Y-2679523D02*
X11910000Y-2709523D01*
X11910000Y-2679523D02*
X11880000Y-2709523D01*
X11945000Y-5235000D02*
X11975000Y-5265000D01*
X11975000Y-5235000D02*
X11945000Y-5265000D01*
X11965000Y-865000D02*
X11995000Y-895000D01*
X11995000Y-865000D02*
X11965000Y-895000D01*
X11970000Y-3489523D02*
X12000000Y-3519523D01*
X12000000Y-3489523D02*
X11970000Y-3519523D01*
X12005000Y-5155000D02*
X12035000Y-5185000D01*
X12035000Y-5155000D02*
X12005000Y-5185000D01*
X12045000Y-5905000D02*
X12075000Y-5935000D01*
X12075000Y-5905000D02*
X12045000Y-5935000D01*
X12045000Y-6385000D02*
X12075000Y-6415000D01*
X12075000Y-6385000D02*
X12045000Y-6415000D01*
X12050000Y-1859523D02*
X12080000Y-1889523D01*
X12080000Y-1859523D02*
X12050000Y-1889523D01*
X12070000Y-4289523D02*
X12100000Y-4319523D01*
X12100000Y-4289523D02*
X12070000Y-4319523D01*
X12115000Y-4655000D02*
X12145000Y-4685000D01*
X12145000Y-4655000D02*
X12115000Y-4685000D01*
X12150000Y-2659523D02*
X12180000Y-2689523D01*
X12180000Y-2659523D02*
X12150000Y-2689523D01*
X12165000Y-5905000D02*
X12195000Y-5935000D01*
X12195000Y-5905000D02*
X12165000Y-5935000D01*
X12240000Y-3459523D02*
X12270000Y-3489523D01*
X12270000Y-3459523D02*
X12240000Y-3489523D01*
X12295000Y-5905000D02*
X12325000Y-5935000D01*
X12325000Y-5905000D02*
X12295000Y-5935000D01*
X12330000Y-1829523D02*
X12360000Y-1859523D01*
X12360000Y-1829523D02*
X12330000Y-1859523D01*
X12350000Y-4259523D02*
X12380000Y-4289523D01*
X12380000Y-4259523D02*
X12350000Y-4289523D01*
X12422000Y-6468000D02*
X12452000Y-6498000D01*
X12452000Y-6468000D02*
X12422000Y-6498000D01*
X12430000Y-2629523D02*
X12460000Y-2659523D01*
X12460000Y-2629523D02*
X12430000Y-2659523D01*
X12525000Y-3435000D02*
X12555000Y-3465000D01*
X12555000Y-3435000D02*
X12525000Y-3465000D01*
X12565500Y-6610887D02*
X12595500Y-6640887D01*
X12595500Y-6610887D02*
X12565500Y-6640887D01*
X12685000Y-815000D02*
X12715000Y-845000D01*
X12715000Y-815000D02*
X12685000Y-845000D01*
X13410000Y-2717750D02*
X13440000Y-2747750D01*
X13440000Y-2717750D02*
X13410000Y-2747750D01*
X13485000Y-815000D02*
X13515000Y-845000D01*
X13515000Y-815000D02*
X13485000Y-845000D01*
X13545000Y-4302750D02*
X13575000Y-4332750D01*
X13575000Y-4302750D02*
X13545000Y-4332750D01*
X13695000Y-7712750D02*
X13725000Y-7742750D01*
X13725000Y-7712750D02*
X13695000Y-7742750D01*
X13755000Y-5992750D02*
X13785000Y-6022750D01*
X13785000Y-5992750D02*
X13755000Y-6022750D01*
X13855000Y-4415000D02*
X13885000Y-4445000D01*
X13885000Y-4415000D02*
X13855000Y-4445000D01*
X10470500Y-175000D02*
G75*
G02*
X10410500Y-175000I-30000J0D01*
G01*
X10410500Y-175000D02*
G75*
G02*
X10470500Y-175000I30000J0D01*
G01*
X10410500Y-122500D02*
X10410500Y-227500D01*
X10470500Y-227500D02*
G75*
G02*
X10410500Y-227500I-30000J0D01*
G01*
X10470500Y-227500D02*
X10470500Y-122500D01*
X10470500Y-122500D02*
G75*
G03*
X10410500Y-122500I-30000J0D01*
G01*
X10472500Y-635000D02*
G75*
G02*
X10412500Y-635000I-30000J0D01*
G01*
X10412500Y-635000D02*
G75*
G02*
X10472500Y-635000I30000J0D01*
G01*
X10412500Y-582500D02*
X10412500Y-687500D01*
X10472500Y-687500D02*
G75*
G02*
X10412500Y-687500I-30000J0D01*
G01*
X10472500Y-687500D02*
X10472500Y-582500D01*
X10472500Y-582500D02*
G75*
G03*
X10412500Y-582500I-30000J0D01*
G01*
X11587500Y-635000D02*
G75*
G02*
X11527500Y-635000I-30000J0D01*
G01*
X11527500Y-635000D02*
G75*
G02*
X11587500Y-635000I30000J0D01*
G01*
X11527500Y-582500D02*
X11527500Y-687500D01*
X11587500Y-687500D02*
G75*
G02*
X11527500Y-687500I-30000J0D01*
G01*
X11587500Y-687500D02*
X11587500Y-582500D01*
X11587500Y-582500D02*
G75*
G03*
X11527500Y-582500I-30000J0D01*
G01*
X11589500Y-175000D02*
G75*
G02*
X11529500Y-175000I-30000J0D01*
G01*
X11529500Y-175000D02*
G75*
G02*
X11589500Y-175000I30000J0D01*
G01*
X11529500Y-122500D02*
X11529500Y-227500D01*
X11589500Y-227500D02*
G75*
G02*
X11529500Y-227500I-30000J0D01*
G01*
X11589500Y-227500D02*
X11589500Y-122500D01*
X11589500Y-122500D02*
G75*
G03*
X11529500Y-122500I-30000J0D01*
G01*
X9400000Y-6635000D02*
X9400000Y-6715000D01*
X9360000Y-6675000D02*
X9440000Y-6675000D01*
X9600000Y-6635000D02*
X9600000Y-6715000D01*
X9560000Y-6675000D02*
X9640000Y-6675000D01*
X11165356Y-6650356D02*
X11165356Y-6579644D01*
X11094644Y-6579644D01*
X11094644Y-6650356D01*
X11165356Y-6650356D01*
X11419356Y-6650356D02*
X11419356Y-6579644D01*
X11348644Y-6579644D01*
X11348644Y-6650356D01*
X11419356Y-6650356D01*
X11673356Y-6650356D02*
X11673356Y-6579644D01*
X11602644Y-6579644D01*
X11602644Y-6650356D01*
X11673356Y-6650356D01*
X11927356Y-6650356D02*
X11927356Y-6579644D01*
X11856644Y-6579644D01*
X11856644Y-6650356D01*
X11927356Y-6650356D01*
D13*
X501380Y-8817160D02*
X501380Y-8617160D01*
X501380Y-8617160D02*
X548999Y-8617160D01*
X548999Y-8617160D02*
X577570Y-8626684D01*
X577570Y-8626684D02*
X596618Y-8645731D01*
X596618Y-8645731D02*
X606142Y-8664779D01*
X606142Y-8664779D02*
X615666Y-8702874D01*
X615666Y-8702874D02*
X615666Y-8731445D01*
X615666Y-8731445D02*
X606142Y-8769541D01*
X606142Y-8769541D02*
X596618Y-8788588D01*
X596618Y-8788588D02*
X577570Y-8807636D01*
X577570Y-8807636D02*
X548999Y-8817160D01*
X548999Y-8817160D02*
X501380Y-8817160D01*
X701380Y-8817160D02*
X701380Y-8683826D01*
X701380Y-8721922D02*
X710904Y-8702874D01*
X710904Y-8702874D02*
X720427Y-8693350D01*
X720427Y-8693350D02*
X739475Y-8683826D01*
X739475Y-8683826D02*
X758523Y-8683826D01*
X825189Y-8817160D02*
X825189Y-8683826D01*
X825189Y-8617160D02*
X815666Y-8626684D01*
X815666Y-8626684D02*
X825189Y-8636207D01*
X825189Y-8636207D02*
X834713Y-8626684D01*
X834713Y-8626684D02*
X825189Y-8617160D01*
X825189Y-8617160D02*
X825189Y-8636207D01*
X948999Y-8817160D02*
X929951Y-8807636D01*
X929951Y-8807636D02*
X920427Y-8788588D01*
X920427Y-8788588D02*
X920427Y-8617160D01*
X1053761Y-8817160D02*
X1034713Y-8807636D01*
X1034713Y-8807636D02*
X1025189Y-8788588D01*
X1025189Y-8788588D02*
X1025189Y-8617160D01*
X1282332Y-8817160D02*
X1282332Y-8617160D01*
X1282332Y-8617160D02*
X1348999Y-8760017D01*
X1348999Y-8760017D02*
X1415666Y-8617160D01*
X1415666Y-8617160D02*
X1415666Y-8817160D01*
X1596618Y-8817160D02*
X1596618Y-8712398D01*
X1596618Y-8712398D02*
X1587094Y-8693350D01*
X1587094Y-8693350D02*
X1568047Y-8683826D01*
X1568047Y-8683826D02*
X1529951Y-8683826D01*
X1529951Y-8683826D02*
X1510904Y-8693350D01*
X1596618Y-8807636D02*
X1577570Y-8817160D01*
X1577570Y-8817160D02*
X1529951Y-8817160D01*
X1529951Y-8817160D02*
X1510904Y-8807636D01*
X1510904Y-8807636D02*
X1501380Y-8788588D01*
X1501380Y-8788588D02*
X1501380Y-8769541D01*
X1501380Y-8769541D02*
X1510904Y-8750493D01*
X1510904Y-8750493D02*
X1529951Y-8740969D01*
X1529951Y-8740969D02*
X1577570Y-8740969D01*
X1577570Y-8740969D02*
X1596618Y-8731445D01*
X1691856Y-8683826D02*
X1691856Y-8883826D01*
X1691856Y-8693350D02*
X1710904Y-8683826D01*
X1710904Y-8683826D02*
X1748999Y-8683826D01*
X1748999Y-8683826D02*
X1768047Y-8693350D01*
X1768047Y-8693350D02*
X1777570Y-8702874D01*
X1777570Y-8702874D02*
X1787094Y-8721922D01*
X1787094Y-8721922D02*
X1787094Y-8779064D01*
X1787094Y-8779064D02*
X1777570Y-8798112D01*
X1777570Y-8798112D02*
X1768047Y-8807636D01*
X1768047Y-8807636D02*
X1748999Y-8817160D01*
X1748999Y-8817160D02*
X1710904Y-8817160D01*
X1710904Y-8817160D02*
X1691856Y-8807636D01*
X1872808Y-8798112D02*
X1882332Y-8807636D01*
X1882332Y-8807636D02*
X1872808Y-8817160D01*
X1872808Y-8817160D02*
X1863285Y-8807636D01*
X1863285Y-8807636D02*
X1872808Y-8798112D01*
X1872808Y-8798112D02*
X1872808Y-8817160D01*
X1872808Y-8693350D02*
X1882332Y-8702874D01*
X1882332Y-8702874D02*
X1872808Y-8712398D01*
X1872808Y-8712398D02*
X1863285Y-8702874D01*
X1863285Y-8702874D02*
X1872808Y-8693350D01*
X1872808Y-8693350D02*
X1872808Y-8712398D01*
D12*
X210603Y-9130676D02*
X240603Y-9160676D01*
X240603Y-9130676D02*
X210603Y-9160676D01*
D13*
X539475Y-9037160D02*
X558523Y-9037160D01*
X558523Y-9037160D02*
X577570Y-9046684D01*
X577570Y-9046684D02*
X587094Y-9056207D01*
X587094Y-9056207D02*
X596618Y-9075255D01*
X596618Y-9075255D02*
X606142Y-9113350D01*
X606142Y-9113350D02*
X606142Y-9160969D01*
X606142Y-9160969D02*
X596618Y-9199064D01*
X596618Y-9199064D02*
X587094Y-9218112D01*
X587094Y-9218112D02*
X577570Y-9227636D01*
X577570Y-9227636D02*
X558523Y-9237160D01*
X558523Y-9237160D02*
X539475Y-9237160D01*
X539475Y-9237160D02*
X520427Y-9227636D01*
X520427Y-9227636D02*
X510904Y-9218112D01*
X510904Y-9218112D02*
X501380Y-9199064D01*
X501380Y-9199064D02*
X491856Y-9160969D01*
X491856Y-9160969D02*
X491856Y-9113350D01*
X491856Y-9113350D02*
X501380Y-9075255D01*
X501380Y-9075255D02*
X510904Y-9056207D01*
X510904Y-9056207D02*
X520427Y-9046684D01*
X520427Y-9046684D02*
X539475Y-9037160D01*
X691856Y-9218112D02*
X701380Y-9227636D01*
X701380Y-9227636D02*
X691856Y-9237160D01*
X691856Y-9237160D02*
X682332Y-9227636D01*
X682332Y-9227636D02*
X691856Y-9218112D01*
X691856Y-9218112D02*
X691856Y-9237160D01*
X768047Y-9037160D02*
X891856Y-9037160D01*
X891856Y-9037160D02*
X825189Y-9113350D01*
X825189Y-9113350D02*
X853761Y-9113350D01*
X853761Y-9113350D02*
X872808Y-9122874D01*
X872808Y-9122874D02*
X882332Y-9132398D01*
X882332Y-9132398D02*
X891856Y-9151445D01*
X891856Y-9151445D02*
X891856Y-9199064D01*
X891856Y-9199064D02*
X882332Y-9218112D01*
X882332Y-9218112D02*
X872808Y-9227636D01*
X872808Y-9227636D02*
X853761Y-9237160D01*
X853761Y-9237160D02*
X796618Y-9237160D01*
X796618Y-9237160D02*
X777570Y-9227636D01*
X777570Y-9227636D02*
X768047Y-9218112D01*
X1015666Y-9037160D02*
X1034713Y-9037160D01*
X1034713Y-9037160D02*
X1053761Y-9046684D01*
X1053761Y-9046684D02*
X1063285Y-9056207D01*
X1063285Y-9056207D02*
X1072809Y-9075255D01*
X1072809Y-9075255D02*
X1082332Y-9113350D01*
X1082332Y-9113350D02*
X1082332Y-9160969D01*
X1082332Y-9160969D02*
X1072809Y-9199064D01*
X1072809Y-9199064D02*
X1063285Y-9218112D01*
X1063285Y-9218112D02*
X1053761Y-9227636D01*
X1053761Y-9227636D02*
X1034713Y-9237160D01*
X1034713Y-9237160D02*
X1015666Y-9237160D01*
X1015666Y-9237160D02*
X996618Y-9227636D01*
X996618Y-9227636D02*
X987094Y-9218112D01*
X987094Y-9218112D02*
X977570Y-9199064D01*
X977570Y-9199064D02*
X968047Y-9160969D01*
X968047Y-9160969D02*
X968047Y-9113350D01*
X968047Y-9113350D02*
X977570Y-9075255D01*
X977570Y-9075255D02*
X987094Y-9056207D01*
X987094Y-9056207D02*
X996618Y-9046684D01*
X996618Y-9046684D02*
X1015666Y-9037160D01*
X1206142Y-9037160D02*
X1225190Y-9037160D01*
X1225190Y-9037160D02*
X1244237Y-9046684D01*
X1244237Y-9046684D02*
X1253761Y-9056207D01*
X1253761Y-9056207D02*
X1263285Y-9075255D01*
X1263285Y-9075255D02*
X1272809Y-9113350D01*
X1272809Y-9113350D02*
X1272809Y-9160969D01*
X1272809Y-9160969D02*
X1263285Y-9199064D01*
X1263285Y-9199064D02*
X1253761Y-9218112D01*
X1253761Y-9218112D02*
X1244237Y-9227636D01*
X1244237Y-9227636D02*
X1225190Y-9237160D01*
X1225190Y-9237160D02*
X1206142Y-9237160D01*
X1206142Y-9237160D02*
X1187094Y-9227636D01*
X1187094Y-9227636D02*
X1177570Y-9218112D01*
X1177570Y-9218112D02*
X1168047Y-9199064D01*
X1168047Y-9199064D02*
X1158523Y-9160969D01*
X1158523Y-9160969D02*
X1158523Y-9113350D01*
X1158523Y-9113350D02*
X1168047Y-9075255D01*
X1168047Y-9075255D02*
X1177570Y-9056207D01*
X1177570Y-9056207D02*
X1187094Y-9046684D01*
X1187094Y-9046684D02*
X1206142Y-9037160D01*
X1358523Y-9237160D02*
X1358523Y-9103826D01*
X1358523Y-9122874D02*
X1368047Y-9113350D01*
X1368047Y-9113350D02*
X1387094Y-9103826D01*
X1387094Y-9103826D02*
X1415666Y-9103826D01*
X1415666Y-9103826D02*
X1434713Y-9113350D01*
X1434713Y-9113350D02*
X1444237Y-9132398D01*
X1444237Y-9132398D02*
X1444237Y-9237160D01*
X1444237Y-9132398D02*
X1453761Y-9113350D01*
X1453761Y-9113350D02*
X1472808Y-9103826D01*
X1472808Y-9103826D02*
X1501380Y-9103826D01*
X1501380Y-9103826D02*
X1520428Y-9113350D01*
X1520428Y-9113350D02*
X1529951Y-9132398D01*
X1529951Y-9132398D02*
X1529951Y-9237160D01*
X1625189Y-9237160D02*
X1625189Y-9103826D01*
X1625189Y-9122874D02*
X1634713Y-9113350D01*
X1634713Y-9113350D02*
X1653761Y-9103826D01*
X1653761Y-9103826D02*
X1682332Y-9103826D01*
X1682332Y-9103826D02*
X1701380Y-9113350D01*
X1701380Y-9113350D02*
X1710904Y-9132398D01*
X1710904Y-9132398D02*
X1710904Y-9237160D01*
X1710904Y-9132398D02*
X1720428Y-9113350D01*
X1720428Y-9113350D02*
X1739475Y-9103826D01*
X1739475Y-9103826D02*
X1768047Y-9103826D01*
X1768047Y-9103826D02*
X1787094Y-9113350D01*
X1787094Y-9113350D02*
X1796618Y-9132398D01*
X1796618Y-9132398D02*
X1796618Y-9237160D01*
X2187094Y-9027636D02*
X2015666Y-9284779D01*
X2444237Y-9037160D02*
X2463285Y-9037160D01*
X2463285Y-9037160D02*
X2482333Y-9046684D01*
X2482333Y-9046684D02*
X2491856Y-9056207D01*
X2491856Y-9056207D02*
X2501380Y-9075255D01*
X2501380Y-9075255D02*
X2510904Y-9113350D01*
X2510904Y-9113350D02*
X2510904Y-9160969D01*
X2510904Y-9160969D02*
X2501380Y-9199064D01*
X2501380Y-9199064D02*
X2491856Y-9218112D01*
X2491856Y-9218112D02*
X2482333Y-9227636D01*
X2482333Y-9227636D02*
X2463285Y-9237160D01*
X2463285Y-9237160D02*
X2444237Y-9237160D01*
X2444237Y-9237160D02*
X2425190Y-9227636D01*
X2425190Y-9227636D02*
X2415666Y-9218112D01*
X2415666Y-9218112D02*
X2406142Y-9199064D01*
X2406142Y-9199064D02*
X2396618Y-9160969D01*
X2396618Y-9160969D02*
X2396618Y-9113350D01*
X2396618Y-9113350D02*
X2406142Y-9075255D01*
X2406142Y-9075255D02*
X2415666Y-9056207D01*
X2415666Y-9056207D02*
X2425190Y-9046684D01*
X2425190Y-9046684D02*
X2444237Y-9037160D01*
X2596618Y-9218112D02*
X2606142Y-9227636D01*
X2606142Y-9227636D02*
X2596618Y-9237160D01*
X2596618Y-9237160D02*
X2587094Y-9227636D01*
X2587094Y-9227636D02*
X2596618Y-9218112D01*
X2596618Y-9218112D02*
X2596618Y-9237160D01*
X2729952Y-9037160D02*
X2748999Y-9037160D01*
X2748999Y-9037160D02*
X2768047Y-9046684D01*
X2768047Y-9046684D02*
X2777571Y-9056207D01*
X2777571Y-9056207D02*
X2787094Y-9075255D01*
X2787094Y-9075255D02*
X2796618Y-9113350D01*
X2796618Y-9113350D02*
X2796618Y-9160969D01*
X2796618Y-9160969D02*
X2787094Y-9199064D01*
X2787094Y-9199064D02*
X2777571Y-9218112D01*
X2777571Y-9218112D02*
X2768047Y-9227636D01*
X2768047Y-9227636D02*
X2748999Y-9237160D01*
X2748999Y-9237160D02*
X2729952Y-9237160D01*
X2729952Y-9237160D02*
X2710904Y-9227636D01*
X2710904Y-9227636D02*
X2701380Y-9218112D01*
X2701380Y-9218112D02*
X2691856Y-9199064D01*
X2691856Y-9199064D02*
X2682333Y-9160969D01*
X2682333Y-9160969D02*
X2682333Y-9113350D01*
X2682333Y-9113350D02*
X2691856Y-9075255D01*
X2691856Y-9075255D02*
X2701380Y-9056207D01*
X2701380Y-9056207D02*
X2710904Y-9046684D01*
X2710904Y-9046684D02*
X2729952Y-9037160D01*
X2987094Y-9237160D02*
X2872809Y-9237160D01*
X2929951Y-9237160D02*
X2929951Y-9037160D01*
X2929951Y-9037160D02*
X2910904Y-9065731D01*
X2910904Y-9065731D02*
X2891856Y-9084779D01*
X2891856Y-9084779D02*
X2872809Y-9094303D01*
X3177571Y-9237160D02*
X3063285Y-9237160D01*
X3120428Y-9237160D02*
X3120428Y-9037160D01*
X3120428Y-9037160D02*
X3101380Y-9065731D01*
X3101380Y-9065731D02*
X3082332Y-9084779D01*
X3082332Y-9084779D02*
X3063285Y-9094303D01*
X3291856Y-9122874D02*
X3272809Y-9113350D01*
X3272809Y-9113350D02*
X3263285Y-9103826D01*
X3263285Y-9103826D02*
X3253761Y-9084779D01*
X3253761Y-9084779D02*
X3253761Y-9075255D01*
X3253761Y-9075255D02*
X3263285Y-9056207D01*
X3263285Y-9056207D02*
X3272809Y-9046684D01*
X3272809Y-9046684D02*
X3291856Y-9037160D01*
X3291856Y-9037160D02*
X3329952Y-9037160D01*
X3329952Y-9037160D02*
X3348999Y-9046684D01*
X3348999Y-9046684D02*
X3358523Y-9056207D01*
X3358523Y-9056207D02*
X3368047Y-9075255D01*
X3368047Y-9075255D02*
X3368047Y-9084779D01*
X3368047Y-9084779D02*
X3358523Y-9103826D01*
X3358523Y-9103826D02*
X3348999Y-9113350D01*
X3348999Y-9113350D02*
X3329952Y-9122874D01*
X3329952Y-9122874D02*
X3291856Y-9122874D01*
X3291856Y-9122874D02*
X3272809Y-9132398D01*
X3272809Y-9132398D02*
X3263285Y-9141922D01*
X3263285Y-9141922D02*
X3253761Y-9160969D01*
X3253761Y-9160969D02*
X3253761Y-9199064D01*
X3253761Y-9199064D02*
X3263285Y-9218112D01*
X3263285Y-9218112D02*
X3272809Y-9227636D01*
X3272809Y-9227636D02*
X3291856Y-9237160D01*
X3291856Y-9237160D02*
X3329952Y-9237160D01*
X3329952Y-9237160D02*
X3348999Y-9227636D01*
X3348999Y-9227636D02*
X3358523Y-9218112D01*
X3358523Y-9218112D02*
X3368047Y-9199064D01*
X3368047Y-9199064D02*
X3368047Y-9160969D01*
X3368047Y-9160969D02*
X3358523Y-9141922D01*
X3358523Y-9141922D02*
X3348999Y-9132398D01*
X3348999Y-9132398D02*
X3329952Y-9122874D01*
X3444237Y-9037160D02*
X3444237Y-9075255D01*
X3520428Y-9037160D02*
X3520428Y-9075255D01*
X3815666Y-9313350D02*
X3806142Y-9303826D01*
X3806142Y-9303826D02*
X3787094Y-9275255D01*
X3787094Y-9275255D02*
X3777571Y-9256207D01*
X3777571Y-9256207D02*
X3768047Y-9227636D01*
X3768047Y-9227636D02*
X3758523Y-9180017D01*
X3758523Y-9180017D02*
X3758523Y-9141922D01*
X3758523Y-9141922D02*
X3768047Y-9094303D01*
X3768047Y-9094303D02*
X3777571Y-9065731D01*
X3777571Y-9065731D02*
X3787094Y-9046684D01*
X3787094Y-9046684D02*
X3806142Y-9018112D01*
X3806142Y-9018112D02*
X3815666Y-9008588D01*
X3901380Y-9237160D02*
X3939475Y-9237160D01*
X3939475Y-9237160D02*
X3958523Y-9227636D01*
X3958523Y-9227636D02*
X3968047Y-9218112D01*
X3968047Y-9218112D02*
X3987094Y-9189541D01*
X3987094Y-9189541D02*
X3996618Y-9151445D01*
X3996618Y-9151445D02*
X3996618Y-9075255D01*
X3996618Y-9075255D02*
X3987094Y-9056207D01*
X3987094Y-9056207D02*
X3977571Y-9046684D01*
X3977571Y-9046684D02*
X3958523Y-9037160D01*
X3958523Y-9037160D02*
X3920428Y-9037160D01*
X3920428Y-9037160D02*
X3901380Y-9046684D01*
X3901380Y-9046684D02*
X3891856Y-9056207D01*
X3891856Y-9056207D02*
X3882333Y-9075255D01*
X3882333Y-9075255D02*
X3882333Y-9122874D01*
X3882333Y-9122874D02*
X3891856Y-9141922D01*
X3891856Y-9141922D02*
X3901380Y-9151445D01*
X3901380Y-9151445D02*
X3920428Y-9160969D01*
X3920428Y-9160969D02*
X3958523Y-9160969D01*
X3958523Y-9160969D02*
X3977571Y-9151445D01*
X3977571Y-9151445D02*
X3987094Y-9141922D01*
X3987094Y-9141922D02*
X3996618Y-9122874D01*
X4072809Y-9056207D02*
X4082333Y-9046684D01*
X4082333Y-9046684D02*
X4101380Y-9037160D01*
X4101380Y-9037160D02*
X4148999Y-9037160D01*
X4148999Y-9037160D02*
X4168047Y-9046684D01*
X4168047Y-9046684D02*
X4177571Y-9056207D01*
X4177571Y-9056207D02*
X4187094Y-9075255D01*
X4187094Y-9075255D02*
X4187094Y-9094303D01*
X4187094Y-9094303D02*
X4177571Y-9122874D01*
X4177571Y-9122874D02*
X4063285Y-9237160D01*
X4063285Y-9237160D02*
X4187094Y-9237160D01*
X4425190Y-9237160D02*
X4425190Y-9037160D01*
X4510904Y-9237160D02*
X4510904Y-9132398D01*
X4510904Y-9132398D02*
X4501380Y-9113350D01*
X4501380Y-9113350D02*
X4482333Y-9103826D01*
X4482333Y-9103826D02*
X4453761Y-9103826D01*
X4453761Y-9103826D02*
X4434714Y-9113350D01*
X4434714Y-9113350D02*
X4425190Y-9122874D01*
X4634714Y-9237160D02*
X4615666Y-9227636D01*
X4615666Y-9227636D02*
X4606142Y-9218112D01*
X4606142Y-9218112D02*
X4596618Y-9199064D01*
X4596618Y-9199064D02*
X4596618Y-9141922D01*
X4596618Y-9141922D02*
X4606142Y-9122874D01*
X4606142Y-9122874D02*
X4615666Y-9113350D01*
X4615666Y-9113350D02*
X4634714Y-9103826D01*
X4634714Y-9103826D02*
X4663285Y-9103826D01*
X4663285Y-9103826D02*
X4682333Y-9113350D01*
X4682333Y-9113350D02*
X4691857Y-9122874D01*
X4691857Y-9122874D02*
X4701380Y-9141922D01*
X4701380Y-9141922D02*
X4701380Y-9199064D01*
X4701380Y-9199064D02*
X4691857Y-9218112D01*
X4691857Y-9218112D02*
X4682333Y-9227636D01*
X4682333Y-9227636D02*
X4663285Y-9237160D01*
X4663285Y-9237160D02*
X4634714Y-9237160D01*
X4815666Y-9237160D02*
X4796618Y-9227636D01*
X4796618Y-9227636D02*
X4787095Y-9208588D01*
X4787095Y-9208588D02*
X4787095Y-9037160D01*
X4968047Y-9227636D02*
X4948999Y-9237160D01*
X4948999Y-9237160D02*
X4910904Y-9237160D01*
X4910904Y-9237160D02*
X4891857Y-9227636D01*
X4891857Y-9227636D02*
X4882333Y-9208588D01*
X4882333Y-9208588D02*
X4882333Y-9132398D01*
X4882333Y-9132398D02*
X4891857Y-9113350D01*
X4891857Y-9113350D02*
X4910904Y-9103826D01*
X4910904Y-9103826D02*
X4948999Y-9103826D01*
X4948999Y-9103826D02*
X4968047Y-9113350D01*
X4968047Y-9113350D02*
X4977571Y-9132398D01*
X4977571Y-9132398D02*
X4977571Y-9151445D01*
X4977571Y-9151445D02*
X4882333Y-9170493D01*
X5053761Y-9227636D02*
X5072809Y-9237160D01*
X5072809Y-9237160D02*
X5110904Y-9237160D01*
X5110904Y-9237160D02*
X5129952Y-9227636D01*
X5129952Y-9227636D02*
X5139476Y-9208588D01*
X5139476Y-9208588D02*
X5139476Y-9199064D01*
X5139476Y-9199064D02*
X5129952Y-9180017D01*
X5129952Y-9180017D02*
X5110904Y-9170493D01*
X5110904Y-9170493D02*
X5082333Y-9170493D01*
X5082333Y-9170493D02*
X5063285Y-9160969D01*
X5063285Y-9160969D02*
X5053761Y-9141922D01*
X5053761Y-9141922D02*
X5053761Y-9132398D01*
X5053761Y-9132398D02*
X5063285Y-9113350D01*
X5063285Y-9113350D02*
X5082333Y-9103826D01*
X5082333Y-9103826D02*
X5110904Y-9103826D01*
X5110904Y-9103826D02*
X5129952Y-9113350D01*
X5206142Y-9313350D02*
X5215666Y-9303826D01*
X5215666Y-9303826D02*
X5234714Y-9275255D01*
X5234714Y-9275255D02*
X5244238Y-9256207D01*
X5244238Y-9256207D02*
X5253761Y-9227636D01*
X5253761Y-9227636D02*
X5263285Y-9180017D01*
X5263285Y-9180017D02*
X5263285Y-9141922D01*
X5263285Y-9141922D02*
X5253761Y-9094303D01*
X5253761Y-9094303D02*
X5244238Y-9065731D01*
X5244238Y-9065731D02*
X5234714Y-9046684D01*
X5234714Y-9046684D02*
X5215666Y-9018112D01*
X5215666Y-9018112D02*
X5206142Y-9008588D01*
D12*
X240603Y-9409676D02*
G75*
G02*
X180603Y-9409676I-30000J0D01*
G01*
X180603Y-9409676D02*
G75*
G02*
X240603Y-9409676I30000J0D01*
G01*
D13*
X539475Y-9301160D02*
X558523Y-9301160D01*
X558523Y-9301160D02*
X577570Y-9310684D01*
X577570Y-9310684D02*
X587094Y-9320207D01*
X587094Y-9320207D02*
X596618Y-9339255D01*
X596618Y-9339255D02*
X606142Y-9377350D01*
X606142Y-9377350D02*
X606142Y-9424969D01*
X606142Y-9424969D02*
X596618Y-9463064D01*
X596618Y-9463064D02*
X587094Y-9482112D01*
X587094Y-9482112D02*
X577570Y-9491636D01*
X577570Y-9491636D02*
X558523Y-9501160D01*
X558523Y-9501160D02*
X539475Y-9501160D01*
X539475Y-9501160D02*
X520427Y-9491636D01*
X520427Y-9491636D02*
X510904Y-9482112D01*
X510904Y-9482112D02*
X501380Y-9463064D01*
X501380Y-9463064D02*
X491856Y-9424969D01*
X491856Y-9424969D02*
X491856Y-9377350D01*
X491856Y-9377350D02*
X501380Y-9339255D01*
X501380Y-9339255D02*
X510904Y-9320207D01*
X510904Y-9320207D02*
X520427Y-9310684D01*
X520427Y-9310684D02*
X539475Y-9301160D01*
X691856Y-9482112D02*
X701380Y-9491636D01*
X701380Y-9491636D02*
X691856Y-9501160D01*
X691856Y-9501160D02*
X682332Y-9491636D01*
X682332Y-9491636D02*
X691856Y-9482112D01*
X691856Y-9482112D02*
X691856Y-9501160D01*
X872808Y-9301160D02*
X834713Y-9301160D01*
X834713Y-9301160D02*
X815666Y-9310684D01*
X815666Y-9310684D02*
X806142Y-9320207D01*
X806142Y-9320207D02*
X787094Y-9348779D01*
X787094Y-9348779D02*
X777570Y-9386874D01*
X777570Y-9386874D02*
X777570Y-9463064D01*
X777570Y-9463064D02*
X787094Y-9482112D01*
X787094Y-9482112D02*
X796618Y-9491636D01*
X796618Y-9491636D02*
X815666Y-9501160D01*
X815666Y-9501160D02*
X853761Y-9501160D01*
X853761Y-9501160D02*
X872808Y-9491636D01*
X872808Y-9491636D02*
X882332Y-9482112D01*
X882332Y-9482112D02*
X891856Y-9463064D01*
X891856Y-9463064D02*
X891856Y-9415445D01*
X891856Y-9415445D02*
X882332Y-9396398D01*
X882332Y-9396398D02*
X872808Y-9386874D01*
X872808Y-9386874D02*
X853761Y-9377350D01*
X853761Y-9377350D02*
X815666Y-9377350D01*
X815666Y-9377350D02*
X796618Y-9386874D01*
X796618Y-9386874D02*
X787094Y-9396398D01*
X787094Y-9396398D02*
X777570Y-9415445D01*
X1015666Y-9301160D02*
X1034713Y-9301160D01*
X1034713Y-9301160D02*
X1053761Y-9310684D01*
X1053761Y-9310684D02*
X1063285Y-9320207D01*
X1063285Y-9320207D02*
X1072809Y-9339255D01*
X1072809Y-9339255D02*
X1082332Y-9377350D01*
X1082332Y-9377350D02*
X1082332Y-9424969D01*
X1082332Y-9424969D02*
X1072809Y-9463064D01*
X1072809Y-9463064D02*
X1063285Y-9482112D01*
X1063285Y-9482112D02*
X1053761Y-9491636D01*
X1053761Y-9491636D02*
X1034713Y-9501160D01*
X1034713Y-9501160D02*
X1015666Y-9501160D01*
X1015666Y-9501160D02*
X996618Y-9491636D01*
X996618Y-9491636D02*
X987094Y-9482112D01*
X987094Y-9482112D02*
X977570Y-9463064D01*
X977570Y-9463064D02*
X968047Y-9424969D01*
X968047Y-9424969D02*
X968047Y-9377350D01*
X968047Y-9377350D02*
X977570Y-9339255D01*
X977570Y-9339255D02*
X987094Y-9320207D01*
X987094Y-9320207D02*
X996618Y-9310684D01*
X996618Y-9310684D02*
X1015666Y-9301160D01*
X1206142Y-9301160D02*
X1225190Y-9301160D01*
X1225190Y-9301160D02*
X1244237Y-9310684D01*
X1244237Y-9310684D02*
X1253761Y-9320207D01*
X1253761Y-9320207D02*
X1263285Y-9339255D01*
X1263285Y-9339255D02*
X1272809Y-9377350D01*
X1272809Y-9377350D02*
X1272809Y-9424969D01*
X1272809Y-9424969D02*
X1263285Y-9463064D01*
X1263285Y-9463064D02*
X1253761Y-9482112D01*
X1253761Y-9482112D02*
X1244237Y-9491636D01*
X1244237Y-9491636D02*
X1225190Y-9501160D01*
X1225190Y-9501160D02*
X1206142Y-9501160D01*
X1206142Y-9501160D02*
X1187094Y-9491636D01*
X1187094Y-9491636D02*
X1177570Y-9482112D01*
X1177570Y-9482112D02*
X1168047Y-9463064D01*
X1168047Y-9463064D02*
X1158523Y-9424969D01*
X1158523Y-9424969D02*
X1158523Y-9377350D01*
X1158523Y-9377350D02*
X1168047Y-9339255D01*
X1168047Y-9339255D02*
X1177570Y-9320207D01*
X1177570Y-9320207D02*
X1187094Y-9310684D01*
X1187094Y-9310684D02*
X1206142Y-9301160D01*
X1358523Y-9501160D02*
X1358523Y-9367826D01*
X1358523Y-9386874D02*
X1368047Y-9377350D01*
X1368047Y-9377350D02*
X1387094Y-9367826D01*
X1387094Y-9367826D02*
X1415666Y-9367826D01*
X1415666Y-9367826D02*
X1434713Y-9377350D01*
X1434713Y-9377350D02*
X1444237Y-9396398D01*
X1444237Y-9396398D02*
X1444237Y-9501160D01*
X1444237Y-9396398D02*
X1453761Y-9377350D01*
X1453761Y-9377350D02*
X1472808Y-9367826D01*
X1472808Y-9367826D02*
X1501380Y-9367826D01*
X1501380Y-9367826D02*
X1520428Y-9377350D01*
X1520428Y-9377350D02*
X1529951Y-9396398D01*
X1529951Y-9396398D02*
X1529951Y-9501160D01*
X1625189Y-9501160D02*
X1625189Y-9367826D01*
X1625189Y-9386874D02*
X1634713Y-9377350D01*
X1634713Y-9377350D02*
X1653761Y-9367826D01*
X1653761Y-9367826D02*
X1682332Y-9367826D01*
X1682332Y-9367826D02*
X1701380Y-9377350D01*
X1701380Y-9377350D02*
X1710904Y-9396398D01*
X1710904Y-9396398D02*
X1710904Y-9501160D01*
X1710904Y-9396398D02*
X1720428Y-9377350D01*
X1720428Y-9377350D02*
X1739475Y-9367826D01*
X1739475Y-9367826D02*
X1768047Y-9367826D01*
X1768047Y-9367826D02*
X1787094Y-9377350D01*
X1787094Y-9377350D02*
X1796618Y-9396398D01*
X1796618Y-9396398D02*
X1796618Y-9501160D01*
X2187094Y-9291636D02*
X2015666Y-9548779D01*
X2444237Y-9301160D02*
X2463285Y-9301160D01*
X2463285Y-9301160D02*
X2482333Y-9310684D01*
X2482333Y-9310684D02*
X2491856Y-9320207D01*
X2491856Y-9320207D02*
X2501380Y-9339255D01*
X2501380Y-9339255D02*
X2510904Y-9377350D01*
X2510904Y-9377350D02*
X2510904Y-9424969D01*
X2510904Y-9424969D02*
X2501380Y-9463064D01*
X2501380Y-9463064D02*
X2491856Y-9482112D01*
X2491856Y-9482112D02*
X2482333Y-9491636D01*
X2482333Y-9491636D02*
X2463285Y-9501160D01*
X2463285Y-9501160D02*
X2444237Y-9501160D01*
X2444237Y-9501160D02*
X2425190Y-9491636D01*
X2425190Y-9491636D02*
X2415666Y-9482112D01*
X2415666Y-9482112D02*
X2406142Y-9463064D01*
X2406142Y-9463064D02*
X2396618Y-9424969D01*
X2396618Y-9424969D02*
X2396618Y-9377350D01*
X2396618Y-9377350D02*
X2406142Y-9339255D01*
X2406142Y-9339255D02*
X2415666Y-9320207D01*
X2415666Y-9320207D02*
X2425190Y-9310684D01*
X2425190Y-9310684D02*
X2444237Y-9301160D01*
X2596618Y-9482112D02*
X2606142Y-9491636D01*
X2606142Y-9491636D02*
X2596618Y-9501160D01*
X2596618Y-9501160D02*
X2587094Y-9491636D01*
X2587094Y-9491636D02*
X2596618Y-9482112D01*
X2596618Y-9482112D02*
X2596618Y-9501160D01*
X2729952Y-9301160D02*
X2748999Y-9301160D01*
X2748999Y-9301160D02*
X2768047Y-9310684D01*
X2768047Y-9310684D02*
X2777571Y-9320207D01*
X2777571Y-9320207D02*
X2787094Y-9339255D01*
X2787094Y-9339255D02*
X2796618Y-9377350D01*
X2796618Y-9377350D02*
X2796618Y-9424969D01*
X2796618Y-9424969D02*
X2787094Y-9463064D01*
X2787094Y-9463064D02*
X2777571Y-9482112D01*
X2777571Y-9482112D02*
X2768047Y-9491636D01*
X2768047Y-9491636D02*
X2748999Y-9501160D01*
X2748999Y-9501160D02*
X2729952Y-9501160D01*
X2729952Y-9501160D02*
X2710904Y-9491636D01*
X2710904Y-9491636D02*
X2701380Y-9482112D01*
X2701380Y-9482112D02*
X2691856Y-9463064D01*
X2691856Y-9463064D02*
X2682333Y-9424969D01*
X2682333Y-9424969D02*
X2682333Y-9377350D01*
X2682333Y-9377350D02*
X2691856Y-9339255D01*
X2691856Y-9339255D02*
X2701380Y-9320207D01*
X2701380Y-9320207D02*
X2710904Y-9310684D01*
X2710904Y-9310684D02*
X2729952Y-9301160D01*
X2872809Y-9320207D02*
X2882332Y-9310684D01*
X2882332Y-9310684D02*
X2901380Y-9301160D01*
X2901380Y-9301160D02*
X2948999Y-9301160D01*
X2948999Y-9301160D02*
X2968047Y-9310684D01*
X2968047Y-9310684D02*
X2977571Y-9320207D01*
X2977571Y-9320207D02*
X2987094Y-9339255D01*
X2987094Y-9339255D02*
X2987094Y-9358303D01*
X2987094Y-9358303D02*
X2977571Y-9386874D01*
X2977571Y-9386874D02*
X2863285Y-9501160D01*
X2863285Y-9501160D02*
X2987094Y-9501160D01*
X3053761Y-9301160D02*
X3177571Y-9301160D01*
X3177571Y-9301160D02*
X3110904Y-9377350D01*
X3110904Y-9377350D02*
X3139475Y-9377350D01*
X3139475Y-9377350D02*
X3158523Y-9386874D01*
X3158523Y-9386874D02*
X3168047Y-9396398D01*
X3168047Y-9396398D02*
X3177571Y-9415445D01*
X3177571Y-9415445D02*
X3177571Y-9463064D01*
X3177571Y-9463064D02*
X3168047Y-9482112D01*
X3168047Y-9482112D02*
X3158523Y-9491636D01*
X3158523Y-9491636D02*
X3139475Y-9501160D01*
X3139475Y-9501160D02*
X3082332Y-9501160D01*
X3082332Y-9501160D02*
X3063285Y-9491636D01*
X3063285Y-9491636D02*
X3053761Y-9482112D01*
X3348999Y-9301160D02*
X3310904Y-9301160D01*
X3310904Y-9301160D02*
X3291856Y-9310684D01*
X3291856Y-9310684D02*
X3282332Y-9320207D01*
X3282332Y-9320207D02*
X3263285Y-9348779D01*
X3263285Y-9348779D02*
X3253761Y-9386874D01*
X3253761Y-9386874D02*
X3253761Y-9463064D01*
X3253761Y-9463064D02*
X3263285Y-9482112D01*
X3263285Y-9482112D02*
X3272809Y-9491636D01*
X3272809Y-9491636D02*
X3291856Y-9501160D01*
X3291856Y-9501160D02*
X3329952Y-9501160D01*
X3329952Y-9501160D02*
X3348999Y-9491636D01*
X3348999Y-9491636D02*
X3358523Y-9482112D01*
X3358523Y-9482112D02*
X3368047Y-9463064D01*
X3368047Y-9463064D02*
X3368047Y-9415445D01*
X3368047Y-9415445D02*
X3358523Y-9396398D01*
X3358523Y-9396398D02*
X3348999Y-9386874D01*
X3348999Y-9386874D02*
X3329952Y-9377350D01*
X3329952Y-9377350D02*
X3291856Y-9377350D01*
X3291856Y-9377350D02*
X3272809Y-9386874D01*
X3272809Y-9386874D02*
X3263285Y-9396398D01*
X3263285Y-9396398D02*
X3253761Y-9415445D01*
X3444237Y-9301160D02*
X3444237Y-9339255D01*
X3520428Y-9301160D02*
X3520428Y-9339255D01*
X3815666Y-9577350D02*
X3806142Y-9567826D01*
X3806142Y-9567826D02*
X3787094Y-9539255D01*
X3787094Y-9539255D02*
X3777571Y-9520207D01*
X3777571Y-9520207D02*
X3768047Y-9491636D01*
X3768047Y-9491636D02*
X3758523Y-9444017D01*
X3758523Y-9444017D02*
X3758523Y-9405922D01*
X3758523Y-9405922D02*
X3768047Y-9358303D01*
X3768047Y-9358303D02*
X3777571Y-9329731D01*
X3777571Y-9329731D02*
X3787094Y-9310684D01*
X3787094Y-9310684D02*
X3806142Y-9282112D01*
X3806142Y-9282112D02*
X3815666Y-9272588D01*
X3929952Y-9301160D02*
X3948999Y-9301160D01*
X3948999Y-9301160D02*
X3968047Y-9310684D01*
X3968047Y-9310684D02*
X3977571Y-9320207D01*
X3977571Y-9320207D02*
X3987094Y-9339255D01*
X3987094Y-9339255D02*
X3996618Y-9377350D01*
X3996618Y-9377350D02*
X3996618Y-9424969D01*
X3996618Y-9424969D02*
X3987094Y-9463064D01*
X3987094Y-9463064D02*
X3977571Y-9482112D01*
X3977571Y-9482112D02*
X3968047Y-9491636D01*
X3968047Y-9491636D02*
X3948999Y-9501160D01*
X3948999Y-9501160D02*
X3929952Y-9501160D01*
X3929952Y-9501160D02*
X3910904Y-9491636D01*
X3910904Y-9491636D02*
X3901380Y-9482112D01*
X3901380Y-9482112D02*
X3891856Y-9463064D01*
X3891856Y-9463064D02*
X3882333Y-9424969D01*
X3882333Y-9424969D02*
X3882333Y-9377350D01*
X3882333Y-9377350D02*
X3891856Y-9339255D01*
X3891856Y-9339255D02*
X3901380Y-9320207D01*
X3901380Y-9320207D02*
X3910904Y-9310684D01*
X3910904Y-9310684D02*
X3929952Y-9301160D01*
X4234714Y-9501160D02*
X4234714Y-9301160D01*
X4320428Y-9501160D02*
X4320428Y-9396398D01*
X4320428Y-9396398D02*
X4310904Y-9377350D01*
X4310904Y-9377350D02*
X4291857Y-9367826D01*
X4291857Y-9367826D02*
X4263285Y-9367826D01*
X4263285Y-9367826D02*
X4244237Y-9377350D01*
X4244237Y-9377350D02*
X4234714Y-9386874D01*
X4444237Y-9501160D02*
X4425190Y-9491636D01*
X4425190Y-9491636D02*
X4415666Y-9482112D01*
X4415666Y-9482112D02*
X4406142Y-9463064D01*
X4406142Y-9463064D02*
X4406142Y-9405922D01*
X4406142Y-9405922D02*
X4415666Y-9386874D01*
X4415666Y-9386874D02*
X4425190Y-9377350D01*
X4425190Y-9377350D02*
X4444237Y-9367826D01*
X4444237Y-9367826D02*
X4472809Y-9367826D01*
X4472809Y-9367826D02*
X4491857Y-9377350D01*
X4491857Y-9377350D02*
X4501380Y-9386874D01*
X4501380Y-9386874D02*
X4510904Y-9405922D01*
X4510904Y-9405922D02*
X4510904Y-9463064D01*
X4510904Y-9463064D02*
X4501380Y-9482112D01*
X4501380Y-9482112D02*
X4491857Y-9491636D01*
X4491857Y-9491636D02*
X4472809Y-9501160D01*
X4472809Y-9501160D02*
X4444237Y-9501160D01*
X4625190Y-9501160D02*
X4606142Y-9491636D01*
X4606142Y-9491636D02*
X4596618Y-9472588D01*
X4596618Y-9472588D02*
X4596618Y-9301160D01*
X4777571Y-9491636D02*
X4758523Y-9501160D01*
X4758523Y-9501160D02*
X4720428Y-9501160D01*
X4720428Y-9501160D02*
X4701380Y-9491636D01*
X4701380Y-9491636D02*
X4691857Y-9472588D01*
X4691857Y-9472588D02*
X4691857Y-9396398D01*
X4691857Y-9396398D02*
X4701380Y-9377350D01*
X4701380Y-9377350D02*
X4720428Y-9367826D01*
X4720428Y-9367826D02*
X4758523Y-9367826D01*
X4758523Y-9367826D02*
X4777571Y-9377350D01*
X4777571Y-9377350D02*
X4787095Y-9396398D01*
X4787095Y-9396398D02*
X4787095Y-9415445D01*
X4787095Y-9415445D02*
X4691857Y-9434493D01*
X4863285Y-9491636D02*
X4882333Y-9501160D01*
X4882333Y-9501160D02*
X4920428Y-9501160D01*
X4920428Y-9501160D02*
X4939476Y-9491636D01*
X4939476Y-9491636D02*
X4948999Y-9472588D01*
X4948999Y-9472588D02*
X4948999Y-9463064D01*
X4948999Y-9463064D02*
X4939476Y-9444017D01*
X4939476Y-9444017D02*
X4920428Y-9434493D01*
X4920428Y-9434493D02*
X4891857Y-9434493D01*
X4891857Y-9434493D02*
X4872809Y-9424969D01*
X4872809Y-9424969D02*
X4863285Y-9405922D01*
X4863285Y-9405922D02*
X4863285Y-9396398D01*
X4863285Y-9396398D02*
X4872809Y-9377350D01*
X4872809Y-9377350D02*
X4891857Y-9367826D01*
X4891857Y-9367826D02*
X4920428Y-9367826D01*
X4920428Y-9367826D02*
X4939476Y-9377350D01*
X5187095Y-9424969D02*
X5339476Y-9424969D01*
X5263285Y-9501160D02*
X5263285Y-9348779D01*
X5672809Y-9367826D02*
X5672809Y-9501160D01*
X5625190Y-9291636D02*
X5577571Y-9434493D01*
X5577571Y-9434493D02*
X5701380Y-9434493D01*
X5920428Y-9491636D02*
X5939476Y-9501160D01*
X5939476Y-9501160D02*
X5977571Y-9501160D01*
X5977571Y-9501160D02*
X5996619Y-9491636D01*
X5996619Y-9491636D02*
X6006142Y-9472588D01*
X6006142Y-9472588D02*
X6006142Y-9463064D01*
X6006142Y-9463064D02*
X5996619Y-9444017D01*
X5996619Y-9444017D02*
X5977571Y-9434493D01*
X5977571Y-9434493D02*
X5948999Y-9434493D01*
X5948999Y-9434493D02*
X5929952Y-9424969D01*
X5929952Y-9424969D02*
X5920428Y-9405922D01*
X5920428Y-9405922D02*
X5920428Y-9396398D01*
X5920428Y-9396398D02*
X5929952Y-9377350D01*
X5929952Y-9377350D02*
X5948999Y-9367826D01*
X5948999Y-9367826D02*
X5977571Y-9367826D01*
X5977571Y-9367826D02*
X5996619Y-9377350D01*
X6120428Y-9501160D02*
X6101380Y-9491636D01*
X6101380Y-9491636D02*
X6091857Y-9472588D01*
X6091857Y-9472588D02*
X6091857Y-9301160D01*
X6225190Y-9501160D02*
X6206142Y-9491636D01*
X6206142Y-9491636D02*
X6196619Y-9482112D01*
X6196619Y-9482112D02*
X6187095Y-9463064D01*
X6187095Y-9463064D02*
X6187095Y-9405922D01*
X6187095Y-9405922D02*
X6196619Y-9386874D01*
X6196619Y-9386874D02*
X6206142Y-9377350D01*
X6206142Y-9377350D02*
X6225190Y-9367826D01*
X6225190Y-9367826D02*
X6253761Y-9367826D01*
X6253761Y-9367826D02*
X6272809Y-9377350D01*
X6272809Y-9377350D02*
X6282333Y-9386874D01*
X6282333Y-9386874D02*
X6291857Y-9405922D01*
X6291857Y-9405922D02*
X6291857Y-9463064D01*
X6291857Y-9463064D02*
X6282333Y-9482112D01*
X6282333Y-9482112D02*
X6272809Y-9491636D01*
X6272809Y-9491636D02*
X6253761Y-9501160D01*
X6253761Y-9501160D02*
X6225190Y-9501160D01*
X6349000Y-9367826D02*
X6425190Y-9367826D01*
X6377571Y-9301160D02*
X6377571Y-9472588D01*
X6377571Y-9472588D02*
X6387095Y-9491636D01*
X6387095Y-9491636D02*
X6406142Y-9501160D01*
X6406142Y-9501160D02*
X6425190Y-9501160D01*
X6482333Y-9491636D02*
X6501380Y-9501160D01*
X6501380Y-9501160D02*
X6539476Y-9501160D01*
X6539476Y-9501160D02*
X6558523Y-9491636D01*
X6558523Y-9491636D02*
X6568047Y-9472588D01*
X6568047Y-9472588D02*
X6568047Y-9463064D01*
X6568047Y-9463064D02*
X6558523Y-9444017D01*
X6558523Y-9444017D02*
X6539476Y-9434493D01*
X6539476Y-9434493D02*
X6510904Y-9434493D01*
X6510904Y-9434493D02*
X6491857Y-9424969D01*
X6491857Y-9424969D02*
X6482333Y-9405922D01*
X6482333Y-9405922D02*
X6482333Y-9396398D01*
X6482333Y-9396398D02*
X6491857Y-9377350D01*
X6491857Y-9377350D02*
X6510904Y-9367826D01*
X6510904Y-9367826D02*
X6539476Y-9367826D01*
X6539476Y-9367826D02*
X6558523Y-9377350D01*
X6634714Y-9577350D02*
X6644238Y-9567826D01*
X6644238Y-9567826D02*
X6663285Y-9539255D01*
X6663285Y-9539255D02*
X6672809Y-9520207D01*
X6672809Y-9520207D02*
X6682333Y-9491636D01*
X6682333Y-9491636D02*
X6691857Y-9444017D01*
X6691857Y-9444017D02*
X6691857Y-9405922D01*
X6691857Y-9405922D02*
X6682333Y-9358303D01*
X6682333Y-9358303D02*
X6672809Y-9329731D01*
X6672809Y-9329731D02*
X6663285Y-9310684D01*
X6663285Y-9310684D02*
X6644238Y-9282112D01*
X6644238Y-9282112D02*
X6634714Y-9272588D01*
D12*
X200603Y-9633676D02*
X200603Y-9713676D01*
X160603Y-9673676D02*
X240603Y-9673676D01*
D13*
X539475Y-9565160D02*
X558523Y-9565160D01*
X558523Y-9565160D02*
X577570Y-9574684D01*
X577570Y-9574684D02*
X587094Y-9584207D01*
X587094Y-9584207D02*
X596618Y-9603255D01*
X596618Y-9603255D02*
X606142Y-9641350D01*
X606142Y-9641350D02*
X606142Y-9688969D01*
X606142Y-9688969D02*
X596618Y-9727064D01*
X596618Y-9727064D02*
X587094Y-9746112D01*
X587094Y-9746112D02*
X577570Y-9755636D01*
X577570Y-9755636D02*
X558523Y-9765160D01*
X558523Y-9765160D02*
X539475Y-9765160D01*
X539475Y-9765160D02*
X520427Y-9755636D01*
X520427Y-9755636D02*
X510904Y-9746112D01*
X510904Y-9746112D02*
X501380Y-9727064D01*
X501380Y-9727064D02*
X491856Y-9688969D01*
X491856Y-9688969D02*
X491856Y-9641350D01*
X491856Y-9641350D02*
X501380Y-9603255D01*
X501380Y-9603255D02*
X510904Y-9584207D01*
X510904Y-9584207D02*
X520427Y-9574684D01*
X520427Y-9574684D02*
X539475Y-9565160D01*
X691856Y-9746112D02*
X701380Y-9755636D01*
X701380Y-9755636D02*
X691856Y-9765160D01*
X691856Y-9765160D02*
X682332Y-9755636D01*
X682332Y-9755636D02*
X691856Y-9746112D01*
X691856Y-9746112D02*
X691856Y-9765160D01*
X815666Y-9650874D02*
X796618Y-9641350D01*
X796618Y-9641350D02*
X787094Y-9631826D01*
X787094Y-9631826D02*
X777570Y-9612779D01*
X777570Y-9612779D02*
X777570Y-9603255D01*
X777570Y-9603255D02*
X787094Y-9584207D01*
X787094Y-9584207D02*
X796618Y-9574684D01*
X796618Y-9574684D02*
X815666Y-9565160D01*
X815666Y-9565160D02*
X853761Y-9565160D01*
X853761Y-9565160D02*
X872808Y-9574684D01*
X872808Y-9574684D02*
X882332Y-9584207D01*
X882332Y-9584207D02*
X891856Y-9603255D01*
X891856Y-9603255D02*
X891856Y-9612779D01*
X891856Y-9612779D02*
X882332Y-9631826D01*
X882332Y-9631826D02*
X872808Y-9641350D01*
X872808Y-9641350D02*
X853761Y-9650874D01*
X853761Y-9650874D02*
X815666Y-9650874D01*
X815666Y-9650874D02*
X796618Y-9660398D01*
X796618Y-9660398D02*
X787094Y-9669922D01*
X787094Y-9669922D02*
X777570Y-9688969D01*
X777570Y-9688969D02*
X777570Y-9727064D01*
X777570Y-9727064D02*
X787094Y-9746112D01*
X787094Y-9746112D02*
X796618Y-9755636D01*
X796618Y-9755636D02*
X815666Y-9765160D01*
X815666Y-9765160D02*
X853761Y-9765160D01*
X853761Y-9765160D02*
X872808Y-9755636D01*
X872808Y-9755636D02*
X882332Y-9746112D01*
X882332Y-9746112D02*
X891856Y-9727064D01*
X891856Y-9727064D02*
X891856Y-9688969D01*
X891856Y-9688969D02*
X882332Y-9669922D01*
X882332Y-9669922D02*
X872808Y-9660398D01*
X872808Y-9660398D02*
X853761Y-9650874D01*
X1015666Y-9565160D02*
X1034713Y-9565160D01*
X1034713Y-9565160D02*
X1053761Y-9574684D01*
X1053761Y-9574684D02*
X1063285Y-9584207D01*
X1063285Y-9584207D02*
X1072809Y-9603255D01*
X1072809Y-9603255D02*
X1082332Y-9641350D01*
X1082332Y-9641350D02*
X1082332Y-9688969D01*
X1082332Y-9688969D02*
X1072809Y-9727064D01*
X1072809Y-9727064D02*
X1063285Y-9746112D01*
X1063285Y-9746112D02*
X1053761Y-9755636D01*
X1053761Y-9755636D02*
X1034713Y-9765160D01*
X1034713Y-9765160D02*
X1015666Y-9765160D01*
X1015666Y-9765160D02*
X996618Y-9755636D01*
X996618Y-9755636D02*
X987094Y-9746112D01*
X987094Y-9746112D02*
X977570Y-9727064D01*
X977570Y-9727064D02*
X968047Y-9688969D01*
X968047Y-9688969D02*
X968047Y-9641350D01*
X968047Y-9641350D02*
X977570Y-9603255D01*
X977570Y-9603255D02*
X987094Y-9584207D01*
X987094Y-9584207D02*
X996618Y-9574684D01*
X996618Y-9574684D02*
X1015666Y-9565160D01*
X1206142Y-9565160D02*
X1225190Y-9565160D01*
X1225190Y-9565160D02*
X1244237Y-9574684D01*
X1244237Y-9574684D02*
X1253761Y-9584207D01*
X1253761Y-9584207D02*
X1263285Y-9603255D01*
X1263285Y-9603255D02*
X1272809Y-9641350D01*
X1272809Y-9641350D02*
X1272809Y-9688969D01*
X1272809Y-9688969D02*
X1263285Y-9727064D01*
X1263285Y-9727064D02*
X1253761Y-9746112D01*
X1253761Y-9746112D02*
X1244237Y-9755636D01*
X1244237Y-9755636D02*
X1225190Y-9765160D01*
X1225190Y-9765160D02*
X1206142Y-9765160D01*
X1206142Y-9765160D02*
X1187094Y-9755636D01*
X1187094Y-9755636D02*
X1177570Y-9746112D01*
X1177570Y-9746112D02*
X1168047Y-9727064D01*
X1168047Y-9727064D02*
X1158523Y-9688969D01*
X1158523Y-9688969D02*
X1158523Y-9641350D01*
X1158523Y-9641350D02*
X1168047Y-9603255D01*
X1168047Y-9603255D02*
X1177570Y-9584207D01*
X1177570Y-9584207D02*
X1187094Y-9574684D01*
X1187094Y-9574684D02*
X1206142Y-9565160D01*
X1358523Y-9765160D02*
X1358523Y-9631826D01*
X1358523Y-9650874D02*
X1368047Y-9641350D01*
X1368047Y-9641350D02*
X1387094Y-9631826D01*
X1387094Y-9631826D02*
X1415666Y-9631826D01*
X1415666Y-9631826D02*
X1434713Y-9641350D01*
X1434713Y-9641350D02*
X1444237Y-9660398D01*
X1444237Y-9660398D02*
X1444237Y-9765160D01*
X1444237Y-9660398D02*
X1453761Y-9641350D01*
X1453761Y-9641350D02*
X1472808Y-9631826D01*
X1472808Y-9631826D02*
X1501380Y-9631826D01*
X1501380Y-9631826D02*
X1520428Y-9641350D01*
X1520428Y-9641350D02*
X1529951Y-9660398D01*
X1529951Y-9660398D02*
X1529951Y-9765160D01*
X1625189Y-9765160D02*
X1625189Y-9631826D01*
X1625189Y-9650874D02*
X1634713Y-9641350D01*
X1634713Y-9641350D02*
X1653761Y-9631826D01*
X1653761Y-9631826D02*
X1682332Y-9631826D01*
X1682332Y-9631826D02*
X1701380Y-9641350D01*
X1701380Y-9641350D02*
X1710904Y-9660398D01*
X1710904Y-9660398D02*
X1710904Y-9765160D01*
X1710904Y-9660398D02*
X1720428Y-9641350D01*
X1720428Y-9641350D02*
X1739475Y-9631826D01*
X1739475Y-9631826D02*
X1768047Y-9631826D01*
X1768047Y-9631826D02*
X1787094Y-9641350D01*
X1787094Y-9641350D02*
X1796618Y-9660398D01*
X1796618Y-9660398D02*
X1796618Y-9765160D01*
X2187094Y-9555636D02*
X2015666Y-9812779D01*
X2444237Y-9565160D02*
X2463285Y-9565160D01*
X2463285Y-9565160D02*
X2482333Y-9574684D01*
X2482333Y-9574684D02*
X2491856Y-9584207D01*
X2491856Y-9584207D02*
X2501380Y-9603255D01*
X2501380Y-9603255D02*
X2510904Y-9641350D01*
X2510904Y-9641350D02*
X2510904Y-9688969D01*
X2510904Y-9688969D02*
X2501380Y-9727064D01*
X2501380Y-9727064D02*
X2491856Y-9746112D01*
X2491856Y-9746112D02*
X2482333Y-9755636D01*
X2482333Y-9755636D02*
X2463285Y-9765160D01*
X2463285Y-9765160D02*
X2444237Y-9765160D01*
X2444237Y-9765160D02*
X2425190Y-9755636D01*
X2425190Y-9755636D02*
X2415666Y-9746112D01*
X2415666Y-9746112D02*
X2406142Y-9727064D01*
X2406142Y-9727064D02*
X2396618Y-9688969D01*
X2396618Y-9688969D02*
X2396618Y-9641350D01*
X2396618Y-9641350D02*
X2406142Y-9603255D01*
X2406142Y-9603255D02*
X2415666Y-9584207D01*
X2415666Y-9584207D02*
X2425190Y-9574684D01*
X2425190Y-9574684D02*
X2444237Y-9565160D01*
X2596618Y-9746112D02*
X2606142Y-9755636D01*
X2606142Y-9755636D02*
X2596618Y-9765160D01*
X2596618Y-9765160D02*
X2587094Y-9755636D01*
X2587094Y-9755636D02*
X2596618Y-9746112D01*
X2596618Y-9746112D02*
X2596618Y-9765160D01*
X2729952Y-9565160D02*
X2748999Y-9565160D01*
X2748999Y-9565160D02*
X2768047Y-9574684D01*
X2768047Y-9574684D02*
X2777571Y-9584207D01*
X2777571Y-9584207D02*
X2787094Y-9603255D01*
X2787094Y-9603255D02*
X2796618Y-9641350D01*
X2796618Y-9641350D02*
X2796618Y-9688969D01*
X2796618Y-9688969D02*
X2787094Y-9727064D01*
X2787094Y-9727064D02*
X2777571Y-9746112D01*
X2777571Y-9746112D02*
X2768047Y-9755636D01*
X2768047Y-9755636D02*
X2748999Y-9765160D01*
X2748999Y-9765160D02*
X2729952Y-9765160D01*
X2729952Y-9765160D02*
X2710904Y-9755636D01*
X2710904Y-9755636D02*
X2701380Y-9746112D01*
X2701380Y-9746112D02*
X2691856Y-9727064D01*
X2691856Y-9727064D02*
X2682333Y-9688969D01*
X2682333Y-9688969D02*
X2682333Y-9641350D01*
X2682333Y-9641350D02*
X2691856Y-9603255D01*
X2691856Y-9603255D02*
X2701380Y-9584207D01*
X2701380Y-9584207D02*
X2710904Y-9574684D01*
X2710904Y-9574684D02*
X2729952Y-9565160D01*
X2863285Y-9565160D02*
X2987094Y-9565160D01*
X2987094Y-9565160D02*
X2920428Y-9641350D01*
X2920428Y-9641350D02*
X2948999Y-9641350D01*
X2948999Y-9641350D02*
X2968047Y-9650874D01*
X2968047Y-9650874D02*
X2977571Y-9660398D01*
X2977571Y-9660398D02*
X2987094Y-9679445D01*
X2987094Y-9679445D02*
X2987094Y-9727064D01*
X2987094Y-9727064D02*
X2977571Y-9746112D01*
X2977571Y-9746112D02*
X2968047Y-9755636D01*
X2968047Y-9755636D02*
X2948999Y-9765160D01*
X2948999Y-9765160D02*
X2891856Y-9765160D01*
X2891856Y-9765160D02*
X2872809Y-9755636D01*
X2872809Y-9755636D02*
X2863285Y-9746112D01*
X3177571Y-9765160D02*
X3063285Y-9765160D01*
X3120428Y-9765160D02*
X3120428Y-9565160D01*
X3120428Y-9565160D02*
X3101380Y-9593731D01*
X3101380Y-9593731D02*
X3082332Y-9612779D01*
X3082332Y-9612779D02*
X3063285Y-9622303D01*
X3358523Y-9565160D02*
X3263285Y-9565160D01*
X3263285Y-9565160D02*
X3253761Y-9660398D01*
X3253761Y-9660398D02*
X3263285Y-9650874D01*
X3263285Y-9650874D02*
X3282332Y-9641350D01*
X3282332Y-9641350D02*
X3329952Y-9641350D01*
X3329952Y-9641350D02*
X3348999Y-9650874D01*
X3348999Y-9650874D02*
X3358523Y-9660398D01*
X3358523Y-9660398D02*
X3368047Y-9679445D01*
X3368047Y-9679445D02*
X3368047Y-9727064D01*
X3368047Y-9727064D02*
X3358523Y-9746112D01*
X3358523Y-9746112D02*
X3348999Y-9755636D01*
X3348999Y-9755636D02*
X3329952Y-9765160D01*
X3329952Y-9765160D02*
X3282332Y-9765160D01*
X3282332Y-9765160D02*
X3263285Y-9755636D01*
X3263285Y-9755636D02*
X3253761Y-9746112D01*
X3444237Y-9565160D02*
X3444237Y-9603255D01*
X3520428Y-9565160D02*
X3520428Y-9603255D01*
X3815666Y-9841350D02*
X3806142Y-9831826D01*
X3806142Y-9831826D02*
X3787094Y-9803255D01*
X3787094Y-9803255D02*
X3777571Y-9784207D01*
X3777571Y-9784207D02*
X3768047Y-9755636D01*
X3768047Y-9755636D02*
X3758523Y-9708017D01*
X3758523Y-9708017D02*
X3758523Y-9669922D01*
X3758523Y-9669922D02*
X3768047Y-9622303D01*
X3768047Y-9622303D02*
X3777571Y-9593731D01*
X3777571Y-9593731D02*
X3787094Y-9574684D01*
X3787094Y-9574684D02*
X3806142Y-9546112D01*
X3806142Y-9546112D02*
X3815666Y-9536588D01*
X3882333Y-9584207D02*
X3891856Y-9574684D01*
X3891856Y-9574684D02*
X3910904Y-9565160D01*
X3910904Y-9565160D02*
X3958523Y-9565160D01*
X3958523Y-9565160D02*
X3977571Y-9574684D01*
X3977571Y-9574684D02*
X3987094Y-9584207D01*
X3987094Y-9584207D02*
X3996618Y-9603255D01*
X3996618Y-9603255D02*
X3996618Y-9622303D01*
X3996618Y-9622303D02*
X3987094Y-9650874D01*
X3987094Y-9650874D02*
X3872809Y-9765160D01*
X3872809Y-9765160D02*
X3996618Y-9765160D01*
X4234714Y-9765160D02*
X4234714Y-9565160D01*
X4320428Y-9765160D02*
X4320428Y-9660398D01*
X4320428Y-9660398D02*
X4310904Y-9641350D01*
X4310904Y-9641350D02*
X4291857Y-9631826D01*
X4291857Y-9631826D02*
X4263285Y-9631826D01*
X4263285Y-9631826D02*
X4244237Y-9641350D01*
X4244237Y-9641350D02*
X4234714Y-9650874D01*
X4444237Y-9765160D02*
X4425190Y-9755636D01*
X4425190Y-9755636D02*
X4415666Y-9746112D01*
X4415666Y-9746112D02*
X4406142Y-9727064D01*
X4406142Y-9727064D02*
X4406142Y-9669922D01*
X4406142Y-9669922D02*
X4415666Y-9650874D01*
X4415666Y-9650874D02*
X4425190Y-9641350D01*
X4425190Y-9641350D02*
X4444237Y-9631826D01*
X4444237Y-9631826D02*
X4472809Y-9631826D01*
X4472809Y-9631826D02*
X4491857Y-9641350D01*
X4491857Y-9641350D02*
X4501380Y-9650874D01*
X4501380Y-9650874D02*
X4510904Y-9669922D01*
X4510904Y-9669922D02*
X4510904Y-9727064D01*
X4510904Y-9727064D02*
X4501380Y-9746112D01*
X4501380Y-9746112D02*
X4491857Y-9755636D01*
X4491857Y-9755636D02*
X4472809Y-9765160D01*
X4472809Y-9765160D02*
X4444237Y-9765160D01*
X4625190Y-9765160D02*
X4606142Y-9755636D01*
X4606142Y-9755636D02*
X4596618Y-9736588D01*
X4596618Y-9736588D02*
X4596618Y-9565160D01*
X4777571Y-9755636D02*
X4758523Y-9765160D01*
X4758523Y-9765160D02*
X4720428Y-9765160D01*
X4720428Y-9765160D02*
X4701380Y-9755636D01*
X4701380Y-9755636D02*
X4691857Y-9736588D01*
X4691857Y-9736588D02*
X4691857Y-9660398D01*
X4691857Y-9660398D02*
X4701380Y-9641350D01*
X4701380Y-9641350D02*
X4720428Y-9631826D01*
X4720428Y-9631826D02*
X4758523Y-9631826D01*
X4758523Y-9631826D02*
X4777571Y-9641350D01*
X4777571Y-9641350D02*
X4787095Y-9660398D01*
X4787095Y-9660398D02*
X4787095Y-9679445D01*
X4787095Y-9679445D02*
X4691857Y-9698493D01*
X4863285Y-9755636D02*
X4882333Y-9765160D01*
X4882333Y-9765160D02*
X4920428Y-9765160D01*
X4920428Y-9765160D02*
X4939476Y-9755636D01*
X4939476Y-9755636D02*
X4948999Y-9736588D01*
X4948999Y-9736588D02*
X4948999Y-9727064D01*
X4948999Y-9727064D02*
X4939476Y-9708017D01*
X4939476Y-9708017D02*
X4920428Y-9698493D01*
X4920428Y-9698493D02*
X4891857Y-9698493D01*
X4891857Y-9698493D02*
X4872809Y-9688969D01*
X4872809Y-9688969D02*
X4863285Y-9669922D01*
X4863285Y-9669922D02*
X4863285Y-9660398D01*
X4863285Y-9660398D02*
X4872809Y-9641350D01*
X4872809Y-9641350D02*
X4891857Y-9631826D01*
X4891857Y-9631826D02*
X4920428Y-9631826D01*
X4920428Y-9631826D02*
X4939476Y-9641350D01*
X5015666Y-9841350D02*
X5025190Y-9831826D01*
X5025190Y-9831826D02*
X5044238Y-9803255D01*
X5044238Y-9803255D02*
X5053761Y-9784207D01*
X5053761Y-9784207D02*
X5063285Y-9755636D01*
X5063285Y-9755636D02*
X5072809Y-9708017D01*
X5072809Y-9708017D02*
X5072809Y-9669922D01*
X5072809Y-9669922D02*
X5063285Y-9622303D01*
X5063285Y-9622303D02*
X5053761Y-9593731D01*
X5053761Y-9593731D02*
X5044238Y-9574684D01*
X5044238Y-9574684D02*
X5025190Y-9546112D01*
X5025190Y-9546112D02*
X5015666Y-9536588D01*
D12*
X225959Y-9973032D02*
X225959Y-9902320D01*
X155247Y-9902320D01*
X155247Y-9973032D01*
X225959Y-9973032D01*
D13*
X606142Y-10029160D02*
X491856Y-10029160D01*
X548999Y-10029160D02*
X548999Y-9829160D01*
X548999Y-9829160D02*
X529951Y-9857731D01*
X529951Y-9857731D02*
X510904Y-9876779D01*
X510904Y-9876779D02*
X491856Y-9886303D01*
X691856Y-10010112D02*
X701380Y-10019636D01*
X701380Y-10019636D02*
X691856Y-10029160D01*
X691856Y-10029160D02*
X682332Y-10019636D01*
X682332Y-10019636D02*
X691856Y-10010112D01*
X691856Y-10010112D02*
X691856Y-10029160D01*
X825189Y-9829160D02*
X844237Y-9829160D01*
X844237Y-9829160D02*
X863285Y-9838684D01*
X863285Y-9838684D02*
X872808Y-9848207D01*
X872808Y-9848207D02*
X882332Y-9867255D01*
X882332Y-9867255D02*
X891856Y-9905350D01*
X891856Y-9905350D02*
X891856Y-9952969D01*
X891856Y-9952969D02*
X882332Y-9991064D01*
X882332Y-9991064D02*
X872808Y-10010112D01*
X872808Y-10010112D02*
X863285Y-10019636D01*
X863285Y-10019636D02*
X844237Y-10029160D01*
X844237Y-10029160D02*
X825189Y-10029160D01*
X825189Y-10029160D02*
X806142Y-10019636D01*
X806142Y-10019636D02*
X796618Y-10010112D01*
X796618Y-10010112D02*
X787094Y-9991064D01*
X787094Y-9991064D02*
X777570Y-9952969D01*
X777570Y-9952969D02*
X777570Y-9905350D01*
X777570Y-9905350D02*
X787094Y-9867255D01*
X787094Y-9867255D02*
X796618Y-9848207D01*
X796618Y-9848207D02*
X806142Y-9838684D01*
X806142Y-9838684D02*
X825189Y-9829160D01*
X1015666Y-9829160D02*
X1034713Y-9829160D01*
X1034713Y-9829160D02*
X1053761Y-9838684D01*
X1053761Y-9838684D02*
X1063285Y-9848207D01*
X1063285Y-9848207D02*
X1072809Y-9867255D01*
X1072809Y-9867255D02*
X1082332Y-9905350D01*
X1082332Y-9905350D02*
X1082332Y-9952969D01*
X1082332Y-9952969D02*
X1072809Y-9991064D01*
X1072809Y-9991064D02*
X1063285Y-10010112D01*
X1063285Y-10010112D02*
X1053761Y-10019636D01*
X1053761Y-10019636D02*
X1034713Y-10029160D01*
X1034713Y-10029160D02*
X1015666Y-10029160D01*
X1015666Y-10029160D02*
X996618Y-10019636D01*
X996618Y-10019636D02*
X987094Y-10010112D01*
X987094Y-10010112D02*
X977570Y-9991064D01*
X977570Y-9991064D02*
X968047Y-9952969D01*
X968047Y-9952969D02*
X968047Y-9905350D01*
X968047Y-9905350D02*
X977570Y-9867255D01*
X977570Y-9867255D02*
X987094Y-9848207D01*
X987094Y-9848207D02*
X996618Y-9838684D01*
X996618Y-9838684D02*
X1015666Y-9829160D01*
X1206142Y-9829160D02*
X1225190Y-9829160D01*
X1225190Y-9829160D02*
X1244237Y-9838684D01*
X1244237Y-9838684D02*
X1253761Y-9848207D01*
X1253761Y-9848207D02*
X1263285Y-9867255D01*
X1263285Y-9867255D02*
X1272809Y-9905350D01*
X1272809Y-9905350D02*
X1272809Y-9952969D01*
X1272809Y-9952969D02*
X1263285Y-9991064D01*
X1263285Y-9991064D02*
X1253761Y-10010112D01*
X1253761Y-10010112D02*
X1244237Y-10019636D01*
X1244237Y-10019636D02*
X1225190Y-10029160D01*
X1225190Y-10029160D02*
X1206142Y-10029160D01*
X1206142Y-10029160D02*
X1187094Y-10019636D01*
X1187094Y-10019636D02*
X1177570Y-10010112D01*
X1177570Y-10010112D02*
X1168047Y-9991064D01*
X1168047Y-9991064D02*
X1158523Y-9952969D01*
X1158523Y-9952969D02*
X1158523Y-9905350D01*
X1158523Y-9905350D02*
X1168047Y-9867255D01*
X1168047Y-9867255D02*
X1177570Y-9848207D01*
X1177570Y-9848207D02*
X1187094Y-9838684D01*
X1187094Y-9838684D02*
X1206142Y-9829160D01*
X1358523Y-10029160D02*
X1358523Y-9895826D01*
X1358523Y-9914874D02*
X1368047Y-9905350D01*
X1368047Y-9905350D02*
X1387094Y-9895826D01*
X1387094Y-9895826D02*
X1415666Y-9895826D01*
X1415666Y-9895826D02*
X1434713Y-9905350D01*
X1434713Y-9905350D02*
X1444237Y-9924398D01*
X1444237Y-9924398D02*
X1444237Y-10029160D01*
X1444237Y-9924398D02*
X1453761Y-9905350D01*
X1453761Y-9905350D02*
X1472808Y-9895826D01*
X1472808Y-9895826D02*
X1501380Y-9895826D01*
X1501380Y-9895826D02*
X1520428Y-9905350D01*
X1520428Y-9905350D02*
X1529951Y-9924398D01*
X1529951Y-9924398D02*
X1529951Y-10029160D01*
X1625189Y-10029160D02*
X1625189Y-9895826D01*
X1625189Y-9914874D02*
X1634713Y-9905350D01*
X1634713Y-9905350D02*
X1653761Y-9895826D01*
X1653761Y-9895826D02*
X1682332Y-9895826D01*
X1682332Y-9895826D02*
X1701380Y-9905350D01*
X1701380Y-9905350D02*
X1710904Y-9924398D01*
X1710904Y-9924398D02*
X1710904Y-10029160D01*
X1710904Y-9924398D02*
X1720428Y-9905350D01*
X1720428Y-9905350D02*
X1739475Y-9895826D01*
X1739475Y-9895826D02*
X1768047Y-9895826D01*
X1768047Y-9895826D02*
X1787094Y-9905350D01*
X1787094Y-9905350D02*
X1796618Y-9924398D01*
X1796618Y-9924398D02*
X1796618Y-10029160D01*
X2187094Y-9819636D02*
X2015666Y-10076779D01*
X2444237Y-9829160D02*
X2463285Y-9829160D01*
X2463285Y-9829160D02*
X2482333Y-9838684D01*
X2482333Y-9838684D02*
X2491856Y-9848207D01*
X2491856Y-9848207D02*
X2501380Y-9867255D01*
X2501380Y-9867255D02*
X2510904Y-9905350D01*
X2510904Y-9905350D02*
X2510904Y-9952969D01*
X2510904Y-9952969D02*
X2501380Y-9991064D01*
X2501380Y-9991064D02*
X2491856Y-10010112D01*
X2491856Y-10010112D02*
X2482333Y-10019636D01*
X2482333Y-10019636D02*
X2463285Y-10029160D01*
X2463285Y-10029160D02*
X2444237Y-10029160D01*
X2444237Y-10029160D02*
X2425190Y-10019636D01*
X2425190Y-10019636D02*
X2415666Y-10010112D01*
X2415666Y-10010112D02*
X2406142Y-9991064D01*
X2406142Y-9991064D02*
X2396618Y-9952969D01*
X2396618Y-9952969D02*
X2396618Y-9905350D01*
X2396618Y-9905350D02*
X2406142Y-9867255D01*
X2406142Y-9867255D02*
X2415666Y-9848207D01*
X2415666Y-9848207D02*
X2425190Y-9838684D01*
X2425190Y-9838684D02*
X2444237Y-9829160D01*
X2596618Y-10010112D02*
X2606142Y-10019636D01*
X2606142Y-10019636D02*
X2596618Y-10029160D01*
X2596618Y-10029160D02*
X2587094Y-10019636D01*
X2587094Y-10019636D02*
X2596618Y-10010112D01*
X2596618Y-10010112D02*
X2596618Y-10029160D01*
X2729952Y-9829160D02*
X2748999Y-9829160D01*
X2748999Y-9829160D02*
X2768047Y-9838684D01*
X2768047Y-9838684D02*
X2777571Y-9848207D01*
X2777571Y-9848207D02*
X2787094Y-9867255D01*
X2787094Y-9867255D02*
X2796618Y-9905350D01*
X2796618Y-9905350D02*
X2796618Y-9952969D01*
X2796618Y-9952969D02*
X2787094Y-9991064D01*
X2787094Y-9991064D02*
X2777571Y-10010112D01*
X2777571Y-10010112D02*
X2768047Y-10019636D01*
X2768047Y-10019636D02*
X2748999Y-10029160D01*
X2748999Y-10029160D02*
X2729952Y-10029160D01*
X2729952Y-10029160D02*
X2710904Y-10019636D01*
X2710904Y-10019636D02*
X2701380Y-10010112D01*
X2701380Y-10010112D02*
X2691856Y-9991064D01*
X2691856Y-9991064D02*
X2682333Y-9952969D01*
X2682333Y-9952969D02*
X2682333Y-9905350D01*
X2682333Y-9905350D02*
X2691856Y-9867255D01*
X2691856Y-9867255D02*
X2701380Y-9848207D01*
X2701380Y-9848207D02*
X2710904Y-9838684D01*
X2710904Y-9838684D02*
X2729952Y-9829160D01*
X2863285Y-9829160D02*
X2987094Y-9829160D01*
X2987094Y-9829160D02*
X2920428Y-9905350D01*
X2920428Y-9905350D02*
X2948999Y-9905350D01*
X2948999Y-9905350D02*
X2968047Y-9914874D01*
X2968047Y-9914874D02*
X2977571Y-9924398D01*
X2977571Y-9924398D02*
X2987094Y-9943445D01*
X2987094Y-9943445D02*
X2987094Y-9991064D01*
X2987094Y-9991064D02*
X2977571Y-10010112D01*
X2977571Y-10010112D02*
X2968047Y-10019636D01*
X2968047Y-10019636D02*
X2948999Y-10029160D01*
X2948999Y-10029160D02*
X2891856Y-10029160D01*
X2891856Y-10029160D02*
X2872809Y-10019636D01*
X2872809Y-10019636D02*
X2863285Y-10010112D01*
X3082332Y-10029160D02*
X3120428Y-10029160D01*
X3120428Y-10029160D02*
X3139475Y-10019636D01*
X3139475Y-10019636D02*
X3148999Y-10010112D01*
X3148999Y-10010112D02*
X3168047Y-9981541D01*
X3168047Y-9981541D02*
X3177571Y-9943445D01*
X3177571Y-9943445D02*
X3177571Y-9867255D01*
X3177571Y-9867255D02*
X3168047Y-9848207D01*
X3168047Y-9848207D02*
X3158523Y-9838684D01*
X3158523Y-9838684D02*
X3139475Y-9829160D01*
X3139475Y-9829160D02*
X3101380Y-9829160D01*
X3101380Y-9829160D02*
X3082332Y-9838684D01*
X3082332Y-9838684D02*
X3072809Y-9848207D01*
X3072809Y-9848207D02*
X3063285Y-9867255D01*
X3063285Y-9867255D02*
X3063285Y-9914874D01*
X3063285Y-9914874D02*
X3072809Y-9933922D01*
X3072809Y-9933922D02*
X3082332Y-9943445D01*
X3082332Y-9943445D02*
X3101380Y-9952969D01*
X3101380Y-9952969D02*
X3139475Y-9952969D01*
X3139475Y-9952969D02*
X3158523Y-9943445D01*
X3158523Y-9943445D02*
X3168047Y-9933922D01*
X3168047Y-9933922D02*
X3177571Y-9914874D01*
X3348999Y-9895826D02*
X3348999Y-10029160D01*
X3301380Y-9819636D02*
X3253761Y-9962493D01*
X3253761Y-9962493D02*
X3377571Y-9962493D01*
X3444237Y-9829160D02*
X3444237Y-9867255D01*
X3520428Y-9829160D02*
X3520428Y-9867255D01*
X3815666Y-10105350D02*
X3806142Y-10095826D01*
X3806142Y-10095826D02*
X3787094Y-10067255D01*
X3787094Y-10067255D02*
X3777571Y-10048207D01*
X3777571Y-10048207D02*
X3768047Y-10019636D01*
X3768047Y-10019636D02*
X3758523Y-9972017D01*
X3758523Y-9972017D02*
X3758523Y-9933922D01*
X3758523Y-9933922D02*
X3768047Y-9886303D01*
X3768047Y-9886303D02*
X3777571Y-9857731D01*
X3777571Y-9857731D02*
X3787094Y-9838684D01*
X3787094Y-9838684D02*
X3806142Y-9810112D01*
X3806142Y-9810112D02*
X3815666Y-9800588D01*
X3977571Y-9895826D02*
X3977571Y-10029160D01*
X3929952Y-9819636D02*
X3882333Y-9962493D01*
X3882333Y-9962493D02*
X4006142Y-9962493D01*
X4234714Y-10029160D02*
X4234714Y-9829160D01*
X4320428Y-10029160D02*
X4320428Y-9924398D01*
X4320428Y-9924398D02*
X4310904Y-9905350D01*
X4310904Y-9905350D02*
X4291857Y-9895826D01*
X4291857Y-9895826D02*
X4263285Y-9895826D01*
X4263285Y-9895826D02*
X4244237Y-9905350D01*
X4244237Y-9905350D02*
X4234714Y-9914874D01*
X4444237Y-10029160D02*
X4425190Y-10019636D01*
X4425190Y-10019636D02*
X4415666Y-10010112D01*
X4415666Y-10010112D02*
X4406142Y-9991064D01*
X4406142Y-9991064D02*
X4406142Y-9933922D01*
X4406142Y-9933922D02*
X4415666Y-9914874D01*
X4415666Y-9914874D02*
X4425190Y-9905350D01*
X4425190Y-9905350D02*
X4444237Y-9895826D01*
X4444237Y-9895826D02*
X4472809Y-9895826D01*
X4472809Y-9895826D02*
X4491857Y-9905350D01*
X4491857Y-9905350D02*
X4501380Y-9914874D01*
X4501380Y-9914874D02*
X4510904Y-9933922D01*
X4510904Y-9933922D02*
X4510904Y-9991064D01*
X4510904Y-9991064D02*
X4501380Y-10010112D01*
X4501380Y-10010112D02*
X4491857Y-10019636D01*
X4491857Y-10019636D02*
X4472809Y-10029160D01*
X4472809Y-10029160D02*
X4444237Y-10029160D01*
X4625190Y-10029160D02*
X4606142Y-10019636D01*
X4606142Y-10019636D02*
X4596618Y-10000588D01*
X4596618Y-10000588D02*
X4596618Y-9829160D01*
X4777571Y-10019636D02*
X4758523Y-10029160D01*
X4758523Y-10029160D02*
X4720428Y-10029160D01*
X4720428Y-10029160D02*
X4701380Y-10019636D01*
X4701380Y-10019636D02*
X4691857Y-10000588D01*
X4691857Y-10000588D02*
X4691857Y-9924398D01*
X4691857Y-9924398D02*
X4701380Y-9905350D01*
X4701380Y-9905350D02*
X4720428Y-9895826D01*
X4720428Y-9895826D02*
X4758523Y-9895826D01*
X4758523Y-9895826D02*
X4777571Y-9905350D01*
X4777571Y-9905350D02*
X4787095Y-9924398D01*
X4787095Y-9924398D02*
X4787095Y-9943445D01*
X4787095Y-9943445D02*
X4691857Y-9962493D01*
X4863285Y-10019636D02*
X4882333Y-10029160D01*
X4882333Y-10029160D02*
X4920428Y-10029160D01*
X4920428Y-10029160D02*
X4939476Y-10019636D01*
X4939476Y-10019636D02*
X4948999Y-10000588D01*
X4948999Y-10000588D02*
X4948999Y-9991064D01*
X4948999Y-9991064D02*
X4939476Y-9972017D01*
X4939476Y-9972017D02*
X4920428Y-9962493D01*
X4920428Y-9962493D02*
X4891857Y-9962493D01*
X4891857Y-9962493D02*
X4872809Y-9952969D01*
X4872809Y-9952969D02*
X4863285Y-9933922D01*
X4863285Y-9933922D02*
X4863285Y-9924398D01*
X4863285Y-9924398D02*
X4872809Y-9905350D01*
X4872809Y-9905350D02*
X4891857Y-9895826D01*
X4891857Y-9895826D02*
X4920428Y-9895826D01*
X4920428Y-9895826D02*
X4939476Y-9905350D01*
X5015666Y-10105350D02*
X5025190Y-10095826D01*
X5025190Y-10095826D02*
X5044238Y-10067255D01*
X5044238Y-10067255D02*
X5053761Y-10048207D01*
X5053761Y-10048207D02*
X5063285Y-10019636D01*
X5063285Y-10019636D02*
X5072809Y-9972017D01*
X5072809Y-9972017D02*
X5072809Y-9933922D01*
X5072809Y-9933922D02*
X5063285Y-9886303D01*
X5063285Y-9886303D02*
X5053761Y-9857731D01*
X5053761Y-9857731D02*
X5044238Y-9838684D01*
X5044238Y-9838684D02*
X5025190Y-9810112D01*
X5025190Y-9810112D02*
X5015666Y-9800588D01*
M02*
