%TF.GenerationSoftware,KiCad,Pcbnew,8.0.7*%
%TF.CreationDate,2025-05-27T12:53:58-04:00*%
%TF.ProjectId,le-oeuf,6c652d6f-6575-4662-9e6b-696361645f70,rev?*%
%TF.SameCoordinates,Original*%
%TF.FileFunction,Drillmap*%
%TF.FilePolarity,Positive*%
%FSLAX45Y45*%
G04 Gerber Fmt 4.5, Leading zero omitted, Abs format (unit mm)*
G04 Created by KiCad (PCBNEW 8.0.7) date 2025-05-27 12:53:58*
%MOMM*%
%LPD*%
G01*
G04 APERTURE LIST*
%ADD10C,0.050000*%
%ADD11C,0.080000*%
%ADD12C,0.100000*%
%ADD13C,0.200000*%
%ADD14C,0.220000*%
G04 APERTURE END LIST*
D10*
X3483809Y-7869558D02*
G75*
G02*
X3449458Y-7858882I12021J99281D01*
G01*
X21703136Y-6208898D02*
X18561377Y-7848302D01*
X9237500Y-6974996D02*
G75*
G02*
X9337496Y-6874997I100000J-1D01*
G01*
X16691635Y-387781D02*
X19367357Y-602435D01*
X12662500Y-6874861D02*
G75*
G02*
X12762506Y-6974861I0J-100006D01*
G01*
X11820000Y-387781D02*
G75*
G02*
X11723289Y-313229I0J100004D01*
G01*
X296736Y-6208930D02*
G75*
G02*
X243849Y-6108143I46354J88593D01*
G01*
X12862504Y-8503008D02*
G75*
G02*
X12762499Y-8403008I-4J100001D01*
G01*
X19367357Y-602435D02*
X21028990Y-807525D01*
X21756129Y-6108055D02*
G75*
G02*
X21703135Y-6208895I-99259J-12182D01*
G01*
X11642910Y-7750D02*
X11723292Y-313228D01*
X10276708Y-313228D02*
X10357090Y-7750D01*
X4377904Y-387781D02*
X10180000Y-387781D01*
X10357090Y-7750D02*
X10545500Y500D01*
X11820000Y-387781D02*
X14167907Y-387781D01*
X18527303Y-7858900D02*
X13281607Y-8502991D01*
X883994Y-894585D02*
G75*
G02*
X970999Y-807520I99256J-12182D01*
G01*
X9137504Y-8503159D02*
X8718528Y-8503176D01*
X18561377Y-7848302D02*
G75*
G02*
X18527303Y-7858902I-46277J88695D01*
G01*
X12762504Y-6974861D02*
X12762500Y-8403008D01*
X4365654Y-388534D02*
G75*
G02*
X4377904Y-387781I12246J-99223D01*
G01*
X9237500Y-6974996D02*
X9237500Y-8403159D01*
X8718528Y-8503176D02*
X3483809Y-7869558D01*
X11455500Y500D02*
X11642910Y-7750D01*
X12662496Y-6874996D02*
X9337496Y-6874996D01*
X13281607Y-8502991D02*
X12862504Y-8503008D01*
X21115995Y-894585D02*
X21756129Y-6108055D01*
X970999Y-807525D02*
X4365654Y-388534D01*
X3449457Y-7858883D02*
X296736Y-6208930D01*
X14167907Y-387781D02*
X16691635Y-387781D01*
X243850Y-6108143D02*
X883994Y-894585D01*
X21028990Y-807525D02*
G75*
G02*
X21115991Y-894585I-12250J-99242D01*
G01*
X9237500Y-8403159D02*
G75*
G02*
X9137504Y-8503157I-100000J2D01*
G01*
X10276708Y-313228D02*
G75*
G02*
X10180000Y-387785I-96708J25441D01*
G01*
D11*
X10545500Y-435418D02*
X10545500Y500D01*
X10660500Y-552500D02*
X10545500Y-552500D01*
X10680500Y-592500D02*
X10680500Y-572500D01*
X11000500Y-607500D02*
X10791122Y-607500D01*
X11000500Y-607500D02*
X11209878Y-607500D01*
X11320500Y-592500D02*
X11320500Y-572500D01*
X11340500Y-552500D02*
X11455500Y-552500D01*
X11455500Y-435418D02*
X11455500Y500D01*
X10545500Y-435418D02*
G75*
G02*
X10531213Y-454579I-19990J-2D01*
G01*
X10545500Y-552500D02*
G75*
G02*
X10531214Y-454584I0J50000D01*
G01*
X10660500Y-552500D02*
G75*
G02*
X10680500Y-572500I0J-20000D01*
G01*
X10773801Y-617500D02*
G75*
G02*
X10680500Y-592500I-43301J25000D01*
G01*
X10773801Y-617500D02*
G75*
G02*
X10791122Y-607502I17319J-10000D01*
G01*
X11209878Y-607500D02*
G75*
G02*
X11227199Y-617500I0J-20000D01*
G01*
X11320500Y-572500D02*
G75*
G02*
X11340500Y-552500I20000J0D01*
G01*
X11320500Y-592500D02*
G75*
G02*
X11227199Y-617500I-50000J0D01*
G01*
X11469786Y-454584D02*
G75*
G02*
X11455500Y-435418I5714J19166D01*
G01*
X11469786Y-454584D02*
G75*
G02*
X11455500Y-552500I-14286J-47916D01*
G01*
D12*
X19948241Y-3963981D02*
G75*
G02*
X19848241Y-3963981I-50000J0D01*
G01*
X19848241Y-3963981D02*
G75*
G02*
X19948241Y-3963981I50000J0D01*
G01*
X21042566Y-3276712D02*
G75*
G02*
X20922566Y-3276712I-60000J0D01*
G01*
X20922566Y-3276712D02*
G75*
G02*
X21042566Y-3276712I60000J0D01*
G01*
X5901842Y-5709642D02*
G75*
G02*
X5801842Y-5709642I-50000J0D01*
G01*
X5801842Y-5709642D02*
G75*
G02*
X5901842Y-5709642I50000J0D01*
G01*
X7130224Y-5305110D02*
G75*
G02*
X7010224Y-5305110I-60000J0D01*
G01*
X7010224Y-5305110D02*
G75*
G02*
X7130224Y-5305110I60000J0D01*
G01*
X16262817Y-1847344D02*
G75*
G02*
X16162817Y-1847344I-50000J0D01*
G01*
X16162817Y-1847344D02*
G75*
G02*
X16262817Y-1847344I50000J0D01*
G01*
X17357142Y-1160075D02*
G75*
G02*
X17237142Y-1160075I-60000J0D01*
G01*
X17237142Y-1160075D02*
G75*
G02*
X17357142Y-1160075I60000J0D01*
G01*
X18209118Y-3749326D02*
G75*
G02*
X18109118Y-3749326I-50000J0D01*
G01*
X18109118Y-3749326D02*
G75*
G02*
X18209118Y-3749326I50000J0D01*
G01*
X19303443Y-3062058D02*
G75*
G02*
X19183443Y-3062058I-60000J0D01*
G01*
X19183443Y-3062058D02*
G75*
G02*
X19303443Y-3062058I60000J0D01*
G01*
X20155419Y-5651309D02*
G75*
G02*
X20055419Y-5651309I-50000J0D01*
G01*
X20055419Y-5651309D02*
G75*
G02*
X20155419Y-5651309I50000J0D01*
G01*
X21249744Y-4964040D02*
G75*
G02*
X21129744Y-4964040I-60000J0D01*
G01*
X21129744Y-4964040D02*
G75*
G02*
X21249744Y-4964040I60000J0D01*
G01*
X13561488Y-7745517D02*
G75*
G02*
X13461488Y-7745517I-50000J0D01*
G01*
X13461488Y-7745517D02*
G75*
G02*
X13561488Y-7745517I50000J0D01*
G01*
X14655814Y-7058248D02*
G75*
G02*
X14535814Y-7058248I-60000J0D01*
G01*
X14535814Y-7058248D02*
G75*
G02*
X14655814Y-7058248I60000J0D01*
G01*
X5694664Y-7396971D02*
G75*
G02*
X5594664Y-7396971I-50000J0D01*
G01*
X5594664Y-7396971D02*
G75*
G02*
X5694664Y-7396971I50000J0D01*
G01*
X6923046Y-6992439D02*
G75*
G02*
X6803046Y-6992439I-60000J0D01*
G01*
X6803046Y-6992439D02*
G75*
G02*
X6923046Y-6992439I60000J0D01*
G01*
X7796349Y-4229492D02*
G75*
G02*
X7696349Y-4229492I-50000J0D01*
G01*
X7696349Y-4229492D02*
G75*
G02*
X7796349Y-4229492I50000J0D01*
G01*
X9024730Y-3824960D02*
G75*
G02*
X8904730Y-3824960I-60000J0D01*
G01*
X8904730Y-3824960D02*
G75*
G02*
X9024730Y-3824960I60000J0D01*
G01*
X12939955Y-2683532D02*
G75*
G02*
X12839955Y-2683532I-50000J0D01*
G01*
X12839955Y-2683532D02*
G75*
G02*
X12939955Y-2683532I50000J0D01*
G01*
X14034280Y-1996263D02*
G75*
G02*
X13914280Y-1996263I-60000J0D01*
G01*
X13914280Y-1996263D02*
G75*
G02*
X14034280Y-1996263I60000J0D01*
G01*
X15248817Y-7538339D02*
G75*
G02*
X15148817Y-7538339I-50000J0D01*
G01*
X15148817Y-7538339D02*
G75*
G02*
X15248817Y-7538339I50000J0D01*
G01*
X16343142Y-6851070D02*
G75*
G02*
X16223142Y-6851070I-60000J0D01*
G01*
X16223142Y-6851070D02*
G75*
G02*
X16343142Y-6851070I60000J0D01*
G01*
X7589171Y-5916820D02*
G75*
G02*
X7489171Y-5916820I-50000J0D01*
G01*
X7489171Y-5916820D02*
G75*
G02*
X7589171Y-5916820I50000J0D01*
G01*
X8817552Y-5512288D02*
G75*
G02*
X8697552Y-5512288I-60000J0D01*
G01*
X8697552Y-5512288D02*
G75*
G02*
X8817552Y-5512288I60000J0D01*
G01*
X1202418Y-2135284D02*
G75*
G02*
X1102418Y-2135284I-50000J0D01*
G01*
X1102418Y-2135284D02*
G75*
G02*
X1202418Y-2135284I50000J0D01*
G01*
X2430800Y-1730752D02*
G75*
G02*
X2310800Y-1730752I-60000J0D01*
G01*
X2310800Y-1730752D02*
G75*
G02*
X2430800Y-1730752I60000J0D01*
G01*
X2734363Y-3607958D02*
G75*
G02*
X2634363Y-3607958I-50000J0D01*
G01*
X2634363Y-3607958D02*
G75*
G02*
X2734363Y-3607958I50000J0D01*
G01*
X3962745Y-3203426D02*
G75*
G02*
X3842745Y-3203426I-60000J0D01*
G01*
X3842745Y-3203426D02*
G75*
G02*
X3962745Y-3203426I60000J0D01*
G01*
X19741063Y-2276652D02*
G75*
G02*
X19641063Y-2276652I-50000J0D01*
G01*
X19641063Y-2276652D02*
G75*
G02*
X19741063Y-2276652I50000J0D01*
G01*
X20835388Y-1589383D02*
G75*
G02*
X20715388Y-1589383I-60000J0D01*
G01*
X20715388Y-1589383D02*
G75*
G02*
X20835388Y-1589383I60000J0D01*
G01*
X13354310Y-6058189D02*
G75*
G02*
X13254310Y-6058189I-50000J0D01*
G01*
X13254310Y-6058189D02*
G75*
G02*
X13354310Y-6058189I50000J0D01*
G01*
X14448636Y-5370920D02*
G75*
G02*
X14328636Y-5370920I-60000J0D01*
G01*
X14328636Y-5370920D02*
G75*
G02*
X14448636Y-5370920I60000J0D01*
G01*
X995240Y-3822612D02*
G75*
G02*
X895240Y-3822612I-50000J0D01*
G01*
X895240Y-3822612D02*
G75*
G02*
X995240Y-3822612I50000J0D01*
G01*
X2223622Y-3418080D02*
G75*
G02*
X2103622Y-3418080I-60000J0D01*
G01*
X2103622Y-3418080D02*
G75*
G02*
X2223622Y-3418080I60000J0D01*
G01*
X4680664Y-1705975D02*
G75*
G02*
X4580664Y-1705975I-50000J0D01*
G01*
X4580664Y-1705975D02*
G75*
G02*
X4680664Y-1705975I50000J0D01*
G01*
X5909046Y-1301443D02*
G75*
G02*
X5789046Y-1301443I-60000J0D01*
G01*
X5789046Y-1301443D02*
G75*
G02*
X5909046Y-1301443I60000J0D01*
G01*
X15041639Y-5851011D02*
G75*
G02*
X14941639Y-5851011I-50000J0D01*
G01*
X14941639Y-5851011D02*
G75*
G02*
X15041639Y-5851011I50000J0D01*
G01*
X16135964Y-5163742D02*
G75*
G02*
X16015964Y-5163742I-60000J0D01*
G01*
X16015964Y-5163742D02*
G75*
G02*
X16135964Y-5163742I60000J0D01*
G01*
X16677173Y-5222001D02*
G75*
G02*
X16577173Y-5222001I-50000J0D01*
G01*
X16577173Y-5222001D02*
G75*
G02*
X16677173Y-5222001I50000J0D01*
G01*
X17771498Y-4534732D02*
G75*
G02*
X17651498Y-4534732I-60000J0D01*
G01*
X17651498Y-4534732D02*
G75*
G02*
X17771498Y-4534732I60000J0D01*
G01*
X2527185Y-5295287D02*
G75*
G02*
X2427185Y-5295287I-50000J0D01*
G01*
X2427185Y-5295287D02*
G75*
G02*
X2527185Y-5295287I50000J0D01*
G01*
X3755567Y-4890755D02*
G75*
G02*
X3635567Y-4890755I-60000J0D01*
G01*
X3635567Y-4890755D02*
G75*
G02*
X3755567Y-4890755I60000J0D01*
G01*
X8003526Y-2542163D02*
G75*
G02*
X7903526Y-2542163I-50000J0D01*
G01*
X7903526Y-2542163D02*
G75*
G02*
X8003526Y-2542163I50000J0D01*
G01*
X9231908Y-2137631D02*
G75*
G02*
X9111908Y-2137631I-60000J0D01*
G01*
X9111908Y-2137631D02*
G75*
G02*
X9231908Y-2137631I60000J0D01*
G01*
X18416296Y-5436655D02*
G75*
G02*
X18316296Y-5436655I-50000J0D01*
G01*
X18316296Y-5436655D02*
G75*
G02*
X18416296Y-5436655I50000J0D01*
G01*
X19510621Y-4749386D02*
G75*
G02*
X19390621Y-4749386I-60000J0D01*
G01*
X19390621Y-4749386D02*
G75*
G02*
X19510621Y-4749386I60000J0D01*
G01*
X13561488Y-7745517D02*
G75*
G02*
X13461488Y-7745517I-50000J0D01*
G01*
X13461488Y-7745517D02*
G75*
G02*
X13561488Y-7745517I50000J0D01*
G01*
X14655814Y-7058248D02*
G75*
G02*
X14535814Y-7058248I-60000J0D01*
G01*
X14535814Y-7058248D02*
G75*
G02*
X14655814Y-7058248I60000J0D01*
G01*
X4266308Y-5080632D02*
G75*
G02*
X4166308Y-5080632I-50000J0D01*
G01*
X4166308Y-5080632D02*
G75*
G02*
X4266308Y-5080632I50000J0D01*
G01*
X5494690Y-4676100D02*
G75*
G02*
X5374690Y-4676100I-60000J0D01*
G01*
X5374690Y-4676100D02*
G75*
G02*
X5494690Y-4676100I60000J0D01*
G01*
X16936145Y-7331161D02*
G75*
G02*
X16836145Y-7331161I-50000J0D01*
G01*
X16836145Y-7331161D02*
G75*
G02*
X16936145Y-7331161I50000J0D01*
G01*
X18030471Y-6643892D02*
G75*
G02*
X17910471Y-6643892I-60000J0D01*
G01*
X17910471Y-6643892D02*
G75*
G02*
X18030471Y-6643892I60000J0D01*
G01*
X14627283Y-2476354D02*
G75*
G02*
X14527283Y-2476354I-50000J0D01*
G01*
X14527283Y-2476354D02*
G75*
G02*
X14627283Y-2476354I50000J0D01*
G01*
X15721608Y-1789085D02*
G75*
G02*
X15601608Y-1789085I-60000J0D01*
G01*
X15601608Y-1789085D02*
G75*
G02*
X15721608Y-1789085I60000J0D01*
G01*
X6316198Y-2334985D02*
G75*
G02*
X6216198Y-2334985I-50000J0D01*
G01*
X6216198Y-2334985D02*
G75*
G02*
X6316198Y-2334985I50000J0D01*
G01*
X7544580Y-1930453D02*
G75*
G02*
X7424580Y-1930453I-60000J0D01*
G01*
X7424580Y-1930453D02*
G75*
G02*
X7544580Y-1930453I60000J0D01*
G01*
X4007336Y-7189793D02*
G75*
G02*
X3907336Y-7189793I-50000J0D01*
G01*
X3907336Y-7189793D02*
G75*
G02*
X4007336Y-7189793I50000J0D01*
G01*
X5235718Y-6785261D02*
G75*
G02*
X5115718Y-6785261I-60000J0D01*
G01*
X5115718Y-6785261D02*
G75*
G02*
X5235718Y-6785261I60000J0D01*
G01*
X788062Y-5509941D02*
G75*
G02*
X688062Y-5509941I-50000J0D01*
G01*
X688062Y-5509941D02*
G75*
G02*
X788062Y-5509941I50000J0D01*
G01*
X2016444Y-5105409D02*
G75*
G02*
X1896444Y-5105409I-60000J0D01*
G01*
X1896444Y-5105409D02*
G75*
G02*
X2016444Y-5105409I60000J0D01*
G01*
X14834461Y-4163682D02*
G75*
G02*
X14734461Y-4163682I-50000J0D01*
G01*
X14734461Y-4163682D02*
G75*
G02*
X14834461Y-4163682I50000J0D01*
G01*
X15928786Y-3476413D02*
G75*
G02*
X15808786Y-3476413I-60000J0D01*
G01*
X15808786Y-3476413D02*
G75*
G02*
X15928786Y-3476413I60000J0D01*
G01*
X16469995Y-3534672D02*
G75*
G02*
X16369995Y-3534672I-50000J0D01*
G01*
X16369995Y-3534672D02*
G75*
G02*
X16469995Y-3534672I50000J0D01*
G01*
X17564320Y-2847403D02*
G75*
G02*
X17444320Y-2847403I-60000J0D01*
G01*
X17444320Y-2847403D02*
G75*
G02*
X17564320Y-2847403I60000J0D01*
G01*
X4473486Y-3393304D02*
G75*
G02*
X4373486Y-3393304I-50000J0D01*
G01*
X4373486Y-3393304D02*
G75*
G02*
X4473486Y-3393304I50000J0D01*
G01*
X5701868Y-2988772D02*
G75*
G02*
X5581868Y-2988772I-60000J0D01*
G01*
X5581868Y-2988772D02*
G75*
G02*
X5701868Y-2988772I60000J0D01*
G01*
X18001940Y-2061998D02*
G75*
G02*
X17901940Y-2061998I-50000J0D01*
G01*
X17901940Y-2061998D02*
G75*
G02*
X18001940Y-2061998I50000J0D01*
G01*
X19096265Y-1374729D02*
G75*
G02*
X18976265Y-1374729I-60000J0D01*
G01*
X18976265Y-1374729D02*
G75*
G02*
X19096265Y-1374729I60000J0D01*
G01*
X2941541Y-1920630D02*
G75*
G02*
X2841541Y-1920630I-50000J0D01*
G01*
X2841541Y-1920630D02*
G75*
G02*
X2941541Y-1920630I50000J0D01*
G01*
X4169923Y-1516098D02*
G75*
G02*
X4049923Y-1516098I-60000J0D01*
G01*
X4049923Y-1516098D02*
G75*
G02*
X4169923Y-1516098I60000J0D01*
G01*
X13147132Y-4370860D02*
G75*
G02*
X13047132Y-4370860I-50000J0D01*
G01*
X13047132Y-4370860D02*
G75*
G02*
X13147132Y-4370860I50000J0D01*
G01*
X14241458Y-3683591D02*
G75*
G02*
X14121458Y-3683591I-60000J0D01*
G01*
X14121458Y-3683591D02*
G75*
G02*
X14241458Y-3683591I60000J0D01*
G01*
X6109020Y-4022314D02*
G75*
G02*
X6009020Y-4022314I-50000J0D01*
G01*
X6009020Y-4022314D02*
G75*
G02*
X6109020Y-4022314I50000J0D01*
G01*
X7337402Y-3617782D02*
G75*
G02*
X7217402Y-3617782I-60000J0D01*
G01*
X7217402Y-3617782D02*
G75*
G02*
X7337402Y-3617782I60000J0D01*
G01*
X7381993Y-7604149D02*
G75*
G02*
X7281993Y-7604149I-50000J0D01*
G01*
X7281993Y-7604149D02*
G75*
G02*
X7381993Y-7604149I50000J0D01*
G01*
X8610374Y-7199617D02*
G75*
G02*
X8490374Y-7199617I-60000J0D01*
G01*
X8490374Y-7199617D02*
G75*
G02*
X8610374Y-7199617I60000J0D01*
G01*
D13*
D12*
X10592500Y-610500D02*
X10657500Y-675500D01*
X10657500Y-610500D02*
X10592500Y-675500D01*
X11342500Y-610500D02*
X11407500Y-675500D01*
X11407500Y-610500D02*
X11342500Y-675500D01*
X13000000Y-447500D02*
G75*
G02*
X12925000Y-447500I-37500J0D01*
G01*
X12925000Y-447500D02*
G75*
G02*
X13000000Y-447500I37500J0D01*
G01*
X13000000Y-722500D02*
G75*
G02*
X12925000Y-722500I-37500J0D01*
G01*
X12925000Y-722500D02*
G75*
G02*
X13000000Y-722500I37500J0D01*
G01*
X13800000Y-447500D02*
G75*
G02*
X13725000Y-447500I-37500J0D01*
G01*
X13725000Y-447500D02*
G75*
G02*
X13800000Y-447500I37500J0D01*
G01*
X13800000Y-722500D02*
G75*
G02*
X13725000Y-722500I-37500J0D01*
G01*
X13725000Y-722500D02*
G75*
G02*
X13800000Y-722500I37500J0D01*
G01*
X12263000Y-6576970D02*
X12263000Y-6676030D01*
X12213470Y-6626500D02*
X12312530Y-6626500D01*
X12771000Y-6678570D02*
X12771000Y-6777630D01*
X12721470Y-6728100D02*
X12820530Y-6728100D01*
X12771000Y-6475370D02*
X12771000Y-6574430D01*
X12721470Y-6524900D02*
X12820530Y-6524900D01*
D14*
X3077782Y-6735532D02*
X3077782Y-6579967D01*
X2922217Y-6579967D01*
X2922217Y-6735532D01*
X3077782Y-6735532D01*
X7077782Y-935532D02*
X7077782Y-779967D01*
X6922217Y-779967D01*
X6922217Y-935532D01*
X7077782Y-935532D01*
X15077782Y-935532D02*
X15077782Y-779967D01*
X14922217Y-779967D01*
X14922217Y-935532D01*
X15077782Y-935532D01*
X19077783Y-6735532D02*
X19077783Y-6579967D01*
X18922218Y-6579967D01*
X18922218Y-6735532D01*
X19077783Y-6735532D01*
D13*
X501380Y-8817160D02*
X501380Y-8617160D01*
X501380Y-8617160D02*
X548999Y-8617160D01*
X548999Y-8617160D02*
X577570Y-8626684D01*
X577570Y-8626684D02*
X596618Y-8645731D01*
X596618Y-8645731D02*
X606142Y-8664779D01*
X606142Y-8664779D02*
X615666Y-8702874D01*
X615666Y-8702874D02*
X615666Y-8731445D01*
X615666Y-8731445D02*
X606142Y-8769541D01*
X606142Y-8769541D02*
X596618Y-8788588D01*
X596618Y-8788588D02*
X577570Y-8807636D01*
X577570Y-8807636D02*
X548999Y-8817160D01*
X548999Y-8817160D02*
X501380Y-8817160D01*
X701380Y-8817160D02*
X701380Y-8683826D01*
X701380Y-8721922D02*
X710904Y-8702874D01*
X710904Y-8702874D02*
X720427Y-8693350D01*
X720427Y-8693350D02*
X739475Y-8683826D01*
X739475Y-8683826D02*
X758523Y-8683826D01*
X825189Y-8817160D02*
X825189Y-8683826D01*
X825189Y-8617160D02*
X815666Y-8626684D01*
X815666Y-8626684D02*
X825189Y-8636207D01*
X825189Y-8636207D02*
X834713Y-8626684D01*
X834713Y-8626684D02*
X825189Y-8617160D01*
X825189Y-8617160D02*
X825189Y-8636207D01*
X948999Y-8817160D02*
X929951Y-8807636D01*
X929951Y-8807636D02*
X920427Y-8788588D01*
X920427Y-8788588D02*
X920427Y-8617160D01*
X1053761Y-8817160D02*
X1034713Y-8807636D01*
X1034713Y-8807636D02*
X1025189Y-8788588D01*
X1025189Y-8788588D02*
X1025189Y-8617160D01*
X1282332Y-8817160D02*
X1282332Y-8617160D01*
X1282332Y-8617160D02*
X1348999Y-8760017D01*
X1348999Y-8760017D02*
X1415666Y-8617160D01*
X1415666Y-8617160D02*
X1415666Y-8817160D01*
X1596618Y-8817160D02*
X1596618Y-8712398D01*
X1596618Y-8712398D02*
X1587094Y-8693350D01*
X1587094Y-8693350D02*
X1568047Y-8683826D01*
X1568047Y-8683826D02*
X1529951Y-8683826D01*
X1529951Y-8683826D02*
X1510904Y-8693350D01*
X1596618Y-8807636D02*
X1577570Y-8817160D01*
X1577570Y-8817160D02*
X1529951Y-8817160D01*
X1529951Y-8817160D02*
X1510904Y-8807636D01*
X1510904Y-8807636D02*
X1501380Y-8788588D01*
X1501380Y-8788588D02*
X1501380Y-8769541D01*
X1501380Y-8769541D02*
X1510904Y-8750493D01*
X1510904Y-8750493D02*
X1529951Y-8740969D01*
X1529951Y-8740969D02*
X1577570Y-8740969D01*
X1577570Y-8740969D02*
X1596618Y-8731445D01*
X1691856Y-8683826D02*
X1691856Y-8883826D01*
X1691856Y-8693350D02*
X1710904Y-8683826D01*
X1710904Y-8683826D02*
X1748999Y-8683826D01*
X1748999Y-8683826D02*
X1768047Y-8693350D01*
X1768047Y-8693350D02*
X1777570Y-8702874D01*
X1777570Y-8702874D02*
X1787094Y-8721922D01*
X1787094Y-8721922D02*
X1787094Y-8779064D01*
X1787094Y-8779064D02*
X1777570Y-8798112D01*
X1777570Y-8798112D02*
X1768047Y-8807636D01*
X1768047Y-8807636D02*
X1748999Y-8817160D01*
X1748999Y-8817160D02*
X1710904Y-8817160D01*
X1710904Y-8817160D02*
X1691856Y-8807636D01*
X1872808Y-8798112D02*
X1882332Y-8807636D01*
X1882332Y-8807636D02*
X1872808Y-8817160D01*
X1872808Y-8817160D02*
X1863285Y-8807636D01*
X1863285Y-8807636D02*
X1872808Y-8798112D01*
X1872808Y-8798112D02*
X1872808Y-8817160D01*
X1872808Y-8693350D02*
X1882332Y-8702874D01*
X1882332Y-8702874D02*
X1872808Y-8712398D01*
X1872808Y-8712398D02*
X1863285Y-8702874D01*
X1863285Y-8702874D02*
X1872808Y-8693350D01*
X1872808Y-8693350D02*
X1872808Y-8712398D01*
D12*
X175603Y-9113176D02*
X240603Y-9178176D01*
X240603Y-9113176D02*
X175603Y-9178176D01*
D13*
X539475Y-9037160D02*
X558523Y-9037160D01*
X558523Y-9037160D02*
X577570Y-9046684D01*
X577570Y-9046684D02*
X587094Y-9056207D01*
X587094Y-9056207D02*
X596618Y-9075255D01*
X596618Y-9075255D02*
X606142Y-9113350D01*
X606142Y-9113350D02*
X606142Y-9160969D01*
X606142Y-9160969D02*
X596618Y-9199064D01*
X596618Y-9199064D02*
X587094Y-9218112D01*
X587094Y-9218112D02*
X577570Y-9227636D01*
X577570Y-9227636D02*
X558523Y-9237160D01*
X558523Y-9237160D02*
X539475Y-9237160D01*
X539475Y-9237160D02*
X520427Y-9227636D01*
X520427Y-9227636D02*
X510904Y-9218112D01*
X510904Y-9218112D02*
X501380Y-9199064D01*
X501380Y-9199064D02*
X491856Y-9160969D01*
X491856Y-9160969D02*
X491856Y-9113350D01*
X491856Y-9113350D02*
X501380Y-9075255D01*
X501380Y-9075255D02*
X510904Y-9056207D01*
X510904Y-9056207D02*
X520427Y-9046684D01*
X520427Y-9046684D02*
X539475Y-9037160D01*
X691856Y-9218112D02*
X701380Y-9227636D01*
X701380Y-9227636D02*
X691856Y-9237160D01*
X691856Y-9237160D02*
X682332Y-9227636D01*
X682332Y-9227636D02*
X691856Y-9218112D01*
X691856Y-9218112D02*
X691856Y-9237160D01*
X872808Y-9037160D02*
X834713Y-9037160D01*
X834713Y-9037160D02*
X815666Y-9046684D01*
X815666Y-9046684D02*
X806142Y-9056207D01*
X806142Y-9056207D02*
X787094Y-9084779D01*
X787094Y-9084779D02*
X777570Y-9122874D01*
X777570Y-9122874D02*
X777570Y-9199064D01*
X777570Y-9199064D02*
X787094Y-9218112D01*
X787094Y-9218112D02*
X796618Y-9227636D01*
X796618Y-9227636D02*
X815666Y-9237160D01*
X815666Y-9237160D02*
X853761Y-9237160D01*
X853761Y-9237160D02*
X872808Y-9227636D01*
X872808Y-9227636D02*
X882332Y-9218112D01*
X882332Y-9218112D02*
X891856Y-9199064D01*
X891856Y-9199064D02*
X891856Y-9151445D01*
X891856Y-9151445D02*
X882332Y-9132398D01*
X882332Y-9132398D02*
X872808Y-9122874D01*
X872808Y-9122874D02*
X853761Y-9113350D01*
X853761Y-9113350D02*
X815666Y-9113350D01*
X815666Y-9113350D02*
X796618Y-9122874D01*
X796618Y-9122874D02*
X787094Y-9132398D01*
X787094Y-9132398D02*
X777570Y-9151445D01*
X1072809Y-9037160D02*
X977570Y-9037160D01*
X977570Y-9037160D02*
X968047Y-9132398D01*
X968047Y-9132398D02*
X977570Y-9122874D01*
X977570Y-9122874D02*
X996618Y-9113350D01*
X996618Y-9113350D02*
X1044237Y-9113350D01*
X1044237Y-9113350D02*
X1063285Y-9122874D01*
X1063285Y-9122874D02*
X1072809Y-9132398D01*
X1072809Y-9132398D02*
X1082332Y-9151445D01*
X1082332Y-9151445D02*
X1082332Y-9199064D01*
X1082332Y-9199064D02*
X1072809Y-9218112D01*
X1072809Y-9218112D02*
X1063285Y-9227636D01*
X1063285Y-9227636D02*
X1044237Y-9237160D01*
X1044237Y-9237160D02*
X996618Y-9237160D01*
X996618Y-9237160D02*
X977570Y-9227636D01*
X977570Y-9227636D02*
X968047Y-9218112D01*
X1206142Y-9037160D02*
X1225190Y-9037160D01*
X1225190Y-9037160D02*
X1244237Y-9046684D01*
X1244237Y-9046684D02*
X1253761Y-9056207D01*
X1253761Y-9056207D02*
X1263285Y-9075255D01*
X1263285Y-9075255D02*
X1272809Y-9113350D01*
X1272809Y-9113350D02*
X1272809Y-9160969D01*
X1272809Y-9160969D02*
X1263285Y-9199064D01*
X1263285Y-9199064D02*
X1253761Y-9218112D01*
X1253761Y-9218112D02*
X1244237Y-9227636D01*
X1244237Y-9227636D02*
X1225190Y-9237160D01*
X1225190Y-9237160D02*
X1206142Y-9237160D01*
X1206142Y-9237160D02*
X1187094Y-9227636D01*
X1187094Y-9227636D02*
X1177570Y-9218112D01*
X1177570Y-9218112D02*
X1168047Y-9199064D01*
X1168047Y-9199064D02*
X1158523Y-9160969D01*
X1158523Y-9160969D02*
X1158523Y-9113350D01*
X1158523Y-9113350D02*
X1168047Y-9075255D01*
X1168047Y-9075255D02*
X1177570Y-9056207D01*
X1177570Y-9056207D02*
X1187094Y-9046684D01*
X1187094Y-9046684D02*
X1206142Y-9037160D01*
X1358523Y-9237160D02*
X1358523Y-9103826D01*
X1358523Y-9122874D02*
X1368047Y-9113350D01*
X1368047Y-9113350D02*
X1387094Y-9103826D01*
X1387094Y-9103826D02*
X1415666Y-9103826D01*
X1415666Y-9103826D02*
X1434713Y-9113350D01*
X1434713Y-9113350D02*
X1444237Y-9132398D01*
X1444237Y-9132398D02*
X1444237Y-9237160D01*
X1444237Y-9132398D02*
X1453761Y-9113350D01*
X1453761Y-9113350D02*
X1472808Y-9103826D01*
X1472808Y-9103826D02*
X1501380Y-9103826D01*
X1501380Y-9103826D02*
X1520428Y-9113350D01*
X1520428Y-9113350D02*
X1529951Y-9132398D01*
X1529951Y-9132398D02*
X1529951Y-9237160D01*
X1625189Y-9237160D02*
X1625189Y-9103826D01*
X1625189Y-9122874D02*
X1634713Y-9113350D01*
X1634713Y-9113350D02*
X1653761Y-9103826D01*
X1653761Y-9103826D02*
X1682332Y-9103826D01*
X1682332Y-9103826D02*
X1701380Y-9113350D01*
X1701380Y-9113350D02*
X1710904Y-9132398D01*
X1710904Y-9132398D02*
X1710904Y-9237160D01*
X1710904Y-9132398D02*
X1720428Y-9113350D01*
X1720428Y-9113350D02*
X1739475Y-9103826D01*
X1739475Y-9103826D02*
X1768047Y-9103826D01*
X1768047Y-9103826D02*
X1787094Y-9113350D01*
X1787094Y-9113350D02*
X1796618Y-9132398D01*
X1796618Y-9132398D02*
X1796618Y-9237160D01*
X2187094Y-9027636D02*
X2015666Y-9284779D01*
X2444237Y-9037160D02*
X2463285Y-9037160D01*
X2463285Y-9037160D02*
X2482333Y-9046684D01*
X2482333Y-9046684D02*
X2491856Y-9056207D01*
X2491856Y-9056207D02*
X2501380Y-9075255D01*
X2501380Y-9075255D02*
X2510904Y-9113350D01*
X2510904Y-9113350D02*
X2510904Y-9160969D01*
X2510904Y-9160969D02*
X2501380Y-9199064D01*
X2501380Y-9199064D02*
X2491856Y-9218112D01*
X2491856Y-9218112D02*
X2482333Y-9227636D01*
X2482333Y-9227636D02*
X2463285Y-9237160D01*
X2463285Y-9237160D02*
X2444237Y-9237160D01*
X2444237Y-9237160D02*
X2425190Y-9227636D01*
X2425190Y-9227636D02*
X2415666Y-9218112D01*
X2415666Y-9218112D02*
X2406142Y-9199064D01*
X2406142Y-9199064D02*
X2396618Y-9160969D01*
X2396618Y-9160969D02*
X2396618Y-9113350D01*
X2396618Y-9113350D02*
X2406142Y-9075255D01*
X2406142Y-9075255D02*
X2415666Y-9056207D01*
X2415666Y-9056207D02*
X2425190Y-9046684D01*
X2425190Y-9046684D02*
X2444237Y-9037160D01*
X2596618Y-9218112D02*
X2606142Y-9227636D01*
X2606142Y-9227636D02*
X2596618Y-9237160D01*
X2596618Y-9237160D02*
X2587094Y-9227636D01*
X2587094Y-9227636D02*
X2596618Y-9218112D01*
X2596618Y-9218112D02*
X2596618Y-9237160D01*
X2729952Y-9037160D02*
X2748999Y-9037160D01*
X2748999Y-9037160D02*
X2768047Y-9046684D01*
X2768047Y-9046684D02*
X2777571Y-9056207D01*
X2777571Y-9056207D02*
X2787094Y-9075255D01*
X2787094Y-9075255D02*
X2796618Y-9113350D01*
X2796618Y-9113350D02*
X2796618Y-9160969D01*
X2796618Y-9160969D02*
X2787094Y-9199064D01*
X2787094Y-9199064D02*
X2777571Y-9218112D01*
X2777571Y-9218112D02*
X2768047Y-9227636D01*
X2768047Y-9227636D02*
X2748999Y-9237160D01*
X2748999Y-9237160D02*
X2729952Y-9237160D01*
X2729952Y-9237160D02*
X2710904Y-9227636D01*
X2710904Y-9227636D02*
X2701380Y-9218112D01*
X2701380Y-9218112D02*
X2691856Y-9199064D01*
X2691856Y-9199064D02*
X2682333Y-9160969D01*
X2682333Y-9160969D02*
X2682333Y-9113350D01*
X2682333Y-9113350D02*
X2691856Y-9075255D01*
X2691856Y-9075255D02*
X2701380Y-9056207D01*
X2701380Y-9056207D02*
X2710904Y-9046684D01*
X2710904Y-9046684D02*
X2729952Y-9037160D01*
X2872809Y-9056207D02*
X2882332Y-9046684D01*
X2882332Y-9046684D02*
X2901380Y-9037160D01*
X2901380Y-9037160D02*
X2948999Y-9037160D01*
X2948999Y-9037160D02*
X2968047Y-9046684D01*
X2968047Y-9046684D02*
X2977571Y-9056207D01*
X2977571Y-9056207D02*
X2987094Y-9075255D01*
X2987094Y-9075255D02*
X2987094Y-9094303D01*
X2987094Y-9094303D02*
X2977571Y-9122874D01*
X2977571Y-9122874D02*
X2863285Y-9237160D01*
X2863285Y-9237160D02*
X2987094Y-9237160D01*
X3168047Y-9037160D02*
X3072809Y-9037160D01*
X3072809Y-9037160D02*
X3063285Y-9132398D01*
X3063285Y-9132398D02*
X3072809Y-9122874D01*
X3072809Y-9122874D02*
X3091856Y-9113350D01*
X3091856Y-9113350D02*
X3139475Y-9113350D01*
X3139475Y-9113350D02*
X3158523Y-9122874D01*
X3158523Y-9122874D02*
X3168047Y-9132398D01*
X3168047Y-9132398D02*
X3177571Y-9151445D01*
X3177571Y-9151445D02*
X3177571Y-9199064D01*
X3177571Y-9199064D02*
X3168047Y-9218112D01*
X3168047Y-9218112D02*
X3158523Y-9227636D01*
X3158523Y-9227636D02*
X3139475Y-9237160D01*
X3139475Y-9237160D02*
X3091856Y-9237160D01*
X3091856Y-9237160D02*
X3072809Y-9227636D01*
X3072809Y-9227636D02*
X3063285Y-9218112D01*
X3348999Y-9037160D02*
X3310904Y-9037160D01*
X3310904Y-9037160D02*
X3291856Y-9046684D01*
X3291856Y-9046684D02*
X3282332Y-9056207D01*
X3282332Y-9056207D02*
X3263285Y-9084779D01*
X3263285Y-9084779D02*
X3253761Y-9122874D01*
X3253761Y-9122874D02*
X3253761Y-9199064D01*
X3253761Y-9199064D02*
X3263285Y-9218112D01*
X3263285Y-9218112D02*
X3272809Y-9227636D01*
X3272809Y-9227636D02*
X3291856Y-9237160D01*
X3291856Y-9237160D02*
X3329952Y-9237160D01*
X3329952Y-9237160D02*
X3348999Y-9227636D01*
X3348999Y-9227636D02*
X3358523Y-9218112D01*
X3358523Y-9218112D02*
X3368047Y-9199064D01*
X3368047Y-9199064D02*
X3368047Y-9151445D01*
X3368047Y-9151445D02*
X3358523Y-9132398D01*
X3358523Y-9132398D02*
X3348999Y-9122874D01*
X3348999Y-9122874D02*
X3329952Y-9113350D01*
X3329952Y-9113350D02*
X3291856Y-9113350D01*
X3291856Y-9113350D02*
X3272809Y-9122874D01*
X3272809Y-9122874D02*
X3263285Y-9132398D01*
X3263285Y-9132398D02*
X3253761Y-9151445D01*
X3444237Y-9037160D02*
X3444237Y-9075255D01*
X3520428Y-9037160D02*
X3520428Y-9075255D01*
X3815666Y-9313350D02*
X3806142Y-9303826D01*
X3806142Y-9303826D02*
X3787094Y-9275255D01*
X3787094Y-9275255D02*
X3777571Y-9256207D01*
X3777571Y-9256207D02*
X3768047Y-9227636D01*
X3768047Y-9227636D02*
X3758523Y-9180017D01*
X3758523Y-9180017D02*
X3758523Y-9141922D01*
X3758523Y-9141922D02*
X3768047Y-9094303D01*
X3768047Y-9094303D02*
X3777571Y-9065731D01*
X3777571Y-9065731D02*
X3787094Y-9046684D01*
X3787094Y-9046684D02*
X3806142Y-9018112D01*
X3806142Y-9018112D02*
X3815666Y-9008588D01*
X3882333Y-9056207D02*
X3891856Y-9046684D01*
X3891856Y-9046684D02*
X3910904Y-9037160D01*
X3910904Y-9037160D02*
X3958523Y-9037160D01*
X3958523Y-9037160D02*
X3977571Y-9046684D01*
X3977571Y-9046684D02*
X3987094Y-9056207D01*
X3987094Y-9056207D02*
X3996618Y-9075255D01*
X3996618Y-9075255D02*
X3996618Y-9094303D01*
X3996618Y-9094303D02*
X3987094Y-9122874D01*
X3987094Y-9122874D02*
X3872809Y-9237160D01*
X3872809Y-9237160D02*
X3996618Y-9237160D01*
X4234714Y-9237160D02*
X4234714Y-9037160D01*
X4320428Y-9237160D02*
X4320428Y-9132398D01*
X4320428Y-9132398D02*
X4310904Y-9113350D01*
X4310904Y-9113350D02*
X4291857Y-9103826D01*
X4291857Y-9103826D02*
X4263285Y-9103826D01*
X4263285Y-9103826D02*
X4244237Y-9113350D01*
X4244237Y-9113350D02*
X4234714Y-9122874D01*
X4444237Y-9237160D02*
X4425190Y-9227636D01*
X4425190Y-9227636D02*
X4415666Y-9218112D01*
X4415666Y-9218112D02*
X4406142Y-9199064D01*
X4406142Y-9199064D02*
X4406142Y-9141922D01*
X4406142Y-9141922D02*
X4415666Y-9122874D01*
X4415666Y-9122874D02*
X4425190Y-9113350D01*
X4425190Y-9113350D02*
X4444237Y-9103826D01*
X4444237Y-9103826D02*
X4472809Y-9103826D01*
X4472809Y-9103826D02*
X4491857Y-9113350D01*
X4491857Y-9113350D02*
X4501380Y-9122874D01*
X4501380Y-9122874D02*
X4510904Y-9141922D01*
X4510904Y-9141922D02*
X4510904Y-9199064D01*
X4510904Y-9199064D02*
X4501380Y-9218112D01*
X4501380Y-9218112D02*
X4491857Y-9227636D01*
X4491857Y-9227636D02*
X4472809Y-9237160D01*
X4472809Y-9237160D02*
X4444237Y-9237160D01*
X4625190Y-9237160D02*
X4606142Y-9227636D01*
X4606142Y-9227636D02*
X4596618Y-9208588D01*
X4596618Y-9208588D02*
X4596618Y-9037160D01*
X4777571Y-9227636D02*
X4758523Y-9237160D01*
X4758523Y-9237160D02*
X4720428Y-9237160D01*
X4720428Y-9237160D02*
X4701380Y-9227636D01*
X4701380Y-9227636D02*
X4691857Y-9208588D01*
X4691857Y-9208588D02*
X4691857Y-9132398D01*
X4691857Y-9132398D02*
X4701380Y-9113350D01*
X4701380Y-9113350D02*
X4720428Y-9103826D01*
X4720428Y-9103826D02*
X4758523Y-9103826D01*
X4758523Y-9103826D02*
X4777571Y-9113350D01*
X4777571Y-9113350D02*
X4787095Y-9132398D01*
X4787095Y-9132398D02*
X4787095Y-9151445D01*
X4787095Y-9151445D02*
X4691857Y-9170493D01*
X4863285Y-9227636D02*
X4882333Y-9237160D01*
X4882333Y-9237160D02*
X4920428Y-9237160D01*
X4920428Y-9237160D02*
X4939476Y-9227636D01*
X4939476Y-9227636D02*
X4948999Y-9208588D01*
X4948999Y-9208588D02*
X4948999Y-9199064D01*
X4948999Y-9199064D02*
X4939476Y-9180017D01*
X4939476Y-9180017D02*
X4920428Y-9170493D01*
X4920428Y-9170493D02*
X4891857Y-9170493D01*
X4891857Y-9170493D02*
X4872809Y-9160969D01*
X4872809Y-9160969D02*
X4863285Y-9141922D01*
X4863285Y-9141922D02*
X4863285Y-9132398D01*
X4863285Y-9132398D02*
X4872809Y-9113350D01*
X4872809Y-9113350D02*
X4891857Y-9103826D01*
X4891857Y-9103826D02*
X4920428Y-9103826D01*
X4920428Y-9103826D02*
X4939476Y-9113350D01*
X5015666Y-9313350D02*
X5025190Y-9303826D01*
X5025190Y-9303826D02*
X5044238Y-9275255D01*
X5044238Y-9275255D02*
X5053761Y-9256207D01*
X5053761Y-9256207D02*
X5063285Y-9227636D01*
X5063285Y-9227636D02*
X5072809Y-9180017D01*
X5072809Y-9180017D02*
X5072809Y-9141922D01*
X5072809Y-9141922D02*
X5063285Y-9094303D01*
X5063285Y-9094303D02*
X5053761Y-9065731D01*
X5053761Y-9065731D02*
X5044238Y-9046684D01*
X5044238Y-9046684D02*
X5025190Y-9018112D01*
X5025190Y-9018112D02*
X5015666Y-9008588D01*
X5377571Y-9313350D02*
X5368047Y-9303826D01*
X5368047Y-9303826D02*
X5348999Y-9275255D01*
X5348999Y-9275255D02*
X5339476Y-9256207D01*
X5339476Y-9256207D02*
X5329952Y-9227636D01*
X5329952Y-9227636D02*
X5320428Y-9180017D01*
X5320428Y-9180017D02*
X5320428Y-9141922D01*
X5320428Y-9141922D02*
X5329952Y-9094303D01*
X5329952Y-9094303D02*
X5339476Y-9065731D01*
X5339476Y-9065731D02*
X5348999Y-9046684D01*
X5348999Y-9046684D02*
X5368047Y-9018112D01*
X5368047Y-9018112D02*
X5377571Y-9008588D01*
X5453761Y-9103826D02*
X5453761Y-9237160D01*
X5453761Y-9122874D02*
X5463285Y-9113350D01*
X5463285Y-9113350D02*
X5482333Y-9103826D01*
X5482333Y-9103826D02*
X5510904Y-9103826D01*
X5510904Y-9103826D02*
X5529952Y-9113350D01*
X5529952Y-9113350D02*
X5539476Y-9132398D01*
X5539476Y-9132398D02*
X5539476Y-9237160D01*
X5663285Y-9237160D02*
X5644237Y-9227636D01*
X5644237Y-9227636D02*
X5634714Y-9218112D01*
X5634714Y-9218112D02*
X5625190Y-9199064D01*
X5625190Y-9199064D02*
X5625190Y-9141922D01*
X5625190Y-9141922D02*
X5634714Y-9122874D01*
X5634714Y-9122874D02*
X5644237Y-9113350D01*
X5644237Y-9113350D02*
X5663285Y-9103826D01*
X5663285Y-9103826D02*
X5691857Y-9103826D01*
X5691857Y-9103826D02*
X5710904Y-9113350D01*
X5710904Y-9113350D02*
X5720428Y-9122874D01*
X5720428Y-9122874D02*
X5729952Y-9141922D01*
X5729952Y-9141922D02*
X5729952Y-9199064D01*
X5729952Y-9199064D02*
X5720428Y-9218112D01*
X5720428Y-9218112D02*
X5710904Y-9227636D01*
X5710904Y-9227636D02*
X5691857Y-9237160D01*
X5691857Y-9237160D02*
X5663285Y-9237160D01*
X5787095Y-9103826D02*
X5863285Y-9103826D01*
X5815666Y-9037160D02*
X5815666Y-9208588D01*
X5815666Y-9208588D02*
X5825190Y-9227636D01*
X5825190Y-9227636D02*
X5844237Y-9237160D01*
X5844237Y-9237160D02*
X5863285Y-9237160D01*
X6082333Y-9103826D02*
X6082333Y-9303826D01*
X6082333Y-9113350D02*
X6101380Y-9103826D01*
X6101380Y-9103826D02*
X6139476Y-9103826D01*
X6139476Y-9103826D02*
X6158523Y-9113350D01*
X6158523Y-9113350D02*
X6168047Y-9122874D01*
X6168047Y-9122874D02*
X6177571Y-9141922D01*
X6177571Y-9141922D02*
X6177571Y-9199064D01*
X6177571Y-9199064D02*
X6168047Y-9218112D01*
X6168047Y-9218112D02*
X6158523Y-9227636D01*
X6158523Y-9227636D02*
X6139476Y-9237160D01*
X6139476Y-9237160D02*
X6101380Y-9237160D01*
X6101380Y-9237160D02*
X6082333Y-9227636D01*
X6291857Y-9237160D02*
X6272809Y-9227636D01*
X6272809Y-9227636D02*
X6263285Y-9208588D01*
X6263285Y-9208588D02*
X6263285Y-9037160D01*
X6453761Y-9237160D02*
X6453761Y-9132398D01*
X6453761Y-9132398D02*
X6444238Y-9113350D01*
X6444238Y-9113350D02*
X6425190Y-9103826D01*
X6425190Y-9103826D02*
X6387095Y-9103826D01*
X6387095Y-9103826D02*
X6368047Y-9113350D01*
X6453761Y-9227636D02*
X6434714Y-9237160D01*
X6434714Y-9237160D02*
X6387095Y-9237160D01*
X6387095Y-9237160D02*
X6368047Y-9227636D01*
X6368047Y-9227636D02*
X6358523Y-9208588D01*
X6358523Y-9208588D02*
X6358523Y-9189541D01*
X6358523Y-9189541D02*
X6368047Y-9170493D01*
X6368047Y-9170493D02*
X6387095Y-9160969D01*
X6387095Y-9160969D02*
X6434714Y-9160969D01*
X6434714Y-9160969D02*
X6453761Y-9151445D01*
X6520428Y-9103826D02*
X6596618Y-9103826D01*
X6548999Y-9037160D02*
X6548999Y-9208588D01*
X6548999Y-9208588D02*
X6558523Y-9227636D01*
X6558523Y-9227636D02*
X6577571Y-9237160D01*
X6577571Y-9237160D02*
X6596618Y-9237160D01*
X6739476Y-9227636D02*
X6720428Y-9237160D01*
X6720428Y-9237160D02*
X6682333Y-9237160D01*
X6682333Y-9237160D02*
X6663285Y-9227636D01*
X6663285Y-9227636D02*
X6653761Y-9208588D01*
X6653761Y-9208588D02*
X6653761Y-9132398D01*
X6653761Y-9132398D02*
X6663285Y-9113350D01*
X6663285Y-9113350D02*
X6682333Y-9103826D01*
X6682333Y-9103826D02*
X6720428Y-9103826D01*
X6720428Y-9103826D02*
X6739476Y-9113350D01*
X6739476Y-9113350D02*
X6748999Y-9132398D01*
X6748999Y-9132398D02*
X6748999Y-9151445D01*
X6748999Y-9151445D02*
X6653761Y-9170493D01*
X6920428Y-9237160D02*
X6920428Y-9037160D01*
X6920428Y-9227636D02*
X6901380Y-9237160D01*
X6901380Y-9237160D02*
X6863285Y-9237160D01*
X6863285Y-9237160D02*
X6844238Y-9227636D01*
X6844238Y-9227636D02*
X6834714Y-9218112D01*
X6834714Y-9218112D02*
X6825190Y-9199064D01*
X6825190Y-9199064D02*
X6825190Y-9141922D01*
X6825190Y-9141922D02*
X6834714Y-9122874D01*
X6834714Y-9122874D02*
X6844238Y-9113350D01*
X6844238Y-9113350D02*
X6863285Y-9103826D01*
X6863285Y-9103826D02*
X6901380Y-9103826D01*
X6901380Y-9103826D02*
X6920428Y-9113350D01*
X6996619Y-9313350D02*
X7006142Y-9303826D01*
X7006142Y-9303826D02*
X7025190Y-9275255D01*
X7025190Y-9275255D02*
X7034714Y-9256207D01*
X7034714Y-9256207D02*
X7044238Y-9227636D01*
X7044238Y-9227636D02*
X7053761Y-9180017D01*
X7053761Y-9180017D02*
X7053761Y-9141922D01*
X7053761Y-9141922D02*
X7044238Y-9094303D01*
X7044238Y-9094303D02*
X7034714Y-9065731D01*
X7034714Y-9065731D02*
X7025190Y-9046684D01*
X7025190Y-9046684D02*
X7006142Y-9018112D01*
X7006142Y-9018112D02*
X6996619Y-9008588D01*
D12*
X240603Y-9409676D02*
G75*
G02*
X165603Y-9409676I-37500J0D01*
G01*
X165603Y-9409676D02*
G75*
G02*
X240603Y-9409676I37500J0D01*
G01*
D13*
X539475Y-9301160D02*
X558523Y-9301160D01*
X558523Y-9301160D02*
X577570Y-9310684D01*
X577570Y-9310684D02*
X587094Y-9320207D01*
X587094Y-9320207D02*
X596618Y-9339255D01*
X596618Y-9339255D02*
X606142Y-9377350D01*
X606142Y-9377350D02*
X606142Y-9424969D01*
X606142Y-9424969D02*
X596618Y-9463064D01*
X596618Y-9463064D02*
X587094Y-9482112D01*
X587094Y-9482112D02*
X577570Y-9491636D01*
X577570Y-9491636D02*
X558523Y-9501160D01*
X558523Y-9501160D02*
X539475Y-9501160D01*
X539475Y-9501160D02*
X520427Y-9491636D01*
X520427Y-9491636D02*
X510904Y-9482112D01*
X510904Y-9482112D02*
X501380Y-9463064D01*
X501380Y-9463064D02*
X491856Y-9424969D01*
X491856Y-9424969D02*
X491856Y-9377350D01*
X491856Y-9377350D02*
X501380Y-9339255D01*
X501380Y-9339255D02*
X510904Y-9320207D01*
X510904Y-9320207D02*
X520427Y-9310684D01*
X520427Y-9310684D02*
X539475Y-9301160D01*
X691856Y-9482112D02*
X701380Y-9491636D01*
X701380Y-9491636D02*
X691856Y-9501160D01*
X691856Y-9501160D02*
X682332Y-9491636D01*
X682332Y-9491636D02*
X691856Y-9482112D01*
X691856Y-9482112D02*
X691856Y-9501160D01*
X768047Y-9301160D02*
X901380Y-9301160D01*
X901380Y-9301160D02*
X815666Y-9501160D01*
X1072809Y-9301160D02*
X977570Y-9301160D01*
X977570Y-9301160D02*
X968047Y-9396398D01*
X968047Y-9396398D02*
X977570Y-9386874D01*
X977570Y-9386874D02*
X996618Y-9377350D01*
X996618Y-9377350D02*
X1044237Y-9377350D01*
X1044237Y-9377350D02*
X1063285Y-9386874D01*
X1063285Y-9386874D02*
X1072809Y-9396398D01*
X1072809Y-9396398D02*
X1082332Y-9415445D01*
X1082332Y-9415445D02*
X1082332Y-9463064D01*
X1082332Y-9463064D02*
X1072809Y-9482112D01*
X1072809Y-9482112D02*
X1063285Y-9491636D01*
X1063285Y-9491636D02*
X1044237Y-9501160D01*
X1044237Y-9501160D02*
X996618Y-9501160D01*
X996618Y-9501160D02*
X977570Y-9491636D01*
X977570Y-9491636D02*
X968047Y-9482112D01*
X1206142Y-9301160D02*
X1225190Y-9301160D01*
X1225190Y-9301160D02*
X1244237Y-9310684D01*
X1244237Y-9310684D02*
X1253761Y-9320207D01*
X1253761Y-9320207D02*
X1263285Y-9339255D01*
X1263285Y-9339255D02*
X1272809Y-9377350D01*
X1272809Y-9377350D02*
X1272809Y-9424969D01*
X1272809Y-9424969D02*
X1263285Y-9463064D01*
X1263285Y-9463064D02*
X1253761Y-9482112D01*
X1253761Y-9482112D02*
X1244237Y-9491636D01*
X1244237Y-9491636D02*
X1225190Y-9501160D01*
X1225190Y-9501160D02*
X1206142Y-9501160D01*
X1206142Y-9501160D02*
X1187094Y-9491636D01*
X1187094Y-9491636D02*
X1177570Y-9482112D01*
X1177570Y-9482112D02*
X1168047Y-9463064D01*
X1168047Y-9463064D02*
X1158523Y-9424969D01*
X1158523Y-9424969D02*
X1158523Y-9377350D01*
X1158523Y-9377350D02*
X1168047Y-9339255D01*
X1168047Y-9339255D02*
X1177570Y-9320207D01*
X1177570Y-9320207D02*
X1187094Y-9310684D01*
X1187094Y-9310684D02*
X1206142Y-9301160D01*
X1358523Y-9501160D02*
X1358523Y-9367826D01*
X1358523Y-9386874D02*
X1368047Y-9377350D01*
X1368047Y-9377350D02*
X1387094Y-9367826D01*
X1387094Y-9367826D02*
X1415666Y-9367826D01*
X1415666Y-9367826D02*
X1434713Y-9377350D01*
X1434713Y-9377350D02*
X1444237Y-9396398D01*
X1444237Y-9396398D02*
X1444237Y-9501160D01*
X1444237Y-9396398D02*
X1453761Y-9377350D01*
X1453761Y-9377350D02*
X1472808Y-9367826D01*
X1472808Y-9367826D02*
X1501380Y-9367826D01*
X1501380Y-9367826D02*
X1520428Y-9377350D01*
X1520428Y-9377350D02*
X1529951Y-9396398D01*
X1529951Y-9396398D02*
X1529951Y-9501160D01*
X1625189Y-9501160D02*
X1625189Y-9367826D01*
X1625189Y-9386874D02*
X1634713Y-9377350D01*
X1634713Y-9377350D02*
X1653761Y-9367826D01*
X1653761Y-9367826D02*
X1682332Y-9367826D01*
X1682332Y-9367826D02*
X1701380Y-9377350D01*
X1701380Y-9377350D02*
X1710904Y-9396398D01*
X1710904Y-9396398D02*
X1710904Y-9501160D01*
X1710904Y-9396398D02*
X1720428Y-9377350D01*
X1720428Y-9377350D02*
X1739475Y-9367826D01*
X1739475Y-9367826D02*
X1768047Y-9367826D01*
X1768047Y-9367826D02*
X1787094Y-9377350D01*
X1787094Y-9377350D02*
X1796618Y-9396398D01*
X1796618Y-9396398D02*
X1796618Y-9501160D01*
X2187094Y-9291636D02*
X2015666Y-9548779D01*
X2444237Y-9301160D02*
X2463285Y-9301160D01*
X2463285Y-9301160D02*
X2482333Y-9310684D01*
X2482333Y-9310684D02*
X2491856Y-9320207D01*
X2491856Y-9320207D02*
X2501380Y-9339255D01*
X2501380Y-9339255D02*
X2510904Y-9377350D01*
X2510904Y-9377350D02*
X2510904Y-9424969D01*
X2510904Y-9424969D02*
X2501380Y-9463064D01*
X2501380Y-9463064D02*
X2491856Y-9482112D01*
X2491856Y-9482112D02*
X2482333Y-9491636D01*
X2482333Y-9491636D02*
X2463285Y-9501160D01*
X2463285Y-9501160D02*
X2444237Y-9501160D01*
X2444237Y-9501160D02*
X2425190Y-9491636D01*
X2425190Y-9491636D02*
X2415666Y-9482112D01*
X2415666Y-9482112D02*
X2406142Y-9463064D01*
X2406142Y-9463064D02*
X2396618Y-9424969D01*
X2396618Y-9424969D02*
X2396618Y-9377350D01*
X2396618Y-9377350D02*
X2406142Y-9339255D01*
X2406142Y-9339255D02*
X2415666Y-9320207D01*
X2415666Y-9320207D02*
X2425190Y-9310684D01*
X2425190Y-9310684D02*
X2444237Y-9301160D01*
X2596618Y-9482112D02*
X2606142Y-9491636D01*
X2606142Y-9491636D02*
X2596618Y-9501160D01*
X2596618Y-9501160D02*
X2587094Y-9491636D01*
X2587094Y-9491636D02*
X2596618Y-9482112D01*
X2596618Y-9482112D02*
X2596618Y-9501160D01*
X2729952Y-9301160D02*
X2748999Y-9301160D01*
X2748999Y-9301160D02*
X2768047Y-9310684D01*
X2768047Y-9310684D02*
X2777571Y-9320207D01*
X2777571Y-9320207D02*
X2787094Y-9339255D01*
X2787094Y-9339255D02*
X2796618Y-9377350D01*
X2796618Y-9377350D02*
X2796618Y-9424969D01*
X2796618Y-9424969D02*
X2787094Y-9463064D01*
X2787094Y-9463064D02*
X2777571Y-9482112D01*
X2777571Y-9482112D02*
X2768047Y-9491636D01*
X2768047Y-9491636D02*
X2748999Y-9501160D01*
X2748999Y-9501160D02*
X2729952Y-9501160D01*
X2729952Y-9501160D02*
X2710904Y-9491636D01*
X2710904Y-9491636D02*
X2701380Y-9482112D01*
X2701380Y-9482112D02*
X2691856Y-9463064D01*
X2691856Y-9463064D02*
X2682333Y-9424969D01*
X2682333Y-9424969D02*
X2682333Y-9377350D01*
X2682333Y-9377350D02*
X2691856Y-9339255D01*
X2691856Y-9339255D02*
X2701380Y-9320207D01*
X2701380Y-9320207D02*
X2710904Y-9310684D01*
X2710904Y-9310684D02*
X2729952Y-9301160D01*
X2872809Y-9320207D02*
X2882332Y-9310684D01*
X2882332Y-9310684D02*
X2901380Y-9301160D01*
X2901380Y-9301160D02*
X2948999Y-9301160D01*
X2948999Y-9301160D02*
X2968047Y-9310684D01*
X2968047Y-9310684D02*
X2977571Y-9320207D01*
X2977571Y-9320207D02*
X2987094Y-9339255D01*
X2987094Y-9339255D02*
X2987094Y-9358303D01*
X2987094Y-9358303D02*
X2977571Y-9386874D01*
X2977571Y-9386874D02*
X2863285Y-9501160D01*
X2863285Y-9501160D02*
X2987094Y-9501160D01*
X3082332Y-9501160D02*
X3120428Y-9501160D01*
X3120428Y-9501160D02*
X3139475Y-9491636D01*
X3139475Y-9491636D02*
X3148999Y-9482112D01*
X3148999Y-9482112D02*
X3168047Y-9453541D01*
X3168047Y-9453541D02*
X3177571Y-9415445D01*
X3177571Y-9415445D02*
X3177571Y-9339255D01*
X3177571Y-9339255D02*
X3168047Y-9320207D01*
X3168047Y-9320207D02*
X3158523Y-9310684D01*
X3158523Y-9310684D02*
X3139475Y-9301160D01*
X3139475Y-9301160D02*
X3101380Y-9301160D01*
X3101380Y-9301160D02*
X3082332Y-9310684D01*
X3082332Y-9310684D02*
X3072809Y-9320207D01*
X3072809Y-9320207D02*
X3063285Y-9339255D01*
X3063285Y-9339255D02*
X3063285Y-9386874D01*
X3063285Y-9386874D02*
X3072809Y-9405922D01*
X3072809Y-9405922D02*
X3082332Y-9415445D01*
X3082332Y-9415445D02*
X3101380Y-9424969D01*
X3101380Y-9424969D02*
X3139475Y-9424969D01*
X3139475Y-9424969D02*
X3158523Y-9415445D01*
X3158523Y-9415445D02*
X3168047Y-9405922D01*
X3168047Y-9405922D02*
X3177571Y-9386874D01*
X3358523Y-9301160D02*
X3263285Y-9301160D01*
X3263285Y-9301160D02*
X3253761Y-9396398D01*
X3253761Y-9396398D02*
X3263285Y-9386874D01*
X3263285Y-9386874D02*
X3282332Y-9377350D01*
X3282332Y-9377350D02*
X3329952Y-9377350D01*
X3329952Y-9377350D02*
X3348999Y-9386874D01*
X3348999Y-9386874D02*
X3358523Y-9396398D01*
X3358523Y-9396398D02*
X3368047Y-9415445D01*
X3368047Y-9415445D02*
X3368047Y-9463064D01*
X3368047Y-9463064D02*
X3358523Y-9482112D01*
X3358523Y-9482112D02*
X3348999Y-9491636D01*
X3348999Y-9491636D02*
X3329952Y-9501160D01*
X3329952Y-9501160D02*
X3282332Y-9501160D01*
X3282332Y-9501160D02*
X3263285Y-9491636D01*
X3263285Y-9491636D02*
X3253761Y-9482112D01*
X3444237Y-9301160D02*
X3444237Y-9339255D01*
X3520428Y-9301160D02*
X3520428Y-9339255D01*
X3815666Y-9577350D02*
X3806142Y-9567826D01*
X3806142Y-9567826D02*
X3787094Y-9539255D01*
X3787094Y-9539255D02*
X3777571Y-9520207D01*
X3777571Y-9520207D02*
X3768047Y-9491636D01*
X3768047Y-9491636D02*
X3758523Y-9444017D01*
X3758523Y-9444017D02*
X3758523Y-9405922D01*
X3758523Y-9405922D02*
X3768047Y-9358303D01*
X3768047Y-9358303D02*
X3777571Y-9329731D01*
X3777571Y-9329731D02*
X3787094Y-9310684D01*
X3787094Y-9310684D02*
X3806142Y-9282112D01*
X3806142Y-9282112D02*
X3815666Y-9272588D01*
X3977571Y-9367826D02*
X3977571Y-9501160D01*
X3929952Y-9291636D02*
X3882333Y-9434493D01*
X3882333Y-9434493D02*
X4006142Y-9434493D01*
X4234714Y-9501160D02*
X4234714Y-9301160D01*
X4320428Y-9501160D02*
X4320428Y-9396398D01*
X4320428Y-9396398D02*
X4310904Y-9377350D01*
X4310904Y-9377350D02*
X4291857Y-9367826D01*
X4291857Y-9367826D02*
X4263285Y-9367826D01*
X4263285Y-9367826D02*
X4244237Y-9377350D01*
X4244237Y-9377350D02*
X4234714Y-9386874D01*
X4444237Y-9501160D02*
X4425190Y-9491636D01*
X4425190Y-9491636D02*
X4415666Y-9482112D01*
X4415666Y-9482112D02*
X4406142Y-9463064D01*
X4406142Y-9463064D02*
X4406142Y-9405922D01*
X4406142Y-9405922D02*
X4415666Y-9386874D01*
X4415666Y-9386874D02*
X4425190Y-9377350D01*
X4425190Y-9377350D02*
X4444237Y-9367826D01*
X4444237Y-9367826D02*
X4472809Y-9367826D01*
X4472809Y-9367826D02*
X4491857Y-9377350D01*
X4491857Y-9377350D02*
X4501380Y-9386874D01*
X4501380Y-9386874D02*
X4510904Y-9405922D01*
X4510904Y-9405922D02*
X4510904Y-9463064D01*
X4510904Y-9463064D02*
X4501380Y-9482112D01*
X4501380Y-9482112D02*
X4491857Y-9491636D01*
X4491857Y-9491636D02*
X4472809Y-9501160D01*
X4472809Y-9501160D02*
X4444237Y-9501160D01*
X4625190Y-9501160D02*
X4606142Y-9491636D01*
X4606142Y-9491636D02*
X4596618Y-9472588D01*
X4596618Y-9472588D02*
X4596618Y-9301160D01*
X4777571Y-9491636D02*
X4758523Y-9501160D01*
X4758523Y-9501160D02*
X4720428Y-9501160D01*
X4720428Y-9501160D02*
X4701380Y-9491636D01*
X4701380Y-9491636D02*
X4691857Y-9472588D01*
X4691857Y-9472588D02*
X4691857Y-9396398D01*
X4691857Y-9396398D02*
X4701380Y-9377350D01*
X4701380Y-9377350D02*
X4720428Y-9367826D01*
X4720428Y-9367826D02*
X4758523Y-9367826D01*
X4758523Y-9367826D02*
X4777571Y-9377350D01*
X4777571Y-9377350D02*
X4787095Y-9396398D01*
X4787095Y-9396398D02*
X4787095Y-9415445D01*
X4787095Y-9415445D02*
X4691857Y-9434493D01*
X4863285Y-9491636D02*
X4882333Y-9501160D01*
X4882333Y-9501160D02*
X4920428Y-9501160D01*
X4920428Y-9501160D02*
X4939476Y-9491636D01*
X4939476Y-9491636D02*
X4948999Y-9472588D01*
X4948999Y-9472588D02*
X4948999Y-9463064D01*
X4948999Y-9463064D02*
X4939476Y-9444017D01*
X4939476Y-9444017D02*
X4920428Y-9434493D01*
X4920428Y-9434493D02*
X4891857Y-9434493D01*
X4891857Y-9434493D02*
X4872809Y-9424969D01*
X4872809Y-9424969D02*
X4863285Y-9405922D01*
X4863285Y-9405922D02*
X4863285Y-9396398D01*
X4863285Y-9396398D02*
X4872809Y-9377350D01*
X4872809Y-9377350D02*
X4891857Y-9367826D01*
X4891857Y-9367826D02*
X4920428Y-9367826D01*
X4920428Y-9367826D02*
X4939476Y-9377350D01*
X5015666Y-9577350D02*
X5025190Y-9567826D01*
X5025190Y-9567826D02*
X5044238Y-9539255D01*
X5044238Y-9539255D02*
X5053761Y-9520207D01*
X5053761Y-9520207D02*
X5063285Y-9491636D01*
X5063285Y-9491636D02*
X5072809Y-9444017D01*
X5072809Y-9444017D02*
X5072809Y-9405922D01*
X5072809Y-9405922D02*
X5063285Y-9358303D01*
X5063285Y-9358303D02*
X5053761Y-9329731D01*
X5053761Y-9329731D02*
X5044238Y-9310684D01*
X5044238Y-9310684D02*
X5025190Y-9282112D01*
X5025190Y-9282112D02*
X5015666Y-9272588D01*
X5377571Y-9577350D02*
X5368047Y-9567826D01*
X5368047Y-9567826D02*
X5348999Y-9539255D01*
X5348999Y-9539255D02*
X5339476Y-9520207D01*
X5339476Y-9520207D02*
X5329952Y-9491636D01*
X5329952Y-9491636D02*
X5320428Y-9444017D01*
X5320428Y-9444017D02*
X5320428Y-9405922D01*
X5320428Y-9405922D02*
X5329952Y-9358303D01*
X5329952Y-9358303D02*
X5339476Y-9329731D01*
X5339476Y-9329731D02*
X5348999Y-9310684D01*
X5348999Y-9310684D02*
X5368047Y-9282112D01*
X5368047Y-9282112D02*
X5377571Y-9272588D01*
X5453761Y-9367826D02*
X5453761Y-9501160D01*
X5453761Y-9386874D02*
X5463285Y-9377350D01*
X5463285Y-9377350D02*
X5482333Y-9367826D01*
X5482333Y-9367826D02*
X5510904Y-9367826D01*
X5510904Y-9367826D02*
X5529952Y-9377350D01*
X5529952Y-9377350D02*
X5539476Y-9396398D01*
X5539476Y-9396398D02*
X5539476Y-9501160D01*
X5663285Y-9501160D02*
X5644237Y-9491636D01*
X5644237Y-9491636D02*
X5634714Y-9482112D01*
X5634714Y-9482112D02*
X5625190Y-9463064D01*
X5625190Y-9463064D02*
X5625190Y-9405922D01*
X5625190Y-9405922D02*
X5634714Y-9386874D01*
X5634714Y-9386874D02*
X5644237Y-9377350D01*
X5644237Y-9377350D02*
X5663285Y-9367826D01*
X5663285Y-9367826D02*
X5691857Y-9367826D01*
X5691857Y-9367826D02*
X5710904Y-9377350D01*
X5710904Y-9377350D02*
X5720428Y-9386874D01*
X5720428Y-9386874D02*
X5729952Y-9405922D01*
X5729952Y-9405922D02*
X5729952Y-9463064D01*
X5729952Y-9463064D02*
X5720428Y-9482112D01*
X5720428Y-9482112D02*
X5710904Y-9491636D01*
X5710904Y-9491636D02*
X5691857Y-9501160D01*
X5691857Y-9501160D02*
X5663285Y-9501160D01*
X5787095Y-9367826D02*
X5863285Y-9367826D01*
X5815666Y-9301160D02*
X5815666Y-9472588D01*
X5815666Y-9472588D02*
X5825190Y-9491636D01*
X5825190Y-9491636D02*
X5844237Y-9501160D01*
X5844237Y-9501160D02*
X5863285Y-9501160D01*
X6082333Y-9367826D02*
X6082333Y-9567826D01*
X6082333Y-9377350D02*
X6101380Y-9367826D01*
X6101380Y-9367826D02*
X6139476Y-9367826D01*
X6139476Y-9367826D02*
X6158523Y-9377350D01*
X6158523Y-9377350D02*
X6168047Y-9386874D01*
X6168047Y-9386874D02*
X6177571Y-9405922D01*
X6177571Y-9405922D02*
X6177571Y-9463064D01*
X6177571Y-9463064D02*
X6168047Y-9482112D01*
X6168047Y-9482112D02*
X6158523Y-9491636D01*
X6158523Y-9491636D02*
X6139476Y-9501160D01*
X6139476Y-9501160D02*
X6101380Y-9501160D01*
X6101380Y-9501160D02*
X6082333Y-9491636D01*
X6291857Y-9501160D02*
X6272809Y-9491636D01*
X6272809Y-9491636D02*
X6263285Y-9472588D01*
X6263285Y-9472588D02*
X6263285Y-9301160D01*
X6453761Y-9501160D02*
X6453761Y-9396398D01*
X6453761Y-9396398D02*
X6444238Y-9377350D01*
X6444238Y-9377350D02*
X6425190Y-9367826D01*
X6425190Y-9367826D02*
X6387095Y-9367826D01*
X6387095Y-9367826D02*
X6368047Y-9377350D01*
X6453761Y-9491636D02*
X6434714Y-9501160D01*
X6434714Y-9501160D02*
X6387095Y-9501160D01*
X6387095Y-9501160D02*
X6368047Y-9491636D01*
X6368047Y-9491636D02*
X6358523Y-9472588D01*
X6358523Y-9472588D02*
X6358523Y-9453541D01*
X6358523Y-9453541D02*
X6368047Y-9434493D01*
X6368047Y-9434493D02*
X6387095Y-9424969D01*
X6387095Y-9424969D02*
X6434714Y-9424969D01*
X6434714Y-9424969D02*
X6453761Y-9415445D01*
X6520428Y-9367826D02*
X6596618Y-9367826D01*
X6548999Y-9301160D02*
X6548999Y-9472588D01*
X6548999Y-9472588D02*
X6558523Y-9491636D01*
X6558523Y-9491636D02*
X6577571Y-9501160D01*
X6577571Y-9501160D02*
X6596618Y-9501160D01*
X6739476Y-9491636D02*
X6720428Y-9501160D01*
X6720428Y-9501160D02*
X6682333Y-9501160D01*
X6682333Y-9501160D02*
X6663285Y-9491636D01*
X6663285Y-9491636D02*
X6653761Y-9472588D01*
X6653761Y-9472588D02*
X6653761Y-9396398D01*
X6653761Y-9396398D02*
X6663285Y-9377350D01*
X6663285Y-9377350D02*
X6682333Y-9367826D01*
X6682333Y-9367826D02*
X6720428Y-9367826D01*
X6720428Y-9367826D02*
X6739476Y-9377350D01*
X6739476Y-9377350D02*
X6748999Y-9396398D01*
X6748999Y-9396398D02*
X6748999Y-9415445D01*
X6748999Y-9415445D02*
X6653761Y-9434493D01*
X6920428Y-9501160D02*
X6920428Y-9301160D01*
X6920428Y-9491636D02*
X6901380Y-9501160D01*
X6901380Y-9501160D02*
X6863285Y-9501160D01*
X6863285Y-9501160D02*
X6844238Y-9491636D01*
X6844238Y-9491636D02*
X6834714Y-9482112D01*
X6834714Y-9482112D02*
X6825190Y-9463064D01*
X6825190Y-9463064D02*
X6825190Y-9405922D01*
X6825190Y-9405922D02*
X6834714Y-9386874D01*
X6834714Y-9386874D02*
X6844238Y-9377350D01*
X6844238Y-9377350D02*
X6863285Y-9367826D01*
X6863285Y-9367826D02*
X6901380Y-9367826D01*
X6901380Y-9367826D02*
X6920428Y-9377350D01*
X6996619Y-9577350D02*
X7006142Y-9567826D01*
X7006142Y-9567826D02*
X7025190Y-9539255D01*
X7025190Y-9539255D02*
X7034714Y-9520207D01*
X7034714Y-9520207D02*
X7044238Y-9491636D01*
X7044238Y-9491636D02*
X7053761Y-9444017D01*
X7053761Y-9444017D02*
X7053761Y-9405922D01*
X7053761Y-9405922D02*
X7044238Y-9358303D01*
X7044238Y-9358303D02*
X7034714Y-9329731D01*
X7034714Y-9329731D02*
X7025190Y-9310684D01*
X7025190Y-9310684D02*
X7006142Y-9282112D01*
X7006142Y-9282112D02*
X6996619Y-9272588D01*
D12*
X191073Y-9624146D02*
X191073Y-9723206D01*
X141543Y-9673676D02*
X240603Y-9673676D01*
D13*
X539475Y-9565160D02*
X558523Y-9565160D01*
X558523Y-9565160D02*
X577570Y-9574684D01*
X577570Y-9574684D02*
X587094Y-9584207D01*
X587094Y-9584207D02*
X596618Y-9603255D01*
X596618Y-9603255D02*
X606142Y-9641350D01*
X606142Y-9641350D02*
X606142Y-9688969D01*
X606142Y-9688969D02*
X596618Y-9727064D01*
X596618Y-9727064D02*
X587094Y-9746112D01*
X587094Y-9746112D02*
X577570Y-9755636D01*
X577570Y-9755636D02*
X558523Y-9765160D01*
X558523Y-9765160D02*
X539475Y-9765160D01*
X539475Y-9765160D02*
X520427Y-9755636D01*
X520427Y-9755636D02*
X510904Y-9746112D01*
X510904Y-9746112D02*
X501380Y-9727064D01*
X501380Y-9727064D02*
X491856Y-9688969D01*
X491856Y-9688969D02*
X491856Y-9641350D01*
X491856Y-9641350D02*
X501380Y-9603255D01*
X501380Y-9603255D02*
X510904Y-9584207D01*
X510904Y-9584207D02*
X520427Y-9574684D01*
X520427Y-9574684D02*
X539475Y-9565160D01*
X691856Y-9746112D02*
X701380Y-9755636D01*
X701380Y-9755636D02*
X691856Y-9765160D01*
X691856Y-9765160D02*
X682332Y-9755636D01*
X682332Y-9755636D02*
X691856Y-9746112D01*
X691856Y-9746112D02*
X691856Y-9765160D01*
X796618Y-9765160D02*
X834713Y-9765160D01*
X834713Y-9765160D02*
X853761Y-9755636D01*
X853761Y-9755636D02*
X863285Y-9746112D01*
X863285Y-9746112D02*
X882332Y-9717541D01*
X882332Y-9717541D02*
X891856Y-9679445D01*
X891856Y-9679445D02*
X891856Y-9603255D01*
X891856Y-9603255D02*
X882332Y-9584207D01*
X882332Y-9584207D02*
X872808Y-9574684D01*
X872808Y-9574684D02*
X853761Y-9565160D01*
X853761Y-9565160D02*
X815666Y-9565160D01*
X815666Y-9565160D02*
X796618Y-9574684D01*
X796618Y-9574684D02*
X787094Y-9584207D01*
X787094Y-9584207D02*
X777570Y-9603255D01*
X777570Y-9603255D02*
X777570Y-9650874D01*
X777570Y-9650874D02*
X787094Y-9669922D01*
X787094Y-9669922D02*
X796618Y-9679445D01*
X796618Y-9679445D02*
X815666Y-9688969D01*
X815666Y-9688969D02*
X853761Y-9688969D01*
X853761Y-9688969D02*
X872808Y-9679445D01*
X872808Y-9679445D02*
X882332Y-9669922D01*
X882332Y-9669922D02*
X891856Y-9650874D01*
X987094Y-9765160D02*
X1025189Y-9765160D01*
X1025189Y-9765160D02*
X1044237Y-9755636D01*
X1044237Y-9755636D02*
X1053761Y-9746112D01*
X1053761Y-9746112D02*
X1072809Y-9717541D01*
X1072809Y-9717541D02*
X1082332Y-9679445D01*
X1082332Y-9679445D02*
X1082332Y-9603255D01*
X1082332Y-9603255D02*
X1072809Y-9584207D01*
X1072809Y-9584207D02*
X1063285Y-9574684D01*
X1063285Y-9574684D02*
X1044237Y-9565160D01*
X1044237Y-9565160D02*
X1006142Y-9565160D01*
X1006142Y-9565160D02*
X987094Y-9574684D01*
X987094Y-9574684D02*
X977570Y-9584207D01*
X977570Y-9584207D02*
X968047Y-9603255D01*
X968047Y-9603255D02*
X968047Y-9650874D01*
X968047Y-9650874D02*
X977570Y-9669922D01*
X977570Y-9669922D02*
X987094Y-9679445D01*
X987094Y-9679445D02*
X1006142Y-9688969D01*
X1006142Y-9688969D02*
X1044237Y-9688969D01*
X1044237Y-9688969D02*
X1063285Y-9679445D01*
X1063285Y-9679445D02*
X1072809Y-9669922D01*
X1072809Y-9669922D02*
X1082332Y-9650874D01*
X1272809Y-9765160D02*
X1158523Y-9765160D01*
X1215666Y-9765160D02*
X1215666Y-9565160D01*
X1215666Y-9565160D02*
X1196618Y-9593731D01*
X1196618Y-9593731D02*
X1177570Y-9612779D01*
X1177570Y-9612779D02*
X1158523Y-9622303D01*
X1358523Y-9765160D02*
X1358523Y-9631826D01*
X1358523Y-9650874D02*
X1368047Y-9641350D01*
X1368047Y-9641350D02*
X1387094Y-9631826D01*
X1387094Y-9631826D02*
X1415666Y-9631826D01*
X1415666Y-9631826D02*
X1434713Y-9641350D01*
X1434713Y-9641350D02*
X1444237Y-9660398D01*
X1444237Y-9660398D02*
X1444237Y-9765160D01*
X1444237Y-9660398D02*
X1453761Y-9641350D01*
X1453761Y-9641350D02*
X1472808Y-9631826D01*
X1472808Y-9631826D02*
X1501380Y-9631826D01*
X1501380Y-9631826D02*
X1520428Y-9641350D01*
X1520428Y-9641350D02*
X1529951Y-9660398D01*
X1529951Y-9660398D02*
X1529951Y-9765160D01*
X1625189Y-9765160D02*
X1625189Y-9631826D01*
X1625189Y-9650874D02*
X1634713Y-9641350D01*
X1634713Y-9641350D02*
X1653761Y-9631826D01*
X1653761Y-9631826D02*
X1682332Y-9631826D01*
X1682332Y-9631826D02*
X1701380Y-9641350D01*
X1701380Y-9641350D02*
X1710904Y-9660398D01*
X1710904Y-9660398D02*
X1710904Y-9765160D01*
X1710904Y-9660398D02*
X1720428Y-9641350D01*
X1720428Y-9641350D02*
X1739475Y-9631826D01*
X1739475Y-9631826D02*
X1768047Y-9631826D01*
X1768047Y-9631826D02*
X1787094Y-9641350D01*
X1787094Y-9641350D02*
X1796618Y-9660398D01*
X1796618Y-9660398D02*
X1796618Y-9765160D01*
X2187094Y-9555636D02*
X2015666Y-9812779D01*
X2444237Y-9565160D02*
X2463285Y-9565160D01*
X2463285Y-9565160D02*
X2482333Y-9574684D01*
X2482333Y-9574684D02*
X2491856Y-9584207D01*
X2491856Y-9584207D02*
X2501380Y-9603255D01*
X2501380Y-9603255D02*
X2510904Y-9641350D01*
X2510904Y-9641350D02*
X2510904Y-9688969D01*
X2510904Y-9688969D02*
X2501380Y-9727064D01*
X2501380Y-9727064D02*
X2491856Y-9746112D01*
X2491856Y-9746112D02*
X2482333Y-9755636D01*
X2482333Y-9755636D02*
X2463285Y-9765160D01*
X2463285Y-9765160D02*
X2444237Y-9765160D01*
X2444237Y-9765160D02*
X2425190Y-9755636D01*
X2425190Y-9755636D02*
X2415666Y-9746112D01*
X2415666Y-9746112D02*
X2406142Y-9727064D01*
X2406142Y-9727064D02*
X2396618Y-9688969D01*
X2396618Y-9688969D02*
X2396618Y-9641350D01*
X2396618Y-9641350D02*
X2406142Y-9603255D01*
X2406142Y-9603255D02*
X2415666Y-9584207D01*
X2415666Y-9584207D02*
X2425190Y-9574684D01*
X2425190Y-9574684D02*
X2444237Y-9565160D01*
X2596618Y-9746112D02*
X2606142Y-9755636D01*
X2606142Y-9755636D02*
X2596618Y-9765160D01*
X2596618Y-9765160D02*
X2587094Y-9755636D01*
X2587094Y-9755636D02*
X2596618Y-9746112D01*
X2596618Y-9746112D02*
X2596618Y-9765160D01*
X2729952Y-9565160D02*
X2748999Y-9565160D01*
X2748999Y-9565160D02*
X2768047Y-9574684D01*
X2768047Y-9574684D02*
X2777571Y-9584207D01*
X2777571Y-9584207D02*
X2787094Y-9603255D01*
X2787094Y-9603255D02*
X2796618Y-9641350D01*
X2796618Y-9641350D02*
X2796618Y-9688969D01*
X2796618Y-9688969D02*
X2787094Y-9727064D01*
X2787094Y-9727064D02*
X2777571Y-9746112D01*
X2777571Y-9746112D02*
X2768047Y-9755636D01*
X2768047Y-9755636D02*
X2748999Y-9765160D01*
X2748999Y-9765160D02*
X2729952Y-9765160D01*
X2729952Y-9765160D02*
X2710904Y-9755636D01*
X2710904Y-9755636D02*
X2701380Y-9746112D01*
X2701380Y-9746112D02*
X2691856Y-9727064D01*
X2691856Y-9727064D02*
X2682333Y-9688969D01*
X2682333Y-9688969D02*
X2682333Y-9641350D01*
X2682333Y-9641350D02*
X2691856Y-9603255D01*
X2691856Y-9603255D02*
X2701380Y-9584207D01*
X2701380Y-9584207D02*
X2710904Y-9574684D01*
X2710904Y-9574684D02*
X2729952Y-9565160D01*
X2863285Y-9565160D02*
X2987094Y-9565160D01*
X2987094Y-9565160D02*
X2920428Y-9641350D01*
X2920428Y-9641350D02*
X2948999Y-9641350D01*
X2948999Y-9641350D02*
X2968047Y-9650874D01*
X2968047Y-9650874D02*
X2977571Y-9660398D01*
X2977571Y-9660398D02*
X2987094Y-9679445D01*
X2987094Y-9679445D02*
X2987094Y-9727064D01*
X2987094Y-9727064D02*
X2977571Y-9746112D01*
X2977571Y-9746112D02*
X2968047Y-9755636D01*
X2968047Y-9755636D02*
X2948999Y-9765160D01*
X2948999Y-9765160D02*
X2891856Y-9765160D01*
X2891856Y-9765160D02*
X2872809Y-9755636D01*
X2872809Y-9755636D02*
X2863285Y-9746112D01*
X3082332Y-9765160D02*
X3120428Y-9765160D01*
X3120428Y-9765160D02*
X3139475Y-9755636D01*
X3139475Y-9755636D02*
X3148999Y-9746112D01*
X3148999Y-9746112D02*
X3168047Y-9717541D01*
X3168047Y-9717541D02*
X3177571Y-9679445D01*
X3177571Y-9679445D02*
X3177571Y-9603255D01*
X3177571Y-9603255D02*
X3168047Y-9584207D01*
X3168047Y-9584207D02*
X3158523Y-9574684D01*
X3158523Y-9574684D02*
X3139475Y-9565160D01*
X3139475Y-9565160D02*
X3101380Y-9565160D01*
X3101380Y-9565160D02*
X3082332Y-9574684D01*
X3082332Y-9574684D02*
X3072809Y-9584207D01*
X3072809Y-9584207D02*
X3063285Y-9603255D01*
X3063285Y-9603255D02*
X3063285Y-9650874D01*
X3063285Y-9650874D02*
X3072809Y-9669922D01*
X3072809Y-9669922D02*
X3082332Y-9679445D01*
X3082332Y-9679445D02*
X3101380Y-9688969D01*
X3101380Y-9688969D02*
X3139475Y-9688969D01*
X3139475Y-9688969D02*
X3158523Y-9679445D01*
X3158523Y-9679445D02*
X3168047Y-9669922D01*
X3168047Y-9669922D02*
X3177571Y-9650874D01*
X3301380Y-9565160D02*
X3320428Y-9565160D01*
X3320428Y-9565160D02*
X3339475Y-9574684D01*
X3339475Y-9574684D02*
X3348999Y-9584207D01*
X3348999Y-9584207D02*
X3358523Y-9603255D01*
X3358523Y-9603255D02*
X3368047Y-9641350D01*
X3368047Y-9641350D02*
X3368047Y-9688969D01*
X3368047Y-9688969D02*
X3358523Y-9727064D01*
X3358523Y-9727064D02*
X3348999Y-9746112D01*
X3348999Y-9746112D02*
X3339475Y-9755636D01*
X3339475Y-9755636D02*
X3320428Y-9765160D01*
X3320428Y-9765160D02*
X3301380Y-9765160D01*
X3301380Y-9765160D02*
X3282332Y-9755636D01*
X3282332Y-9755636D02*
X3272809Y-9746112D01*
X3272809Y-9746112D02*
X3263285Y-9727064D01*
X3263285Y-9727064D02*
X3253761Y-9688969D01*
X3253761Y-9688969D02*
X3253761Y-9641350D01*
X3253761Y-9641350D02*
X3263285Y-9603255D01*
X3263285Y-9603255D02*
X3272809Y-9584207D01*
X3272809Y-9584207D02*
X3282332Y-9574684D01*
X3282332Y-9574684D02*
X3301380Y-9565160D01*
X3444237Y-9565160D02*
X3444237Y-9603255D01*
X3520428Y-9565160D02*
X3520428Y-9603255D01*
X3815666Y-9841350D02*
X3806142Y-9831826D01*
X3806142Y-9831826D02*
X3787094Y-9803255D01*
X3787094Y-9803255D02*
X3777571Y-9784207D01*
X3777571Y-9784207D02*
X3768047Y-9755636D01*
X3768047Y-9755636D02*
X3758523Y-9708017D01*
X3758523Y-9708017D02*
X3758523Y-9669922D01*
X3758523Y-9669922D02*
X3768047Y-9622303D01*
X3768047Y-9622303D02*
X3777571Y-9593731D01*
X3777571Y-9593731D02*
X3787094Y-9574684D01*
X3787094Y-9574684D02*
X3806142Y-9546112D01*
X3806142Y-9546112D02*
X3815666Y-9536588D01*
X3872809Y-9565160D02*
X3996618Y-9565160D01*
X3996618Y-9565160D02*
X3929952Y-9641350D01*
X3929952Y-9641350D02*
X3958523Y-9641350D01*
X3958523Y-9641350D02*
X3977571Y-9650874D01*
X3977571Y-9650874D02*
X3987094Y-9660398D01*
X3987094Y-9660398D02*
X3996618Y-9679445D01*
X3996618Y-9679445D02*
X3996618Y-9727064D01*
X3996618Y-9727064D02*
X3987094Y-9746112D01*
X3987094Y-9746112D02*
X3977571Y-9755636D01*
X3977571Y-9755636D02*
X3958523Y-9765160D01*
X3958523Y-9765160D02*
X3901380Y-9765160D01*
X3901380Y-9765160D02*
X3882333Y-9755636D01*
X3882333Y-9755636D02*
X3872809Y-9746112D01*
X4234714Y-9765160D02*
X4234714Y-9565160D01*
X4320428Y-9765160D02*
X4320428Y-9660398D01*
X4320428Y-9660398D02*
X4310904Y-9641350D01*
X4310904Y-9641350D02*
X4291857Y-9631826D01*
X4291857Y-9631826D02*
X4263285Y-9631826D01*
X4263285Y-9631826D02*
X4244237Y-9641350D01*
X4244237Y-9641350D02*
X4234714Y-9650874D01*
X4444237Y-9765160D02*
X4425190Y-9755636D01*
X4425190Y-9755636D02*
X4415666Y-9746112D01*
X4415666Y-9746112D02*
X4406142Y-9727064D01*
X4406142Y-9727064D02*
X4406142Y-9669922D01*
X4406142Y-9669922D02*
X4415666Y-9650874D01*
X4415666Y-9650874D02*
X4425190Y-9641350D01*
X4425190Y-9641350D02*
X4444237Y-9631826D01*
X4444237Y-9631826D02*
X4472809Y-9631826D01*
X4472809Y-9631826D02*
X4491857Y-9641350D01*
X4491857Y-9641350D02*
X4501380Y-9650874D01*
X4501380Y-9650874D02*
X4510904Y-9669922D01*
X4510904Y-9669922D02*
X4510904Y-9727064D01*
X4510904Y-9727064D02*
X4501380Y-9746112D01*
X4501380Y-9746112D02*
X4491857Y-9755636D01*
X4491857Y-9755636D02*
X4472809Y-9765160D01*
X4472809Y-9765160D02*
X4444237Y-9765160D01*
X4625190Y-9765160D02*
X4606142Y-9755636D01*
X4606142Y-9755636D02*
X4596618Y-9736588D01*
X4596618Y-9736588D02*
X4596618Y-9565160D01*
X4777571Y-9755636D02*
X4758523Y-9765160D01*
X4758523Y-9765160D02*
X4720428Y-9765160D01*
X4720428Y-9765160D02*
X4701380Y-9755636D01*
X4701380Y-9755636D02*
X4691857Y-9736588D01*
X4691857Y-9736588D02*
X4691857Y-9660398D01*
X4691857Y-9660398D02*
X4701380Y-9641350D01*
X4701380Y-9641350D02*
X4720428Y-9631826D01*
X4720428Y-9631826D02*
X4758523Y-9631826D01*
X4758523Y-9631826D02*
X4777571Y-9641350D01*
X4777571Y-9641350D02*
X4787095Y-9660398D01*
X4787095Y-9660398D02*
X4787095Y-9679445D01*
X4787095Y-9679445D02*
X4691857Y-9698493D01*
X4863285Y-9755636D02*
X4882333Y-9765160D01*
X4882333Y-9765160D02*
X4920428Y-9765160D01*
X4920428Y-9765160D02*
X4939476Y-9755636D01*
X4939476Y-9755636D02*
X4948999Y-9736588D01*
X4948999Y-9736588D02*
X4948999Y-9727064D01*
X4948999Y-9727064D02*
X4939476Y-9708017D01*
X4939476Y-9708017D02*
X4920428Y-9698493D01*
X4920428Y-9698493D02*
X4891857Y-9698493D01*
X4891857Y-9698493D02*
X4872809Y-9688969D01*
X4872809Y-9688969D02*
X4863285Y-9669922D01*
X4863285Y-9669922D02*
X4863285Y-9660398D01*
X4863285Y-9660398D02*
X4872809Y-9641350D01*
X4872809Y-9641350D02*
X4891857Y-9631826D01*
X4891857Y-9631826D02*
X4920428Y-9631826D01*
X4920428Y-9631826D02*
X4939476Y-9641350D01*
X5015666Y-9841350D02*
X5025190Y-9831826D01*
X5025190Y-9831826D02*
X5044238Y-9803255D01*
X5044238Y-9803255D02*
X5053761Y-9784207D01*
X5053761Y-9784207D02*
X5063285Y-9755636D01*
X5063285Y-9755636D02*
X5072809Y-9708017D01*
X5072809Y-9708017D02*
X5072809Y-9669922D01*
X5072809Y-9669922D02*
X5063285Y-9622303D01*
X5063285Y-9622303D02*
X5053761Y-9593731D01*
X5053761Y-9593731D02*
X5044238Y-9574684D01*
X5044238Y-9574684D02*
X5025190Y-9546112D01*
X5025190Y-9546112D02*
X5015666Y-9536588D01*
X5377571Y-9841350D02*
X5368047Y-9831826D01*
X5368047Y-9831826D02*
X5348999Y-9803255D01*
X5348999Y-9803255D02*
X5339476Y-9784207D01*
X5339476Y-9784207D02*
X5329952Y-9755636D01*
X5329952Y-9755636D02*
X5320428Y-9708017D01*
X5320428Y-9708017D02*
X5320428Y-9669922D01*
X5320428Y-9669922D02*
X5329952Y-9622303D01*
X5329952Y-9622303D02*
X5339476Y-9593731D01*
X5339476Y-9593731D02*
X5348999Y-9574684D01*
X5348999Y-9574684D02*
X5368047Y-9546112D01*
X5368047Y-9546112D02*
X5377571Y-9536588D01*
X5453761Y-9631826D02*
X5453761Y-9765160D01*
X5453761Y-9650874D02*
X5463285Y-9641350D01*
X5463285Y-9641350D02*
X5482333Y-9631826D01*
X5482333Y-9631826D02*
X5510904Y-9631826D01*
X5510904Y-9631826D02*
X5529952Y-9641350D01*
X5529952Y-9641350D02*
X5539476Y-9660398D01*
X5539476Y-9660398D02*
X5539476Y-9765160D01*
X5663285Y-9765160D02*
X5644237Y-9755636D01*
X5644237Y-9755636D02*
X5634714Y-9746112D01*
X5634714Y-9746112D02*
X5625190Y-9727064D01*
X5625190Y-9727064D02*
X5625190Y-9669922D01*
X5625190Y-9669922D02*
X5634714Y-9650874D01*
X5634714Y-9650874D02*
X5644237Y-9641350D01*
X5644237Y-9641350D02*
X5663285Y-9631826D01*
X5663285Y-9631826D02*
X5691857Y-9631826D01*
X5691857Y-9631826D02*
X5710904Y-9641350D01*
X5710904Y-9641350D02*
X5720428Y-9650874D01*
X5720428Y-9650874D02*
X5729952Y-9669922D01*
X5729952Y-9669922D02*
X5729952Y-9727064D01*
X5729952Y-9727064D02*
X5720428Y-9746112D01*
X5720428Y-9746112D02*
X5710904Y-9755636D01*
X5710904Y-9755636D02*
X5691857Y-9765160D01*
X5691857Y-9765160D02*
X5663285Y-9765160D01*
X5787095Y-9631826D02*
X5863285Y-9631826D01*
X5815666Y-9565160D02*
X5815666Y-9736588D01*
X5815666Y-9736588D02*
X5825190Y-9755636D01*
X5825190Y-9755636D02*
X5844237Y-9765160D01*
X5844237Y-9765160D02*
X5863285Y-9765160D01*
X6082333Y-9631826D02*
X6082333Y-9831826D01*
X6082333Y-9641350D02*
X6101380Y-9631826D01*
X6101380Y-9631826D02*
X6139476Y-9631826D01*
X6139476Y-9631826D02*
X6158523Y-9641350D01*
X6158523Y-9641350D02*
X6168047Y-9650874D01*
X6168047Y-9650874D02*
X6177571Y-9669922D01*
X6177571Y-9669922D02*
X6177571Y-9727064D01*
X6177571Y-9727064D02*
X6168047Y-9746112D01*
X6168047Y-9746112D02*
X6158523Y-9755636D01*
X6158523Y-9755636D02*
X6139476Y-9765160D01*
X6139476Y-9765160D02*
X6101380Y-9765160D01*
X6101380Y-9765160D02*
X6082333Y-9755636D01*
X6291857Y-9765160D02*
X6272809Y-9755636D01*
X6272809Y-9755636D02*
X6263285Y-9736588D01*
X6263285Y-9736588D02*
X6263285Y-9565160D01*
X6453761Y-9765160D02*
X6453761Y-9660398D01*
X6453761Y-9660398D02*
X6444238Y-9641350D01*
X6444238Y-9641350D02*
X6425190Y-9631826D01*
X6425190Y-9631826D02*
X6387095Y-9631826D01*
X6387095Y-9631826D02*
X6368047Y-9641350D01*
X6453761Y-9755636D02*
X6434714Y-9765160D01*
X6434714Y-9765160D02*
X6387095Y-9765160D01*
X6387095Y-9765160D02*
X6368047Y-9755636D01*
X6368047Y-9755636D02*
X6358523Y-9736588D01*
X6358523Y-9736588D02*
X6358523Y-9717541D01*
X6358523Y-9717541D02*
X6368047Y-9698493D01*
X6368047Y-9698493D02*
X6387095Y-9688969D01*
X6387095Y-9688969D02*
X6434714Y-9688969D01*
X6434714Y-9688969D02*
X6453761Y-9679445D01*
X6520428Y-9631826D02*
X6596618Y-9631826D01*
X6548999Y-9565160D02*
X6548999Y-9736588D01*
X6548999Y-9736588D02*
X6558523Y-9755636D01*
X6558523Y-9755636D02*
X6577571Y-9765160D01*
X6577571Y-9765160D02*
X6596618Y-9765160D01*
X6739476Y-9755636D02*
X6720428Y-9765160D01*
X6720428Y-9765160D02*
X6682333Y-9765160D01*
X6682333Y-9765160D02*
X6663285Y-9755636D01*
X6663285Y-9755636D02*
X6653761Y-9736588D01*
X6653761Y-9736588D02*
X6653761Y-9660398D01*
X6653761Y-9660398D02*
X6663285Y-9641350D01*
X6663285Y-9641350D02*
X6682333Y-9631826D01*
X6682333Y-9631826D02*
X6720428Y-9631826D01*
X6720428Y-9631826D02*
X6739476Y-9641350D01*
X6739476Y-9641350D02*
X6748999Y-9660398D01*
X6748999Y-9660398D02*
X6748999Y-9679445D01*
X6748999Y-9679445D02*
X6653761Y-9698493D01*
X6920428Y-9765160D02*
X6920428Y-9565160D01*
X6920428Y-9755636D02*
X6901380Y-9765160D01*
X6901380Y-9765160D02*
X6863285Y-9765160D01*
X6863285Y-9765160D02*
X6844238Y-9755636D01*
X6844238Y-9755636D02*
X6834714Y-9746112D01*
X6834714Y-9746112D02*
X6825190Y-9727064D01*
X6825190Y-9727064D02*
X6825190Y-9669922D01*
X6825190Y-9669922D02*
X6834714Y-9650874D01*
X6834714Y-9650874D02*
X6844238Y-9641350D01*
X6844238Y-9641350D02*
X6863285Y-9631826D01*
X6863285Y-9631826D02*
X6901380Y-9631826D01*
X6901380Y-9631826D02*
X6920428Y-9641350D01*
X6996619Y-9841350D02*
X7006142Y-9831826D01*
X7006142Y-9831826D02*
X7025190Y-9803255D01*
X7025190Y-9803255D02*
X7034714Y-9784207D01*
X7034714Y-9784207D02*
X7044238Y-9755636D01*
X7044238Y-9755636D02*
X7053761Y-9708017D01*
X7053761Y-9708017D02*
X7053761Y-9669922D01*
X7053761Y-9669922D02*
X7044238Y-9622303D01*
X7044238Y-9622303D02*
X7034714Y-9593731D01*
X7034714Y-9593731D02*
X7025190Y-9574684D01*
X7025190Y-9574684D02*
X7006142Y-9546112D01*
X7006142Y-9546112D02*
X6996619Y-9536588D01*
X211314Y-10008387D02*
X211314Y-9866965D01*
X69892Y-9866965D01*
X69892Y-10008387D01*
X211314Y-10008387D01*
X491856Y-9848207D02*
X501380Y-9838684D01*
X501380Y-9838684D02*
X520427Y-9829160D01*
X520427Y-9829160D02*
X568047Y-9829160D01*
X568047Y-9829160D02*
X587094Y-9838684D01*
X587094Y-9838684D02*
X596618Y-9848207D01*
X596618Y-9848207D02*
X606142Y-9867255D01*
X606142Y-9867255D02*
X606142Y-9886303D01*
X606142Y-9886303D02*
X596618Y-9914874D01*
X596618Y-9914874D02*
X482332Y-10029160D01*
X482332Y-10029160D02*
X606142Y-10029160D01*
X691856Y-10010112D02*
X701380Y-10019636D01*
X701380Y-10019636D02*
X691856Y-10029160D01*
X691856Y-10029160D02*
X682332Y-10019636D01*
X682332Y-10019636D02*
X691856Y-10010112D01*
X691856Y-10010112D02*
X691856Y-10029160D01*
X777570Y-9848207D02*
X787094Y-9838684D01*
X787094Y-9838684D02*
X806142Y-9829160D01*
X806142Y-9829160D02*
X853761Y-9829160D01*
X853761Y-9829160D02*
X872808Y-9838684D01*
X872808Y-9838684D02*
X882332Y-9848207D01*
X882332Y-9848207D02*
X891856Y-9867255D01*
X891856Y-9867255D02*
X891856Y-9886303D01*
X891856Y-9886303D02*
X882332Y-9914874D01*
X882332Y-9914874D02*
X768047Y-10029160D01*
X768047Y-10029160D02*
X891856Y-10029160D01*
X1015666Y-9829160D02*
X1034713Y-9829160D01*
X1034713Y-9829160D02*
X1053761Y-9838684D01*
X1053761Y-9838684D02*
X1063285Y-9848207D01*
X1063285Y-9848207D02*
X1072809Y-9867255D01*
X1072809Y-9867255D02*
X1082332Y-9905350D01*
X1082332Y-9905350D02*
X1082332Y-9952969D01*
X1082332Y-9952969D02*
X1072809Y-9991064D01*
X1072809Y-9991064D02*
X1063285Y-10010112D01*
X1063285Y-10010112D02*
X1053761Y-10019636D01*
X1053761Y-10019636D02*
X1034713Y-10029160D01*
X1034713Y-10029160D02*
X1015666Y-10029160D01*
X1015666Y-10029160D02*
X996618Y-10019636D01*
X996618Y-10019636D02*
X987094Y-10010112D01*
X987094Y-10010112D02*
X977570Y-9991064D01*
X977570Y-9991064D02*
X968047Y-9952969D01*
X968047Y-9952969D02*
X968047Y-9905350D01*
X968047Y-9905350D02*
X977570Y-9867255D01*
X977570Y-9867255D02*
X987094Y-9848207D01*
X987094Y-9848207D02*
X996618Y-9838684D01*
X996618Y-9838684D02*
X1015666Y-9829160D01*
X1206142Y-9829160D02*
X1225190Y-9829160D01*
X1225190Y-9829160D02*
X1244237Y-9838684D01*
X1244237Y-9838684D02*
X1253761Y-9848207D01*
X1253761Y-9848207D02*
X1263285Y-9867255D01*
X1263285Y-9867255D02*
X1272809Y-9905350D01*
X1272809Y-9905350D02*
X1272809Y-9952969D01*
X1272809Y-9952969D02*
X1263285Y-9991064D01*
X1263285Y-9991064D02*
X1253761Y-10010112D01*
X1253761Y-10010112D02*
X1244237Y-10019636D01*
X1244237Y-10019636D02*
X1225190Y-10029160D01*
X1225190Y-10029160D02*
X1206142Y-10029160D01*
X1206142Y-10029160D02*
X1187094Y-10019636D01*
X1187094Y-10019636D02*
X1177570Y-10010112D01*
X1177570Y-10010112D02*
X1168047Y-9991064D01*
X1168047Y-9991064D02*
X1158523Y-9952969D01*
X1158523Y-9952969D02*
X1158523Y-9905350D01*
X1158523Y-9905350D02*
X1168047Y-9867255D01*
X1168047Y-9867255D02*
X1177570Y-9848207D01*
X1177570Y-9848207D02*
X1187094Y-9838684D01*
X1187094Y-9838684D02*
X1206142Y-9829160D01*
X1358523Y-10029160D02*
X1358523Y-9895826D01*
X1358523Y-9914874D02*
X1368047Y-9905350D01*
X1368047Y-9905350D02*
X1387094Y-9895826D01*
X1387094Y-9895826D02*
X1415666Y-9895826D01*
X1415666Y-9895826D02*
X1434713Y-9905350D01*
X1434713Y-9905350D02*
X1444237Y-9924398D01*
X1444237Y-9924398D02*
X1444237Y-10029160D01*
X1444237Y-9924398D02*
X1453761Y-9905350D01*
X1453761Y-9905350D02*
X1472808Y-9895826D01*
X1472808Y-9895826D02*
X1501380Y-9895826D01*
X1501380Y-9895826D02*
X1520428Y-9905350D01*
X1520428Y-9905350D02*
X1529951Y-9924398D01*
X1529951Y-9924398D02*
X1529951Y-10029160D01*
X1625189Y-10029160D02*
X1625189Y-9895826D01*
X1625189Y-9914874D02*
X1634713Y-9905350D01*
X1634713Y-9905350D02*
X1653761Y-9895826D01*
X1653761Y-9895826D02*
X1682332Y-9895826D01*
X1682332Y-9895826D02*
X1701380Y-9905350D01*
X1701380Y-9905350D02*
X1710904Y-9924398D01*
X1710904Y-9924398D02*
X1710904Y-10029160D01*
X1710904Y-9924398D02*
X1720428Y-9905350D01*
X1720428Y-9905350D02*
X1739475Y-9895826D01*
X1739475Y-9895826D02*
X1768047Y-9895826D01*
X1768047Y-9895826D02*
X1787094Y-9905350D01*
X1787094Y-9905350D02*
X1796618Y-9924398D01*
X1796618Y-9924398D02*
X1796618Y-10029160D01*
X2187094Y-9819636D02*
X2015666Y-10076779D01*
X2444237Y-9829160D02*
X2463285Y-9829160D01*
X2463285Y-9829160D02*
X2482333Y-9838684D01*
X2482333Y-9838684D02*
X2491856Y-9848207D01*
X2491856Y-9848207D02*
X2501380Y-9867255D01*
X2501380Y-9867255D02*
X2510904Y-9905350D01*
X2510904Y-9905350D02*
X2510904Y-9952969D01*
X2510904Y-9952969D02*
X2501380Y-9991064D01*
X2501380Y-9991064D02*
X2491856Y-10010112D01*
X2491856Y-10010112D02*
X2482333Y-10019636D01*
X2482333Y-10019636D02*
X2463285Y-10029160D01*
X2463285Y-10029160D02*
X2444237Y-10029160D01*
X2444237Y-10029160D02*
X2425190Y-10019636D01*
X2425190Y-10019636D02*
X2415666Y-10010112D01*
X2415666Y-10010112D02*
X2406142Y-9991064D01*
X2406142Y-9991064D02*
X2396618Y-9952969D01*
X2396618Y-9952969D02*
X2396618Y-9905350D01*
X2396618Y-9905350D02*
X2406142Y-9867255D01*
X2406142Y-9867255D02*
X2415666Y-9848207D01*
X2415666Y-9848207D02*
X2425190Y-9838684D01*
X2425190Y-9838684D02*
X2444237Y-9829160D01*
X2596618Y-10010112D02*
X2606142Y-10019636D01*
X2606142Y-10019636D02*
X2596618Y-10029160D01*
X2596618Y-10029160D02*
X2587094Y-10019636D01*
X2587094Y-10019636D02*
X2596618Y-10010112D01*
X2596618Y-10010112D02*
X2596618Y-10029160D01*
X2729952Y-9829160D02*
X2748999Y-9829160D01*
X2748999Y-9829160D02*
X2768047Y-9838684D01*
X2768047Y-9838684D02*
X2777571Y-9848207D01*
X2777571Y-9848207D02*
X2787094Y-9867255D01*
X2787094Y-9867255D02*
X2796618Y-9905350D01*
X2796618Y-9905350D02*
X2796618Y-9952969D01*
X2796618Y-9952969D02*
X2787094Y-9991064D01*
X2787094Y-9991064D02*
X2777571Y-10010112D01*
X2777571Y-10010112D02*
X2768047Y-10019636D01*
X2768047Y-10019636D02*
X2748999Y-10029160D01*
X2748999Y-10029160D02*
X2729952Y-10029160D01*
X2729952Y-10029160D02*
X2710904Y-10019636D01*
X2710904Y-10019636D02*
X2701380Y-10010112D01*
X2701380Y-10010112D02*
X2691856Y-9991064D01*
X2691856Y-9991064D02*
X2682333Y-9952969D01*
X2682333Y-9952969D02*
X2682333Y-9905350D01*
X2682333Y-9905350D02*
X2691856Y-9867255D01*
X2691856Y-9867255D02*
X2701380Y-9848207D01*
X2701380Y-9848207D02*
X2710904Y-9838684D01*
X2710904Y-9838684D02*
X2729952Y-9829160D01*
X2910904Y-9914874D02*
X2891856Y-9905350D01*
X2891856Y-9905350D02*
X2882332Y-9895826D01*
X2882332Y-9895826D02*
X2872809Y-9876779D01*
X2872809Y-9876779D02*
X2872809Y-9867255D01*
X2872809Y-9867255D02*
X2882332Y-9848207D01*
X2882332Y-9848207D02*
X2891856Y-9838684D01*
X2891856Y-9838684D02*
X2910904Y-9829160D01*
X2910904Y-9829160D02*
X2948999Y-9829160D01*
X2948999Y-9829160D02*
X2968047Y-9838684D01*
X2968047Y-9838684D02*
X2977571Y-9848207D01*
X2977571Y-9848207D02*
X2987094Y-9867255D01*
X2987094Y-9867255D02*
X2987094Y-9876779D01*
X2987094Y-9876779D02*
X2977571Y-9895826D01*
X2977571Y-9895826D02*
X2968047Y-9905350D01*
X2968047Y-9905350D02*
X2948999Y-9914874D01*
X2948999Y-9914874D02*
X2910904Y-9914874D01*
X2910904Y-9914874D02*
X2891856Y-9924398D01*
X2891856Y-9924398D02*
X2882332Y-9933922D01*
X2882332Y-9933922D02*
X2872809Y-9952969D01*
X2872809Y-9952969D02*
X2872809Y-9991064D01*
X2872809Y-9991064D02*
X2882332Y-10010112D01*
X2882332Y-10010112D02*
X2891856Y-10019636D01*
X2891856Y-10019636D02*
X2910904Y-10029160D01*
X2910904Y-10029160D02*
X2948999Y-10029160D01*
X2948999Y-10029160D02*
X2968047Y-10019636D01*
X2968047Y-10019636D02*
X2977571Y-10010112D01*
X2977571Y-10010112D02*
X2987094Y-9991064D01*
X2987094Y-9991064D02*
X2987094Y-9952969D01*
X2987094Y-9952969D02*
X2977571Y-9933922D01*
X2977571Y-9933922D02*
X2968047Y-9924398D01*
X2968047Y-9924398D02*
X2948999Y-9914874D01*
X3158523Y-9829160D02*
X3120428Y-9829160D01*
X3120428Y-9829160D02*
X3101380Y-9838684D01*
X3101380Y-9838684D02*
X3091856Y-9848207D01*
X3091856Y-9848207D02*
X3072809Y-9876779D01*
X3072809Y-9876779D02*
X3063285Y-9914874D01*
X3063285Y-9914874D02*
X3063285Y-9991064D01*
X3063285Y-9991064D02*
X3072809Y-10010112D01*
X3072809Y-10010112D02*
X3082332Y-10019636D01*
X3082332Y-10019636D02*
X3101380Y-10029160D01*
X3101380Y-10029160D02*
X3139475Y-10029160D01*
X3139475Y-10029160D02*
X3158523Y-10019636D01*
X3158523Y-10019636D02*
X3168047Y-10010112D01*
X3168047Y-10010112D02*
X3177571Y-9991064D01*
X3177571Y-9991064D02*
X3177571Y-9943445D01*
X3177571Y-9943445D02*
X3168047Y-9924398D01*
X3168047Y-9924398D02*
X3158523Y-9914874D01*
X3158523Y-9914874D02*
X3139475Y-9905350D01*
X3139475Y-9905350D02*
X3101380Y-9905350D01*
X3101380Y-9905350D02*
X3082332Y-9914874D01*
X3082332Y-9914874D02*
X3072809Y-9924398D01*
X3072809Y-9924398D02*
X3063285Y-9943445D01*
X3348999Y-9829160D02*
X3310904Y-9829160D01*
X3310904Y-9829160D02*
X3291856Y-9838684D01*
X3291856Y-9838684D02*
X3282332Y-9848207D01*
X3282332Y-9848207D02*
X3263285Y-9876779D01*
X3263285Y-9876779D02*
X3253761Y-9914874D01*
X3253761Y-9914874D02*
X3253761Y-9991064D01*
X3253761Y-9991064D02*
X3263285Y-10010112D01*
X3263285Y-10010112D02*
X3272809Y-10019636D01*
X3272809Y-10019636D02*
X3291856Y-10029160D01*
X3291856Y-10029160D02*
X3329952Y-10029160D01*
X3329952Y-10029160D02*
X3348999Y-10019636D01*
X3348999Y-10019636D02*
X3358523Y-10010112D01*
X3358523Y-10010112D02*
X3368047Y-9991064D01*
X3368047Y-9991064D02*
X3368047Y-9943445D01*
X3368047Y-9943445D02*
X3358523Y-9924398D01*
X3358523Y-9924398D02*
X3348999Y-9914874D01*
X3348999Y-9914874D02*
X3329952Y-9905350D01*
X3329952Y-9905350D02*
X3291856Y-9905350D01*
X3291856Y-9905350D02*
X3272809Y-9914874D01*
X3272809Y-9914874D02*
X3263285Y-9924398D01*
X3263285Y-9924398D02*
X3253761Y-9943445D01*
X3444237Y-9829160D02*
X3444237Y-9867255D01*
X3520428Y-9829160D02*
X3520428Y-9867255D01*
X3815666Y-10105350D02*
X3806142Y-10095826D01*
X3806142Y-10095826D02*
X3787094Y-10067255D01*
X3787094Y-10067255D02*
X3777571Y-10048207D01*
X3777571Y-10048207D02*
X3768047Y-10019636D01*
X3768047Y-10019636D02*
X3758523Y-9972017D01*
X3758523Y-9972017D02*
X3758523Y-9933922D01*
X3758523Y-9933922D02*
X3768047Y-9886303D01*
X3768047Y-9886303D02*
X3777571Y-9857731D01*
X3777571Y-9857731D02*
X3787094Y-9838684D01*
X3787094Y-9838684D02*
X3806142Y-9810112D01*
X3806142Y-9810112D02*
X3815666Y-9800588D01*
X3977571Y-9895826D02*
X3977571Y-10029160D01*
X3929952Y-9819636D02*
X3882333Y-9962493D01*
X3882333Y-9962493D02*
X4006142Y-9962493D01*
X4234714Y-10029160D02*
X4234714Y-9829160D01*
X4320428Y-10029160D02*
X4320428Y-9924398D01*
X4320428Y-9924398D02*
X4310904Y-9905350D01*
X4310904Y-9905350D02*
X4291857Y-9895826D01*
X4291857Y-9895826D02*
X4263285Y-9895826D01*
X4263285Y-9895826D02*
X4244237Y-9905350D01*
X4244237Y-9905350D02*
X4234714Y-9914874D01*
X4444237Y-10029160D02*
X4425190Y-10019636D01*
X4425190Y-10019636D02*
X4415666Y-10010112D01*
X4415666Y-10010112D02*
X4406142Y-9991064D01*
X4406142Y-9991064D02*
X4406142Y-9933922D01*
X4406142Y-9933922D02*
X4415666Y-9914874D01*
X4415666Y-9914874D02*
X4425190Y-9905350D01*
X4425190Y-9905350D02*
X4444237Y-9895826D01*
X4444237Y-9895826D02*
X4472809Y-9895826D01*
X4472809Y-9895826D02*
X4491857Y-9905350D01*
X4491857Y-9905350D02*
X4501380Y-9914874D01*
X4501380Y-9914874D02*
X4510904Y-9933922D01*
X4510904Y-9933922D02*
X4510904Y-9991064D01*
X4510904Y-9991064D02*
X4501380Y-10010112D01*
X4501380Y-10010112D02*
X4491857Y-10019636D01*
X4491857Y-10019636D02*
X4472809Y-10029160D01*
X4472809Y-10029160D02*
X4444237Y-10029160D01*
X4625190Y-10029160D02*
X4606142Y-10019636D01*
X4606142Y-10019636D02*
X4596618Y-10000588D01*
X4596618Y-10000588D02*
X4596618Y-9829160D01*
X4777571Y-10019636D02*
X4758523Y-10029160D01*
X4758523Y-10029160D02*
X4720428Y-10029160D01*
X4720428Y-10029160D02*
X4701380Y-10019636D01*
X4701380Y-10019636D02*
X4691857Y-10000588D01*
X4691857Y-10000588D02*
X4691857Y-9924398D01*
X4691857Y-9924398D02*
X4701380Y-9905350D01*
X4701380Y-9905350D02*
X4720428Y-9895826D01*
X4720428Y-9895826D02*
X4758523Y-9895826D01*
X4758523Y-9895826D02*
X4777571Y-9905350D01*
X4777571Y-9905350D02*
X4787095Y-9924398D01*
X4787095Y-9924398D02*
X4787095Y-9943445D01*
X4787095Y-9943445D02*
X4691857Y-9962493D01*
X4863285Y-10019636D02*
X4882333Y-10029160D01*
X4882333Y-10029160D02*
X4920428Y-10029160D01*
X4920428Y-10029160D02*
X4939476Y-10019636D01*
X4939476Y-10019636D02*
X4948999Y-10000588D01*
X4948999Y-10000588D02*
X4948999Y-9991064D01*
X4948999Y-9991064D02*
X4939476Y-9972017D01*
X4939476Y-9972017D02*
X4920428Y-9962493D01*
X4920428Y-9962493D02*
X4891857Y-9962493D01*
X4891857Y-9962493D02*
X4872809Y-9952969D01*
X4872809Y-9952969D02*
X4863285Y-9933922D01*
X4863285Y-9933922D02*
X4863285Y-9924398D01*
X4863285Y-9924398D02*
X4872809Y-9905350D01*
X4872809Y-9905350D02*
X4891857Y-9895826D01*
X4891857Y-9895826D02*
X4920428Y-9895826D01*
X4920428Y-9895826D02*
X4939476Y-9905350D01*
X5015666Y-10105350D02*
X5025190Y-10095826D01*
X5025190Y-10095826D02*
X5044238Y-10067255D01*
X5044238Y-10067255D02*
X5053761Y-10048207D01*
X5053761Y-10048207D02*
X5063285Y-10019636D01*
X5063285Y-10019636D02*
X5072809Y-9972017D01*
X5072809Y-9972017D02*
X5072809Y-9933922D01*
X5072809Y-9933922D02*
X5063285Y-9886303D01*
X5063285Y-9886303D02*
X5053761Y-9857731D01*
X5053761Y-9857731D02*
X5044238Y-9838684D01*
X5044238Y-9838684D02*
X5025190Y-9810112D01*
X5025190Y-9810112D02*
X5015666Y-9800588D01*
X5377571Y-10105350D02*
X5368047Y-10095826D01*
X5368047Y-10095826D02*
X5348999Y-10067255D01*
X5348999Y-10067255D02*
X5339476Y-10048207D01*
X5339476Y-10048207D02*
X5329952Y-10019636D01*
X5329952Y-10019636D02*
X5320428Y-9972017D01*
X5320428Y-9972017D02*
X5320428Y-9933922D01*
X5320428Y-9933922D02*
X5329952Y-9886303D01*
X5329952Y-9886303D02*
X5339476Y-9857731D01*
X5339476Y-9857731D02*
X5348999Y-9838684D01*
X5348999Y-9838684D02*
X5368047Y-9810112D01*
X5368047Y-9810112D02*
X5377571Y-9800588D01*
X5453761Y-9895826D02*
X5453761Y-10029160D01*
X5453761Y-9914874D02*
X5463285Y-9905350D01*
X5463285Y-9905350D02*
X5482333Y-9895826D01*
X5482333Y-9895826D02*
X5510904Y-9895826D01*
X5510904Y-9895826D02*
X5529952Y-9905350D01*
X5529952Y-9905350D02*
X5539476Y-9924398D01*
X5539476Y-9924398D02*
X5539476Y-10029160D01*
X5663285Y-10029160D02*
X5644237Y-10019636D01*
X5644237Y-10019636D02*
X5634714Y-10010112D01*
X5634714Y-10010112D02*
X5625190Y-9991064D01*
X5625190Y-9991064D02*
X5625190Y-9933922D01*
X5625190Y-9933922D02*
X5634714Y-9914874D01*
X5634714Y-9914874D02*
X5644237Y-9905350D01*
X5644237Y-9905350D02*
X5663285Y-9895826D01*
X5663285Y-9895826D02*
X5691857Y-9895826D01*
X5691857Y-9895826D02*
X5710904Y-9905350D01*
X5710904Y-9905350D02*
X5720428Y-9914874D01*
X5720428Y-9914874D02*
X5729952Y-9933922D01*
X5729952Y-9933922D02*
X5729952Y-9991064D01*
X5729952Y-9991064D02*
X5720428Y-10010112D01*
X5720428Y-10010112D02*
X5710904Y-10019636D01*
X5710904Y-10019636D02*
X5691857Y-10029160D01*
X5691857Y-10029160D02*
X5663285Y-10029160D01*
X5787095Y-9895826D02*
X5863285Y-9895826D01*
X5815666Y-9829160D02*
X5815666Y-10000588D01*
X5815666Y-10000588D02*
X5825190Y-10019636D01*
X5825190Y-10019636D02*
X5844237Y-10029160D01*
X5844237Y-10029160D02*
X5863285Y-10029160D01*
X6082333Y-9895826D02*
X6082333Y-10095826D01*
X6082333Y-9905350D02*
X6101380Y-9895826D01*
X6101380Y-9895826D02*
X6139476Y-9895826D01*
X6139476Y-9895826D02*
X6158523Y-9905350D01*
X6158523Y-9905350D02*
X6168047Y-9914874D01*
X6168047Y-9914874D02*
X6177571Y-9933922D01*
X6177571Y-9933922D02*
X6177571Y-9991064D01*
X6177571Y-9991064D02*
X6168047Y-10010112D01*
X6168047Y-10010112D02*
X6158523Y-10019636D01*
X6158523Y-10019636D02*
X6139476Y-10029160D01*
X6139476Y-10029160D02*
X6101380Y-10029160D01*
X6101380Y-10029160D02*
X6082333Y-10019636D01*
X6291857Y-10029160D02*
X6272809Y-10019636D01*
X6272809Y-10019636D02*
X6263285Y-10000588D01*
X6263285Y-10000588D02*
X6263285Y-9829160D01*
X6453761Y-10029160D02*
X6453761Y-9924398D01*
X6453761Y-9924398D02*
X6444238Y-9905350D01*
X6444238Y-9905350D02*
X6425190Y-9895826D01*
X6425190Y-9895826D02*
X6387095Y-9895826D01*
X6387095Y-9895826D02*
X6368047Y-9905350D01*
X6453761Y-10019636D02*
X6434714Y-10029160D01*
X6434714Y-10029160D02*
X6387095Y-10029160D01*
X6387095Y-10029160D02*
X6368047Y-10019636D01*
X6368047Y-10019636D02*
X6358523Y-10000588D01*
X6358523Y-10000588D02*
X6358523Y-9981541D01*
X6358523Y-9981541D02*
X6368047Y-9962493D01*
X6368047Y-9962493D02*
X6387095Y-9952969D01*
X6387095Y-9952969D02*
X6434714Y-9952969D01*
X6434714Y-9952969D02*
X6453761Y-9943445D01*
X6520428Y-9895826D02*
X6596618Y-9895826D01*
X6548999Y-9829160D02*
X6548999Y-10000588D01*
X6548999Y-10000588D02*
X6558523Y-10019636D01*
X6558523Y-10019636D02*
X6577571Y-10029160D01*
X6577571Y-10029160D02*
X6596618Y-10029160D01*
X6739476Y-10019636D02*
X6720428Y-10029160D01*
X6720428Y-10029160D02*
X6682333Y-10029160D01*
X6682333Y-10029160D02*
X6663285Y-10019636D01*
X6663285Y-10019636D02*
X6653761Y-10000588D01*
X6653761Y-10000588D02*
X6653761Y-9924398D01*
X6653761Y-9924398D02*
X6663285Y-9905350D01*
X6663285Y-9905350D02*
X6682333Y-9895826D01*
X6682333Y-9895826D02*
X6720428Y-9895826D01*
X6720428Y-9895826D02*
X6739476Y-9905350D01*
X6739476Y-9905350D02*
X6748999Y-9924398D01*
X6748999Y-9924398D02*
X6748999Y-9943445D01*
X6748999Y-9943445D02*
X6653761Y-9962493D01*
X6920428Y-10029160D02*
X6920428Y-9829160D01*
X6920428Y-10019636D02*
X6901380Y-10029160D01*
X6901380Y-10029160D02*
X6863285Y-10029160D01*
X6863285Y-10029160D02*
X6844238Y-10019636D01*
X6844238Y-10019636D02*
X6834714Y-10010112D01*
X6834714Y-10010112D02*
X6825190Y-9991064D01*
X6825190Y-9991064D02*
X6825190Y-9933922D01*
X6825190Y-9933922D02*
X6834714Y-9914874D01*
X6834714Y-9914874D02*
X6844238Y-9905350D01*
X6844238Y-9905350D02*
X6863285Y-9895826D01*
X6863285Y-9895826D02*
X6901380Y-9895826D01*
X6901380Y-9895826D02*
X6920428Y-9905350D01*
X6996619Y-10105350D02*
X7006142Y-10095826D01*
X7006142Y-10095826D02*
X7025190Y-10067255D01*
X7025190Y-10067255D02*
X7034714Y-10048207D01*
X7034714Y-10048207D02*
X7044238Y-10019636D01*
X7044238Y-10019636D02*
X7053761Y-9972017D01*
X7053761Y-9972017D02*
X7053761Y-9933922D01*
X7053761Y-9933922D02*
X7044238Y-9886303D01*
X7044238Y-9886303D02*
X7034714Y-9857731D01*
X7034714Y-9857731D02*
X7025190Y-9838684D01*
X7025190Y-9838684D02*
X7006142Y-9810112D01*
X7006142Y-9810112D02*
X6996619Y-9800588D01*
M02*
