G04 #@! TF.GenerationSoftware,KiCad,Pcbnew,8.0.7*
G04 #@! TF.CreationDate,2025-05-27T12:53:58-04:00*
G04 #@! TF.ProjectId,le-oeuf,6c652d6f-6575-4662-9e6b-696361645f70,rev?*
G04 #@! TF.SameCoordinates,Original*
G04 #@! TF.FileFunction,Paste,Top*
G04 #@! TF.FilePolarity,Positive*
%FSLAX46Y46*%
G04 Gerber Fmt 4.6, Leading zero omitted, Abs format (unit mm)*
G04 Created by KiCad (PCBNEW 8.0.7) date 2025-05-27 12:53:58*
%MOMM*%
%LPD*%
G01*
G04 APERTURE LIST*
G04 Aperture macros list*
%AMRoundRect*
0 Rectangle with rounded corners*
0 $1 Rounding radius*
0 $2 $3 $4 $5 $6 $7 $8 $9 X,Y pos of 4 corners*
0 Add a 4 corners polygon primitive as box body*
4,1,4,$2,$3,$4,$5,$6,$7,$8,$9,$2,$3,0*
0 Add four circle primitives for the rounded corners*
1,1,$1+$1,$2,$3*
1,1,$1+$1,$4,$5*
1,1,$1+$1,$6,$7*
1,1,$1+$1,$8,$9*
0 Add four rect primitives between the rounded corners*
20,1,$1+$1,$2,$3,$4,$5,0*
20,1,$1+$1,$4,$5,$6,$7,0*
20,1,$1+$1,$6,$7,$8,$9,0*
20,1,$1+$1,$8,$9,$2,$3,0*%
%AMRotRect*
0 Rectangle, with rotation*
0 The origin of the aperture is its center*
0 $1 length*
0 $2 width*
0 $3 Rotation angle, in degrees counterclockwise*
0 Add horizontal line*
21,1,$1,$2,0,0,$3*%
G04 Aperture macros list end*
%ADD10RoundRect,0.225000X-0.344784X0.269024X-0.399625X-0.177622X0.344784X-0.269024X0.399625X0.177622X0*%
%ADD11RoundRect,0.112500X-0.112500X0.187500X-0.112500X-0.187500X0.112500X-0.187500X0.112500X0.187500X0*%
%ADD12R,0.530000X1.100000*%
%ADD13R,0.280000X1.100000*%
%ADD14RotRect,2.000000X2.000000X7.000000*%
%ADD15RotRect,1.550000X2.000000X7.000000*%
%ADD16RoundRect,0.225000X0.375000X-0.225000X0.375000X0.225000X-0.375000X0.225000X-0.375000X-0.225000X0*%
%ADD17RoundRect,0.200000X-0.200000X-0.275000X0.200000X-0.275000X0.200000X0.275000X-0.200000X0.275000X0*%
%ADD18RotRect,2.000000X2.000000X353.000000*%
%ADD19RotRect,1.550000X2.000000X353.000000*%
%ADD20RoundRect,0.250000X-0.625000X0.375000X-0.625000X-0.375000X0.625000X-0.375000X0.625000X0.375000X0*%
%ADD21RoundRect,0.150000X0.150000X-0.512500X0.150000X0.512500X-0.150000X0.512500X-0.150000X-0.512500X0*%
%ADD22RoundRect,0.225000X0.250000X-0.225000X0.250000X0.225000X-0.250000X0.225000X-0.250000X-0.225000X0*%
%ADD23RoundRect,0.225000X-0.399625X0.177622X-0.344784X-0.269024X0.399625X-0.177622X0.344784X0.269024X0*%
%ADD24RoundRect,0.200000X-0.275000X0.200000X-0.275000X-0.200000X0.275000X-0.200000X0.275000X0.200000X0*%
%ADD25RotRect,0.600000X1.200000X97.000000*%
%ADD26RoundRect,0.150000X0.587500X0.150000X-0.587500X0.150000X-0.587500X-0.150000X0.587500X-0.150000X0*%
%ADD27RoundRect,0.225000X-0.192856X-0.275557X0.253790X-0.220716X0.192856X0.275557X-0.253790X0.220716X0*%
%ADD28R,1.550000X1.000000*%
%ADD29RoundRect,0.200000X-0.259444X0.471899X-0.137575X-0.520647X0.259444X-0.471899X0.137575X0.520647X0*%
%ADD30RoundRect,0.200000X-0.471899X-0.259444X0.520647X-0.137575X0.471899X0.259444X-0.520647X0.137575X0*%
%ADD31RoundRect,0.200000X-0.174135X-0.222883X0.222883X-0.174135X0.174135X0.222883X-0.222883X0.174135X0*%
%ADD32RoundRect,0.218750X0.280999X-0.185890X0.227681X0.248348X-0.280999X0.185890X-0.227681X-0.248348X0*%
%ADD33RoundRect,0.200000X0.200000X0.275000X-0.200000X0.275000X-0.200000X-0.275000X0.200000X-0.275000X0*%
%ADD34RoundRect,0.150000X-0.150000X-0.275000X0.150000X-0.275000X0.150000X0.275000X-0.150000X0.275000X0*%
%ADD35RoundRect,0.175000X-0.175000X-0.225000X0.175000X-0.225000X0.175000X0.225000X-0.175000X0.225000X0*%
%ADD36RoundRect,0.218750X-0.256250X0.218750X-0.256250X-0.218750X0.256250X-0.218750X0.256250X0.218750X0*%
%ADD37RoundRect,0.225000X0.225000X0.250000X-0.225000X0.250000X-0.225000X-0.250000X0.225000X-0.250000X0*%
%ADD38RoundRect,0.250000X0.625000X-0.375000X0.625000X0.375000X-0.625000X0.375000X-0.625000X-0.375000X0*%
%ADD39RoundRect,0.150000X-0.512500X-0.150000X0.512500X-0.150000X0.512500X0.150000X-0.512500X0.150000X0*%
G04 APERTURE END LIST*
D10*
G04 #@! TO.C,D21*
X94911783Y-32776543D03*
X94509615Y-36051945D03*
G04 #@! TD*
D11*
G04 #@! TO.C,D38*
X119300000Y-10500000D03*
X119300000Y-12600000D03*
G04 #@! TD*
D12*
G04 #@! TO.C,J5*
X113200000Y-7630000D03*
X112450000Y-7630000D03*
D13*
X111250000Y-7630000D03*
X110250000Y-7630000D03*
X109750000Y-7630000D03*
X108750000Y-7630000D03*
D12*
X107550000Y-7630000D03*
X106800000Y-7630000D03*
X106800000Y-7630000D03*
X107550000Y-7630000D03*
D13*
X108250000Y-7630000D03*
X109250000Y-7630000D03*
X110750000Y-7630000D03*
X111750000Y-7630000D03*
D12*
X112450000Y-7630000D03*
X113200000Y-7630000D03*
G04 #@! TD*
D10*
G04 #@! TO.C,D32*
X99447189Y-41430497D03*
X99045021Y-44705899D03*
G04 #@! TD*
D14*
G04 #@! TO.C,SW20*
X197370151Y-31022056D03*
X198832583Y-42932610D03*
X209975487Y-29474316D03*
X211437919Y-41384870D03*
D15*
X202245623Y-39138384D03*
X207208354Y-38529037D03*
G04 #@! TD*
D16*
G04 #@! TO.C,D40*
X100750000Y-62900000D03*
X100750000Y-59600000D03*
G04 #@! TD*
D17*
G04 #@! TO.C,R1*
X104600000Y-10327500D03*
X106250000Y-10327500D03*
G04 #@! TD*
D18*
G04 #@! TO.C,SW24*
X59038878Y-48344616D03*
X57576446Y-60255170D03*
X71644214Y-49892356D03*
X70181782Y-61802910D03*
D19*
X61806011Y-57399337D03*
X66768742Y-58008684D03*
G04 #@! TD*
D20*
G04 #@! TO.C,D37*
X118000000Y-5427500D03*
X118000000Y-8227500D03*
G04 #@! TD*
D14*
G04 #@! TO.C,SW8*
X160515913Y-9855687D03*
X161978345Y-21766241D03*
X173121249Y-8307947D03*
X174583681Y-20218501D03*
D15*
X165391385Y-17972015D03*
X170354116Y-17362668D03*
G04 #@! TD*
D14*
G04 #@! TO.C,SW19*
X179978921Y-28875514D03*
X181441353Y-40786068D03*
X192584257Y-27327774D03*
X194046689Y-39238328D03*
D15*
X184854393Y-36991842D03*
X189817124Y-36382495D03*
G04 #@! TD*
D10*
G04 #@! TO.C,D23*
X100426619Y-33453680D03*
X100024451Y-36729082D03*
G04 #@! TD*
G04 #@! TO.C,D5*
X107900316Y-18177184D03*
X107498148Y-21452586D03*
G04 #@! TD*
D14*
G04 #@! TO.C,SW30*
X199441929Y-47895340D03*
X200904361Y-59805894D03*
X212047265Y-46347600D03*
X213509697Y-58258154D03*
D15*
X204317401Y-56011668D03*
X209280132Y-55402321D03*
G04 #@! TD*
D21*
G04 #@! TO.C,U2*
X109050000Y-12637500D03*
X110000000Y-12637500D03*
X110950000Y-12637500D03*
X110950000Y-10362500D03*
X110000000Y-10362500D03*
X109050000Y-10362500D03*
G04 #@! TD*
D14*
G04 #@! TO.C,SW34*
X133502625Y-68837419D03*
X134965057Y-80747973D03*
X146107961Y-67289679D03*
X147570393Y-79200233D03*
D15*
X138378097Y-76953747D03*
X143340828Y-76344400D03*
G04 #@! TD*
D18*
G04 #@! TO.C,SW32*
X56967099Y-65217900D03*
X55504667Y-77128454D03*
X69572435Y-66765640D03*
X68110003Y-78676194D03*
D19*
X59734232Y-74272621D03*
X64696963Y-74881968D03*
G04 #@! TD*
D22*
G04 #@! TO.C,C2*
X98750000Y-56225000D03*
X98750000Y-54675000D03*
G04 #@! TD*
D23*
G04 #@! TO.C,D27*
X116915219Y-33780062D03*
X117317387Y-37055464D03*
G04 #@! TD*
D24*
G04 #@! TO.C,R7*
X102750000Y-54600000D03*
X102750000Y-56250000D03*
G04 #@! TD*
D18*
G04 #@! TO.C,SW15*
X77983942Y-33543110D03*
X76521510Y-45453664D03*
X90589278Y-35090850D03*
X89126846Y-47001404D03*
D19*
X80751075Y-42597831D03*
X85713806Y-43207178D03*
G04 #@! TD*
D25*
G04 #@! TO.C,X1*
X107898348Y-54459200D03*
X107752104Y-53268144D03*
G04 #@! TD*
D14*
G04 #@! TO.C,SW6*
X127287289Y-18217565D03*
X128749721Y-30128119D03*
X139892625Y-16669825D03*
X141355057Y-28580379D03*
D15*
X132162761Y-26333893D03*
X137125492Y-25724546D03*
G04 #@! TD*
D26*
G04 #@! TO.C,Q1*
X102687500Y-52300000D03*
X102687500Y-50400000D03*
X100812500Y-51350000D03*
G04 #@! TD*
D27*
G04 #@! TO.C,C4*
X107461554Y-56438898D03*
X109000000Y-56250000D03*
G04 #@! TD*
D23*
G04 #@! TO.C,D10*
X123228614Y-16810723D03*
X123630782Y-20086125D03*
G04 #@! TD*
D28*
G04 #@! TO.C,RSW2*
X127000000Y-5000000D03*
X132250000Y-5000000D03*
X127000000Y-6700000D03*
X132250000Y-6700000D03*
G04 #@! TD*
D23*
G04 #@! TO.C,D6*
X112198941Y-18164997D03*
X112601109Y-21440399D03*
G04 #@! TD*
D14*
G04 #@! TO.C,SW35*
X150375910Y-66765640D03*
X151838342Y-78676194D03*
X162981246Y-65217900D03*
X164443678Y-77128454D03*
D15*
X155251382Y-74881968D03*
X160214113Y-74272621D03*
G04 #@! TD*
D18*
G04 #@! TO.C,SW25*
X75912163Y-50416395D03*
X74449731Y-62326949D03*
X88517499Y-51964135D03*
X87055067Y-63874689D03*
D19*
X78679296Y-59471116D03*
X83642027Y-60080463D03*
G04 #@! TD*
D23*
G04 #@! TO.C,D8*
X117713778Y-17487860D03*
X118115946Y-20763262D03*
G04 #@! TD*
D18*
G04 #@! TO.C,SW1*
X12044638Y-12601031D03*
X10582206Y-24511585D03*
X24649974Y-14148771D03*
X23187542Y-26059325D03*
D19*
X14811771Y-21655752D03*
X19774502Y-22265099D03*
G04 #@! TD*
D18*
G04 #@! TO.C,SW12*
X27364088Y-27327774D03*
X25901656Y-39238328D03*
X39969424Y-28875514D03*
X38506992Y-40786068D03*
D19*
X30131221Y-36382495D03*
X35093952Y-36991842D03*
G04 #@! TD*
D24*
G04 #@! TO.C,R6*
X98250000Y-6100000D03*
X98250000Y-7750000D03*
G04 #@! TD*
D22*
G04 #@! TO.C,C5*
X96750000Y-56225000D03*
X96750000Y-54675000D03*
G04 #@! TD*
D14*
G04 #@! TO.C,SW10*
X195298372Y-14148771D03*
X196760804Y-26059325D03*
X207903708Y-12601031D03*
X209366140Y-24511585D03*
D15*
X200173844Y-22265099D03*
X205136575Y-21655752D03*
G04 #@! TD*
D29*
G04 #@! TO.C,U1*
X123760533Y-49345226D03*
X122500000Y-49500000D03*
X121239466Y-49654774D03*
X119978932Y-49809548D03*
X118718399Y-49964322D03*
X117457865Y-50119096D03*
X116197334Y-50273870D03*
X114936798Y-50428645D03*
X113676264Y-50583419D03*
X112415731Y-50738193D03*
D30*
X110347365Y-52765373D03*
D31*
X112210725Y-53171313D03*
D30*
X110502139Y-54025907D03*
D31*
X112365499Y-54431846D03*
D30*
X110656913Y-55286441D03*
D31*
X112520272Y-55692380D03*
D30*
X110811687Y-56546974D03*
D31*
X112675049Y-56952913D03*
D30*
X110966461Y-57807508D03*
D31*
X112829822Y-58213447D03*
D30*
X111121235Y-59068041D03*
D31*
X112984596Y-59473981D03*
D30*
X111276009Y-60328575D03*
D31*
X113139370Y-60734514D03*
D30*
X111430783Y-61589109D03*
D29*
X113926911Y-63045765D03*
X115187444Y-62890991D03*
D31*
X115598346Y-61027021D03*
D29*
X116447978Y-62736217D03*
D31*
X116858880Y-60872247D03*
D29*
X117708511Y-62581443D03*
D31*
X118119413Y-60717473D03*
D29*
X118969045Y-62426669D03*
D31*
X119379947Y-60562699D03*
D29*
X120229579Y-62271895D03*
D31*
X120640481Y-60407925D03*
D29*
X121490112Y-62117121D03*
D31*
X121901014Y-60253150D03*
D29*
X122750646Y-61962346D03*
D31*
X123161548Y-60098376D03*
D29*
X124011179Y-61807572D03*
D31*
X124422081Y-59943602D03*
D29*
X125271713Y-61652798D03*
G04 #@! TD*
D14*
G04 #@! TO.C,SW26*
X131430846Y-51964135D03*
X132893278Y-63874689D03*
X144036182Y-50416395D03*
X145498614Y-62326949D03*
D15*
X136306318Y-60080463D03*
X141269049Y-59471116D03*
G04 #@! TD*
D10*
G04 #@! TO.C,D12*
X98648631Y-25138295D03*
X98246463Y-28413697D03*
G04 #@! TD*
D18*
G04 #@! TO.C,SW11*
X9972859Y-29474316D03*
X8510427Y-41384870D03*
X22578195Y-31022056D03*
X21115763Y-42932610D03*
D19*
X12739992Y-38529037D03*
X17702723Y-39138384D03*
G04 #@! TD*
D20*
G04 #@! TO.C,D39*
X102000000Y-5427500D03*
X102000000Y-8227500D03*
G04 #@! TD*
D32*
G04 #@! TO.C,L3*
X108845972Y-61031630D03*
X108654028Y-59468370D03*
G04 #@! TD*
D10*
G04 #@! TO.C,D11*
X95891213Y-24799727D03*
X95489045Y-28075129D03*
G04 #@! TD*
D18*
G04 #@! TO.C,SW3*
X46827096Y-8307947D03*
X45364664Y-20218501D03*
X59432432Y-9855687D03*
X57970000Y-21766241D03*
D19*
X49594229Y-17362668D03*
X54556960Y-17972015D03*
G04 #@! TD*
D10*
G04 #@! TO.C,D4*
X105142897Y-17838616D03*
X104740729Y-21114018D03*
G04 #@! TD*
D23*
G04 #@! TO.C,D16*
X113178371Y-26141814D03*
X113580539Y-29417216D03*
G04 #@! TD*
D14*
G04 #@! TO.C,SW27*
X148304131Y-49892356D03*
X149766563Y-61802910D03*
X160909467Y-48344616D03*
X162371899Y-60255170D03*
D15*
X153179603Y-58008684D03*
X158142334Y-57399337D03*
G04 #@! TD*
D23*
G04 #@! TO.C,D20*
X124208044Y-24787540D03*
X124610212Y-28062942D03*
G04 #@! TD*
D10*
G04 #@! TO.C,D1*
X96870643Y-16822910D03*
X96468475Y-20098312D03*
G04 #@! TD*
D23*
G04 #@! TO.C,D34*
X117850000Y-41751267D03*
X118252168Y-45026669D03*
G04 #@! TD*
D14*
G04 #@! TO.C,SW28*
X164659471Y-43602256D03*
X166121903Y-55512810D03*
X177264807Y-42054516D03*
X178727239Y-53965070D03*
D15*
X169534943Y-51718584D03*
X174497674Y-51109237D03*
G04 #@! TD*
D18*
G04 #@! TO.C,SW22*
X25292309Y-44201058D03*
X23829877Y-56111612D03*
X37897645Y-45748798D03*
X36435213Y-57659352D03*
D19*
X28059442Y-53255779D03*
X33022173Y-53865126D03*
G04 #@! TD*
D23*
G04 #@! TO.C,D18*
X118693207Y-25464677D03*
X119095375Y-28740079D03*
G04 #@! TD*
D27*
G04 #@! TO.C,C1*
X106930777Y-51438898D03*
X108469223Y-51250000D03*
G04 #@! TD*
D10*
G04 #@! TO.C,D13*
X101406049Y-25476864D03*
X101003881Y-28752266D03*
G04 #@! TD*
D18*
G04 #@! TO.C,SW5*
X80055721Y-16669825D03*
X78593289Y-28580379D03*
X92661057Y-18217565D03*
X91198625Y-30128119D03*
D19*
X82822854Y-25724546D03*
X87785585Y-26333893D03*
G04 #@! TD*
D14*
G04 #@! TO.C,SW29*
X182050700Y-45748798D03*
X183513132Y-57659352D03*
X194656036Y-44201058D03*
X196118468Y-56111612D03*
D15*
X186926172Y-53865126D03*
X191888903Y-53255779D03*
G04 #@! TD*
D10*
G04 #@! TO.C,D2*
X99628061Y-17161479D03*
X99225893Y-20436881D03*
G04 #@! TD*
D14*
G04 #@! TO.C,SW34*
X133502625Y-68837419D03*
X134965057Y-80747973D03*
X146107961Y-67289679D03*
X147570393Y-79200233D03*
D15*
X138378097Y-76953747D03*
X143340828Y-76344400D03*
G04 #@! TD*
D23*
G04 #@! TO.C,D26*
X114157801Y-34118630D03*
X114559969Y-37394032D03*
G04 #@! TD*
D33*
G04 #@! TO.C,R2*
X106250000Y-13250000D03*
X104600000Y-13250000D03*
G04 #@! TD*
D23*
G04 #@! TO.C,D28*
X119672637Y-33441493D03*
X120074805Y-36716895D03*
G04 #@! TD*
D10*
G04 #@! TO.C,D3*
X102385479Y-17500047D03*
X101983311Y-20775449D03*
G04 #@! TD*
D23*
G04 #@! TO.C,D36*
X123409486Y-41079741D03*
X123811654Y-44355143D03*
G04 #@! TD*
D18*
G04 #@! TO.C,SW23*
X42683538Y-42054516D03*
X41221106Y-53965070D03*
X55288874Y-43602256D03*
X53826442Y-55512810D03*
D19*
X45450671Y-51109237D03*
X50413402Y-51718584D03*
G04 #@! TD*
D14*
G04 #@! TO.C,SW36*
X167249194Y-64693862D03*
X168711626Y-76604416D03*
X179854530Y-63146122D03*
X181316962Y-75056676D03*
D15*
X172124666Y-72810190D03*
X177087397Y-72200843D03*
G04 #@! TD*
D14*
G04 #@! TO.C,SW7*
X144160573Y-16145787D03*
X145623005Y-28056341D03*
X156765909Y-14598047D03*
X158228341Y-26508601D03*
D15*
X149036045Y-24262115D03*
X153998776Y-23652768D03*
G04 #@! TD*
D10*
G04 #@! TO.C,D33*
X102250000Y-41788968D03*
X101847832Y-45064370D03*
G04 #@! TD*
D18*
G04 #@! TO.C,SW4*
X63182436Y-14598047D03*
X61720004Y-26508601D03*
X75787772Y-16145787D03*
X74325340Y-28056341D03*
D19*
X65949569Y-23652768D03*
X70912300Y-24262115D03*
G04 #@! TD*
D24*
G04 #@! TO.C,R3*
X121750000Y-6100000D03*
X121750000Y-7750000D03*
G04 #@! TD*
D34*
G04 #@! TO.C,J1*
X94400000Y-59621850D03*
X95600000Y-59621850D03*
D35*
X93250000Y-63396850D03*
X96750000Y-63396850D03*
G04 #@! TD*
D18*
G04 #@! TO.C,SW31*
X40093815Y-63146122D03*
X38631383Y-75056676D03*
X52699151Y-64693862D03*
X51236719Y-76604416D03*
D19*
X42860948Y-72200843D03*
X47823679Y-72810190D03*
G04 #@! TD*
D10*
G04 #@! TO.C,D31*
X96689771Y-41091928D03*
X96287603Y-44367330D03*
G04 #@! TD*
D36*
G04 #@! TO.C,L2*
X117300000Y-10837500D03*
X117300000Y-12412500D03*
G04 #@! TD*
D24*
G04 #@! TO.C,R4*
X100750000Y-54675000D03*
X100750000Y-56325000D03*
G04 #@! TD*
D37*
G04 #@! TO.C,C3*
X102775000Y-10250000D03*
X101225000Y-10250000D03*
G04 #@! TD*
D18*
G04 #@! TO.C,SW21*
X7901080Y-46347600D03*
X6438648Y-58258154D03*
X20506416Y-47895340D03*
X19043984Y-59805894D03*
D19*
X10668213Y-55402321D03*
X15630944Y-56011668D03*
G04 #@! TD*
D23*
G04 #@! TO.C,D17*
X115935789Y-25803245D03*
X116337957Y-29078647D03*
G04 #@! TD*
D36*
G04 #@! TO.C,L1*
X115550000Y-10815000D03*
X115550000Y-12390000D03*
G04 #@! TD*
D23*
G04 #@! TO.C,D7*
X114956359Y-17826429D03*
X115358527Y-21101831D03*
G04 #@! TD*
D17*
G04 #@! TO.C,R5*
X101175000Y-13250000D03*
X102825000Y-13250000D03*
G04 #@! TD*
D23*
G04 #@! TO.C,D19*
X121450626Y-25126108D03*
X121852794Y-28401510D03*
G04 #@! TD*
D14*
G04 #@! TO.C,SW17*
X146232352Y-33019071D03*
X147694784Y-44929625D03*
X158837688Y-31471331D03*
X160300120Y-43381885D03*
D15*
X151107824Y-41135399D03*
X156070555Y-40526052D03*
G04 #@! TD*
D14*
G04 #@! TO.C,SW18*
X162587692Y-26728971D03*
X164050124Y-38639525D03*
X175193028Y-25181231D03*
X176655460Y-37091785D03*
D15*
X167463164Y-34845299D03*
X172425895Y-34235952D03*
G04 #@! TD*
D10*
G04 #@! TO.C,D24*
X103184038Y-33792249D03*
X102781870Y-37067651D03*
G04 #@! TD*
D18*
G04 #@! TO.C,SW13*
X44755317Y-25181231D03*
X43292885Y-37091785D03*
X57360653Y-26728971D03*
X55898221Y-38639525D03*
D19*
X47522450Y-34235952D03*
X52485181Y-34845299D03*
G04 #@! TD*
D23*
G04 #@! TO.C,D30*
X125187474Y-32764356D03*
X125589642Y-36039758D03*
G04 #@! TD*
D14*
G04 #@! TO.C,SW9*
X177907142Y-12002229D03*
X179369574Y-23912783D03*
X190512478Y-10454489D03*
X191974910Y-22365043D03*
D15*
X182782614Y-20118557D03*
X187745345Y-19509210D03*
G04 #@! TD*
D23*
G04 #@! TO.C,D35*
X120652067Y-41418310D03*
X121054235Y-44693712D03*
G04 #@! TD*
D10*
G04 #@! TO.C,D14*
X104163467Y-25815432D03*
X103761299Y-29090834D03*
G04 #@! TD*
D23*
G04 #@! TO.C,D9*
X120471196Y-17149292D03*
X120873364Y-20424694D03*
G04 #@! TD*
D10*
G04 #@! TO.C,D25*
X105941456Y-34130817D03*
X105539288Y-37406219D03*
G04 #@! TD*
D38*
G04 #@! TO.C,F1*
X113300000Y-13127500D03*
X113300000Y-10327500D03*
G04 #@! TD*
D18*
G04 #@! TO.C,SW2*
X29435867Y-10454489D03*
X27973435Y-22365043D03*
X42041203Y-12002229D03*
X40578771Y-23912783D03*
D19*
X32203000Y-19509210D03*
X37165731Y-20118557D03*
G04 #@! TD*
D28*
G04 #@! TO.C,RSW1*
X135000000Y-5000000D03*
X140250000Y-5000000D03*
X135000000Y-6700000D03*
X140250000Y-6700000D03*
G04 #@! TD*
D14*
G04 #@! TO.C,SW16*
X129359068Y-35090850D03*
X130821500Y-47001404D03*
X141964404Y-33543110D03*
X143426836Y-45453664D03*
D15*
X134234540Y-43207178D03*
X139197271Y-42597831D03*
G04 #@! TD*
D10*
G04 #@! TO.C,D22*
X97669201Y-33115112D03*
X97267033Y-36390514D03*
G04 #@! TD*
D23*
G04 #@! TO.C,D29*
X122430056Y-33102925D03*
X122832224Y-36378327D03*
G04 #@! TD*
D18*
G04 #@! TO.C,SW14*
X61110657Y-31471331D03*
X59648225Y-43381885D03*
X73715993Y-33019071D03*
X72253561Y-44929625D03*
D19*
X63877790Y-40526052D03*
X68840521Y-41135399D03*
G04 #@! TD*
D18*
G04 #@! TO.C,SW33*
X73840384Y-67289679D03*
X72377952Y-79200233D03*
X86445720Y-68837419D03*
X84983288Y-80747973D03*
D19*
X76607517Y-76344400D03*
X81570248Y-76953747D03*
G04 #@! TD*
D39*
G04 #@! TO.C,U3*
X96225000Y-50350000D03*
X96225000Y-51300000D03*
X96225000Y-52250000D03*
X98500000Y-52250000D03*
X98500000Y-50350000D03*
G04 #@! TD*
D10*
G04 #@! TO.C,D15*
X106920886Y-26154000D03*
X106518718Y-29429402D03*
G04 #@! TD*
M02*
